<svg width="41" height="45" viewBox="0 0 41 45" fill="none" xmlns="http://www.w3.org/2000/svg">
<g clip-path="url(#clip0_849_17369)">
<path d="M28.8492 29.3693L14.52 10.0804L8.25006 24.4617L0.902877 29.8727C0.662251 30.0499 0.459423 30.2731 0.306221 30.5293C0.15302 30.7855 0.0525107 31.0696 0.0105548 31.3649C-0.031401 31.6602 -0.0139639 31.9609 0.0618494 32.2495C0.137663 32.538 0.270335 32.8086 0.45213 33.0455L2.70587 36.0791C2.88159 36.3211 3.10395 36.5257 3.35993 36.681C3.61592 36.8362 3.90038 36.939 4.1967 36.9834C4.49301 37.0278 4.79522 37.0128 5.08565 36.9393C5.37608 36.8658 5.6489 36.7353 5.88815 36.5555L6.51919 36.106L13.1317 45.018L18.9328 40.7126L12.3203 31.8051L13.2218 31.149L28.8492 29.3693Z" fill="#A7D8B6"/>
<path d="M33.6111 9.71091L23.1953 17.3983L24.3538 18.9587L34.7697 11.2714L33.6111 9.71091Z" fill="#A7D8B6"/>
<path d="M24.7173 0.862878L23.0495 0L18.5781 12.7814L20.2414 13.6443L24.7173 0.862878Z" fill="#A7D8B6"/>
<path d="M27.4357 24.7089L41.0032 24.1786L40.6606 22.3405L27.0977 22.8708L27.4357 24.7089Z" fill="#A7D8B6"/>
</g>
<defs>
<clipPath id="clip0_849_17369">
<rect width="41" height="45" fill="white"/>
</clipPath>
</defs>
</svg>
