<svg width="49" height="40" viewBox="0 0 49 40" fill="none" xmlns="http://www.w3.org/2000/svg">
<g clip-path="url(#clip0_417_7282)">
<path d="M41.8651 5.34565C37.4481 1.78188 31.7294 0 24.7089 0C17.1168 0 11.1832 1.89053 6.90829 5.6716C4.83981 7.44634 3.19242 9.65492 2.08462 12.1385C0.976806 14.6221 0.436097 17.319 0.501373 20.0353C0.501373 26.1017 2.73715 30.9457 7.2087 34.5674C11.6803 38.1891 17.4645 40 24.5615 40C31.6038 40 37.3534 38.1421 41.8104 34.4262C46.2674 30.7103 48.4977 25.7721 48.5014 19.6116C48.5014 13.6611 46.2893 8.90579 41.8651 5.34565ZM41.4663 18.1068H37.0967C36.4105 12.8313 34.0979 7.89682 30.4768 3.98207C37.6903 5.44162 41.3534 10.1498 41.4663 18.1068ZM26.2547 5.10118C30.009 8.51961 32.4838 13.1055 33.2733 18.1068H26.2547V5.10118ZM22.7481 5.10118V18.1068H15.7403C16.5298 13.1079 19.0002 8.5231 22.7481 5.10118ZM22.7481 21.8932V36.4417C22.333 36.4417 21.9233 36.3928 21.5246 36.3547C20.0772 34.7956 15.7458 29.4988 15.5164 21.8932H22.7481ZM26.2547 21.8932H33.4973C33.2733 29.5206 28.9037 34.8228 27.4672 36.3982C27.074 36.4308 26.6643 36.4525 26.2547 36.4743V21.8932ZM18.1873 4.34605C14.7493 8.20236 12.5536 12.9959 11.8842 18.1068H7.65659C8.26469 10.7076 11.7749 6.12069 18.1873 4.34605ZM7.60197 21.8932H11.7039C11.8732 26.5517 13.2852 31.0816 15.795 35.0183C10.6534 32.9177 7.9224 28.5427 7.60197 21.8932ZM33.0931 35.2411C35.6811 31.2505 37.138 26.6389 37.3097 21.8932H41.3189C40.9292 26.9202 39.6548 30.4948 37.4955 32.6171C36.2399 33.8032 34.7367 34.6992 33.0931 35.2411Z" fill="#A7D8B6"/>
</g>
<defs>
<clipPath id="clip0_417_7282">
<rect width="48" height="40" fill="white" transform="translate(0.5)"/>
</clipPath>
</defs>
</svg>
