<svg width="45" height="39" viewBox="0 0 45 39" fill="none" xmlns="http://www.w3.org/2000/svg">
<g clip-path="url(#clip0_890_20120)">
<path d="M44.9984 5.51603C44.9984 5.43934 44.9593 5.36264 44.9332 5.28594C44.1381 2.61436 41.7724 1.87936 39.6544 3.64337L23.9093 16.6561L23.5313 16.343C22.4526 15.4261 21.5717 14.3069 20.9405 13.0512C20.3093 11.7955 19.9405 10.4288 19.8557 9.03127C19.8259 8.61836 19.765 8.20819 19.6732 7.80413C19.3083 6.046 18.4556 4.42078 17.2091 3.10751C15.9625 1.79424 14.3706 0.843885 12.6086 0.361139C10.8466 -0.121608 8.98289 -0.11801 7.22284 0.371536C5.46278 0.861082 3.87466 1.81758 2.63343 3.13565C1.3922 4.45372 0.546026 6.08222 0.188128 7.84175C-0.169771 9.60128 -0.0255045 11.4235 0.605034 13.1078C1.23557 14.7921 2.32791 16.273 3.76172 17.3873C5.19552 18.5017 6.91515 19.2064 8.73116 19.4236C9.13096 19.4744 9.53367 19.5 9.93681 19.5003C9.59793 19.5003 9.28511 19.5003 8.92667 19.545C6.36871 19.8201 4.01903 21.0568 2.37141 22.9954C0.723779 24.9339 -0.0935177 27.4233 0.091261 29.9405C0.27604 32.4576 1.44851 34.8066 3.36228 36.4937C5.27606 38.1807 7.78214 39.0746 10.3539 38.9875C12.483 38.8792 14.5217 38.1091 16.1749 36.7889C17.8281 35.4686 19.0099 33.6667 19.5494 31.6439C19.6629 31.2244 19.7435 30.7971 19.7905 30.3656C20.0909 27.5834 21.4556 25.0163 23.6095 23.1817L23.8897 22.9516L39.6544 35.9772C41.7724 37.7348 44.1381 36.9998 44.9332 34.3282C44.9332 34.2515 44.9788 34.1748 44.9984 34.0981L27.7152 19.8135L44.9984 5.51603ZM4.78185 8.88427C4.94912 7.96422 5.3703 7.10672 5.99964 6.40497C6.62898 5.70321 7.44239 5.18403 8.3515 4.90385C9.2606 4.62368 10.2306 4.59321 11.1561 4.81578C12.0817 5.03834 12.9273 5.50542 13.6011 6.16625C14.2749 6.82709 14.7512 7.6564 14.9781 8.56407C15.2051 9.47174 15.174 10.4231 14.8883 11.3146C14.6026 12.2062 14.0733 13.0039 13.3577 13.6211C12.6421 14.2383 11.7678 14.6514 10.8296 14.8154C10.0029 14.96 9.15269 14.9066 8.3515 14.6596C7.5503 14.4127 6.82179 13.9796 6.22794 13.3972C5.6341 12.8148 5.1925 12.1004 4.94072 11.3146C4.68894 10.5289 4.63444 9.69512 4.78185 8.88427ZM15.1048 30.1163C14.9375 31.0364 14.5164 31.8939 13.887 32.5956C13.2577 33.2974 12.4443 33.8166 11.5352 34.0967C10.6261 34.3769 9.65604 34.4074 8.73052 34.1848C7.805 33.9623 6.95938 33.4952 6.28555 32.8343C5.61172 32.1735 5.13546 31.3442 4.90852 30.4365C4.68158 29.5289 4.71264 28.5775 4.99833 27.686C5.28402 26.7944 5.8134 25.9967 6.52896 25.3795C7.24452 24.7623 8.11887 24.3492 9.05701 24.1852C9.8838 24.0406 10.734 24.094 11.5352 24.341C12.3364 24.5879 13.0649 25.021 13.6587 25.6034C14.2526 26.1858 14.6942 26.9002 14.9459 27.686C15.1977 28.4717 15.2522 29.3055 15.1048 30.1163ZM16.6819 21.0342C15.8546 21.031 15.0389 20.843 14.2967 20.4846C12.946 19.8345 11.4609 19.4978 9.95636 19.5003C11.252 19.5022 12.5349 19.2501 13.7297 18.7589C14.7878 18.3467 15.941 18.2271 17.0636 18.413C18.1863 18.599 19.2354 19.0834 20.0968 19.8135C19.1432 20.6065 17.9322 21.0394 16.6819 21.0342ZM23.8506 20.8361C23.5813 20.8361 23.3179 20.7577 23.0939 20.611C22.8699 20.4642 22.6954 20.2556 22.5923 20.0115C22.4892 19.7674 22.4622 19.4988 22.5148 19.2397C22.5673 18.9806 22.697 18.7426 22.8875 18.5558C23.078 18.3689 23.3207 18.2417 23.5849 18.1902C23.8491 18.1386 24.123 18.1651 24.3719 18.2662C24.6208 18.3673 24.8335 18.5385 24.9832 18.7582C25.1328 18.9778 25.2127 19.2361 25.2127 19.5003C25.211 19.8519 25.0688 20.1887 24.8165 20.4385C24.5642 20.6883 24.2221 20.8311 23.8637 20.8361H23.8506Z" fill="#A7D8B6"/>
</g>
<defs>
<clipPath id="clip0_890_20120">
<rect width="45" height="39" fill="white" transform="translate(0 0.000244141)"/>
</clipPath>
</defs>
</svg>
