<svg width="55" height="35" viewBox="0 0 55 35" fill="none" xmlns="http://www.w3.org/2000/svg">
<g clip-path="url(#clip0_849_17022)">
<path d="M45.2011 0H9.79888C7.33307 0.00136095 4.96864 1.00079 3.22505 2.7787C1.48146 4.55662 0.501335 6.9676 0.5 9.48195L0.5 25.5181C0.501335 28.0324 1.48146 30.4434 3.22505 32.2213C4.96864 33.9992 7.33307 34.9986 9.79888 35H45.2011C47.6669 34.9986 50.0314 33.9992 51.775 32.2213C53.5185 30.4434 54.4987 28.0324 54.5 25.5181V9.48195C54.4987 6.9676 53.5185 4.55662 51.775 2.7787C50.0314 1.00079 47.6669 0.00136095 45.2011 0ZM36.1743 18.4913L24.4726 25.3999C24.1377 25.6013 23.7564 25.7087 23.3676 25.7111C22.9788 25.7135 22.5963 25.6108 22.259 25.4136C21.9217 25.2163 21.6417 24.9315 21.4474 24.588C21.2532 24.2446 21.1516 23.8548 21.153 23.4583V9.672C21.1536 9.27856 21.2557 8.8922 21.4489 8.55165C21.6422 8.21111 21.9198 7.92833 22.254 7.73168C22.5882 7.53502 22.9672 7.43138 23.353 7.43116C23.7389 7.43094 24.118 7.53414 24.4524 7.73041L36.1743 14.6236C36.5056 14.8209 36.7804 15.1032 36.9714 15.4425C37.1624 15.7818 37.263 16.1662 37.263 16.5575C37.263 16.9487 37.1624 17.3331 36.9714 17.6724C36.7804 18.0117 36.5056 18.294 36.1743 18.4913Z" fill="#A7D8B6"/>
</g>
<defs>
<clipPath id="clip0_849_17022">
<rect width="54" height="35" fill="white" transform="translate(0.5)"/>
</clipPath>
</defs>
</svg>
