<svg width="48" height="48" viewBox="0 0 48 48" fill="none" xmlns="http://www.w3.org/2000/svg">
<g clip-path="url(#clip0_417_7363)">
<path d="M43.4871 24.6211L48 22.6609C47.6589 20.2699 47.6944 20.5068 47.3604 18.1373L42.4779 17.527C41.7673 15.9258 41.5398 15.4663 40.8149 13.8579L43.5582 9.73643C41.9947 7.90546 42.1368 8.10651 40.5946 6.28272L36.167 8.4368L32.8055 6.28272L32.9049 1.29245C30.6165 0.603141 30.8653 0.674944 28.5697 0L25.997 4.23635H22.0314L19.4303 0C17.1347 0.674944 17.3835 0.603141 15.0879 1.29245L15.1946 6.254L11.8259 8.40808L7.39828 6.254L4.43471 9.73643L7.17797 13.8579L5.52206 17.527L0.639621 18.1373C0.305597 20.5212 0.334024 20.2914 0 22.6609L4.51288 24.6211C4.76162 26.3803 4.83269 26.8757 5.08143 28.6205L1.30056 31.7942C2.29553 33.9913 2.18182 33.7544 3.17678 35.9587L8.02369 35.1832L10.6603 38.199L9.17501 42.9379C11.1934 44.2375 10.9731 44.0939 12.9843 45.4079L16.6301 42.0763L20.4608 43.2108L21.7471 48H26.2955L27.5748 43.2108L31.4125 42.0763L35.0512 45.4079L38.8605 42.9379L37.3823 38.199L39.9692 35.1832L44.8232 35.9946C45.8182 33.7903 45.7045 34.0272 46.6994 31.8301L42.9186 28.6564C43.1673 26.8757 43.2384 26.3803 43.4871 24.6211ZM24 34.9248C21.8607 34.9233 19.7698 34.281 17.9918 33.079C16.2137 31.877 14.8285 30.1693 14.0111 28.1719C13.1937 26.1744 12.9809 23.977 13.3996 21.8574C13.8184 19.7377 14.8498 17.7912 16.3636 16.2638C17.8773 14.7365 19.8053 13.6969 21.9038 13.2767C24.0024 12.8564 26.1771 13.0742 28.153 13.9027C30.129 14.7311 31.8174 16.133 33.0048 17.9309C34.1922 19.7289 34.8252 21.8422 34.8238 24.0036C34.8247 25.4393 34.5453 26.861 34.0015 28.1874C33.4577 29.5138 32.6603 30.7187 31.6548 31.7332C30.6494 32.7477 29.4557 33.5518 28.1421 34.0995C26.8286 34.6471 25.421 34.9276 24 34.9248Z" fill="#A7D8B6"/>
</g>
<defs>
<clipPath id="clip0_417_7363">
<rect width="48" height="48" fill="white"/>
</clipPath>
</defs>
</svg>
