<svg width="49" height="44" viewBox="0 0 49 44" fill="none" xmlns="http://www.w3.org/2000/svg">
<g clip-path="url(#clip0_417_7362)">
<path d="M37.1936 11.3663C34.955 12.1817 29.0676 14.3213 28.9535 18.1101C28.8935 20.0719 30.3939 22.0092 32.3924 23.3028C31.5449 24.5882 30.8156 25.9509 30.2139 27.3736C29.3448 29.4104 28.7648 31.5636 28.4914 33.7679C28.5067 30.9048 28.0855 28.0567 27.2431 25.3259C26.5907 23.2268 25.7132 21.2077 24.6265 19.3056C26.2349 17.5706 27.2371 15.5474 27.2431 13.6837C27.2431 7.74307 16.9985 1.17096 0.980543 0C-0.0680501 4.64107 0.598794 9.51427 2.85301 13.6837C4.32338 16.3996 8.18834 23.4928 15.0481 23.6645C17.5507 23.6538 19.9942 22.8858 22.0698 21.4574C23.2354 23.7173 24.082 26.1342 24.5844 28.6365C25.5739 33.7905 25.0283 39.1291 23.0181 43.9632H31.7742C30.7351 39.3975 30.8966 34.6322 32.2424 30.1508C32.8555 28.1531 33.6827 26.2307 34.709 24.4186C35.5141 24.6948 36.3564 24.8416 37.2056 24.8538C42.1148 24.8538 47.5462 19.1891 48.5124 10.3302C44.7125 9.75236 40.8324 10.1075 37.1936 11.3663Z" fill="#A7D8B6"/>
</g>
<defs>
<clipPath id="clip0_417_7362">
<rect width="48" height="44" fill="white" transform="translate(0.5)"/>
</clipPath>
</defs>
</svg>
