<svg width="36" height="36" fill="none" version="1.1" viewBox="0 0 36 36" xmlns="http://www.w3.org/2000/svg">
    <style>
        .hidden {display: none; fill: none}
        .gray-fill {fill: #7d7d7d}
        .green-fill {fill: #7fc394}
        :target {display: block;}
    </style>
    <g id="icon-1" class="hidden gray-fill" transform="translate(2.5003 1.7221)">
        <path d="m10.594 25.661c-1.638 0-3.1743-0.6342-4.326-1.7859l-5.1195-5.1195c-0.4686-0.4689-0.4686-1.2285 0-1.6971 0.4689-0.4686 1.2288-0.4683 1.6971 0l5.1195 5.1195c1.4496 1.4499 3.8085 1.4499 5.2578 0l14.931-14.931c0.4689-0.4686 1.2288-0.4683 1.6971 0 0.4686 0.4689 0.4686 1.2285 0 1.6971l-14.931 14.931c-1.1517 1.1517-2.688 1.7859-4.326 1.7859z"/>
    </g>
    <g id="icon-1-green" class="hidden green-fill" transform="translate(2.5003 1.7221)">
        <path d="m10.594 25.661c-1.638 0-3.1743-0.6342-4.326-1.7859l-5.1195-5.1195c-0.4686-0.4689-0.4686-1.2285 0-1.6971 0.4689-0.4686 1.2288-0.4683 1.6971 0l5.1195 5.1195c1.4496 1.4499 3.8085 1.4499 5.2578 0l14.931-14.931c0.4689-0.4686 1.2288-0.4683 1.6971 0 0.4686 0.4689 0.4686 1.2285 0 1.6971l-14.931 14.931c-1.1517 1.1517-2.688 1.7859-4.326 1.7859z"/>
    </g>

    <g id="icon-2" class="hidden gray-fill" transform="translate(2.5,3)">
        <path d="m18.006 26.875h-12.506c-0.8285-1e-3 -1.6228-0.3305-2.2086-0.9164-0.58584-0.5858-0.9154-1.3801-0.91639-2.2086v-18.75c9.9e-4 -0.8285 0.33055-1.6228 0.91639-2.2086 0.58583-0.58584 1.3801-0.9154 2.2086-0.91639h17.5c0.8285 9.9e-4 1.6228 0.33055 2.2086 0.91639 0.5858 0.58583 0.9154 1.3801 0.9164 2.2086v11.256c0 0.1657-0.0658 0.3247-0.1831 0.4419-0.1172 0.1172-0.2761 0.1831-0.4419 0.1831s-0.3247-0.0659-0.4419-0.1831c-0.1173-0.1172-0.1831-0.2762-0.1831-0.4419v-11.256c0-0.49728-0.1975-0.97419-0.5492-1.3258-0.3516-0.35164-0.8285-0.54918-1.3258-0.54918h-17.5c-0.49728 0-0.97419 0.19754-1.3258 0.54918-0.35163 0.35163-0.54917 0.82854-0.54917 1.3258v18.75c0 0.4973 0.19754 0.9742 0.54917 1.3258 0.35164 0.3517 0.82855 0.5492 1.3258 0.5492h12.506c0.1657 0 0.3247 0.0658 0.4419 0.1831 0.1172 0.1172 0.1831 0.2761 0.1831 0.4419s-0.0659 0.3247-0.1831 0.4419c-0.1172 0.1173-0.2762 0.1831-0.4419 0.1831z"/>
        <path d="m14.25 11.875c-0.2589-0.0359-0.5072-0.1262-0.7288-0.2648-0.2215-0.1386-0.4113-0.3225-0.5568-0.5396-0.3125-0.3419-0.64-0.6956-0.9663-0.6956-0.0931 0-0.1875 0.0319-0.4375 0.4237-0.1435 0.2302-0.3579 0.4073-0.611 0.5049-0.253 0.0975-0.5309 0.1102-0.7917 0.0359-0.26085-0.0742-0.49047-0.2312-0.65424-0.4474-0.16376-0.2161-0.2528-0.4797-0.25366-0.7509v-7.6412c0-0.16576 0.06585-0.32473 0.18306-0.44194s0.27618-0.18306 0.44194-0.18306h8.75c0.1658 0 0.3247 0.06585 0.4419 0.18306 0.1173 0.11721 0.1831 0.27618 0.1831 0.44194v7.8356c1e-4 0.2619-0.082 0.5172-0.2348 0.7299-0.1527 0.2127-0.3684 0.372-0.6167 0.4555-0.2482 0.0835-0.5163 0.087-0.7666 0.0099-0.2503-0.0772-0.47-0.2309-0.6282-0.4396l-0.0662-0.0913c-0.2931-0.3894-0.4856-0.625-0.6912-0.625-0.2675 0-0.4794 0.2563-0.7719 0.6469-0.1211 0.2296-0.2955 0.427-0.5085 0.5754s-0.4585 0.2437-0.7159 0.2777zm-2.25-2.75c0.3745 0.03864 0.7364 0.15668 1.0617 0.34625 0.3253 0.18958 0.6064 0.44633 0.8245 0.75315 0.1095 0.1234 0.2253 0.241 0.3469 0.3525 0.0738-0.0806 0.1706-0.21 0.2407-0.3038 0.1794-0.32108 0.4346-0.59351 0.7433-0.7936 0.3086-0.20009 0.6615-0.32178 1.0279-0.3545 0.3512 0.03736 0.6881 0.1592 0.982 0.35512 0.2939 0.19591 0.5359 0.46006 0.7055 0.76988l0.0625 0.0863v-7.2113h-7.495v7.0263c0.1341-0.29058 0.3444-0.53938 0.6085-0.72006 0.264-0.18068 0.5721-0.28651 0.8915-0.30624z"/>
        <path d="m21.125 23.75c-0.1657 0-0.3247-0.0659-0.4418-0.1831l-1.875-1.875c-0.1139-0.1179-0.1769-0.2758-0.1755-0.4396 0.0015-0.1639 0.0672-0.3207 0.1831-0.4366 0.1159-0.1158 0.2726-0.1816 0.4365-0.183s0.3217 0.0616 0.4396 0.1754l1.3913 1.3913 2.6875-3.2244c0.0518-0.0653 0.1161-0.1195 0.1892-0.1596s0.1534-0.0651 0.2363-0.0736c0.0829-0.0086 0.1667-4e-4 0.2464 0.0239s0.1538 0.0643 0.2178 0.1176c0.064 0.0534 0.1167 0.119 0.155 0.193 0.0383 0.0741 0.0614 0.155 0.0679 0.2381 0.0066 0.0831-0.0036 0.1666-0.0298 0.2457s-0.068 0.1522-0.1228 0.2149l-3.125 3.75c-0.0556 0.0668-0.1245 0.1212-0.2023 0.1598s-0.1628 0.0606-0.2496 0.0646z"/>
        <path d="m11.125 20.625h-4.375c-0.16576 0-0.32473-0.0658-0.44194-0.1831-0.11721-0.1172-0.18306-0.2761-0.18306-0.4419s0.06585-0.3247 0.18306-0.4419c0.11721-0.1173 0.27618-0.1831 0.44194-0.1831h4.375c0.1658 0 0.3247 0.0658 0.4419 0.1831 0.1173 0.1172 0.1831 0.2761 0.1831 0.4419s-0.0658 0.3247-0.1831 0.4419c-0.1172 0.1173-0.2761 0.1831-0.4419 0.1831z"/>
        <path d="m11.125 23.125h-4.375c-0.16576 0-0.32473-0.0658-0.44194-0.1831-0.11721-0.1172-0.18306-0.2761-0.18306-0.4419s0.06585-0.3247 0.18306-0.4419c0.11721-0.1173 0.27618-0.1831 0.44194-0.1831h4.375c0.1658 0 0.3247 0.0658 0.4419 0.1831 0.1173 0.1172 0.1831 0.2761 0.1831 0.4419s-0.0658 0.3247-0.1831 0.4419c-0.1172 0.1173-0.2761 0.1831-0.4419 0.1831z"/>
        <path d="m21.75 28.125c-1.3597 0-2.689-0.4032-3.8195-1.1586-1.1306-0.7555-2.0118-1.8292-2.5322-3.0854-0.5203-1.2563-0.6565-2.6386-0.3912-3.9722 0.2653-1.3337 0.9201-2.5587 1.8815-3.5202 0.9615-0.9614 2.1865-1.6162 3.5202-1.8815 1.3336-0.2653 2.7159-0.1291 3.9722 0.3912 1.2562 0.5204 2.3299 1.4016 3.0854 2.5322 0.7554 1.1305 1.1586 2.4598 1.1586 3.8195-0.0021 1.8227-0.7272 3.5701-2.016 4.859-1.2889 1.2888-3.0363 2.0139-4.859 2.016zm0-12.5c-1.1125 0-2.2001 0.3299-3.1251 0.948s-1.646 1.4966-2.0717 2.5244c-0.4258 1.0278-0.5372 2.1588-0.3201 3.25 0.217 1.0911 0.7528 2.0934 1.5394 2.8801 0.7867 0.7866 1.789 1.3224 2.8801 1.5394 1.0912 0.2171 2.2222 0.1057 3.25-0.3201 1.0278-0.4257 1.9063-1.1467 2.5244-2.0717s0.948-2.0126 0.948-3.1251c-0.0018-1.4913-0.595-2.921-1.6495-3.9755s-2.4842-1.6477-3.9755-1.6495z"/>
    </g>
    <g id="icon-2-green" class="hidden green-fill" transform="translate(2.5,3)">
        <path d="m18.006 26.875h-12.506c-0.8285-1e-3 -1.6228-0.3305-2.2086-0.9164-0.58584-0.5858-0.9154-1.3801-0.91639-2.2086v-18.75c9.9e-4 -0.8285 0.33055-1.6228 0.91639-2.2086 0.58583-0.58584 1.3801-0.9154 2.2086-0.91639h17.5c0.8285 9.9e-4 1.6228 0.33055 2.2086 0.91639 0.5858 0.58583 0.9154 1.3801 0.9164 2.2086v11.256c0 0.1657-0.0658 0.3247-0.1831 0.4419-0.1172 0.1172-0.2761 0.1831-0.4419 0.1831s-0.3247-0.0659-0.4419-0.1831c-0.1173-0.1172-0.1831-0.2762-0.1831-0.4419v-11.256c0-0.49728-0.1975-0.97419-0.5492-1.3258-0.3516-0.35164-0.8285-0.54918-1.3258-0.54918h-17.5c-0.49728 0-0.97419 0.19754-1.3258 0.54918-0.35163 0.35163-0.54917 0.82854-0.54917 1.3258v18.75c0 0.4973 0.19754 0.9742 0.54917 1.3258 0.35164 0.3517 0.82855 0.5492 1.3258 0.5492h12.506c0.1657 0 0.3247 0.0658 0.4419 0.1831 0.1172 0.1172 0.1831 0.2761 0.1831 0.4419s-0.0659 0.3247-0.1831 0.4419c-0.1172 0.1173-0.2762 0.1831-0.4419 0.1831z"/>
        <path d="m14.25 11.875c-0.2589-0.0359-0.5072-0.1262-0.7288-0.2648-0.2215-0.1386-0.4113-0.3225-0.5568-0.5396-0.3125-0.3419-0.64-0.6956-0.9663-0.6956-0.0931 0-0.1875 0.0319-0.4375 0.4237-0.1435 0.2302-0.3579 0.4073-0.611 0.5049-0.253 0.0975-0.5309 0.1102-0.7917 0.0359-0.26085-0.0742-0.49047-0.2312-0.65424-0.4474-0.16376-0.2161-0.2528-0.4797-0.25366-0.7509v-7.6412c0-0.16576 0.06585-0.32473 0.18306-0.44194s0.27618-0.18306 0.44194-0.18306h8.75c0.1658 0 0.3247 0.06585 0.4419 0.18306 0.1173 0.11721 0.1831 0.27618 0.1831 0.44194v7.8356c1e-4 0.2619-0.082 0.5172-0.2348 0.7299-0.1527 0.2127-0.3684 0.372-0.6167 0.4555-0.2482 0.0835-0.5163 0.087-0.7666 0.0099-0.2503-0.0772-0.47-0.2309-0.6282-0.4396l-0.0662-0.0913c-0.2931-0.3894-0.4856-0.625-0.6912-0.625-0.2675 0-0.4794 0.2563-0.7719 0.6469-0.1211 0.2296-0.2955 0.427-0.5085 0.5754s-0.4585 0.2437-0.7159 0.2777zm-2.25-2.75c0.3745 0.03864 0.7364 0.15668 1.0617 0.34625 0.3253 0.18958 0.6064 0.44633 0.8245 0.75315 0.1095 0.1234 0.2253 0.241 0.3469 0.3525 0.0738-0.0806 0.1706-0.21 0.2407-0.3038 0.1794-0.32108 0.4346-0.59351 0.7433-0.7936 0.3086-0.20009 0.6615-0.32178 1.0279-0.3545 0.3512 0.03736 0.6881 0.1592 0.982 0.35512 0.2939 0.19591 0.5359 0.46006 0.7055 0.76988l0.0625 0.0863v-7.2113h-7.495v7.0263c0.1341-0.29058 0.3444-0.53938 0.6085-0.72006 0.264-0.18068 0.5721-0.28651 0.8915-0.30624z"/>
        <path d="m21.125 23.75c-0.1657 0-0.3247-0.0659-0.4418-0.1831l-1.875-1.875c-0.1139-0.1179-0.1769-0.2758-0.1755-0.4396 0.0015-0.1639 0.0672-0.3207 0.1831-0.4366 0.1159-0.1158 0.2726-0.1816 0.4365-0.183s0.3217 0.0616 0.4396 0.1754l1.3913 1.3913 2.6875-3.2244c0.0518-0.0653 0.1161-0.1195 0.1892-0.1596s0.1534-0.0651 0.2363-0.0736c0.0829-0.0086 0.1667-4e-4 0.2464 0.0239s0.1538 0.0643 0.2178 0.1176c0.064 0.0534 0.1167 0.119 0.155 0.193 0.0383 0.0741 0.0614 0.155 0.0679 0.2381 0.0066 0.0831-0.0036 0.1666-0.0298 0.2457s-0.068 0.1522-0.1228 0.2149l-3.125 3.75c-0.0556 0.0668-0.1245 0.1212-0.2023 0.1598s-0.1628 0.0606-0.2496 0.0646z"/>
        <path d="m11.125 20.625h-4.375c-0.16576 0-0.32473-0.0658-0.44194-0.1831-0.11721-0.1172-0.18306-0.2761-0.18306-0.4419s0.06585-0.3247 0.18306-0.4419c0.11721-0.1173 0.27618-0.1831 0.44194-0.1831h4.375c0.1658 0 0.3247 0.0658 0.4419 0.1831 0.1173 0.1172 0.1831 0.2761 0.1831 0.4419s-0.0658 0.3247-0.1831 0.4419c-0.1172 0.1173-0.2761 0.1831-0.4419 0.1831z"/>
        <path d="m11.125 23.125h-4.375c-0.16576 0-0.32473-0.0658-0.44194-0.1831-0.11721-0.1172-0.18306-0.2761-0.18306-0.4419s0.06585-0.3247 0.18306-0.4419c0.11721-0.1173 0.27618-0.1831 0.44194-0.1831h4.375c0.1658 0 0.3247 0.0658 0.4419 0.1831 0.1173 0.1172 0.1831 0.2761 0.1831 0.4419s-0.0658 0.3247-0.1831 0.4419c-0.1172 0.1173-0.2761 0.1831-0.4419 0.1831z"/>
        <path d="m21.75 28.125c-1.3597 0-2.689-0.4032-3.8195-1.1586-1.1306-0.7555-2.0118-1.8292-2.5322-3.0854-0.5203-1.2563-0.6565-2.6386-0.3912-3.9722 0.2653-1.3337 0.9201-2.5587 1.8815-3.5202 0.9615-0.9614 2.1865-1.6162 3.5202-1.8815 1.3336-0.2653 2.7159-0.1291 3.9722 0.3912 1.2562 0.5204 2.3299 1.4016 3.0854 2.5322 0.7554 1.1305 1.1586 2.4598 1.1586 3.8195-0.0021 1.8227-0.7272 3.5701-2.016 4.859-1.2889 1.2888-3.0363 2.0139-4.859 2.016zm0-12.5c-1.1125 0-2.2001 0.3299-3.1251 0.948s-1.646 1.4966-2.0717 2.5244c-0.4258 1.0278-0.5372 2.1588-0.3201 3.25 0.217 1.0911 0.7528 2.0934 1.5394 2.8801 0.7867 0.7866 1.789 1.3224 2.8801 1.5394 1.0912 0.2171 2.2222 0.1057 3.25-0.3201 1.0278-0.4257 1.9063-1.1467 2.5244-2.0717s0.948-2.0126 0.948-3.1251c-0.0018-1.4913-0.595-2.921-1.6495-3.9755s-2.4842-1.6477-3.9755-1.6495z"/>
    </g>

    <g id="icon-3" class="hidden gray-fill" transform="translate(2.4996 3)">
        <path d="m28.272 7.7295c-0.0011-0.01611-0.0039-0.03222-0.0067-0.04889-0.0102-0.06375-0.0314-0.12521-0.0628-0.18166v-0.00389c0-0.00389-0.0061-0.00611-0.0089-0.01-0.0326-0.05111-0.0735-0.09632-0.1211-0.13389-0.0117-0.01021-0.0239-0.01986-0.0366-0.02889-0.01-0.00722-0.0184-0.01611-0.0289-0.02278l-12.222-7.2222c-0.1744-0.10312-0.3912-0.10312-0.5655 0l-12.222 7.2222c-0.16972 0.09958-0.27417 0.28153-0.27444 0.47833v14.444c-7e-5 0.1965 0.10368 0.3784 0.27277 0.4784l12.222 7.2222c0.0143 0.0069 0.029 0.013 0.0439 0.0183 0.0161 0.0078 0.0317 0.0144 0.0483 0.0205 0.1219 0.0512 0.2593 0.0512 0.3811 0 0.0167-0.0061 0.0323-0.0127 0.0484-0.0205 0.0149-0.0053 0.0295-0.0114 0.0439-0.0183l12.222-7.2222c0.1691-0.1 0.2729-0.2819 0.2728-0.4784v-14.444c0-0.01666-5e-3 -0.03222-0.0061-0.04833zm-16.753-4.1761 4.81 2.8422c0.2607 0.1618 0.6032 0.08166 0.765-0.17896 0.1618-0.26069 0.0817-0.60319-0.179-0.765-0.0067-0.00416-0.0135-0.00819-0.0204-0.01208l-4.2828-2.5311 2.8889-1.7072 11.13 6.5766-2.8889 1.7072-5.1799-3.0611c-0.2642-0.15618-0.605-0.06861-0.7611 0.19555-0.1562 0.26417-0.0686 0.60493 0.1955 0.76111l4.6533 2.75-2.8888 1.7072-11.131-6.5766zm11.667 7.5506v3.7099l-2.8699 1.6961v-3.7099zm3.9817 10.801-11.111 6.5655v-1.8038c0-0.3068-0.2487-0.5556-0.5555-0.5556s-0.5556 0.2488-0.5556 0.5556v1.8038l-11.111-6.5655v-13.81l3.7039-2.1889 11.129 6.5772-3.1666 1.8711-10.059-5.9444c-0.26416-0.15618-0.60493-0.06861-0.76111 0.19556-0.15617 0.26416-0.06861 0.60493 0.19556 0.7611l10.069 5.9506v9.1272c0 0.3068 0.2488 0.5555 0.5556 0.5555s0.5555-0.2487 0.5555-0.5555v-9.1272l3.1483-1.8606v4.0267c0 0.3068 0.2487 0.5556 0.5555 0.5557 0.0995 0 0.1972-0.0267 0.2829-0.0774l3.9811-2.3505c0.1691-0.1 0.2728-0.2819 0.2727-0.4784v-4.6849l2.8706-1.6967z"/>
        <path d="m5.5009 18.334c-0.30681 0-0.55556 0.2487-0.55556 0.5555v2.2223c0 0.3068 0.24875 0.5555 0.55556 0.5555 0.3068 0 0.55555-0.2487 0.55555-0.5555v-2.2223c0-0.3068-0.24875-0.5555-0.55555-0.5555z"/>
        <path d="m7.7216 19.444c-0.30681 0-0.55555 0.2488-0.55555 0.5556v2.2222c0 0.3068 0.24874 0.5556 0.55555 0.5556 0.3068 0 0.55555-0.2488 0.55555-0.5556v-2.2222c0-0.3068-0.24875-0.5556-0.55555-0.5556z"/>
    </g>
    <g id="icon-3-green" class="hidden green-fill" transform="translate(2.4996 3)">
        <path d="m28.272 7.7295c-0.0011-0.01611-0.0039-0.03222-0.0067-0.04889-0.0102-0.06375-0.0314-0.12521-0.0628-0.18166v-0.00389c0-0.00389-0.0061-0.00611-0.0089-0.01-0.0326-0.05111-0.0735-0.09632-0.1211-0.13389-0.0117-0.01021-0.0239-0.01986-0.0366-0.02889-0.01-0.00722-0.0184-0.01611-0.0289-0.02278l-12.222-7.2222c-0.1744-0.10312-0.3912-0.10312-0.5655 0l-12.222 7.2222c-0.16972 0.09958-0.27417 0.28153-0.27444 0.47833v14.444c-7e-5 0.1965 0.10368 0.3784 0.27277 0.4784l12.222 7.2222c0.0143 0.0069 0.029 0.013 0.0439 0.0183 0.0161 0.0078 0.0317 0.0144 0.0483 0.0205 0.1219 0.0512 0.2593 0.0512 0.3811 0 0.0167-0.0061 0.0323-0.0127 0.0484-0.0205 0.0149-0.0053 0.0295-0.0114 0.0439-0.0183l12.222-7.2222c0.1691-0.1 0.2729-0.2819 0.2728-0.4784v-14.444c0-0.01666-5e-3 -0.03222-0.0061-0.04833zm-16.753-4.1761 4.81 2.8422c0.2607 0.1618 0.6032 0.08166 0.765-0.17896 0.1618-0.26069 0.0817-0.60319-0.179-0.765-0.0067-0.00416-0.0135-0.00819-0.0204-0.01208l-4.2828-2.5311 2.8889-1.7072 11.13 6.5766-2.8889 1.7072-5.1799-3.0611c-0.2642-0.15618-0.605-0.06861-0.7611 0.19555-0.1562 0.26417-0.0686 0.60493 0.1955 0.76111l4.6533 2.75-2.8888 1.7072-11.131-6.5766zm11.667 7.5506v3.7099l-2.8699 1.6961v-3.7099zm3.9817 10.801-11.111 6.5655v-1.8038c0-0.3068-0.2487-0.5556-0.5555-0.5556s-0.5556 0.2488-0.5556 0.5556v1.8038l-11.111-6.5655v-13.81l3.7039-2.1889 11.129 6.5772-3.1666 1.8711-10.059-5.9444c-0.26416-0.15618-0.60493-0.06861-0.76111 0.19556-0.15617 0.26416-0.06861 0.60493 0.19556 0.7611l10.069 5.9506v9.1272c0 0.3068 0.2488 0.5555 0.5556 0.5555s0.5555-0.2487 0.5555-0.5555v-9.1272l3.1483-1.8606v4.0267c0 0.3068 0.2487 0.5556 0.5555 0.5557 0.0995 0 0.1972-0.0267 0.2829-0.0774l3.9811-2.3505c0.1691-0.1 0.2728-0.2819 0.2727-0.4784v-4.6849l2.8706-1.6967z"/>
        <path d="m5.5009 18.334c-0.30681 0-0.55556 0.2487-0.55556 0.5555v2.2223c0 0.3068 0.24875 0.5555 0.55556 0.5555 0.3068 0 0.55555-0.2487 0.55555-0.5555v-2.2223c0-0.3068-0.24875-0.5555-0.55555-0.5555z"/>
        <path d="m7.7216 19.444c-0.30681 0-0.55555 0.2488-0.55555 0.5556v2.2222c0 0.3068 0.24874 0.5556 0.55555 0.5556 0.3068 0 0.55555-0.2488 0.55555-0.5556v-2.2222c0-0.3068-0.24875-0.5556-0.55555-0.5556z"/>
    </g>

    <g id="icon-4" class="hidden gray-fill">
        <path d="M31.4085 27.9659C30.7985 27.9663 30.202 27.7858 29.6945 27.4472C29.1871 27.1086 28.7914 26.6271 28.5577 26.0636C28.3239 25.5001 28.2625 24.88 28.3813 24.2816C28.5 23.6832 28.7935 23.1335 29.2248 22.7019C29.656 22.2704 30.2055 21.9765 30.8038 21.8573C31.4021 21.7381 32.0223 21.799 32.5859 22.0324C33.1496 22.2657 33.6314 22.661 33.9704 23.1682C34.3093 23.6755 34.4903 24.2718 34.4903 24.8819C34.4899 25.6993 34.1651 26.4831 33.5873 27.0613C33.0096 27.6395 32.2259 27.9649 31.4085 27.9659ZM31.4085 22.9229C31.021 22.9224 30.642 23.0369 30.3195 23.2519C29.9971 23.4669 29.7457 23.7727 29.597 24.1306C29.4484 24.4885 29.4093 24.8825 29.4846 25.2627C29.56 25.6428 29.7464 25.9921 30.0203 26.2663C30.2941 26.5405 30.6432 26.7273 31.0233 26.803C31.4033 26.8788 31.7973 26.8402 32.1554 26.6919C32.5135 26.5437 32.8196 26.2927 33.035 25.9704C33.2503 25.6482 33.3653 25.2694 33.3653 24.8819C33.3651 24.3627 33.1589 23.8649 32.7921 23.4976C32.4252 23.1304 31.9276 22.9236 31.4085 22.9229Z"/>
        <path d="M15.1573 27.9658C14.5472 27.9664 13.9507 27.7861 13.4431 27.4476C12.9356 27.109 12.5398 26.6276 12.3059 26.0641C12.0721 25.5007 12.0105 24.8805 12.1292 24.282C12.2479 23.6836 12.5413 23.1338 12.9725 22.7022C13.4037 22.2706 13.9532 21.9766 14.5516 21.8573C15.1499 21.7381 15.7701 21.799 16.3338 22.0323C16.8975 22.2657 17.3793 22.6609 17.7184 23.1682C18.0574 23.6754 18.2383 24.2718 18.2383 24.8819C18.2377 25.6991 17.913 26.4827 17.3354 27.0609C16.7578 27.639 15.9745 27.9645 15.1573 27.9658ZM15.1573 22.9229C14.7697 22.9223 14.3907 23.0366 14.0681 23.2515C13.7456 23.4664 13.494 23.7722 13.3453 24.1301C13.1966 24.488 13.1573 24.882 13.2326 25.2622C13.3078 25.6424 13.4942 25.9917 13.768 26.266C14.0419 26.5403 14.3909 26.7272 14.771 26.803C15.1511 26.8788 15.5452 26.8402 15.9033 26.692C16.2614 26.5438 16.5676 26.2927 16.783 25.9705C16.9983 25.6483 17.1133 25.2694 17.1133 24.8819C17.1129 24.3629 16.9068 23.8653 16.5402 23.4981C16.1735 23.1309 15.6762 22.924 15.1573 22.9229Z"/>
        <path d="M35.4663 25.4445H33.928C33.7788 25.4445 33.6358 25.3853 33.5303 25.2798C33.4248 25.1743 33.3655 25.0312 33.3655 24.882C33.3655 24.7328 33.4248 24.5898 33.5303 24.4843C33.6358 24.3788 33.7788 24.3195 33.928 24.3195H35.3073V21.3368C35.3069 20.9335 35.2037 20.537 35.0073 20.1848L31.9623 14.7255C31.9363 14.6789 31.8983 14.6401 31.8523 14.6131C31.8063 14.5861 31.7539 14.5718 31.7005 14.5718H27.5508V24.3218H28.8903C29.0395 24.3218 29.1825 24.381 29.288 24.4865C29.3935 24.592 29.4528 24.7351 29.4528 24.8843C29.4528 25.0335 29.3935 25.1765 29.288 25.282C29.1825 25.3875 29.0395 25.4468 28.8903 25.4468H26.9883C26.8391 25.4468 26.696 25.3875 26.5905 25.282C26.485 25.1765 26.4258 25.0335 26.4258 24.8843V14.0093C26.4258 13.8601 26.485 13.717 26.5905 13.6115C26.696 13.506 26.8391 13.4468 26.9883 13.4468H31.7005C31.9543 13.4467 32.2035 13.5143 32.4224 13.6427C32.6412 13.7711 32.8219 13.9557 32.9455 14.1773L35.9898 19.6373C36.2792 20.157 36.4312 20.7419 36.4315 21.3368V24.4793C36.4311 24.7352 36.3293 24.9804 36.1484 25.1614C35.9674 25.3423 35.7222 25.4441 35.4663 25.4445Z"/>
        <path d="M12.6374 25.4447H7.24414C7.09496 25.4447 6.95188 25.3854 6.84639 25.2799C6.7409 25.1744 6.68164 25.0313 6.68164 24.8822V20.5562C6.68164 20.407 6.7409 20.2639 6.84639 20.1584C6.95188 20.0529 7.09496 19.9937 7.24414 19.9937C7.39332 19.9937 7.5364 20.0529 7.64189 20.1584C7.74738 20.2639 7.80664 20.407 7.80664 20.5562V24.3197H12.6374C12.7866 24.3197 12.9296 24.3789 13.0351 24.4844C13.1406 24.5899 13.1999 24.733 13.1999 24.8822C13.1999 25.0313 13.1406 25.1744 13.0351 25.2799C12.9296 25.3854 12.7866 25.4447 12.6374 25.4447Z"/>
        <path d="M7.24414 18.5602C7.09496 18.5602 6.95188 18.5009 6.84639 18.3955C6.7409 18.29 6.68164 18.1469 6.68164 17.9977V14.2207C6.68164 14.0715 6.7409 13.9284 6.84639 13.823C6.95188 13.7175 7.09496 13.6582 7.24414 13.6582C7.39332 13.6582 7.5364 13.7175 7.64189 13.823C7.74738 13.9284 7.80664 14.0715 7.80664 14.2207V18C7.80605 18.1487 7.74652 18.2912 7.6411 18.3962C7.53567 18.5012 7.39294 18.5602 7.24414 18.5602Z"/>
        <path d="M26.9879 25.4443H17.6751C17.526 25.4443 17.3829 25.385 17.2774 25.2795C17.1719 25.174 17.1126 25.0309 17.1126 24.8818C17.1126 24.7326 17.1719 24.5895 17.2774 24.484C17.3829 24.3785 17.526 24.3193 17.6751 24.3193H26.4254V9.60352H7.80664V11.9203C7.80664 12.0694 7.74738 12.2125 7.64189 12.318C7.5364 12.4235 7.39332 12.4828 7.24414 12.4828C7.09496 12.4828 6.95188 12.4235 6.84639 12.318C6.7409 12.2125 6.68164 12.0694 6.68164 11.9203V9.50002C6.68204 9.22909 6.78989 8.96938 6.98154 8.77788C7.17318 8.58638 7.43296 8.47871 7.70389 8.47852H26.5289C26.7997 8.47891 27.0593 8.58666 27.2508 8.77814C27.4422 8.96963 27.55 9.22922 27.5504 9.50002V24.8818C27.5504 25.0309 27.4911 25.174 27.3856 25.2795C27.2801 25.385 27.1371 25.4443 26.9879 25.4443Z"/>
        <path d="M9.46737 21.1187H2.32812C2.17894 21.1187 2.03587 21.0594 1.93038 20.9539C1.82489 20.8484 1.76562 20.7053 1.76562 20.5562C1.76562 20.407 1.82489 20.2639 1.93038 20.1584C2.03587 20.0529 2.17894 19.9937 2.32812 19.9937H9.46737C9.61656 19.9937 9.75963 20.0529 9.86512 20.1584C9.97061 20.2639 10.0299 20.407 10.0299 20.5562C10.0299 20.7053 9.97061 20.8484 9.86512 20.9539C9.75963 21.0594 9.61656 21.1187 9.46737 21.1187Z"/>
        <path d="M15.1556 18.5601H5.19336C5.04418 18.5601 4.9011 18.5008 4.79561 18.3953C4.69012 18.2898 4.63086 18.1467 4.63086 17.9976C4.63086 17.8484 4.69012 17.7053 4.79561 17.5998C4.9011 17.4943 5.04418 17.4351 5.19336 17.4351H15.1556C15.3048 17.4351 15.4479 17.4943 15.5534 17.5998C15.6588 17.7053 15.7181 17.8484 15.7181 17.9976C15.7181 18.1467 15.6588 18.2898 15.5534 18.3953C15.4479 18.5008 15.3048 18.5601 15.1556 18.5601Z"/>
        <path d="M4.88439 15.5903H0.994141C0.844956 15.5903 0.701882 15.5311 0.596393 15.4256C0.490904 15.3201 0.431641 15.177 0.431641 15.0278C0.431641 14.8786 0.490904 14.7356 0.596393 14.6301C0.701882 14.5246 0.844956 14.4653 0.994141 14.4653H4.88439C5.03358 14.4653 5.17665 14.5246 5.28214 14.6301C5.38763 14.7356 5.44689 14.8786 5.44689 15.0278C5.44689 15.177 5.38763 15.3201 5.28214 15.4256C5.17665 15.5311 5.03358 15.5903 4.88439 15.5903Z"/>
        <path d="M11.1229 12.4829H4.25586C4.10668 12.4829 3.9636 12.4236 3.85811 12.3182C3.75262 12.2127 3.69336 12.0696 3.69336 11.9204C3.69336 11.7712 3.75262 11.6282 3.85811 11.5227C3.9636 11.4172 4.10668 11.3579 4.25586 11.3579H11.1229C11.272 11.3579 11.4151 11.4172 11.5206 11.5227C11.6261 11.6282 11.6854 11.7712 11.6854 11.9204C11.6854 12.0696 11.6261 12.2127 11.5206 12.3182C11.4151 12.4236 11.272 12.4829 11.1229 12.4829Z"/>
    </g>
    <g id="icon-4-green" class="hidden green-fill">
        <path d="M31.4085 27.9659C30.7985 27.9663 30.202 27.7858 29.6945 27.4472C29.1871 27.1086 28.7914 26.6271 28.5577 26.0636C28.3239 25.5001 28.2625 24.88 28.3813 24.2816C28.5 23.6832 28.7935 23.1335 29.2248 22.7019C29.656 22.2704 30.2055 21.9765 30.8038 21.8573C31.4021 21.7381 32.0223 21.799 32.5859 22.0324C33.1496 22.2657 33.6314 22.661 33.9704 23.1682C34.3093 23.6755 34.4903 24.2718 34.4903 24.8819C34.4899 25.6993 34.1651 26.4831 33.5873 27.0613C33.0096 27.6395 32.2259 27.9649 31.4085 27.9659ZM31.4085 22.9229C31.021 22.9224 30.642 23.0369 30.3195 23.2519C29.9971 23.4669 29.7457 23.7727 29.597 24.1306C29.4484 24.4885 29.4093 24.8825 29.4846 25.2627C29.56 25.6428 29.7464 25.9921 30.0203 26.2663C30.2941 26.5405 30.6432 26.7273 31.0233 26.803C31.4033 26.8788 31.7973 26.8402 32.1554 26.6919C32.5135 26.5437 32.8196 26.2927 33.035 25.9704C33.2503 25.6482 33.3653 25.2694 33.3653 24.8819C33.3651 24.3627 33.1589 23.8649 32.7921 23.4976C32.4252 23.1304 31.9276 22.9236 31.4085 22.9229Z"/>
        <path d="M15.1573 27.9658C14.5472 27.9664 13.9507 27.7861 13.4431 27.4476C12.9356 27.109 12.5398 26.6276 12.3059 26.0641C12.0721 25.5007 12.0105 24.8805 12.1292 24.282C12.2479 23.6836 12.5413 23.1338 12.9725 22.7022C13.4037 22.2706 13.9532 21.9766 14.5516 21.8573C15.1499 21.7381 15.7701 21.799 16.3338 22.0323C16.8975 22.2657 17.3793 22.6609 17.7184 23.1682C18.0574 23.6754 18.2383 24.2718 18.2383 24.8819C18.2377 25.6991 17.913 26.4827 17.3354 27.0609C16.7578 27.639 15.9745 27.9645 15.1573 27.9658ZM15.1573 22.9229C14.7697 22.9223 14.3907 23.0366 14.0681 23.2515C13.7456 23.4664 13.494 23.7722 13.3453 24.1301C13.1966 24.488 13.1573 24.882 13.2326 25.2622C13.3078 25.6424 13.4942 25.9917 13.768 26.266C14.0419 26.5403 14.3909 26.7272 14.771 26.803C15.1511 26.8788 15.5452 26.8402 15.9033 26.692C16.2614 26.5438 16.5676 26.2927 16.783 25.9705C16.9983 25.6483 17.1133 25.2694 17.1133 24.8819C17.1129 24.3629 16.9068 23.8653 16.5402 23.4981C16.1735 23.1309 15.6762 22.924 15.1573 22.9229Z"/>
        <path d="M35.4663 25.4445H33.928C33.7788 25.4445 33.6358 25.3853 33.5303 25.2798C33.4248 25.1743 33.3655 25.0312 33.3655 24.882C33.3655 24.7328 33.4248 24.5898 33.5303 24.4843C33.6358 24.3788 33.7788 24.3195 33.928 24.3195H35.3073V21.3368C35.3069 20.9335 35.2037 20.537 35.0073 20.1848L31.9623 14.7255C31.9363 14.6789 31.8983 14.6401 31.8523 14.6131C31.8063 14.5861 31.7539 14.5718 31.7005 14.5718H27.5508V24.3218H28.8903C29.0395 24.3218 29.1825 24.381 29.288 24.4865C29.3935 24.592 29.4528 24.7351 29.4528 24.8843C29.4528 25.0335 29.3935 25.1765 29.288 25.282C29.1825 25.3875 29.0395 25.4468 28.8903 25.4468H26.9883C26.8391 25.4468 26.696 25.3875 26.5905 25.282C26.485 25.1765 26.4258 25.0335 26.4258 24.8843V14.0093C26.4258 13.8601 26.485 13.717 26.5905 13.6115C26.696 13.506 26.8391 13.4468 26.9883 13.4468H31.7005C31.9543 13.4467 32.2035 13.5143 32.4224 13.6427C32.6412 13.7711 32.8219 13.9557 32.9455 14.1773L35.9898 19.6373C36.2792 20.157 36.4312 20.7419 36.4315 21.3368V24.4793C36.4311 24.7352 36.3293 24.9804 36.1484 25.1614C35.9674 25.3423 35.7222 25.4441 35.4663 25.4445Z"/>
        <path d="M12.6374 25.4447H7.24414C7.09496 25.4447 6.95188 25.3854 6.84639 25.2799C6.7409 25.1744 6.68164 25.0313 6.68164 24.8822V20.5562C6.68164 20.407 6.7409 20.2639 6.84639 20.1584C6.95188 20.0529 7.09496 19.9937 7.24414 19.9937C7.39332 19.9937 7.5364 20.0529 7.64189 20.1584C7.74738 20.2639 7.80664 20.407 7.80664 20.5562V24.3197H12.6374C12.7866 24.3197 12.9296 24.3789 13.0351 24.4844C13.1406 24.5899 13.1999 24.733 13.1999 24.8822C13.1999 25.0313 13.1406 25.1744 13.0351 25.2799C12.9296 25.3854 12.7866 25.4447 12.6374 25.4447Z"/>
        <path d="M7.24414 18.5602C7.09496 18.5602 6.95188 18.5009 6.84639 18.3955C6.7409 18.29 6.68164 18.1469 6.68164 17.9977V14.2207C6.68164 14.0715 6.7409 13.9284 6.84639 13.823C6.95188 13.7175 7.09496 13.6582 7.24414 13.6582C7.39332 13.6582 7.5364 13.7175 7.64189 13.823C7.74738 13.9284 7.80664 14.0715 7.80664 14.2207V18C7.80605 18.1487 7.74652 18.2912 7.6411 18.3962C7.53567 18.5012 7.39294 18.5602 7.24414 18.5602Z"/>
        <path d="M26.9879 25.4443H17.6751C17.526 25.4443 17.3829 25.385 17.2774 25.2795C17.1719 25.174 17.1126 25.0309 17.1126 24.8818C17.1126 24.7326 17.1719 24.5895 17.2774 24.484C17.3829 24.3785 17.526 24.3193 17.6751 24.3193H26.4254V9.60352H7.80664V11.9203C7.80664 12.0694 7.74738 12.2125 7.64189 12.318C7.5364 12.4235 7.39332 12.4828 7.24414 12.4828C7.09496 12.4828 6.95188 12.4235 6.84639 12.318C6.7409 12.2125 6.68164 12.0694 6.68164 11.9203V9.50002C6.68204 9.22909 6.78989 8.96938 6.98154 8.77788C7.17318 8.58638 7.43296 8.47871 7.70389 8.47852H26.5289C26.7997 8.47891 27.0593 8.58666 27.2508 8.77814C27.4422 8.96963 27.55 9.22922 27.5504 9.50002V24.8818C27.5504 25.0309 27.4911 25.174 27.3856 25.2795C27.2801 25.385 27.1371 25.4443 26.9879 25.4443Z"/>
        <path d="M9.46737 21.1187H2.32812C2.17894 21.1187 2.03587 21.0594 1.93038 20.9539C1.82489 20.8484 1.76562 20.7053 1.76562 20.5562C1.76562 20.407 1.82489 20.2639 1.93038 20.1584C2.03587 20.0529 2.17894 19.9937 2.32812 19.9937H9.46737C9.61656 19.9937 9.75963 20.0529 9.86512 20.1584C9.97061 20.2639 10.0299 20.407 10.0299 20.5562C10.0299 20.7053 9.97061 20.8484 9.86512 20.9539C9.75963 21.0594 9.61656 21.1187 9.46737 21.1187Z"/>
        <path d="M15.1556 18.5601H5.19336C5.04418 18.5601 4.9011 18.5008 4.79561 18.3953C4.69012 18.2898 4.63086 18.1467 4.63086 17.9976C4.63086 17.8484 4.69012 17.7053 4.79561 17.5998C4.9011 17.4943 5.04418 17.4351 5.19336 17.4351H15.1556C15.3048 17.4351 15.4479 17.4943 15.5534 17.5998C15.6588 17.7053 15.7181 17.8484 15.7181 17.9976C15.7181 18.1467 15.6588 18.2898 15.5534 18.3953C15.4479 18.5008 15.3048 18.5601 15.1556 18.5601Z"/>
        <path d="M4.88439 15.5903H0.994141C0.844956 15.5903 0.701882 15.5311 0.596393 15.4256C0.490904 15.3201 0.431641 15.177 0.431641 15.0278C0.431641 14.8786 0.490904 14.7356 0.596393 14.6301C0.701882 14.5246 0.844956 14.4653 0.994141 14.4653H4.88439C5.03358 14.4653 5.17665 14.5246 5.28214 14.6301C5.38763 14.7356 5.44689 14.8786 5.44689 15.0278C5.44689 15.177 5.38763 15.3201 5.28214 15.4256C5.17665 15.5311 5.03358 15.5903 4.88439 15.5903Z"/>
        <path d="M11.1229 12.4829H4.25586C4.10668 12.4829 3.9636 12.4236 3.85811 12.3182C3.75262 12.2127 3.69336 12.0696 3.69336 11.9204C3.69336 11.7712 3.75262 11.6282 3.85811 11.5227C3.9636 11.4172 4.10668 11.3579 4.25586 11.3579H11.1229C11.272 11.3579 11.4151 11.4172 11.5206 11.5227C11.6261 11.6282 11.6854 11.7712 11.6854 11.9204C11.6854 12.0696 11.6261 12.2127 11.5206 12.3182C11.4151 12.4236 11.272 12.4829 11.1229 12.4829Z"/>
    </g>

    <g id="icon-5" class="hidden gray-fill" transform="translate(1.499 1.4995)">
        <path d="m27.78 15.92h-22.559c-0.12821 0-0.25116 0.051-0.34181 0.1416-0.09066 0.0907-0.14159 0.2136-0.14159 0.3418v3.8672c0 0.1282 0.05093 0.2512 0.14159 0.3418 0.09065 0.0907 0.2136 0.1416 0.34181 0.1416h0.80566v11.763c0 0.1282 0.05093 0.2512 0.14159 0.3418 0.09065 0.0907 0.21361 0.1416 0.34181 0.1416h19.98c0.1282 0 0.2512-0.0509 0.3418-0.1416 0.0907-0.0906 0.1416-0.2136 0.1416-0.3418v-11.763h0.8057c0.1282 0 0.2511-0.0509 0.3418-0.1416 0.0906-0.0906 0.1416-0.2136 0.1416-0.3418v-3.8672c0-0.1282-0.051-0.2511-0.1416-0.3418-0.0907-0.0906-0.2136-0.1416-0.3418-0.1416zm-13.374 0.9668h4.1895v7.1131l-1.8788-0.9391c-0.0671-0.0334-0.141-0.0508-0.2159-0.0508-0.075 0-0.1489 0.0174-0.2159 0.0508l-1.8789 0.9391zm-8.7011 0h7.7344v2.9004h-7.7344zm20.303 15.146h-19.014v-11.279h6.4454v4.0283c0 0.0824 0.021 0.1634 0.0611 0.2354 0.0401 0.0719 0.0979 0.1324 0.168 0.1757 0.0701 0.0434 0.15 0.0681 0.2323 0.0718s0.1642-0.0136 0.2379-0.0504l2.3622-1.1808 2.3622 1.1808c0.067 0.0336 0.1409 0.0511 0.2159 0.0509 0.1282 0 0.2512-0.0509 0.3418-0.1416 0.0907-0.0906 0.1416-0.2136 0.1416-0.3418v-4.0283h6.4453zm1.2891-12.246h-7.7344v-2.9004h7.7344z"/>
        <path d="m11.665 27.522c-0.3846 0-0.7534 0.1528-1.0254 0.4247-0.272 0.272-0.4248 0.6409-0.4248 1.0255s0.1528 0.7535 0.4248 1.0254c0.272 0.272 0.6408 0.4248 1.0254 0.4248h9.668c0.3846 0 0.7535-0.1528 1.0255-0.4248 0.2719-0.2719 0.4247-0.6408 0.4247-1.0254s-0.1528-0.7535-0.4247-1.0255c-0.272-0.2719-0.6409-0.4247-1.0255-0.4247zm10.151 1.4502c0 0.1282-0.0509 0.2511-0.1416 0.3418-0.0906 0.0906-0.2136 0.1416-0.3418 0.1416h-9.668c-0.1282 0-0.2511-0.051-0.3418-0.1416-0.0906-0.0907-0.1416-0.2136-0.1416-0.3418s0.051-0.2512 0.1416-0.3418c0.0907-0.0907 0.2136-0.1416 0.3418-0.1416h9.668c0.1282 0 0.2512 0.0509 0.3418 0.1416 0.0907 0.0906 0.1416 0.2136 0.1416 0.3418z"/>
        <path d="m14.187 12.129 1.0835 2.0322c0.2649 0.4963 0.7238 0.7921 1.2284 0.7921 0.5047 0 0.9636-0.2958 1.2279-0.7921l1.0841-2.0322c1.3599-0.538 2.4896-1.5336 3.1943-2.815 0.7048-1.2814 0.9406-2.7686 0.6667-4.2052-0.2738-1.4366-1.0402-2.7327-2.167-3.665-1.1268-0.9323-2.5435-1.4424-4.006-1.4424-1.4625 1e-9 -2.8791 0.51009-4.0059 1.4424-1.1269 0.93229-1.8932 2.2284-2.1671 3.665-0.2738 1.4366-0.0381 2.9238 0.6667 4.2052 0.7048 1.2814 1.8345 2.277 3.1944 2.815zm2.3119-11.162c1.2512 5.78e-4 2.4621 0.44226 3.4197 1.2474 0.9577 0.80511 1.6009 1.9221 1.8164 3.1545s-0.0104 2.5014-0.638 3.5838c-0.6276 1.0823-1.6167 1.9087-2.7934 2.3339-0.1125 0.0408-0.206 0.1218-0.2623 0.2275l-1.1692 2.1914c-0.0934 0.1753-0.2339 0.2804-0.3751 0.2804s-0.2817-0.1051-0.3751-0.2804l-1.1692-2.1914c-0.0563-0.1057-0.1497-0.1867-0.2623-0.2275-1.177-0.4253-2.1663-1.252-2.7939-2.3348-0.6276-1.0827-0.8532-2.3521-0.6372-3.5848 0.2161-1.2327 0.8599-2.3497 1.8183-3.1545s2.1699-1.2458 3.4213-1.2455z"/>
        <path d="m16.499 10.635c0.8605 0 1.7016-0.2552 2.4171-0.73324 0.7154-0.47805 1.2731-1.1575 1.6023-1.9525 0.3293-0.79497 0.4155-1.6697 0.2476-2.5137-0.1679-0.84393-0.5822-1.6191-1.1906-2.2276-0.6085-0.60844-1.3837-1.0228-2.2276-1.1907s-1.7187-0.08171-2.5137 0.24757c-0.7949 0.32929-1.4744 0.88692-1.9525 1.6024-0.478 0.71545-0.7332 1.5566-0.7332 2.417 0.0014 1.1534 0.4602 2.2592 1.2758 3.0748 0.8156 0.8156 1.9214 1.2744 3.0748 1.2758zm0-7.7344c0.6693 0 1.3235 0.19846 1.88 0.57027 0.5564 0.37182 0.9901 0.90029 1.2462 1.5186s0.3232 1.2987 0.1926 1.9551-0.4528 1.2593-0.9261 1.7326c-0.4732 0.47323-1.0761 0.79551-1.7325 0.92607-0.6564 0.13057-1.3368 0.06356-1.9551-0.19255-0.6183-0.25612-1.1468-0.68982-1.5186-1.2463-0.3718-0.55646-0.5703-1.2107-0.5703-1.8799 0.0011-0.89712 0.3579-1.7572 0.9923-2.3916 0.6343-0.63436 1.4944-0.99119 2.3915-0.99222z"/>
        <path d="m15.687 7.739c0.0453 0.04934 0.1004 0.08874 0.1618 0.11568 0.0613 0.02695 0.1276 0.04086 0.1946 0.04086s0.1333-0.01391 0.1947-0.04086c0.0613-0.02694 0.1164-0.06634 0.1618-0.11568l2.0663-2.2559c0.0867-0.09453 0.1323-0.21962 0.1267-0.34774-0.0056-0.12813-0.0618-0.24879-0.1563-0.33546s-0.2196-0.13223-0.3478-0.12667c-0.1281 0.00556-0.2488 0.06179-0.3354 0.15632l-1.71 1.8691-0.7998-0.87463c-0.0426-0.048-0.0943-0.08705-0.152-0.11488-0.0578-0.02783-0.1206-0.04388-0.1846-0.04721-0.0641-0.00333-0.1282 0.00612-0.1885 0.0278-0.0604 0.02167-0.1159 0.05515-0.1632 0.09847-0.0473 0.04333-0.0855 0.09563-0.1124 0.15387-0.0268 0.05823-0.0419 0.12124-0.0442 0.18534-0.0022 0.0641 0.0082 0.12802 0.0309 0.18802 0.0227 0.06001 0.057 0.11491 0.1011 0.1615z"/>
    </g>
    <g id="icon-5-green" class="hidden green-fill" transform="translate(1.499 1.4995)">
        <path d="m27.78 15.92h-22.559c-0.12821 0-0.25116 0.051-0.34181 0.1416-0.09066 0.0907-0.14159 0.2136-0.14159 0.3418v3.8672c0 0.1282 0.05093 0.2512 0.14159 0.3418 0.09065 0.0907 0.2136 0.1416 0.34181 0.1416h0.80566v11.763c0 0.1282 0.05093 0.2512 0.14159 0.3418 0.09065 0.0907 0.21361 0.1416 0.34181 0.1416h19.98c0.1282 0 0.2512-0.0509 0.3418-0.1416 0.0907-0.0906 0.1416-0.2136 0.1416-0.3418v-11.763h0.8057c0.1282 0 0.2511-0.0509 0.3418-0.1416 0.0906-0.0906 0.1416-0.2136 0.1416-0.3418v-3.8672c0-0.1282-0.051-0.2511-0.1416-0.3418-0.0907-0.0906-0.2136-0.1416-0.3418-0.1416zm-13.374 0.9668h4.1895v7.1131l-1.8788-0.9391c-0.0671-0.0334-0.141-0.0508-0.2159-0.0508-0.075 0-0.1489 0.0174-0.2159 0.0508l-1.8789 0.9391zm-8.7011 0h7.7344v2.9004h-7.7344zm20.303 15.146h-19.014v-11.279h6.4454v4.0283c0 0.0824 0.021 0.1634 0.0611 0.2354 0.0401 0.0719 0.0979 0.1324 0.168 0.1757 0.0701 0.0434 0.15 0.0681 0.2323 0.0718s0.1642-0.0136 0.2379-0.0504l2.3622-1.1808 2.3622 1.1808c0.067 0.0336 0.1409 0.0511 0.2159 0.0509 0.1282 0 0.2512-0.0509 0.3418-0.1416 0.0907-0.0906 0.1416-0.2136 0.1416-0.3418v-4.0283h6.4453zm1.2891-12.246h-7.7344v-2.9004h7.7344z"/>
        <path d="m11.665 27.522c-0.3846 0-0.7534 0.1528-1.0254 0.4247-0.272 0.272-0.4248 0.6409-0.4248 1.0255s0.1528 0.7535 0.4248 1.0254c0.272 0.272 0.6408 0.4248 1.0254 0.4248h9.668c0.3846 0 0.7535-0.1528 1.0255-0.4248 0.2719-0.2719 0.4247-0.6408 0.4247-1.0254s-0.1528-0.7535-0.4247-1.0255c-0.272-0.2719-0.6409-0.4247-1.0255-0.4247zm10.151 1.4502c0 0.1282-0.0509 0.2511-0.1416 0.3418-0.0906 0.0906-0.2136 0.1416-0.3418 0.1416h-9.668c-0.1282 0-0.2511-0.051-0.3418-0.1416-0.0906-0.0907-0.1416-0.2136-0.1416-0.3418s0.051-0.2512 0.1416-0.3418c0.0907-0.0907 0.2136-0.1416 0.3418-0.1416h9.668c0.1282 0 0.2512 0.0509 0.3418 0.1416 0.0907 0.0906 0.1416 0.2136 0.1416 0.3418z"/>
        <path d="m14.187 12.129 1.0835 2.0322c0.2649 0.4963 0.7238 0.7921 1.2284 0.7921 0.5047 0 0.9636-0.2958 1.2279-0.7921l1.0841-2.0322c1.3599-0.538 2.4896-1.5336 3.1943-2.815 0.7048-1.2814 0.9406-2.7686 0.6667-4.2052-0.2738-1.4366-1.0402-2.7327-2.167-3.665-1.1268-0.9323-2.5435-1.4424-4.006-1.4424-1.4625 1e-9 -2.8791 0.51009-4.0059 1.4424-1.1269 0.93229-1.8932 2.2284-2.1671 3.665-0.2738 1.4366-0.0381 2.9238 0.6667 4.2052 0.7048 1.2814 1.8345 2.277 3.1944 2.815zm2.3119-11.162c1.2512 5.78e-4 2.4621 0.44226 3.4197 1.2474 0.9577 0.80511 1.6009 1.9221 1.8164 3.1545s-0.0104 2.5014-0.638 3.5838c-0.6276 1.0823-1.6167 1.9087-2.7934 2.3339-0.1125 0.0408-0.206 0.1218-0.2623 0.2275l-1.1692 2.1914c-0.0934 0.1753-0.2339 0.2804-0.3751 0.2804s-0.2817-0.1051-0.3751-0.2804l-1.1692-2.1914c-0.0563-0.1057-0.1497-0.1867-0.2623-0.2275-1.177-0.4253-2.1663-1.252-2.7939-2.3348-0.6276-1.0827-0.8532-2.3521-0.6372-3.5848 0.2161-1.2327 0.8599-2.3497 1.8183-3.1545s2.1699-1.2458 3.4213-1.2455z"/>
        <path d="m16.499 10.635c0.8605 0 1.7016-0.2552 2.4171-0.73324 0.7154-0.47805 1.2731-1.1575 1.6023-1.9525 0.3293-0.79497 0.4155-1.6697 0.2476-2.5137-0.1679-0.84393-0.5822-1.6191-1.1906-2.2276-0.6085-0.60844-1.3837-1.0228-2.2276-1.1907s-1.7187-0.08171-2.5137 0.24757c-0.7949 0.32929-1.4744 0.88692-1.9525 1.6024-0.478 0.71545-0.7332 1.5566-0.7332 2.417 0.0014 1.1534 0.4602 2.2592 1.2758 3.0748 0.8156 0.8156 1.9214 1.2744 3.0748 1.2758zm0-7.7344c0.6693 0 1.3235 0.19846 1.88 0.57027 0.5564 0.37182 0.9901 0.90029 1.2462 1.5186s0.3232 1.2987 0.1926 1.9551-0.4528 1.2593-0.9261 1.7326c-0.4732 0.47323-1.0761 0.79551-1.7325 0.92607-0.6564 0.13057-1.3368 0.06356-1.9551-0.19255-0.6183-0.25612-1.1468-0.68982-1.5186-1.2463-0.3718-0.55646-0.5703-1.2107-0.5703-1.8799 0.0011-0.89712 0.3579-1.7572 0.9923-2.3916 0.6343-0.63436 1.4944-0.99119 2.3915-0.99222z"/>
        <path d="m15.687 7.739c0.0453 0.04934 0.1004 0.08874 0.1618 0.11568 0.0613 0.02695 0.1276 0.04086 0.1946 0.04086s0.1333-0.01391 0.1947-0.04086c0.0613-0.02694 0.1164-0.06634 0.1618-0.11568l2.0663-2.2559c0.0867-0.09453 0.1323-0.21962 0.1267-0.34774-0.0056-0.12813-0.0618-0.24879-0.1563-0.33546s-0.2196-0.13223-0.3478-0.12667c-0.1281 0.00556-0.2488 0.06179-0.3354 0.15632l-1.71 1.8691-0.7998-0.87463c-0.0426-0.048-0.0943-0.08705-0.152-0.11488-0.0578-0.02783-0.1206-0.04388-0.1846-0.04721-0.0641-0.00333-0.1282 0.00612-0.1885 0.0278-0.0604 0.02167-0.1159 0.05515-0.1632 0.09847-0.0473 0.04333-0.0855 0.09563-0.1124 0.15387-0.0268 0.05823-0.0419 0.12124-0.0442 0.18534-0.0022 0.0641 0.0082 0.12802 0.0309 0.18802 0.0227 0.06001 0.057 0.11491 0.1011 0.1615z"/>
    </g>
</svg>
