<svg width="74" height="79" fill="none" version="1.1" viewBox="0 0 74 79" xmlns="http://www.w3.org/2000/svg">
    <style>
        .hidden {display: none; fill: none}
        :target {display: block;}
    </style>
    <g id="icon-1" class="hidden">
        <path d="m73 41.361c0 7.9248-2.6149 15.628-7.4393 21.915-4.8243 6.2872-11.588 10.807-19.243 12.858s-15.772 1.5191-23.094-1.5136-13.438-8.3966-17.4-15.26c-3.9624-6.8631-5.5495-14.842-4.5151-22.699 1.0344-7.857 4.6325-15.153 10.236-20.757 5.6037-5.6037 12.9-9.2017 20.757-10.236 7.857-1.0344 15.836 0.55269 22.699 4.5151" stroke="#7FC394" stroke-linecap="round" stroke-linejoin="round" stroke-width="2"/>
        <g fill="#7FC394">
            <path d="m52.757 9.4828 0.6468-1.1609 2.1406 1.5047c-0.2128-0.31614-1.0161-1.5891-0.7556-3.2627 0.3738-2.4027 2.5989-3.4398 2.7699-3.5161 0.192 0.18039 1.2571 1.201 1.5819 2.487 0.2515 0.99877-0.02 1.8511-0.0319 1.879 0 0 0.0015-0.00346-1e-4 0.00107-0.0054 0.0123-0.0532 0.12117-0.0511 0.12194 0.0021 7.8e-4 0 0 2e-4 -0.00107 0.4512-0.74199 1.0075-1.4145 1.6513-1.9967 0.6213-0.56119 1.7078-1.5424 3.2812-1.8557 2.302-0.45879 4.2054 0.7975 4.6874 1.1367-0.0709 0.75335-0.4054 3.3597-2.3208 4.5533-1.2746 0.79428-3.0591 0.84408-4.3524 0.88068-0.9049 0.0254-1.8451-0.0019-1.8032 9e-4 0.6156 0.0407 1.2281 0.1197 1.8339 0.2365 1.2928 0.2492 3.852 0.6277 5.2894 2.4876 0.3278 0.4242 1.1506 1.639 1.0809 3.7783-0.713 0.4546-2.1083 1.1746-3.8186 0.9971-1.5676-0.1628-2.6703-1.0038-3.8612-1.9125-0.8141-0.6214-1.5532-1.3355-2.2027-2.1279 0.5226 0.7662 0.9916 1.5677 1.4037 2.3987 0.6897 1.3907 1.1412 2.3008 1.2001 3.2607 0.1395 2.2745-1.9692 4.107-2.6758 4.6732-0.9187-0.3818-2.7592-1.3206-3.3928-3.1617-0.3232-0.9394-0.2527-1.8828-0.1341-3.4732 0.0692-0.9294 0.2037-1.8528 0.4025-2.7632 2e-4 -0.0015 3e-4 -0.0022 3e-4 -0.0023-0.0045-0.0025-0.072 0.1201-0.0933 0.159l-0.0063 0.0113c-0.0283 0.0521-0.4508 0.6435-0.9298 0.9833-0.4312 0.3058-1.3482 0.7198-2.6038 0.9322-0.8723-1.7657-0.6277-3.793 0.57-5.0502 1.1413-1.1984 2.7056-1.2313 3.0464-1.2306-0.8509-0.3228-1.702-0.64555-2.553-0.96837z"/>
            <path d="m56.362 54.449c-0.9151 7e-4 -1.8098-0.2701-2.571-0.778s-1.3546-1.2301-1.7053-2.0753c-0.3506-0.8453-0.4427-1.7755-0.2646-2.6731s0.6184-1.7222 1.2653-2.3695c0.6468-0.6473 1.471-1.0882 2.3685-1.2669 0.8974-0.1788 1.8277-0.0874 2.6732 0.2626 0.8455 0.3501 1.5682 0.943 2.0767 1.7038 0.5084 0.7608 0.7798 1.6553 0.7798 2.5704-6e-4 1.2261-0.4877 2.4019-1.3544 3.2692-0.8666 0.8674-2.0421 1.3553-3.2682 1.3568zm0-7.5645c-0.5813-6e-4 -1.1498 0.1711-1.6335 0.4936-0.4836 0.3225-0.8608 0.7812-1.0837 1.3181-0.223 0.5368-0.2816 1.1278-0.1686 1.698 0.113 0.5703 0.3926 1.0942 0.8034 1.5055s0.9344 0.6915 1.5045 0.8051c0.5701 0.1137 1.1611 0.0557 1.6983-0.1666 0.5371-0.2223 0.9962-0.599 1.3193-1.0823 0.323-0.4833 0.4954-1.0516 0.4954-1.6329-3e-4 -0.7786-0.3095-1.5254-0.8598-2.0763s-1.2966-0.861-2.0753-0.8622z"/>
            <path d="m31.984 54.449c-0.9151 9e-4 -1.8099-0.2696-2.5713-0.7774-0.7613-0.5078-1.3549-1.23-1.7058-2.0752-0.3508-0.8452-0.443-1.7755-0.265-2.6731 0.1779-0.8977 0.6182-1.7224 1.2649-2.3698 0.6468-0.6474 1.4711-1.0884 2.3686-1.2673 0.8975-0.1788 1.8278-0.0875 2.6734 0.2625 0.8455 0.35 1.5683 0.9429 2.0768 1.7038 0.5085 0.7608 0.7799 1.6554 0.7799 2.5705-9e-4 1.2259-0.4879 2.4013-1.3543 3.2685s-2.0413 1.3554-3.2672 1.3575zm0-7.5645c-0.5814-9e-4 -1.1499 0.1707-1.6338 0.4931-0.4838 0.3223-0.8611 0.7809-1.0842 1.3178-0.2231 0.5368-0.2819 1.1278-0.1691 1.6981 0.1129 0.5703 0.3924 1.0944 0.8032 1.5058s0.9344 0.6917 1.5045 0.8054c0.5701 0.1138 1.1612 0.0558 1.6984-0.1664 0.5372-0.2223 0.9964-0.5989 1.3195-1.0823 0.3231-0.4833 0.4955-1.0516 0.4955-1.633-6e-4 -0.7784-0.3097-1.5247-0.8597-2.0756-0.55-0.5508-1.2959-0.8611-2.0743-0.8629z"/>
            <path d="m62.449 50.667h-2.3074c-0.2237 0-0.4383-0.0889-0.5966-0.2471-0.1582-0.1582-0.2471-0.3728-0.2471-0.5966s0.0889-0.4384 0.2471-0.5966c0.1583-0.1583 0.3729-0.2472 0.5966-0.2472h2.0689v-4.4741c-5e-4 -0.6049-0.1554-1.1997-0.45-1.728l-4.5675-8.1889c-0.039-0.0699-0.096-0.1281-0.165-0.1686s-0.1476-0.0619-0.2276-0.062h-6.2246v14.625h2.0092c0.2238 0 0.4384 0.0889 0.5966 0.2471 0.1583 0.1583 0.2472 0.3729 0.2472 0.5967 0 0.2237-0.0889 0.4383-0.2472 0.5966-0.1582 0.1582-0.3728 0.2471-0.5966 0.2471h-2.853c-0.2238 0-0.4384-0.0889-0.5966-0.2471-0.1582-0.1583-0.2471-0.3729-0.2471-0.5966v-16.312c0-0.2238 0.0889-0.4384 0.2471-0.5967 0.1582-0.1582 0.3728-0.2471 0.5966-0.2471h7.0684c0.3806-2e-4 0.7544 0.1013 1.0828 0.2939 0.3283 0.1927 0.5992 0.4695 0.7847 0.8019l4.5664 8.19c0.4341 0.7795 0.6622 1.6569 0.6626 2.5492v4.7138c-6e-4 0.3838-0.1533 0.7517-0.4247 1.0231s-0.6394 0.4241-1.0232 0.4247z"/>
            <path d="m28.205 50.667h-8.0899c-0.2237 0-0.4384-0.0889-0.5966-0.2471s-0.2471-0.3728-0.2471-0.5966v-6.489c0-0.2238 0.0889-0.4384 0.2471-0.5966 0.1582-0.1583 0.3729-0.2472 0.5966-0.2472 0.2238 0 0.4384 0.0889 0.5967 0.2472 0.1582 0.1582 0.2471 0.3728 0.2471 0.5966v5.6452h7.2461c0.2238 0 0.4384 0.0889 0.5966 0.2472 0.1583 0.1582 0.2472 0.3728 0.2472 0.5966s-0.0889 0.4384-0.2472 0.5966c-0.1582 0.1582-0.3728 0.2471-0.5966 0.2471z"/>
            <path d="m20.115 40.34c-0.2237 0-0.4384-0.0889-0.5966-0.2472-0.1582-0.1582-0.2471-0.3728-0.2471-0.5966v-5.6655c0-0.2238 0.0889-0.4384 0.2471-0.5966s0.3729-0.2471 0.5966-0.2471c0.2238 0 0.4384 0.0889 0.5967 0.2471 0.1582 0.1582 0.2471 0.3728 0.2471 0.5966v5.6689c-9e-4 0.2232-0.0902 0.4369-0.2483 0.5944-0.1582 0.1575-0.3723 0.246-0.5955 0.246z"/>
            <path d="m49.731 50.667h-13.969c-0.2237 0-0.4384-0.0889-0.5966-0.2472-0.1582-0.1582-0.2471-0.3728-0.2471-0.5966s0.0889-0.4384 0.2471-0.5966 0.3729-0.2471 0.5966-0.2471h13.125v-22.074h-27.928v3.4752c0 0.2237-0.0889 0.4384-0.2471 0.5966-0.1583 0.1582-0.3729 0.2471-0.5967 0.2471-0.2237 0-0.4384-0.0889-0.5966-0.2471s-0.2471-0.3729-0.2471-0.5966v-3.6304c6e-4 -0.4064 0.1624-0.796 0.4498-1.0832 0.2875-0.2873 0.6772-0.4488 1.0836-0.4491h28.238c0.4062 6e-4 0.7955 0.1623 1.0828 0.4495 0.2872 0.2872 0.4488 0.6766 0.4494 1.0828v23.073c0 0.2238-0.0889 0.4384-0.2471 0.5966-0.1583 0.1583-0.3729 0.2472-0.5966 0.2472z"/>
            <path d="m23.451 44.178h-10.709c-0.2238 0-0.4384-0.0889-0.5966-0.2471-0.1583-0.1583-0.2472-0.3729-0.2472-0.5967 0-0.2237 0.0889-0.4383 0.2472-0.5966 0.1582-0.1582 0.3728-0.2471 0.5966-0.2471h10.709c0.2237 0 0.4384 0.0889 0.5966 0.2471 0.1582 0.1583 0.2471 0.3729 0.2471 0.5966 0 0.2238-0.0889 0.4384-0.2471 0.5967-0.1582 0.1582-0.3729 0.2471-0.5966 0.2471z"/>
            <path d="m31.984 40.34h-14.943c-0.2238 0-0.4384-0.0889-0.5966-0.2471-0.1582-0.1583-0.2471-0.3729-0.2471-0.5967 0-0.2237 0.0889-0.4383 0.2471-0.5966 0.1582-0.1582 0.3728-0.2471 0.5966-0.2471h14.943c0.2238 0 0.4384 0.0889 0.5966 0.2471 0.1582 0.1583 0.2471 0.3729 0.2471 0.5966 0 0.2238-0.0889 0.4384-0.2471 0.5967-0.1582 0.1582-0.3728 0.2471-0.5966 0.2471z"/>
            <path d="m16.578 35.885h-5.8354c-0.2238 0-0.4384-0.0889-0.5966-0.2472-0.15827-0.1582-0.24716-0.3728-0.24716-0.5966s0.08889-0.4384 0.24716-0.5966c0.1582-0.1582 0.3728-0.2471 0.5966-0.2471h5.8354c0.2237 0 0.4383 0.0889 0.5966 0.2471 0.1582 0.1582 0.2471 0.3728 0.2471 0.5966s-0.0889 0.4384-0.2471 0.5966c-0.1583 0.1583-0.3729 0.2472-0.5966 0.2472z"/>
            <path d="m25.933 31.224h-10.3c-0.2238 0-0.4384-0.0889-0.5966-0.2471-0.1582-0.1583-0.2471-0.3729-0.2471-0.5967 0-0.2237 0.0889-0.4383 0.2471-0.5966 0.1582-0.1582 0.3728-0.2471 0.5966-0.2471h10.3c0.2238 0 0.4384 0.0889 0.5966 0.2471 0.1583 0.1583 0.2472 0.3729 0.2472 0.5966 0 0.2238-0.0889 0.4384-0.2472 0.5967-0.1582 0.1582-0.3728 0.2471-0.5966 0.2471z"/>
        </g>
    </g>

    <g id="icon-2" class="hidden">
        <path d="M73 41.3614C73 49.2862 70.3851 56.9896 65.5607 63.2768C60.7364 69.564 53.9723 74.0836 46.3175 76.1347C38.6627 78.1858 30.545 77.6538 23.2234 74.6211C15.9018 71.5884 9.7855 66.2245 5.82309 59.3614C1.86067 52.4983 0.273587 44.5195 1.30798 36.6624C2.34238 28.8054 5.94045 21.5092 11.5442 15.9055C17.1479 10.3018 24.444 6.70377 32.3011 5.66937C40.1581 4.63498 48.1369 6.22206 55 10.1845" stroke="#7FC394" stroke-width="2" stroke-linecap="round" stroke-linejoin="round"/>
        <g fill="#7FC394">
            <path d="M52.7572 9.48283L53.404 8.32194L55.5446 9.82661C55.3318 9.51047 54.5285 8.23751 54.789 6.56389C55.1628 4.16119 57.3879 3.12412 57.5589 3.04775C57.7509 3.22814 58.816 4.24871 59.1408 5.53472C59.3923 6.53349 59.1208 7.3858 59.1089 7.41376C59.1089 7.41376 59.1104 7.4103 59.1088 7.41483C59.1034 7.42713 59.0556 7.536 59.0577 7.53677C59.0598 7.53755 59.0577 7.53677 59.0579 7.5357C59.5091 6.79371 60.0654 6.12116 60.7092 5.53903C61.3305 4.97784 62.417 3.9966 63.9904 3.68331C66.2924 3.22452 68.1958 4.48081 68.6778 4.82002C68.6069 5.57337 68.2724 8.17969 66.357 9.37332C65.0824 10.1676 63.2979 10.2174 62.0046 10.254C61.0997 10.2794 60.1595 10.2521 60.2014 10.2549C60.817 10.2956 61.4295 10.3746 62.0353 10.4914C63.3281 10.7406 65.8873 11.1191 67.3247 12.979C67.6525 13.4032 68.4753 14.618 68.4056 16.7573C67.6926 17.2119 66.2973 17.9319 64.587 17.7544C63.0194 17.5916 61.9167 16.7506 60.7258 15.8419C59.9117 15.2205 59.1726 14.5064 58.5231 13.714C59.0457 14.4802 59.5147 15.2817 59.9268 16.1127C60.6165 17.5034 61.068 18.4135 61.1269 19.3734C61.2664 21.6479 59.1577 23.4804 58.4511 24.0466C57.5324 23.6648 55.6919 22.726 55.0583 20.8849C54.7351 19.9455 54.8056 19.0021 54.9242 17.4117C54.9934 16.4823 55.1279 15.5589 55.3267 14.6485C55.3269 14.647 55.327 14.6463 55.327 14.6462C55.3225 14.6437 55.255 14.7663 55.2337 14.8052L55.2274 14.8165C55.1991 14.8686 54.7766 15.46 54.2976 15.7998C53.8664 16.1056 52.9494 16.5196 51.6938 16.732C50.8215 14.9663 51.0661 12.939 52.2638 11.6818C53.4051 10.4834 54.9694 10.4505 55.3102 10.4512C54.4593 10.1284 53.6082 9.80565 52.7572 9.48283Z"/>
            <path d="M36.9395 18.0086C37.5669 18 38.1598 18.0516 38.5208 18.1289C38.8473 18.2063 39.3544 18.3438 39.6637 18.4469C39.9731 18.5414 40.4544 18.7391 40.738 18.8852C41.0215 19.0227 41.4684 19.2805 41.7262 19.4524C41.984 19.6242 42.4653 20.011 42.7919 20.3203C43.1184 20.6297 43.5481 21.0938 43.7458 21.3516C43.952 21.6094 44.27 22.1164 44.4676 22.4688C44.6567 22.8211 44.9145 23.4055 45.0348 23.7578C45.1551 24.1102 45.3098 24.7461 45.3786 25.1758C45.4473 25.6055 45.5075 26.1125 45.5075 26.6797L47.802 26.7055C50.0708 26.7227 50.1137 26.7227 50.5778 26.9375C50.8356 27.0578 51.2223 27.3157 51.4372 27.5133C51.652 27.7024 51.927 28.0461 52.0559 28.2782C52.1848 28.5102 52.3309 28.8969 52.3739 29.1289C52.4255 29.3696 52.9153 35.2219 53.4653 42.1485C54.402 53.8617 54.4622 54.7985 54.3762 55.5977C54.3247 56.0703 54.1872 56.7235 54.0755 57.0586C53.9637 57.3938 53.7833 57.8321 53.6715 58.0469C53.5598 58.2617 53.3364 58.6485 53.1559 58.9063C52.984 59.1641 52.6145 59.6024 52.3309 59.886C52.0559 60.161 51.609 60.5305 51.3512 60.711C51.0934 60.8828 50.6723 61.1321 50.4231 61.261C50.1825 61.3813 49.5809 61.5961 48.2145 62H25.7848L24.8997 61.7422C24.4184 61.5961 23.8169 61.3813 23.5676 61.261C23.327 61.1321 22.9059 60.8828 22.6481 60.711C22.3903 60.5305 21.9434 60.161 21.6684 59.886C21.3848 59.6024 21.0153 59.1641 20.8434 58.9063C20.663 58.6485 20.4395 58.2617 20.3278 58.0469C20.2161 57.8321 20.0356 57.3938 19.9239 57.0586C19.8122 56.7235 19.6747 56.0703 19.6231 55.5977C19.5372 54.7985 19.6059 53.8446 20.534 42.1485C21.084 35.2219 21.5739 29.361 21.6255 29.1289C21.6684 28.8883 21.8145 28.5102 21.9434 28.2782C22.0723 28.0461 22.3473 27.7024 22.5622 27.5133C22.777 27.3157 23.1637 27.0578 23.4215 26.9375C23.8856 26.7227 23.9286 26.7227 28.4919 26.6797V26.3188C28.4919 26.1125 28.552 25.6055 28.6208 25.1758C28.6895 24.7461 28.8442 24.1102 28.9645 23.7578C29.0848 23.4055 29.3426 22.8211 29.5317 22.4688C29.7294 22.1164 30.0473 21.6094 30.2536 21.3516C30.4512 21.0938 30.8809 20.6297 31.2075 20.3203C31.534 20.011 32.0153 19.6242 32.2731 19.4524C32.5309 19.2805 32.9778 19.0227 33.2614 18.8852C33.545 18.7391 33.9919 18.5586 34.2497 18.4727C34.5075 18.3867 34.9973 18.2492 35.3239 18.1633C35.702 18.0688 36.3036 18.0172 36.9309 18.0086H36.9395ZM34.645 21.0852C34.3614 21.2141 33.8973 21.4719 33.6137 21.6696C33.3301 21.8586 32.9434 22.1852 32.7544 22.3914C32.5567 22.5977 32.2731 22.9672 32.1098 23.1992C31.9465 23.4399 31.7145 23.861 31.5856 24.1446C31.4567 24.4282 31.2934 24.961 31.2161 25.3305C31.1387 25.6914 31.0786 26.1469 31.0786 26.336V26.6797H42.938C42.938 26.1469 42.8778 25.6914 42.8005 25.3219C42.7231 24.961 42.5598 24.4282 42.4309 24.1446C42.302 23.861 42.07 23.4313 41.9067 23.1992C41.7434 22.9672 41.4598 22.5977 41.2622 22.3914C41.0731 22.1852 40.6864 21.8586 40.4028 21.6696C40.1192 21.4719 39.6551 21.2141 39.3715 21.0852C39.088 20.9563 38.5551 20.793 38.1856 20.7157C37.8247 20.6383 37.2661 20.5782 36.9395 20.5867C36.6215 20.5867 36.0887 20.6469 35.7622 20.7242C35.427 20.793 34.9286 20.9563 34.645 21.0852ZM24.0919 30.1172C24.0661 30.4266 23.602 36.15 23.0778 42.836C22.2098 53.7758 22.1239 55.0563 22.2098 55.5977C22.27 55.9414 22.4505 56.4742 22.6309 56.8438C22.8458 57.2907 23.1122 57.6602 23.5075 58.0469C23.8169 58.3563 24.3067 58.7344 24.5903 58.8805C24.8739 59.0352 25.3551 59.2157 25.6645 59.2844C26.1544 59.4047 27.5809 59.4219 37.0083 59.4219C46.4356 59.4219 47.8622 59.4047 48.352 59.2844C48.6614 59.2157 49.1426 59.0352 49.4262 58.8805C49.7098 58.7344 50.1997 58.3563 50.509 58.0469C50.9044 57.6602 51.1708 57.2907 51.3856 56.8438C51.5661 56.4742 51.7465 55.9414 51.8067 55.5977C51.8926 55.0563 51.8067 53.7844 50.9387 42.836C50.4145 36.15 49.9505 30.4266 49.9247 30.1172C49.8817 29.7477 49.813 29.5071 49.7098 29.4125C49.5723 29.275 49.3403 29.2578 47.5356 29.2578H45.5161C45.5161 32.4633 45.4989 32.6953 45.3442 33.0219C45.2153 33.2883 45.0778 33.4258 44.8028 33.5547C44.6051 33.6492 44.3473 33.7266 44.227 33.7266C44.1067 33.7266 43.8575 33.6492 43.6684 33.5547C43.4622 33.4602 43.2473 33.2625 43.1356 33.0649C42.9551 32.7555 42.9465 32.6352 42.938 31.0024V29.2578H31.0786C31.07 32.6352 31.0614 32.7555 30.8809 33.0649C30.7692 33.2625 30.5544 33.4602 30.3481 33.5547C30.159 33.6492 29.9098 33.7266 29.7895 33.7266C29.6692 33.7266 29.4114 33.6492 29.2051 33.5547C28.9387 33.4258 28.8012 33.2883 28.6723 33.0219C28.5176 32.6953 28.5005 32.4633 28.5005 30.9594V29.2578C24.6762 29.2578 24.4442 29.275 24.3067 29.4125C24.2036 29.5071 24.1348 29.7477 24.0919 30.1172ZM41.9067 39.4844C42.07 39.4844 42.345 39.5532 42.5083 39.6477C42.6715 39.7336 42.895 39.9571 42.9981 40.1375C43.1098 40.318 43.1958 40.593 43.1958 40.7305C43.1958 40.868 43.1184 41.143 43.0239 41.3321C42.9208 41.5469 41.6059 42.9219 39.4403 45.0875C37.5583 46.961 35.9169 48.5422 35.7794 48.5852C35.6505 48.6367 35.384 48.6797 35.1778 48.6797C34.9801 48.6797 34.7223 48.6196 34.602 48.5422C34.4817 48.4649 33.6567 47.6828 32.7715 46.7977C31.8778 45.9211 31.0786 45.0532 30.984 44.8813C30.8981 44.7008 30.8208 44.4516 30.8208 44.3227C30.8208 44.1852 30.8981 43.9188 30.9926 43.7211C31.1215 43.4461 31.259 43.3086 31.534 43.1797C31.7317 43.0852 31.9895 43.0078 32.1098 43.0078C32.2301 43.0078 32.4794 43.0852 32.6684 43.1797C32.8575 43.2742 33.5106 43.85 35.2465 45.586L38.1684 42.6641C39.7755 41.0657 41.2106 39.6907 41.3481 39.6219C41.4856 39.5446 41.7434 39.4844 41.9067 39.4844Z"/>
        </g>
    </g>

    <g id="icon-3" class="hidden">
        <path d="M73 41.3614C73 49.2862 70.3851 56.9896 65.5607 63.2768C60.7364 69.564 53.9723 74.0836 46.3175 76.1347C38.6627 78.1858 30.545 77.6538 23.2234 74.6211C15.9018 71.5884 9.7855 66.2245 5.82309 59.3614C1.86067 52.4983 0.273587 44.5195 1.30798 36.6624C2.34238 28.8054 5.94045 21.5092 11.5442 15.9055C17.1479 10.3018 24.444 6.70377 32.3011 5.66937C40.1581 4.63498 48.1369 6.22206 55 10.1845" stroke="#7FC394" stroke-width="2" stroke-linecap="round" stroke-linejoin="round"/>
        <g fill="#7FC394">
            <path d="M52.7572 9.48283L53.404 8.32194L55.5446 9.82661C55.3318 9.51047 54.5285 8.23751 54.789 6.56389C55.1628 4.16119 57.3879 3.12412 57.5589 3.04775C57.7509 3.22814 58.816 4.24871 59.1408 5.53472C59.3923 6.53349 59.1208 7.3858 59.1089 7.41376C59.1089 7.41376 59.1104 7.4103 59.1088 7.41483C59.1034 7.42713 59.0556 7.536 59.0577 7.53677C59.0598 7.53755 59.0577 7.53677 59.0579 7.5357C59.5091 6.79371 60.0654 6.12116 60.7092 5.53903C61.3305 4.97784 62.417 3.9966 63.9904 3.68331C66.2924 3.22452 68.1958 4.48081 68.6778 4.82002C68.6069 5.57337 68.2724 8.17969 66.357 9.37332C65.0824 10.1676 63.2979 10.2174 62.0046 10.254C61.0997 10.2794 60.1595 10.2521 60.2014 10.2549C60.817 10.2956 61.4295 10.3746 62.0353 10.4914C63.3281 10.7406 65.8873 11.1191 67.3247 12.979C67.6525 13.4032 68.4753 14.618 68.4056 16.7573C67.6926 17.2119 66.2973 17.9319 64.587 17.7544C63.0194 17.5916 61.9167 16.7506 60.7258 15.8419C59.9117 15.2205 59.1726 14.5064 58.5231 13.714C59.0457 14.4802 59.5147 15.2817 59.9268 16.1127C60.6165 17.5034 61.068 18.4135 61.1269 19.3734C61.2664 21.6479 59.1577 23.4804 58.4511 24.0466C57.5324 23.6648 55.6919 22.726 55.0583 20.8849C54.7351 19.9455 54.8056 19.0021 54.9242 17.4117C54.9934 16.4823 55.1279 15.5589 55.3267 14.6485C55.3269 14.647 55.327 14.6463 55.327 14.6462C55.3225 14.6437 55.255 14.7663 55.2337 14.8052L55.2274 14.8165C55.1991 14.8686 54.7766 15.46 54.2976 15.7998C53.8664 16.1056 52.9494 16.5196 51.6938 16.732C50.8215 14.9663 51.0661 12.939 52.2638 11.6818C53.4051 10.4834 54.9694 10.4505 55.3102 10.4512C54.4593 10.1284 53.6082 9.80565 52.7572 9.48283Z"/>
            <path d="M17.2773 19.5086L49.375 19.5L50.1197 19.7018C50.5233 19.9037 50.7207 20.0753 50.927 20.3073C51.1247 20.5222 51.5325 20.9128 51.6523 21.7773L51.6781 35.4242C51.6953 48.3492 51.7039 49.0625 51.85 49.0625C51.9273 49.0625 52.3055 48.9852 52.6836 48.8906C53.0617 48.7875 53.7406 48.5297 54.1875 48.3148C54.918 47.9539 55.107 47.8078 55.975 46.9398C56.6883 46.218 57.0062 45.9516 57.2211 45.9172C57.4016 45.8742 57.6078 45.9172 57.8398 46.0203C58.0289 46.1148 58.2609 46.3039 58.3555 46.4414C58.4586 46.5789 58.5617 46.8711 58.5961 47.0859C58.6391 47.3008 58.7422 47.9797 58.8367 48.5898C58.9484 49.3289 59 50.1539 59 51.0391C59 51.7695 58.9656 52.5859 58.9227 52.8438C58.8711 53.1016 58.7766 53.6859 58.6992 54.1328C58.6219 54.5797 58.4156 55.3961 58.2352 55.9375C58.0547 56.4789 57.7281 57.2781 57.5133 57.6992C57.2984 58.1203 56.8773 58.8164 56.5852 59.2375C56.2844 59.6586 55.6656 60.3547 55.2188 60.7844C54.7633 61.2141 54.093 61.7727 53.7148 62.0219C53.3367 62.2711 52.7609 62.6063 52.4258 62.7695C52.0906 62.9328 51.4547 63.1562 51.0078 63.2766C50.3633 63.457 49.9852 63.5 49.2289 63.5C48.4469 63.5 48.1031 63.457 47.4672 63.2766C47.0289 63.1562 46.4016 62.9156 46.0664 62.7523C45.7312 62.5891 45.3102 62.3398 45.1211 62.2109C44.932 62.082 44.5797 61.7898 44.3391 61.5578C44.107 61.3258 43.8062 60.9992 43.6773 60.8359C43.5398 60.6727 43.4281 60.5523 43.4109 60.5781C43.4023 60.6039 43.2562 60.8187 43.0844 61.0508C42.9211 61.2914 42.5687 61.6695 42.3195 61.9016C42.0617 62.125 41.6062 62.4688 41.2969 62.6492C40.9875 62.8297 40.3773 63.0961 39.9477 63.2422C39.243 63.4656 39.0281 63.5 38.1602 63.5C37.2664 63.5 37.0859 63.4742 36.2953 63.2078C35.8055 63.0531 35.1266 62.7523 34.7828 62.5461C34.4305 62.3398 33.8375 61.9188 33.4508 61.6094C33.0727 61.3 32.5398 60.7844 32.282 60.4664C32.0156 60.1484 31.6547 59.6586 31.4742 59.3922C31.2937 59.1258 31.0016 58.593 30.8125 58.2148C30.632 57.8367 30.3914 57.2266 30.082 56.1953L17.2773 56.1523L16.8047 55.9375C16.5469 55.8172 16.1602 55.5594 15.9453 55.3617C15.7305 55.1727 15.4469 54.7859 15.043 54.0039V21.6914L15.2406 21.2875C15.4041 20.9128 15.6102 20.6773 15.8422 20.4367C16.0742 20.1789 16.5161 19.8479 16.8169 19.7018L17.2773 19.5086ZM16.8305 21.4422C16.7273 21.5883 16.5984 21.8031 16.5555 21.932C16.4867 22.0953 16.4609 26.968 16.4609 37.8305C16.4609 52.8438 16.4695 53.5141 16.6242 53.8406C16.7102 54.0297 16.8563 54.2531 16.9422 54.3305C17.0281 54.4164 17.2602 54.5367 17.4492 54.6055C17.7414 54.7172 18.7469 54.7344 23.7656 54.7344L29.7383 54.743C29.7383 51.2625 29.7727 50.6352 29.9016 49.9305C29.9875 49.432 30.1164 48.925 30.1766 48.7875C30.2453 48.6586 30.4258 48.4781 30.5805 48.375C30.7867 48.2461 30.9414 48.2117 31.2422 48.2461C31.5945 48.2891 31.6891 48.3578 32.4023 49.0969C33.0555 49.7758 33.2875 49.9562 33.9062 50.257C34.3102 50.4547 34.9461 50.6953 35.3242 50.7898C35.7625 50.9016 36.5273 50.9961 37.4297 51.0477C38.2117 51.0906 39.0969 51.1852 39.4062 51.2711C39.7156 51.3484 40.2312 51.5375 40.5664 51.6836C40.9016 51.8383 41.3656 52.0875 41.5977 52.2508C41.8383 52.4141 42.2078 52.7234 42.4398 52.9297C42.6633 53.1445 42.8609 53.3078 42.8695 53.282C42.8867 53.2563 43.0414 53.007 43.2133 52.7234C43.3766 52.4398 43.7117 51.993 43.9437 51.7352C44.1758 51.4773 44.6055 51.0734 44.9148 50.8414C45.2156 50.6094 45.8172 50.257 46.2383 50.0508C46.6594 49.8445 47.3039 49.6039 47.6562 49.5008C48.0086 49.4063 48.7391 49.2773 49.2719 49.2172L50.2344 49.1141C50.2258 24.1578 50.2086 22.25 50.0969 21.9578C50.0281 21.7687 49.9078 21.5367 49.8219 21.4508C49.7445 21.3648 49.5211 21.2188 49.332 21.1328C49.0141 20.9867 48.6789 20.9695 44.8289 20.9695H40.6695C40.6523 32.382 40.6437 32.7172 40.4891 33.0008C40.4031 33.1641 40.2312 33.4133 40.1023 33.5422C39.982 33.6797 39.7758 33.843 39.6469 33.9117C39.5094 33.9805 39.243 34.0664 39.0453 34.118C38.7789 34.1781 38.5555 34.1695 38.2461 34.0922C37.9797 34.0234 36.9742 33.4734 35.625 32.6742C34.4219 31.9523 33.382 31.3594 33.3305 31.368C33.2703 31.368 32.2219 31.9609 31.0102 32.6914C29.575 33.5508 28.6469 34.0492 28.3891 34.1094C28.0969 34.1781 27.8562 34.1781 27.5727 34.1094C27.3406 34.0578 27.0227 33.9117 26.8422 33.7914C26.6703 33.6625 26.4555 33.4391 26.3523 33.3016C26.2578 33.1555 26.1375 32.9062 26.0859 32.743C26.0344 32.5539 26 30.3539 26 26.7016V20.9695C18.6867 20.9781 17.5438 21.0039 17.3203 21.0812C17.157 21.1414 16.9422 21.3047 16.8305 21.4422ZM27.4609 32.3992C27.8477 32.6828 27.9937 32.7258 28.1055 32.6914C28.2 32.657 29.2227 32.0555 30.3828 31.3594C31.543 30.6633 32.6602 30.0445 32.875 29.9844C33.1758 29.8984 33.3562 29.8984 33.7086 29.9758C34.0266 30.0445 34.8086 30.4656 36.3297 31.3766C37.5242 32.0898 38.5984 32.6742 38.7016 32.6742C38.8133 32.6742 38.968 32.6141 39.0453 32.5367C39.1742 32.4078 39.1914 31.875 39.2086 26.6844L39.2258 20.9695H27.4609V32.3992ZM55.8633 49.0281C55.5797 49.2258 55.107 49.518 54.8063 49.6641C54.5141 49.8102 53.9727 50.025 53.6031 50.1453C53.2422 50.2656 52.632 50.4203 52.2539 50.4891C51.8758 50.5578 50.982 50.6352 50.2773 50.6609C49.4352 50.6953 48.7391 50.7727 48.2578 50.8844C47.8539 50.9789 47.2609 51.1852 46.9258 51.3398C46.5906 51.4945 46.0836 51.8039 45.7828 52.0187C45.4906 52.2422 45.0781 52.6461 44.8633 52.9125C44.6484 53.1875 44.3391 53.6773 44.1758 54.0125C44.0125 54.3391 43.8148 54.9062 43.7375 55.2586C43.643 55.7141 43.6086 56.1523 43.643 56.7625C43.6687 57.3469 43.7547 57.8109 43.8922 58.2148C43.9953 58.5414 44.15 58.825 44.2188 58.8508C44.2875 58.868 44.6141 58.8164 44.9492 58.7391C45.2844 58.6531 45.9891 58.4383 46.5133 58.2492C47.0461 58.0687 47.8453 57.7508 48.275 57.5445C48.7133 57.3383 49.4437 56.9172 49.8906 56.6164C50.3375 56.3242 51.025 55.7656 51.4289 55.3875C51.8242 55.0094 52.4688 54.2703 52.8555 53.7547C53.2336 53.2305 53.6203 52.7836 53.6977 52.7406C53.775 52.7062 53.9383 52.6805 54.0586 52.6805C54.1789 52.6805 54.368 52.775 54.4883 52.8953C54.6258 53.0328 54.7031 53.2047 54.7031 53.3852C54.7117 53.5914 54.5656 53.875 54.1703 54.4422C53.8781 54.8633 53.182 55.6625 52.6406 56.2125C51.9531 56.9 51.3602 57.3984 50.707 57.8281C50.1828 58.1719 49.375 58.6445 48.9023 58.868C48.4297 59.1 47.5961 59.4352 47.0547 59.6242C46.5133 59.8133 45.843 60.0195 45.568 60.0797C45.3016 60.1484 45.0781 60.2258 45.0781 60.2602C45.0781 60.3031 45.3016 60.5008 45.568 60.7156C45.843 60.9305 46.3758 61.2656 46.7539 61.4461C47.132 61.6352 47.7336 61.85 48.0859 61.9273C48.5242 62.0219 48.9883 62.0477 49.5469 62.0219C50.1398 61.9961 50.5695 61.9102 51.0938 61.7297C51.4977 61.6008 52.168 61.2742 52.5891 61.0164C53.0961 60.707 53.6805 60.2344 54.282 59.6414C54.8836 59.0484 55.3734 58.4727 55.7 57.9656C55.975 57.5359 56.3445 56.8656 56.5164 56.4617C56.6883 56.0578 56.9117 55.4391 57.0148 55.0867C57.1094 54.7344 57.2555 54.1156 57.3242 53.7117C57.4016 53.3078 57.4875 52.3969 57.5133 51.6922C57.5391 50.9188 57.5219 50.025 57.4617 49.4578C57.4016 48.9336 57.3414 48.3664 57.3242 48.1859C57.2984 48.0141 57.2555 47.868 57.2211 47.868C57.1867 47.868 56.9805 48.0484 56.7656 48.2633C56.5508 48.4781 56.1469 48.8219 55.8633 49.0281ZM31.3023 50.4203C31.268 50.5578 31.2164 51.357 31.182 52.2078C31.1477 53.2391 31.1648 53.9953 31.2336 54.4852C31.2937 54.8891 31.4141 55.525 31.5172 55.9031C31.6117 56.2812 31.8266 56.9172 32.007 57.3211C32.1789 57.725 32.4969 58.318 32.7203 58.6531C32.9352 58.9797 33.3648 59.5125 33.6656 59.8219C33.9578 60.1312 34.4562 60.5695 34.7656 60.793C35.075 61.025 35.582 61.3344 35.9086 61.4977C36.2266 61.6609 36.725 61.85 37.0258 61.9188C37.318 61.9875 37.8078 62.0477 38.1172 62.0477C38.4266 62.0477 38.9164 61.9875 39.2172 61.9188C39.5094 61.85 39.9562 61.6867 40.2055 61.5664C40.4461 61.4375 40.8328 61.2055 41.0648 61.0508C41.2883 60.8875 41.4688 60.7156 41.4688 60.6727C41.4688 60.6211 41.2625 60.5438 41.0219 60.4922C40.7727 60.4406 40.1969 60.2602 39.75 60.0883C39.3031 59.925 38.5812 59.6156 38.1602 59.4008C37.7391 59.1859 37.1203 58.8336 36.7852 58.6102C36.4586 58.3867 35.9516 57.9914 35.668 57.7422C35.3844 57.4844 34.9547 57.0633 34.7227 56.8055C34.482 56.5477 34.0953 56.0578 33.8461 55.7313C33.4937 55.2586 33.3992 55.0609 33.3906 54.8031C33.3906 54.5797 33.4508 54.425 33.6055 54.2703C33.7172 54.15 33.9148 54.0555 34.0352 54.0555C34.1555 54.0555 34.3187 54.0812 34.3961 54.1156C34.4734 54.1586 34.7484 54.4766 35.0148 54.8289C35.2727 55.1813 35.7539 55.757 36.0891 56.1008C36.4242 56.4531 36.9484 56.9172 37.2578 57.1492C37.5672 57.3727 38.143 57.7336 38.5469 57.9484C38.9508 58.1633 39.5867 58.4641 39.9648 58.6102C40.343 58.7477 41.0047 58.9625 41.4258 59.0828C41.8469 59.2031 42.268 59.2977 42.3539 59.2977C42.4398 59.2977 42.5172 59.2117 42.543 59.1C42.5602 58.9969 42.5 58.6617 42.3969 58.3523C42.2336 57.8711 42.2078 57.5875 42.2078 56.3672L42.1992 54.9406C41.8039 54.3648 41.5117 54.0469 41.2969 53.8578C41.082 53.6773 40.7211 53.4109 40.4805 53.2734C40.2484 53.1359 39.7414 52.9211 39.3633 52.8008C38.8133 52.6203 38.4008 52.5602 37.3008 52.5086C36.5445 52.4656 35.6594 52.3711 35.3242 52.3023C34.9977 52.2336 34.3961 52.0531 33.9922 51.907C33.5883 51.7609 33.0297 51.4945 32.7461 51.3227C32.4625 51.1508 32.0414 50.8242 31.8008 50.5922L31.3625 50.1883L31.3023 50.4203ZM26.5586 46.6992L26.8594 46.9141C27.0227 47.0344 27.2203 47.2836 27.3062 47.4727C27.4352 47.7734 27.4609 48.0828 27.4609 49.5781C27.4695 51.2711 27.4609 51.357 27.2633 51.7266C27.1172 52.0016 26.9453 52.1734 26.6789 52.3109C26.3094 52.5086 26.2664 52.5086 23.0781 52.5C20.1734 52.5 19.8211 52.4828 19.5117 52.3453C19.3227 52.2594 19.0734 52.0617 18.9531 51.8984C18.7469 51.6063 18.7383 51.5633 18.7125 49.793C18.6953 48.8047 18.7125 47.868 18.7383 47.7133C18.7641 47.5586 18.8758 47.3094 18.9875 47.1633C19.0992 47.0172 19.3141 46.8453 19.4773 46.7766C19.7094 46.6906 20.4914 46.6648 26.5586 46.6992ZM20.1562 51.0391H26V48.1172H20.1562V51.0391Z"/>
        </g>
    </g>

    <g id="icon-4" class="hidden">
        <path d="M73 41.3614C73 49.2862 70.3851 56.9896 65.5607 63.2768C60.7364 69.564 53.9723 74.0836 46.3175 76.1347C38.6627 78.1858 30.545 77.6538 23.2234 74.6211C15.9018 71.5884 9.7855 66.2245 5.82309 59.3614C1.86067 52.4983 0.273587 44.5195 1.30798 36.6624C2.34238 28.8054 5.94045 21.5092 11.5442 15.9055C17.1479 10.3018 24.444 6.70377 32.3011 5.66937C40.1581 4.63498 48.1369 6.22206 55 10.1845" stroke="#7FC394" stroke-width="2" stroke-linecap="round" stroke-linejoin="round"/>
        <g fill="#7FC394">
            <path d="M52.7572 9.48283L53.404 8.32194L55.5446 9.82661C55.3318 9.51047 54.5285 8.23751 54.789 6.56389C55.1628 4.16119 57.3879 3.12412 57.5589 3.04775C57.7509 3.22814 58.816 4.24871 59.1408 5.53472C59.3923 6.53349 59.1208 7.3858 59.1089 7.41376C59.1089 7.41376 59.1104 7.4103 59.1088 7.41483C59.1034 7.42713 59.0556 7.536 59.0577 7.53677C59.0598 7.53755 59.0577 7.53677 59.0579 7.5357C59.5091 6.79371 60.0654 6.12116 60.7092 5.53903C61.3305 4.97784 62.417 3.9966 63.9904 3.68331C66.2924 3.22452 68.1958 4.48081 68.6778 4.82002C68.6069 5.57337 68.2724 8.17969 66.357 9.37332C65.0824 10.1676 63.2979 10.2174 62.0046 10.254C61.0997 10.2794 60.1595 10.2521 60.2014 10.2549C60.817 10.2956 61.4295 10.3746 62.0353 10.4914C63.3281 10.7406 65.8873 11.1191 67.3247 12.979C67.6525 13.4032 68.4753 14.618 68.4056 16.7573C67.6926 17.2119 66.2973 17.9319 64.587 17.7544C63.0194 17.5916 61.9167 16.7506 60.7258 15.8419C59.9117 15.2205 59.1726 14.5064 58.5231 13.714C59.0457 14.4802 59.5147 15.2817 59.9268 16.1127C60.6165 17.5034 61.068 18.4135 61.1269 19.3734C61.2664 21.6479 59.1577 23.4804 58.4511 24.0466C57.5324 23.6648 55.6919 22.726 55.0583 20.8849C54.7351 19.9455 54.8056 19.0021 54.9242 17.4117C54.9934 16.4823 55.1279 15.5589 55.3267 14.6485C55.3269 14.647 55.327 14.6463 55.327 14.6462C55.3225 14.6437 55.255 14.7663 55.2337 14.8052L55.2274 14.8165C55.1991 14.8686 54.7766 15.46 54.2976 15.7998C53.8664 16.1056 52.9494 16.5196 51.6938 16.732C50.8215 14.9663 51.0661 12.939 52.2638 11.6818C53.4051 10.4834 54.9694 10.4505 55.3102 10.4512C54.4593 10.1284 53.6082 9.80565 52.7572 9.48283Z"/>
            <path d="M20.445 32.1742C20.7498 32.4873 21.2505 32.494 21.5635 32.1894L22.8854 30.9028C23.2041 30.5926 23.2047 30.0797 22.8854 29.7691L21.5635 28.4824C21.2505 28.1775 20.7497 28.1846 20.4449 28.4975C20.1402 28.8106 20.1469 29.3114 20.46 29.616L21.1996 30.3359L20.4601 31.0556C20.147 31.3604 20.1402 31.8612 20.445 32.1742Z"/>
            <path d="M16.3035 31.6713C16.7404 31.6713 17.0945 31.3172 17.0945 30.8802C17.0945 30.4433 16.7404 30.0892 16.3035 30.0892H13.3926C12.9557 30.0892 12.6016 30.4433 12.6016 30.8802C12.6016 31.3172 12.9557 31.6713 13.3926 31.6713H16.3035Z"/>
            <path d="M50.2773 34.6704C50.2773 36.9423 52.1256 38.7906 54.3975 38.7906C56.6694 38.7906 58.5177 36.9423 58.5177 34.6704C58.5177 32.3985 56.6694 30.5502 54.3975 30.5502C52.1256 30.5502 50.2773 32.3984 50.2773 34.6704ZM56.9358 34.6704C56.9358 36.07 55.7972 37.2086 54.3976 37.2086C52.998 37.2086 51.8595 36.0699 51.8595 34.6704C51.8595 33.2708 52.9981 32.1323 54.3976 32.1323C55.7972 32.1322 56.9358 33.2708 56.9358 34.6704Z"/>
            <path d="M21.5146 38.4595C21.1186 37.7213 20.9113 37.2131 20.9093 37.2081C20.7456 36.8034 20.285 36.608 19.8799 36.7711C19.4748 36.9347 19.279 37.3956 19.4425 37.8007C19.4519 37.8243 19.6803 38.387 20.1205 39.2075C20.3264 39.5912 20.8052 39.7376 21.1914 39.5306C21.5765 39.3241 21.7211 38.8446 21.5146 38.4595Z"/>
            <path d="M33.9934 43.1558C33.2379 43.389 32.4374 43.6746 31.6127 44.0051C31.5377 44.0353 31.4629 44.0639 31.3886 44.0911C30.9783 44.2412 30.7674 44.6955 30.9176 45.1057C31.0348 45.4264 31.3378 45.6252 31.6605 45.6252C31.7508 45.6252 31.8426 45.6097 31.9323 45.5768C32.3062 45.4403 33.1732 45.0648 34.4603 44.6674C34.8777 44.5385 35.1116 44.0957 34.9827 43.6783C34.8538 43.2607 34.4109 43.0268 33.9934 43.1558Z"/>
            <path d="M23.5701 43.7495C23.8958 44.042 24.396 44.0137 24.6871 43.6894C24.979 43.3643 24.9521 42.8642 24.6269 42.5723C24.0336 42.0396 23.4558 41.3977 22.9099 40.6645C22.649 40.3142 22.1534 40.2414 21.803 40.5025C21.4526 40.7634 21.3801 41.259 21.641 41.6094C22.2497 42.4266 22.8987 43.1468 23.5701 43.7495Z"/>
            <path d="M47.2567 46.1433C46.958 45.8247 46.4575 45.8085 46.1385 46.1075C45.8199 46.4063 45.8039 46.9069 46.1027 47.2256C46.6677 47.8281 47.2079 48.4716 47.8452 49.2528C48.1218 49.5917 48.6204 49.6414 48.9581 49.3655C49.2967 49.0894 49.3471 48.591 49.0709 48.2526C48.4131 47.4461 47.8527 46.7789 47.2567 46.1433Z"/>
            <path d="M39.5589 43.8754C39.9905 43.8921 40.3645 43.556 40.3834 43.1193C40.4023 42.6829 40.0638 42.3138 39.6273 42.2949C38.7361 42.2565 37.7616 42.3221 36.747 42.4909C36.3161 42.5629 36.025 42.9704 36.0968 43.4012C36.1613 43.7882 36.4964 44.0624 36.8761 44.0624C37.1153 44.0623 38.1317 43.8134 39.5589 43.8754Z"/>
            <path d="M50.8027 50.356C50.5192 50.0237 50.0197 49.9842 49.6876 50.2679C49.3554 50.5515 49.3159 51.0509 49.5995 51.383C49.9543 51.7987 50.2825 52.1679 50.6028 52.512C50.9007 52.8322 51.4014 52.8493 51.7207 52.5519C52.0404 52.2544 52.0583 51.7539 51.7607 51.434C51.456 51.1068 51.1426 50.7542 50.8027 50.356Z"/>
            <path d="M63.0453 30.8514C62.855 30.4582 62.3821 30.2937 61.9886 30.4841C61.5953 30.6745 61.4309 31.1475 61.6213 31.5408C62.15 32.633 62.418 33.8069 62.418 35.0296C62.418 37.3711 61.4217 40.7139 59.9388 43.3476C58.2738 46.3047 56.254 48.0008 54.3972 48.0008C52.5404 48.0008 50.5206 46.3047 48.8555 43.3476C47.3726 40.7138 46.3764 37.3711 46.3764 35.0296C46.3764 30.6069 49.9744 27.0088 54.3972 27.0088C56.4579 27.0088 58.4173 27.791 59.9146 29.2114C60.2315 29.512 60.7322 29.4988 61.033 29.182C61.3336 28.8649 61.3205 28.3643 61.0035 28.0636C59.211 26.3632 56.8648 25.4268 54.3972 25.4268C53.8091 25.4268 53.2332 25.4802 52.674 25.5819C45.6461 18.6484 34.5827 16.9984 25.6908 22.2391V22.2187C25.6908 21.3471 24.9817 20.638 24.1101 20.638H11.5807C10.7091 20.638 10 21.3471 10 22.2187V26.096C10 26.5329 10.3542 26.887 10.791 26.887C11.2279 26.887 11.582 26.5329 11.582 26.096L11.5807 22.2201L15.5754 22.2197V25.1049C15.5754 25.722 16.0774 26.2239 16.6945 26.2239H18.9964C19.6135 26.2239 20.1154 25.7219 20.1154 25.1049V22.2191L24.1088 22.2187C24.109 23.5692 24.1099 31.4971 24.1101 33.1344C21.5033 33.1347 13.9766 33.1355 11.582 33.1358V29.2585C11.582 28.8216 11.2279 28.4675 10.791 28.4675C10.3542 28.4675 10 28.8216 10 29.2585V33.1358C10 34.0074 10.7091 34.7164 11.5807 34.7164H15.7162C15.4833 35.4499 15.2863 36.1976 15.1295 36.9509C13.9139 42.7928 15.046 48.7582 18.3174 53.7487C24.9743 63.904 38.3893 66.8034 48.604 60.5898C53.3632 57.695 56.8377 53.1829 58.4119 47.8657C59.4485 46.9559 60.4306 45.6986 61.3173 44.1236C62.9469 41.2291 64 37.6594 64 35.0295C64 33.5661 63.6787 32.1604 63.0453 30.8514ZM18.5334 24.642H17.1574V22.2201H18.5334V24.642ZM16.6784 37.2732C16.8585 36.4077 17.0953 35.5504 17.3824 34.7164H24.1102C24.9818 34.7164 25.6909 34.0073 25.6909 33.1358V26.2923C27.1664 27.1072 28.2897 28.052 29.0378 29.1097C30.2376 30.8058 30.4386 32.7242 29.6527 34.9745C28.9598 36.9587 28.2193 38.7815 27.5033 40.5442C27.0467 41.6681 26.5958 42.7785 26.1657 43.9083C25.9395 43.9638 25.7397 44.1178 25.6351 44.3459C25.5124 44.6131 25.5517 44.9128 25.7112 45.136C24.4934 48.5214 23.5072 52.18 23.1497 56.9547C17.8314 52.1722 15.1192 44.766 16.6784 37.2732ZM47.7819 59.2382C45.7506 60.4739 43.5524 61.3378 41.2774 61.8173C41.0049 60.8842 40.7993 59.9042 40.6671 58.8932C40.6106 58.46 40.2133 58.1554 39.7803 58.2114C39.3472 58.268 39.0419 58.6651 39.0985 59.0983C39.2329 60.1266 39.4374 61.1274 39.7075 62.0855C34.4931 62.7697 29.0554 61.451 24.6573 58.1874C24.9194 53.121 25.9039 49.3126 27.151 45.8113C27.7487 45.9812 28.3569 46.0753 28.9697 46.0903C28.9763 46.0904 28.9829 46.0905 28.9893 46.0905C29.4173 46.0905 29.7693 45.749 29.7797 45.3188C29.7904 44.882 29.445 44.5193 29.0082 44.5087C28.5701 44.498 28.1337 44.4339 27.7023 44.321C28.1102 43.2538 28.5369 42.2028 28.9688 41.1397C29.6922 39.359 30.4402 37.5177 31.1462 35.4962C32.7483 30.9084 30.8106 27.0211 25.6907 24.5112V24.0991C29.9872 21.3039 35.0412 20.2114 40.0787 20.9747C39.7234 21.5899 39.2915 22.4495 38.9377 23.4901C37.968 26.3424 38.0498 29.2103 39.1747 31.784C39.6097 32.7795 40.0503 33.6696 40.4388 34.4549C41.836 37.2781 42.7814 39.1889 42.0905 42.8112C41.8324 42.8688 41.6088 43.0536 41.5151 43.3216C41.4015 43.6466 41.5132 43.9951 41.7672 44.1989C41.4702 45.2961 41.0447 46.5397 40.4663 47.9826C39.4782 50.4475 38.9553 53.0847 38.9121 55.8206C38.9053 56.2575 39.2538 56.6171 39.6906 56.624C39.6948 56.6241 39.6991 56.6241 39.7033 56.6241C40.1343 56.6241 40.4872 56.2782 40.494 55.8455C40.534 53.3035 41.0189 50.8561 41.9349 48.5712C42.4876 47.1924 42.9077 45.9711 43.2147 44.8733C43.5444 45.0548 43.8693 45.2611 44.1926 45.4972C44.5456 45.755 45.0402 45.6778 45.2979 45.3249C45.5555 44.9721 45.4784 44.4773 45.1255 44.2197C44.6244 43.8538 44.1184 43.546 43.5978 43.2885C44.4565 39.0085 43.3445 36.7595 41.8566 33.753C41.4573 32.9459 41.0443 32.1114 40.6241 31.1501C38.6818 26.706 40.9205 22.5723 41.7392 21.2937C45.1706 22.097 48.3065 23.7387 50.9022 26.0849C47.3301 27.4854 44.7941 30.9667 44.7941 35.0293C44.7941 37.6593 45.8471 41.2289 47.4768 44.1235C49.4589 47.6439 51.9165 49.5826 54.397 49.5826C55.026 49.5826 55.6535 49.4573 56.2723 49.2138C54.6154 53.3702 51.6571 56.8811 47.7819 59.2382Z"/>
        </g>
    </g>

    <g id="icon-5" class="hidden">
        <path d="M73 41.3614C73 49.2862 70.3851 56.9896 65.5607 63.2768C60.7364 69.564 53.9723 74.0836 46.3175 76.1347C38.6627 78.1858 30.545 77.6538 23.2234 74.6211C15.9018 71.5884 9.7855 66.2245 5.82309 59.3614C1.86067 52.4983 0.273587 44.5195 1.30798 36.6624C2.34238 28.8054 5.94045 21.5092 11.5442 15.9055C17.1479 10.3018 24.444 6.70377 32.3011 5.66937C40.1581 4.63498 48.1369 6.22206 55 10.1845" stroke="#7FC394" stroke-width="2" stroke-linecap="round" stroke-linejoin="round"/>
        <g fill="#7FC394">
            <path d="M52.7572 9.48283L53.404 8.32194L55.5446 9.82661C55.3318 9.51047 54.5285 8.23751 54.789 6.56389C55.1628 4.16119 57.3879 3.12412 57.5589 3.04775C57.7509 3.22814 58.816 4.24871 59.1408 5.53472C59.3923 6.53349 59.1208 7.3858 59.1089 7.41376C59.1089 7.41376 59.1104 7.4103 59.1088 7.41483C59.1034 7.42713 59.0556 7.536 59.0577 7.53677C59.0598 7.53755 59.0577 7.53677 59.0579 7.5357C59.5091 6.79371 60.0654 6.12116 60.7092 5.53903C61.3305 4.97784 62.417 3.9966 63.9904 3.68331C66.2924 3.22452 68.1958 4.48081 68.6778 4.82002C68.6069 5.57337 68.2724 8.17969 66.357 9.37332C65.0824 10.1676 63.2979 10.2174 62.0046 10.254C61.0997 10.2794 60.1595 10.2521 60.2014 10.2549C60.817 10.2956 61.4295 10.3746 62.0353 10.4914C63.3281 10.7406 65.8873 11.1191 67.3247 12.979C67.6525 13.4032 68.4753 14.618 68.4056 16.7573C67.6926 17.2119 66.2973 17.9319 64.587 17.7544C63.0194 17.5916 61.9167 16.7506 60.7258 15.8419C59.9117 15.2205 59.1726 14.5064 58.5231 13.714C59.0457 14.4802 59.5147 15.2817 59.9268 16.1127C60.6165 17.5034 61.068 18.4135 61.1269 19.3734C61.2664 21.6479 59.1577 23.4804 58.4511 24.0466C57.5324 23.6648 55.6919 22.726 55.0583 20.8849C54.7351 19.9455 54.8056 19.0021 54.9242 17.4117C54.9934 16.4823 55.1279 15.5589 55.3267 14.6485C55.3269 14.647 55.327 14.6463 55.327 14.6462C55.3225 14.6437 55.255 14.7663 55.2337 14.8052L55.2274 14.8165C55.1991 14.8686 54.7766 15.46 54.2976 15.7998C53.8664 16.1056 52.9494 16.5196 51.6938 16.732C50.8215 14.9663 51.0661 12.939 52.2638 11.6818C53.4051 10.4834 54.9694 10.4505 55.3102 10.4512C54.4593 10.1284 53.6082 9.80565 52.7572 9.48283Z"/>
            <path d="M17.7073 24.407L45.2073 24.3984L45.7143 24.5961C45.9979 24.6992 46.3932 24.9398 46.6081 25.1289C46.8143 25.318 47.0893 25.6875 47.4417 26.418L47.4846 32.7344H51.0338C54.0503 32.7344 54.6432 32.7516 55.0471 32.8719C55.3049 32.9492 55.7518 33.1297 56.0354 33.2758C56.3362 33.4219 56.7745 33.757 57.0924 34.075C57.4534 34.4531 57.7198 34.8227 57.9174 35.2437C58.0807 35.5875 58.2526 36.0773 58.3042 36.318C58.3729 36.6273 58.3987 39.3 58.3987 44.7398C58.3987 52.1391 58.3901 52.7492 58.2526 53.1875C58.1495 53.4797 57.9518 53.8148 57.7026 54.0898C57.462 54.3477 57.1268 54.6055 56.8432 54.7344C56.4307 54.9148 56.2417 54.9406 53.7581 54.9922L53.6979 55.3617C53.6721 55.5594 53.5089 55.9891 53.337 56.3242C53.1565 56.6766 52.8385 57.1234 52.5549 57.3984C52.2971 57.6562 51.8503 57.9914 51.5667 58.1461C51.2831 58.2922 50.8018 58.4813 50.4924 58.5672C50.1831 58.6445 49.7362 58.7047 49.5042 58.7133C49.2635 58.7133 48.8081 58.6531 48.4729 58.5672C48.1378 58.4898 47.6393 58.2922 47.3557 58.1203C47.0721 57.957 46.6682 57.6562 46.462 57.4586C46.2557 57.2609 45.9464 56.8828 45.7745 56.625C45.6026 56.3672 45.3878 55.8945 45.1213 54.9922H28.9221L28.8276 55.4047C28.776 55.6281 28.6042 56.0578 28.4495 56.3672C28.2776 56.7023 27.9338 57.1406 27.6159 57.45C27.2721 57.7852 26.8682 58.0773 26.5159 58.2406C26.2065 58.3867 25.6479 58.5672 25.2698 58.6445C24.6424 58.7648 24.5221 58.7648 23.9378 58.6445C23.5854 58.5758 23.0096 58.3781 22.6659 58.2148C22.2792 58.0258 21.8753 57.7422 21.5745 57.4414C21.3167 57.1836 20.9987 56.7883 20.8612 56.5648C20.7323 56.3328 20.5432 55.9031 20.251 55.0352L18.9792 54.9836C17.9135 54.9492 17.6385 54.9062 17.2776 54.743C17.0456 54.6398 16.7018 54.4078 16.5213 54.2359C16.3409 54.0641 16.0831 53.7289 15.7307 53.0586L15.7049 39.7812C15.6878 28.3086 15.7049 26.4523 15.8167 26.1172C15.8854 25.9023 16.1088 25.5414 16.3065 25.3094C16.5471 25.0258 16.8565 24.8023 17.1917 24.6477L17.7073 24.407ZM17.312 26.1172C17.226 26.2375 17.1229 26.4352 17.0713 26.5641C17.0026 26.7273 16.9768 30.0273 16.9768 37.1602V47.5156H28.4924L28.5354 30.543C28.8276 29.9414 29.0768 29.5977 29.2831 29.4C29.4893 29.1937 29.8245 28.9445 30.0393 28.8414C30.4174 28.6523 30.4948 28.6523 35.1956 28.6266C39.2604 28.6094 40.0167 28.618 40.3088 28.7297C40.4979 28.7984 40.8159 28.9789 41.0135 29.1164C41.2198 29.2625 41.5034 29.5547 41.6409 29.7695C41.7784 29.9758 41.9588 30.3797 42.0276 30.6461C42.1393 31.0758 42.1565 32.3133 42.1565 39.2828V47.4297H46.0237C45.9807 26.7102 45.9807 26.5555 45.8088 26.3234C45.7143 26.1945 45.5253 26.0141 45.3964 25.9109L45.1557 25.7305C20.8526 25.6961 17.9909 25.7133 17.7503 25.7992C17.587 25.8594 17.3893 26.0055 17.312 26.1172ZM30.0737 30.3711C29.9706 30.5086 29.8417 30.7836 29.7901 30.9727C29.7299 31.2047 29.6956 33.8344 29.6956 39.3687V47.4297H40.6956L40.7042 30.8867C40.3948 30.4313 40.1971 30.2164 40.0682 30.1219C39.8276 29.9414 39.7417 29.9414 35.3417 29.9242C31.9042 29.907 30.787 29.9242 30.5549 30.0102C30.3917 30.0703 30.1768 30.2336 30.0737 30.3711ZM47.3987 47.4297H57.0237C56.9807 36.6875 56.9721 36.4555 56.8088 36.0688C56.7143 35.8453 56.5081 35.493 56.3534 35.2781C56.2073 35.0547 55.8979 34.7453 55.6659 34.582C55.4424 34.4187 55.0901 34.2211 54.8753 34.1352C54.5315 34.0063 54.0588 33.9805 50.9479 33.9547L47.4073 33.9289L47.3987 47.4297ZM16.9768 50.6266C16.9854 52.2594 17.0026 52.4914 17.1487 52.818C17.2432 53.0242 17.4495 53.2563 17.6042 53.3594C17.8534 53.5141 18.0081 53.5227 19.0823 53.5055L20.2768 53.4883C20.4315 52.8867 20.6034 52.457 20.7581 52.1562C20.9213 51.8469 21.2565 51.3828 21.5229 51.1164C21.8323 50.8156 22.2448 50.5148 22.6487 50.3172C23.001 50.1453 23.5081 49.9648 23.7659 49.9133C24.0237 49.8703 24.4362 49.8273 24.6682 49.8273C24.9088 49.8273 25.3299 49.8875 25.6135 49.9648C25.8971 50.0336 26.3268 50.1883 26.5588 50.3086C26.7995 50.4289 27.2034 50.7039 27.4612 50.9273C27.719 51.1508 28.0713 51.5719 28.2518 51.8555C28.4409 52.1391 28.6729 52.6289 28.776 52.9469L28.9651 53.5312H45.0784C45.2245 52.8953 45.4049 52.4398 45.5768 52.1133C45.7831 51.7437 46.0924 51.3398 46.4362 51.0219C46.737 50.7383 47.201 50.4117 47.5104 50.2742C47.8026 50.1367 48.2495 49.982 48.4987 49.9305C48.7479 49.8789 49.1518 49.8359 49.401 49.8359C49.6503 49.8359 50.0971 49.8961 50.4065 49.9648C50.7159 50.0422 51.1971 50.2227 51.4721 50.3773C51.7557 50.5234 52.194 50.85 52.4432 51.0992C52.6924 51.3484 53.0104 51.7352 53.1393 51.9586C53.2682 52.182 53.4573 52.6203 53.5604 52.9297L53.7495 53.4883C55.812 53.5227 56.1385 53.4969 56.3362 53.4023C56.4823 53.325 56.6799 53.1445 56.7917 52.9898C56.9721 52.7234 56.9807 52.6289 57.0065 50.7555L57.0237 48.8047H16.9768V50.6266ZM23.1299 51.5719C22.8463 51.7266 22.4854 52.0016 22.3221 52.1906C22.1588 52.3797 21.9268 52.7492 21.8065 53.007C21.6174 53.4023 21.5831 53.6086 21.5745 54.2102C21.5745 54.8633 21.6088 55.0094 21.8495 55.4992C22.0128 55.8344 22.2792 56.2125 22.537 56.4445C22.7604 56.6508 23.1385 56.9086 23.3792 57.0203C23.6112 57.1234 24.0237 57.2352 24.2815 57.2695C24.6081 57.3039 24.926 57.2781 25.3128 57.175C25.6221 57.0977 26.0604 56.9086 26.301 56.7453C26.5331 56.5906 26.8768 56.2555 27.0487 56.0062C27.2292 55.7484 27.4268 55.3703 27.5042 55.1555C27.5729 54.9406 27.6331 54.5109 27.6331 54.193C27.6331 53.832 27.5729 53.4367 27.4698 53.1617C27.3667 52.8867 27.1174 52.5086 26.8424 52.2078C26.5846 51.9156 26.1979 51.6148 25.9573 51.4945C25.7167 51.3742 25.3128 51.2539 25.0463 51.2195C24.7885 51.1852 24.3588 51.1852 24.101 51.2281C23.8518 51.2625 23.4049 51.4172 23.1299 51.5719ZM48.0432 51.4945C47.8026 51.6148 47.4159 51.9242 47.1581 52.2078C46.8831 52.5086 46.6338 52.8867 46.5307 53.1617C46.4276 53.4453 46.3674 53.832 46.3674 54.2102C46.3674 54.5969 46.4276 54.975 46.5307 55.2672C46.6253 55.5078 46.8229 55.8687 46.9776 56.0578C47.1237 56.2469 47.4073 56.5219 47.6049 56.668C47.794 56.8141 48.1464 57.0117 48.387 57.0977C48.6734 57.2065 49.0315 57.2609 49.4612 57.2609C49.9596 57.2523 50.2089 57.2094 50.5784 57.0375C50.8362 56.9172 51.2401 56.6508 51.4635 56.4445C51.7213 56.2125 51.9878 55.8344 52.151 55.4992C52.3917 55.0094 52.426 54.8633 52.426 54.2102C52.426 53.5914 52.3917 53.4109 52.194 53.007C52.0651 52.7492 51.8331 52.3797 51.6698 52.1906C51.5065 52.0016 51.1542 51.7266 50.8706 51.5719C50.5956 51.4258 50.1401 51.2711 49.8737 51.2281C49.6073 51.1852 49.1776 51.1852 48.9284 51.2195C48.6792 51.2539 48.2753 51.3742 48.0432 51.4945ZM38.3323 35.218C38.5643 35.218 38.676 35.2781 38.8049 35.4586C38.9081 35.5875 38.9854 35.7594 38.9768 35.8453C38.9768 35.9227 38.8823 36.1977 38.762 36.4469C38.6245 36.7391 38.5471 37.0398 38.5471 37.3234C38.5471 37.607 38.6245 37.9078 38.762 38.2086C38.8823 38.4492 38.9768 38.7414 38.9768 38.8531C38.9768 38.9563 38.8909 39.1281 38.7792 39.2398C38.676 39.343 38.4956 39.4375 38.3753 39.4375C38.2549 39.4375 38.0659 39.3602 37.9456 39.2742C37.8253 39.1883 37.6362 38.9047 37.5245 38.6469C37.3784 38.3289 37.301 37.968 37.2753 37.4953C37.2409 36.9367 37.2667 36.6961 37.4299 36.2062C37.5417 35.8797 37.7221 35.5188 37.8253 35.4156C37.9542 35.2867 38.126 35.218 38.3323 35.218ZM49.9338 35.9055C50.1229 35.9055 50.3034 35.9742 50.4065 36.0773C50.5698 36.2406 50.5784 36.3609 50.5784 40.8898H52.5721C54.4542 40.8813 54.5917 40.8984 54.8065 41.0617C54.9784 41.182 55.0471 41.3109 55.0471 41.5172C55.0557 41.6633 54.9784 41.8867 54.7206 42.2219H49.7362L49.2807 41.7922L49.2893 39.025C49.2893 36.3695 49.2979 36.2406 49.4612 36.0773C49.5643 35.9742 49.7448 35.9055 49.9338 35.9055Z"/>
        </g>
    </g>

    <g id="icon-6" class="hidden">
        <path d="M73 40.8614C73 48.7862 70.3851 56.4896 65.5607 62.7768C60.7364 69.064 53.9723 73.5836 46.3175 75.6347C38.6627 77.6858 30.545 77.1538 23.2234 74.1211C15.9018 71.0884 9.7855 65.7245 5.82309 58.8614C1.86067 51.9983 0.273587 44.0195 1.30798 36.1624C2.34238 28.3054 5.94045 21.0092 11.5442 15.4055C17.1479 9.80184 24.444 6.20377 32.3011 5.16937C40.1581 4.13498 48.1369 5.72206 55 9.68447" stroke="#7FC394" stroke-width="2" stroke-linecap="round" stroke-linejoin="round"/>
        <path d="M52.7573 8.98283L53.4041 7.82194L55.5447 9.32661C55.3319 9.01047 54.5287 7.73751 54.7891 6.06389C55.163 3.66119 57.388 2.62412 57.559 2.54775C57.7511 2.72814 58.8162 3.74871 59.1409 5.03472C59.3924 6.03349 59.1209 6.8858 59.109 6.91376C59.109 6.91376 59.1105 6.9103 59.1089 6.91483C59.1036 6.92713 59.0557 7.036 59.0578 7.03677C59.0599 7.03755 59.0578 7.03677 59.058 7.0357C59.5092 6.29371 60.0655 5.62116 60.7093 5.03903C61.3307 4.47784 62.4171 3.4966 63.9905 3.18331C66.2925 2.72452 68.196 3.98081 68.6779 4.32002C68.607 5.07337 68.2725 7.67969 66.3571 8.87332C65.0825 9.66764 63.298 9.7174 62.0048 9.75404C61.0998 9.77943 60.1596 9.75206 60.2016 9.75493C60.8171 9.79565 61.4296 9.87463 62.0354 9.99143C63.3282 10.2406 65.8874 10.6191 67.3248 12.479C67.6527 12.9032 68.4754 14.118 68.4057 16.2573C67.6927 16.7119 66.2975 17.4319 64.5872 17.2544C63.0195 17.0916 61.9168 16.2506 60.7259 15.3419C59.9119 14.7205 59.1727 14.0064 58.5232 13.214C59.0458 13.9802 59.5148 14.7817 59.9269 15.6127C60.6166 17.0034 61.0681 17.9135 61.127 18.8734C61.2665 21.1479 59.1579 22.9804 58.4512 23.5466C57.5326 23.1648 55.692 22.226 55.0585 20.3849C54.7353 19.4455 54.8057 18.5021 54.9243 16.9117C54.9936 15.9823 55.128 15.0589 55.3268 14.1485C55.327 14.147 55.3271 14.1463 55.3271 14.1462C55.3226 14.1437 55.2551 14.2663 55.2338 14.3052L55.2275 14.3165C55.1992 14.3686 54.7768 14.96 54.2977 15.2998C53.8666 15.6056 52.9495 16.0196 51.694 16.232C50.8217 14.4663 51.0662 12.439 52.2639 11.1818C53.4052 9.98339 54.9695 9.95047 55.3104 9.95116C54.4594 9.62843 53.6084 9.30565 52.7573 8.98283Z" fill="#7FC394"/>
        <path d="M52.6037 39.484V29.5789C52.6037 29.0866 52.4099 28.6396 52.0964 28.3066L47.2381 22.5139C47.0955 22.3438 46.8848 22.2456 46.6629 22.2456H20.9385C20.7165 22.2456 20.5059 22.3438 20.3633 22.5139L15.5001 28.3125L15.501 28.3133C15.1914 28.6455 15.0004 29.0898 15.0004 29.5789V55.4761C15.0004 56.4996 15.8331 57.3323 16.8566 57.3323H42.9672C45.005 60.017 48.2296 61.7544 51.853 61.7544C57.9993 61.7544 62.9997 56.7539 62.9997 50.6076C62.9997 44.7121 58.4012 39.8716 52.6037 39.484ZM49.6447 27.72H37.6394V23.7471H46.3127L49.6447 27.72ZM31.4634 29.2215H36.138V34.4535L35.6815 34.0316C35.5321 33.8935 35.3333 33.8216 35.1299 33.8334C34.9268 33.8448 34.737 33.9381 34.604 34.0921L33.8012 35.0208L33.0005 34.0926C32.8677 33.9385 32.6779 33.845 32.4748 33.8334C32.2716 33.8223 32.0726 33.8933 31.923 34.0312L31.4634 34.4553L31.4634 29.2215ZM31.4634 27.72V23.7471H36.138V27.72L31.4634 27.72ZM21.2887 23.7471H29.9619V27.72H17.9566L21.2887 23.7471ZM16.8566 55.8308C16.6643 55.8308 16.5018 55.6684 16.5018 55.4761V29.5789C16.5018 29.3819 16.661 29.2215 16.8566 29.2215H29.9619V36.1695C29.9619 36.4677 30.1384 36.7376 30.4115 36.8572C30.5083 36.8996 30.6108 36.9203 30.7125 36.9202C30.8977 36.9202 31.0803 36.8517 31.2218 36.7212L32.3706 35.6611L33.2322 36.6598C33.3747 36.8251 33.5821 36.9201 33.8003 36.9202H33.8007C34.0187 36.9202 34.2261 36.8254 34.3686 36.6604L35.2324 35.6611L36.3791 36.7208C36.5982 36.9233 36.9165 36.9769 37.1896 36.8573C37.4628 36.7377 37.6394 36.4678 37.6394 36.1695V29.2215H50.7448C50.9385 29.2215 51.1022 29.3852 51.1022 29.5789V39.4839C45.3032 39.8714 40.7035 44.7121 40.7035 50.6076C40.7035 52.4939 41.1752 54.2718 42.0059 55.8308L16.8566 55.8308ZM51.8529 60.2529C46.533 60.2529 42.205 55.926 42.205 50.6076C42.205 45.2876 46.533 40.9596 51.8529 40.9596C57.1714 40.9596 61.4983 45.2876 61.4983 50.6076C61.4983 55.926 57.1714 60.2529 51.8529 60.2529ZM57.2197 49.4755V51.737C57.2197 53.3247 55.9292 54.6164 54.343 54.6164H51.779L52.5679 55.1739C52.9065 55.4132 52.987 55.8817 52.7477 56.2203C52.6014 56.4273 52.3695 56.5378 52.134 56.5378C51.9842 56.5378 51.833 56.4931 51.7014 56.4001L48.9828 54.4787C48.7837 54.338 48.6654 54.1096 48.6653 53.8658C48.6652 53.6222 48.7835 53.3936 48.9824 53.2528L51.701 51.3288C52.0394 51.0893 52.5079 51.1695 52.7475 51.5079C52.987 51.8464 52.9068 52.3149 52.5683 52.5544L51.7764 53.1149H54.343C55.1013 53.1149 55.7183 52.4968 55.7183 51.737V49.4755C55.7183 48.7171 55.1013 48.1002 54.343 48.1002H47.2343C46.8196 48.1002 46.4835 47.7641 46.4835 47.3495C46.4835 46.9348 46.8196 46.5988 47.2343 46.5988H54.343C55.9292 46.5988 57.2197 47.8892 57.2197 49.4755Z" fill="#7FC394"/>
    </g>
    <g id="icon-7" class="hidden">
        <path d="M73 40.8614C73 48.7862 70.3851 56.4896 65.5607 62.7768C60.7364 69.064 53.9723 73.5836 46.3175 75.6347C38.6627 77.6858 30.545 77.1538 23.2234 74.1211C15.9018 71.0884 9.7855 65.7245 5.82309 58.8614C1.86067 51.9983 0.273587 44.0195 1.30798 36.1624C2.34238 28.3054 5.94045 21.0092 11.5442 15.4055C17.1479 9.80184 24.444 6.20377 32.3011 5.16937C40.1581 4.13498 48.1369 5.72206 55 9.68447" stroke="#7FC394" stroke-width="2" stroke-linecap="round" stroke-linejoin="round"/>
        <path d="M52.7573 8.98283L53.4041 7.82194L55.5447 9.32661C55.3319 9.01047 54.5287 7.73751 54.7891 6.06389C55.163 3.66119 57.388 2.62412 57.559 2.54775C57.7511 2.72814 58.8162 3.74871 59.1409 5.03472C59.3924 6.03349 59.1209 6.8858 59.109 6.91376C59.109 6.91376 59.1105 6.9103 59.1089 6.91483C59.1036 6.92713 59.0557 7.036 59.0578 7.03677C59.0599 7.03755 59.0578 7.03677 59.058 7.0357C59.5092 6.29371 60.0655 5.62116 60.7093 5.03903C61.3307 4.47784 62.4171 3.4966 63.9905 3.18331C66.2925 2.72452 68.196 3.98081 68.6779 4.32002C68.607 5.07337 68.2725 7.67969 66.3571 8.87332C65.0825 9.66764 63.298 9.7174 62.0048 9.75404C61.0998 9.77943 60.1596 9.75206 60.2016 9.75493C60.8171 9.79565 61.4296 9.87463 62.0354 9.99143C63.3282 10.2406 65.8874 10.6191 67.3248 12.479C67.6527 12.9032 68.4754 14.118 68.4057 16.2573C67.6927 16.7119 66.2975 17.4319 64.5872 17.2544C63.0195 17.0916 61.9168 16.2506 60.7259 15.3419C59.9119 14.7205 59.1727 14.0064 58.5232 13.214C59.0458 13.9802 59.5148 14.7817 59.9269 15.6127C60.6166 17.0034 61.0681 17.9135 61.127 18.8734C61.2665 21.1479 59.1579 22.9804 58.4512 23.5466C57.5326 23.1648 55.692 22.226 55.0585 20.3849C54.7353 19.4455 54.8057 18.5021 54.9243 16.9117C54.9936 15.9823 55.128 15.0589 55.3268 14.1485C55.327 14.147 55.3271 14.1463 55.3271 14.1462C55.3226 14.1437 55.2551 14.2663 55.2338 14.3052L55.2275 14.3165C55.1992 14.3686 54.7768 14.96 54.2977 15.2998C53.8666 15.6056 52.9495 16.0196 51.694 16.232C50.8217 14.4663 51.0662 12.439 52.2639 11.1818C53.4052 9.98339 54.9695 9.95047 55.3104 9.95116C54.4594 9.62843 53.6084 9.30565 52.7573 8.98283Z" fill="#7FC394"/>
        <path d="M16.9415 51.1642V64.7754C16.9415 64.9654 17.017 65.1476 17.1513 65.2819C17.2857 65.4163 17.4679 65.4918 17.6578 65.4918H21.9522C22.4642 65.4904 22.9589 65.3064 23.3473 64.9729C23.7358 64.6394 23.9926 64.1783 24.0715 63.6724L30.9115 66.8262C32.5526 67.5585 34.3713 67.7973 36.1459 67.5135C37.9204 67.2296 39.5739 66.4354 40.9047 65.2277L50.0193 56.9732C51.5481 55.6791 50.4088 53.0476 48.4617 53.215V45.4334C48.461 44.8636 48.2344 44.3174 47.8315 43.9145C47.4286 43.5116 46.8823 43.2849 46.3125 43.2843C43.7234 43.2882 38.1076 43.2816 35.5669 43.2843H29.1199C28.5501 43.2849 28.0038 43.5116 27.6009 43.9145C27.1979 44.3174 26.9713 44.8636 26.9707 45.4334V51.9042C26.9528 51.8606 24.1032 51.8876 23.9723 51.8807C23.8245 51.4626 23.551 51.1005 23.1894 50.8439C22.8277 50.5874 22.3956 50.4489 21.9522 50.4476H17.6577C17.5637 50.4476 17.4705 50.4661 17.3836 50.5022C17.2967 50.5382 17.2177 50.591 17.1512 50.6575C17.0847 50.7241 17.0319 50.8031 16.996 50.89C16.96 50.9769 16.9415 51.0701 16.9415 51.1642ZM39.1492 44.7168V47.6581L38.1205 46.9551C37.5241 46.5249 36.8559 47.338 36.2836 47.6581V44.7168H39.1492ZM29.12 44.7168H34.851V49.0151C34.8772 49.2257 34.9468 49.4381 35.1265 49.5659C35.2459 49.6591 35.3912 49.713 35.5425 49.7203C35.6937 49.7276 35.8435 49.6879 35.9713 49.6066L37.7165 48.4141L39.4611 49.6066C39.6038 49.7019 39.7759 49.7431 39.9462 49.7225C40.1166 49.7019 40.274 49.6211 40.3899 49.4945C40.5165 49.3715 40.5541 49.1832 40.5815 49.0151V44.7168H46.3129C46.5028 44.717 46.6849 44.7926 46.8192 44.9269C46.9535 45.0612 47.029 45.2432 47.0293 45.4332V53.7224L36.4878 58.8639C37.7605 56.8316 36.1406 53.9617 33.7345 54.0298H28.9365C28.8056 53.6507 28.658 53.0641 28.4035 52.7534V45.4334C28.4036 45.2435 28.4792 45.0613 28.6135 44.927C28.7478 44.7926 28.93 44.717 29.12 44.7168ZM27.3538 53.8045C27.6223 54.4285 27.6454 55.4685 28.419 55.4625H33.7359C34.2108 55.4625 34.6663 55.6512 35.0022 55.987C35.338 56.3228 35.5267 56.7783 35.5267 57.2533C35.5267 57.7282 35.338 58.1837 35.0022 58.5195C34.6663 58.8553 34.2108 59.044 33.7359 59.044H30.5526C30.4578 59.0429 30.3638 59.0607 30.2759 59.0962C30.1881 59.1317 30.1081 59.1843 30.0408 59.2509C29.9734 59.3176 29.9199 59.3969 29.8834 59.4843C29.8468 59.5718 29.828 59.6656 29.828 59.7604C29.828 59.8551 29.8468 59.949 29.8834 60.0364C29.9199 60.1239 29.9734 60.2032 30.0408 60.2698C30.1081 60.3364 30.1881 60.389 30.2759 60.4246C30.3638 60.4601 30.4578 60.4778 30.5526 60.4767H36.2836C36.3923 60.4766 36.4996 60.4519 36.5974 60.4044C36.7442 60.3331 48.323 54.6852 48.2467 54.7226C48.4012 54.6364 48.583 54.6132 48.7542 54.6579C48.9254 54.7027 49.0727 54.8118 49.1652 54.9626C49.2704 55.1057 49.3175 55.2833 49.2971 55.4597C49.2766 55.6361 49.1901 55.7982 49.055 55.9134L39.9425 64.1657C38.8192 65.1861 37.4233 65.8576 35.9249 66.0984C34.4266 66.3392 32.8905 66.1389 31.5041 65.5219L24.1045 62.1102V53.3138H26.6745C26.825 53.3135 26.9717 53.3608 27.0937 53.4489C27.2158 53.537 27.3068 53.6615 27.3538 53.8045ZM18.3741 51.8806H21.9522C22.1431 51.8808 22.326 51.9568 22.461 52.0917C22.596 52.2267 22.6719 52.4097 22.6722 52.6006V63.3385C22.6719 63.5293 22.5959 63.7123 22.4609 63.8472C22.326 63.9822 22.143 64.0581 21.9522 64.0585H18.3741V51.8806Z" fill="#7FC394"/>
        <path d="M40.5815 54.0297H42.7307C43.6668 54.0257 43.668 52.601 42.7307 52.597H40.5815C39.6457 52.601 39.6446 54.0256 40.5815 54.0297Z" fill="#7FC394"/>
        <path d="M57.0585 36.1202V25.3746C57.0585 25.1846 56.9831 25.0024 56.8487 24.8681C56.7144 24.7337 56.5322 24.6582 56.3422 24.6582C55.8357 24.7016 51.716 24.5382 51.3362 24.7874L45.1362 21.3074C43.7881 20.5419 42.2287 20.2329 40.6906 20.4265C39.1525 20.6201 37.7183 21.3059 36.602 22.3815L33.3017 25.5789L27.9964 22.2964L25.5569 20.787C25.4761 20.7376 25.3864 20.7047 25.2928 20.69C25.1993 20.6754 25.1038 20.6793 25.0118 20.7016C24.9198 20.7239 24.8331 20.7641 24.7567 20.8199C24.6802 20.8758 24.6155 20.9461 24.5663 21.027C23.7202 22.431 21.903 25.4493 21.0457 26.8719L19.5516 29.3521C19.4549 29.5126 19.4248 29.7046 19.468 29.8869C19.5111 30.0693 19.624 30.2275 19.7824 30.3277L34.5503 39.6555C38.2136 41.8986 37.1457 42.1024 39.5203 38.5514C39.5203 38.5514 39.5211 38.5509 39.5214 38.5504C39.5216 38.55 40.8728 36.4561 40.8729 36.4555L42.2512 37.2912C43.0422 37.7747 43.9531 38.0266 44.8802 38.0181C45.8073 38.0096 46.7134 37.7411 47.4954 37.2431L50.1035 35.5957C50.2756 35.9656 50.5495 36.2788 50.8932 36.4986C51.2368 36.7184 51.636 36.8358 52.044 36.8369H56.3423C56.4364 36.8369 56.5296 36.8183 56.6165 36.7823C56.7034 36.7463 56.7823 36.6935 56.8489 36.6269C56.9154 36.5604 56.9681 36.4814 57.0041 36.3944C57.0401 36.3075 57.0586 36.2143 57.0585 36.1202ZM25.4194 22.387L26.5303 23.0743C26.2862 23.2831 25.997 23.4323 25.6854 23.5103C25.3738 23.5882 25.0484 23.5928 24.7348 23.5236L25.4194 22.387ZM21.8233 28.3573C22.0312 28.6104 22.1785 28.9076 22.2538 29.2264C22.3292 29.5451 22.3305 29.8769 22.2579 30.1962L21.141 29.4906L21.8233 28.3573ZM37.141 39.5969L36.0234 38.891C36.2755 38.6795 36.5743 38.5309 36.8952 38.4575C37.2161 38.3841 37.5498 38.3881 37.8689 38.4691L37.141 39.5969ZM38.6692 37.2289C37.3456 36.6703 35.7225 37.046 34.7662 38.0965L23.5114 30.988C23.7636 30.3186 23.8111 29.5893 23.648 28.8927C23.4848 28.1962 23.1184 27.5639 22.5952 27.076L23.9728 24.7888C25.2903 25.295 26.8655 24.8957 27.7943 23.8565L35.5087 28.6297C33.8118 29.5601 33.8037 32.2473 35.496 33.1952L39.6474 35.7124L38.6692 37.2289ZM46.7299 36.0318C46.173 36.3866 45.5276 36.578 44.8672 36.5841C44.2068 36.5902 43.558 36.4109 42.9945 36.0665L36.2393 31.9704C36.0976 31.8847 35.9749 31.771 35.8785 31.6364C35.7822 31.5018 35.7143 31.3489 35.6789 31.1872C35.4155 30.1783 36.6052 29.2758 37.4881 29.8597L41.9754 32.6311C42.2832 32.846 42.7306 33.1057 43.0929 32.864C43.5575 32.6206 43.5525 31.9155 43.1078 31.6464L34.5582 26.3564L37.599 23.4105C38.4924 22.5493 39.6406 22.0005 40.8718 21.846C42.1031 21.6916 43.3512 21.9398 44.4297 22.5535L50.1703 25.775C49.9924 26.0894 49.8977 26.444 49.8953 26.8052V34.0329L46.7299 36.0318ZM55.6259 35.4041H52.0444C51.8545 35.4039 51.6724 35.3283 51.5381 35.1941C51.4038 35.0598 51.3282 34.8777 51.328 34.6878V26.8056C51.3281 26.6161 51.4035 26.4344 51.5375 26.3004C51.6715 26.1664 51.8531 26.0911 52.0426 26.0909H55.6259V35.4041Z" fill="#7FC394"/>
        <path d="M31.269 28.2401C27.4821 28.3601 27.483 33.8513 31.269 33.9711C35.056 33.8508 35.055 28.3599 31.269 28.2401ZM31.269 32.5383C29.386 32.5049 29.386 29.7061 31.269 29.6728C33.1519 29.7063 33.1517 32.5052 31.269 32.5383Z" fill="#7FC394"/>
        <path d="M53.9853 33.7631C54.2945 33.3747 54.224 32.9979 53.9853 32.7458C53.6075 32.4451 53.2303 32.4943 52.9681 32.7458C52.8356 32.882 52.7615 33.0645 52.7615 33.2545C52.7615 33.4444 52.8356 33.6269 52.9681 33.7631C53.2233 34.0047 53.6052 34.0659 53.9853 33.7631Z" fill="#7FC394"/>
        <path d="M20.0147 61.4013C19.7715 61.6564 19.7094 62.035 20.0147 62.4186C20.1153 62.5191 20.2435 62.5876 20.383 62.6154C20.5225 62.6431 20.6671 62.6289 20.7986 62.5744C20.93 62.52 21.0423 62.4278 21.1213 62.3095C21.2004 62.1912 21.2426 62.0522 21.2426 61.9099C21.2426 61.7677 21.2004 61.6286 21.1213 61.5103C21.0423 61.3921 20.93 61.2999 20.7986 61.2454C20.6671 61.191 20.5225 61.1767 20.383 61.2045C20.2435 61.2322 20.1153 61.3007 20.0147 61.4013Z" fill="#7FC394"/>
    </g>
    <g id="icon-8" class="hidden">
        <path d="M73 40.8614C73 48.7862 70.3851 56.4896 65.5607 62.7768C60.7364 69.064 53.9723 73.5836 46.3175 75.6347C38.6627 77.6858 30.545 77.1538 23.2234 74.1211C15.9018 71.0884 9.7855 65.7245 5.82309 58.8614C1.86067 51.9983 0.273587 44.0195 1.30798 36.1624C2.34238 28.3054 5.94045 21.0092 11.5442 15.4055C17.1479 9.80184 24.444 6.20377 32.3011 5.16937C40.1581 4.13498 48.1369 5.72206 55 9.68447" stroke="#7FC394" stroke-width="2" stroke-linecap="round" stroke-linejoin="round"/>
        <path d="M52.7573 8.98283L53.4041 7.82194L55.5447 9.32661C55.3319 9.01047 54.5287 7.73751 54.7891 6.06389C55.163 3.66119 57.388 2.62412 57.559 2.54775C57.7511 2.72814 58.8162 3.74871 59.1409 5.03472C59.3924 6.03349 59.1209 6.8858 59.109 6.91376C59.109 6.91376 59.1105 6.9103 59.1089 6.91483C59.1036 6.92713 59.0557 7.036 59.0578 7.03677C59.0599 7.03755 59.0578 7.03677 59.058 7.0357C59.5092 6.29371 60.0655 5.62116 60.7093 5.03903C61.3307 4.47784 62.4171 3.4966 63.9905 3.18331C66.2925 2.72452 68.196 3.98081 68.6779 4.32002C68.607 5.07337 68.2725 7.67969 66.3571 8.87332C65.0825 9.66764 63.298 9.7174 62.0048 9.75404C61.0998 9.77943 60.1596 9.75206 60.2016 9.75493C60.8171 9.79565 61.4296 9.87463 62.0354 9.99143C63.3282 10.2406 65.8874 10.6191 67.3248 12.479C67.6527 12.9032 68.4754 14.118 68.4057 16.2573C67.6927 16.7119 66.2975 17.4319 64.5872 17.2544C63.0195 17.0916 61.9168 16.2506 60.7259 15.3419C59.9119 14.7205 59.1727 14.0064 58.5232 13.214C59.0458 13.9802 59.5148 14.7817 59.9269 15.6127C60.6166 17.0034 61.0681 17.9135 61.127 18.8734C61.2665 21.1479 59.1579 22.9804 58.4512 23.5466C57.5326 23.1648 55.692 22.226 55.0585 20.3849C54.7353 19.4455 54.8057 18.5021 54.9243 16.9117C54.9936 15.9823 55.128 15.0589 55.3268 14.1485C55.327 14.147 55.3271 14.1463 55.3271 14.1462C55.3226 14.1437 55.2551 14.2663 55.2338 14.3052L55.2275 14.3165C55.1992 14.3686 54.7768 14.96 54.2977 15.2998C53.8666 15.6056 52.9495 16.0196 51.694 16.232C50.8217 14.4663 51.0662 12.439 52.2639 11.1818C53.4052 9.98339 54.9695 9.95047 55.3104 9.95116C54.4594 9.62843 53.6084 9.30565 52.7573 8.98283Z" fill="#7FC394"/>
        <path d="M32.1049 41.0103C31.2383 34.5836 32.3071 21.5842 43.5141 21C46.7395 23.3857 50.5619 31.1658 40.048 43.2012C44.6213 38.4786 55.4144 31.3411 62 40.5721C61.7112 44.6618 57.6239 51.7201 43.1818 49.5C44.963 50.5224 48.4244 53.9805 48.4244 57.3691C44.8139 59.6087 37.3093 60.9902 35.1667 51.4308L32.5381 57.2231L29.9385 56.2006L32.2917 50.4798C29.3551 52.8168 22.4575 56.2298 17.3739 48.7515C18.6737 46.7554 22.2842 43.026 26.328 44.0776C21.1289 41.3998 12.1459 33.6489 17.8072 24.0673C22.4287 23.0448 31.7583 25.0021 32.1049 41.0103Z" stroke="#7FC394" stroke-width="1.5" stroke-linejoin="round"/>
    </g>
    <g id="icon-9" class="hidden">
        <path d="M73 40.8614C73 48.7862 70.3851 56.4896 65.5607 62.7768C60.7364 69.064 53.9723 73.5836 46.3175 75.6347C38.6627 77.6858 30.545 77.1538 23.2234 74.1211C15.9018 71.0884 9.7855 65.7245 5.82309 58.8614C1.86067 51.9983 0.273587 44.0195 1.30798 36.1624C2.34238 28.3054 5.94045 21.0092 11.5442 15.4055C17.1479 9.80184 24.444 6.20377 32.3011 5.16937C40.1581 4.13498 48.1369 5.72206 55 9.68447" stroke="#7FC394" stroke-width="2" stroke-linecap="round" stroke-linejoin="round"/>
        <path d="M52.7574 8.98283L53.4042 7.82194L55.5448 9.32661C55.332 9.01047 54.5288 7.73751 54.7892 6.06389C55.1631 3.66119 57.3881 2.62412 57.5591 2.54775C57.7512 2.72814 58.8163 3.74871 59.141 5.03472C59.3926 6.03349 59.121 6.8858 59.1092 6.91376C59.1092 6.91376 59.1106 6.9103 59.109 6.91483C59.1037 6.92713 59.0559 7.036 59.0579 7.03677C59.06 7.03755 59.0579 7.03677 59.0581 7.0357C59.5094 6.29371 60.0656 5.62116 60.7094 5.03903C61.3308 4.47784 62.4173 3.4966 63.9906 3.18331C66.2926 2.72452 68.1961 3.98081 68.678 4.32002C68.6071 5.07337 68.2726 7.67969 66.3572 8.87332C65.0826 9.66764 63.2981 9.7174 62.0049 9.75404C61.1 9.77943 60.1598 9.75206 60.2017 9.75493C60.8173 9.79565 61.4297 9.87463 62.0355 9.99143C63.3283 10.2406 65.8876 10.6191 67.3249 12.479C67.6528 12.9032 68.4756 14.118 68.4059 16.2573C67.6928 16.7119 66.2976 17.4319 64.5873 17.2544C63.0196 17.0916 61.9169 16.2506 60.726 15.3419C59.912 14.7205 59.1728 14.0064 58.5234 13.214C59.0459 13.9802 59.5149 14.7817 59.927 15.6127C60.6168 17.0034 61.0683 17.9135 61.1271 18.8734C61.2666 21.1479 59.158 22.9804 58.4513 23.5466C57.5327 23.1648 55.6922 22.226 55.0586 20.3849C54.7354 19.4455 54.8058 18.5021 54.9245 16.9117C54.9937 15.9823 55.1282 15.0589 55.3269 14.1485C55.3271 14.147 55.3272 14.1463 55.3272 14.1462C55.3227 14.1437 55.2552 14.2663 55.234 14.3052L55.2277 14.3165C55.1993 14.3686 54.7769 14.96 54.2979 15.2998C53.8667 15.6056 52.9496 16.0196 51.6941 16.232C50.8218 14.4663 51.0664 12.439 52.264 11.1818C53.4053 9.98339 54.9697 9.95047 55.3105 9.95116C54.4595 9.62843 53.6085 9.30565 52.7574 8.98283Z" fill="#7FC394"/>
        <path d="M50.4348 23.5059C50.0996 23.2545 49.6527 23.2172 49.0941 23.3848C47.0086 23.9993 45.5189 25.8334 44.5786 27.1648C43.4427 28.7569 42.7352 30.6376 42.521 32.6021L41.3758 41.6238C41.3014 42.3221 41.8041 42.8993 42.5676 43.0017C43.5638 43.1134 44.3086 43.9421 44.3365 44.9755C44.3645 46.4372 43.1727 46.8841 42.5862 47.0145C42.13 46.1579 40.8172 43.7372 39.9607 42.6666C38.9086 41.3445 38.3221 39.65 38.3221 37.8717V36.1866C38.3221 33.1141 38.8714 29.8741 40.0072 26.2803C40.2214 25.61 40.3238 24.949 40.3238 24.3159C40.3238 21.4576 38.229 19.0555 37.3258 18.1617C37.2421 18.0686 37.121 18.0128 37 18.0128C36.879 18.0314 36.7579 18.0593 36.6648 18.1524C35.771 19.0648 33.6855 21.4762 33.6855 24.3065C33.6855 24.9676 33.7879 25.6286 33.9927 26.271C35.1286 29.8648 35.6872 33.0955 35.6872 36.1772V37.8624C35.6872 39.6314 35.1007 41.3259 34.0393 42.6572C33.2014 43.7186 31.9072 46.0834 31.4417 46.9679C30.9576 46.8097 30.2314 46.4652 29.9334 45.9345C29.6076 45.3572 29.589 44.659 29.8869 44.0259C30.1476 43.4672 30.7155 43.0948 31.5162 42.9738C32.2052 42.8621 32.6893 42.229 32.6148 41.5214L31.4883 32.5834C31.2741 30.6283 30.5665 28.7569 29.4307 27.1462C28.2855 25.5355 26.74 24.2321 24.971 23.3941C24.7755 23.301 24.2076 23.1986 23.7327 23.4686C23.4814 23.6083 23.1648 23.9155 23.0903 24.5765V53.8017C23.0903 54.5279 23.6769 55.1145 24.4031 55.1145H30.8272L30.911 55.3845C32.3448 59.9465 35.9758 63.1586 36.1341 63.289C36.3762 63.5031 36.6834 63.6241 37 63.6241C37.3165 63.6241 37.6331 63.5031 37.8658 63.2983C38.0241 63.1586 41.6645 59.9186 43.0983 55.3845L43.1821 55.1145H49.5969C50.3231 55.1145 50.9096 54.5279 50.9096 53.8017V24.5859C50.9096 24.1203 50.7421 23.7293 50.4348 23.5059ZM49.9786 53.811C49.9786 54.0159 49.8017 54.1928 49.5969 54.1928H42.8376C42.6327 54.1928 42.4558 54.3231 42.3907 54.5186L42.2045 55.1145C40.8545 59.4065 37.391 62.4883 37.2514 62.6093C37.1303 62.721 36.8976 62.7303 36.7486 62.6C36.5996 62.4697 33.1548 59.4345 31.8048 55.1145L31.6186 54.5186C31.5534 54.3231 31.3765 54.1928 31.1717 54.1928H24.4031C24.1983 54.1928 24.0214 54.0159 24.0214 53.811V24.6417C24.04 24.4648 24.0958 24.3531 24.1796 24.2972C24.2541 24.2507 24.3658 24.2321 24.4496 24.2321C24.5148 24.2321 24.5707 24.2414 24.58 24.2414C26.2 25.0141 27.6152 26.2152 28.6765 27.6955C29.7193 29.1665 30.371 30.8983 30.5665 32.6952L31.6931 41.6331C31.7117 41.8379 31.5721 42.0241 31.3672 42.0521C30.2593 42.2197 29.4307 42.7783 29.0396 43.6255C28.6114 44.5379 28.6486 45.5434 29.1234 46.3907C29.7938 47.5731 31.5069 47.9548 31.5814 47.9641C31.7862 48.0014 31.991 47.9083 32.0934 47.7221C32.1121 47.6848 33.8065 44.4448 34.7748 43.2252C35.9665 41.7355 36.6276 39.8269 36.6276 37.8531V36.1679C36.6276 32.9931 36.0596 29.66 34.8958 25.9824C34.719 25.4238 34.6258 24.8559 34.6258 24.2972C34.6258 22.1093 36.0969 20.1448 37.0093 19.1486C37.8472 20.061 39.4021 22.0721 39.4021 24.2972C39.4021 24.8372 39.309 25.4052 39.1227 25.9824C37.959 29.66 37.4003 32.9931 37.4003 36.1679V37.8531C37.4003 39.8362 38.0521 41.7448 39.2438 43.2252C40.2214 44.4448 41.9158 47.6848 41.9345 47.7221C42.0183 47.8897 42.1952 47.9828 42.3907 47.9734C43.4055 47.8803 45.3234 47.1262 45.2769 44.9383C45.2396 43.43 44.1503 42.2197 42.6886 42.0614C42.5955 42.0521 42.279 41.9869 42.3069 41.7169L43.4521 32.6952C43.6476 30.8797 44.2993 29.1479 45.3421 27.6862C46.1986 26.4759 47.5486 24.7907 49.3548 24.26C49.6434 24.1762 49.8203 24.1948 49.8762 24.2414C49.9321 24.2879 49.9786 24.4183 49.9786 24.5765V53.811Z" fill="#7FC394"/>
        <path d="M40.4634 54.6583L33.5831 54.6024C33.4341 54.6024 33.2945 54.6769 33.2014 54.7979C33.1176 54.919 33.0897 55.0772 33.1455 55.2262C34.0486 57.7214 35.7338 59.7697 36.6648 60.7659C36.7486 60.859 36.879 60.9148 37.0093 60.9148C37.1397 60.9148 37.2607 60.859 37.3538 60.7659C38.2755 59.7697 39.9514 57.74 40.901 55.2914C40.9569 55.1517 40.9383 54.9841 40.8545 54.8631C40.7614 54.7421 40.6124 54.6676 40.4634 54.6583ZM37 59.7603C36.19 58.8293 35.0355 57.3303 34.2721 55.5428L39.7652 55.5893C38.9645 57.349 37.81 58.8386 37 59.7603Z" fill="#7FC394"/>
        <path d="M48.3307 45.8135L46.8038 45.7855C46.6176 45.7855 46.4034 45.9159 46.3476 46.1207C45.9193 47.5824 44.7555 48.6624 43.3031 48.9604C43.1821 48.9883 43.0703 49.0535 43.0052 49.1652C42.94 49.2676 42.9121 49.3979 42.94 49.519C43.0983 50.2452 43.1541 52.1259 43.1355 52.4052C43.1169 52.5262 43.1355 52.6472 43.2007 52.7497C43.2845 52.88 43.4334 52.9545 43.5917 52.9545H48.2841C48.5355 52.9545 48.7496 52.7497 48.7496 52.489L48.7869 46.279C48.7869 46.0276 48.582 45.8228 48.3307 45.8135ZM47.8186 52.0235H44.0665C44.0665 51.3717 43.9921 50.3848 43.9176 49.761C45.3979 49.3235 46.5803 48.1969 47.1296 46.7166L47.8558 46.7259L47.8186 52.0235Z" fill="#7FC394"/>
        <path d="M40.7521 49.1186H40.4728C39.1414 49.1186 38.0148 50.1055 37.8659 51.4462V51.6045C37.8659 51.8186 37.8659 52.2189 37.8566 52.3679C37.8286 52.461 37.838 52.5727 37.8752 52.6658C37.9497 52.8427 38.1173 52.9545 38.3035 52.9545H41.0128C41.2548 52.9545 41.4597 52.7682 41.4783 52.5262C41.4969 52.3027 41.5062 52.07 41.5062 51.8465C41.5062 51.1296 41.4131 50.3382 41.2176 49.4817C41.1524 49.2676 40.9662 49.1186 40.7521 49.1186ZM40.5566 52.0234H38.7876C38.7876 51.9024 38.7876 51.772 38.7876 51.6045V51.5113C38.8807 50.72 39.5604 50.0962 40.3704 50.0496C40.5007 50.7013 40.5659 51.2972 40.5659 51.8465C40.5659 51.9117 40.5659 51.9676 40.5566 52.0234Z" fill="#7FC394"/>
        <path d="M36.1435 52.4983V52.3214C36.1435 52.0421 36.1435 51.5952 36.1435 51.4555C35.9945 50.1335 34.868 49.1373 33.5924 49.1373C33.5924 49.1373 33.5924 49.1373 33.5831 49.1373L33.3411 49.1093C33.1176 49.0814 32.8942 49.2304 32.8383 49.4538C32.6149 50.2824 32.5031 51.0924 32.5031 51.8652V52.0421C32.5031 52.191 32.5031 52.3307 32.4938 52.461C32.4845 52.5914 32.5218 52.7217 32.6056 52.8241C32.6893 52.9266 32.8197 52.9824 32.95 52.9824H35.6593C35.9293 52.9545 36.1342 52.7497 36.1435 52.4983ZM35.2124 52.0235H33.4435V52.0141V51.8466C33.4435 51.2693 33.518 50.6735 33.6483 50.0497C34.4583 50.1055 35.1193 50.7293 35.2124 51.4741V52.0235Z" fill="#7FC394"/>
        <path d="M30.7527 49.0069C29.2631 48.6717 28.09 47.5731 27.7082 46.1579C27.6524 45.9624 27.4755 45.8227 27.2707 45.8134L25.7438 45.7762C25.6134 45.7855 25.5017 45.8227 25.4086 45.9065C25.3155 45.9903 25.2689 46.1114 25.2689 46.2417L25.2317 52.4983C25.2317 52.6193 25.2782 52.7403 25.3713 52.8334C25.4644 52.9265 25.5762 52.9731 25.6972 52.9731H30.3896C30.641 52.9731 30.8458 52.7683 30.8551 52.5169C30.8738 51.7627 30.9482 50.1893 31.1065 49.5934C31.1438 49.4724 31.1251 49.342 31.06 49.2303C30.9762 49.1093 30.8738 49.0348 30.7527 49.0069ZM29.9241 52.0234H26.1534L26.1907 46.7165L26.9076 46.7351C27.4196 48.1876 28.602 49.3141 30.101 49.7983C29.9986 50.4872 29.952 51.4555 29.9241 52.0234Z" fill="#7FC394"/>
        <path d="M34.1789 47.4707C35.1286 47.6103 36.0037 48.0665 36.6648 48.7555C36.7486 48.8486 36.8696 48.8952 36.9999 48.8952C37.1303 48.8952 37.2513 48.8393 37.3351 48.7555C37.9962 48.0665 38.8899 47.6196 39.7744 47.5265C39.9327 47.5079 40.063 47.4241 40.1375 47.2845C40.212 47.1448 40.212 46.9865 40.1375 46.8469C39.281 45.199 38.2103 43.8862 37.3817 42.9179C37.2979 42.8155 37.1675 42.7596 37.0372 42.7596C36.8975 42.7783 36.7765 42.8155 36.6834 42.9086C36.0503 43.5883 34.8306 45.0034 33.8344 46.7817C33.7599 46.9121 33.7599 47.0796 33.8251 47.21C33.8903 47.3403 34.0299 47.4521 34.1789 47.4707ZM37.0186 43.9327C37.6517 44.6869 38.3686 45.6272 39.0017 46.7259C38.2755 46.9121 37.5865 47.2752 36.9999 47.7965C36.4134 47.2845 35.7151 46.9121 34.9703 46.6979C35.6872 45.5341 36.4599 44.5659 37.0186 43.9327Z" fill="#7FC394"/>
        <path d="M48.5448 26.5224C48.3772 26.4479 48.191 26.4665 48.0514 26.5876C47.409 27.1182 46.8317 27.7327 46.3476 28.4124C45.4352 29.7065 44.8579 31.2241 44.681 32.8162L43.6383 40.6276C43.6103 40.8324 43.7314 41.0372 43.9269 41.121C45.0814 41.5958 45.9938 42.6107 46.301 43.7651C46.3569 43.97 46.5431 44.1096 46.7479 44.1096H48.2748C48.5355 44.1096 48.7403 43.9048 48.7403 43.6441L48.8055 26.9413C48.8148 26.7645 48.7031 26.5969 48.5448 26.5224ZM47.8186 43.1786H47.0924C46.6734 41.9869 45.7703 40.9813 44.6065 40.4041L45.6028 32.9279C45.761 31.4848 46.2824 30.1162 47.1017 28.9524C47.3345 28.6265 47.5952 28.31 47.8745 28.0213L47.8186 43.1786Z" fill="#7FC394"/>
        <path d="M25.6879 44.1096H27.2241C27.4289 44.1096 27.6151 43.97 27.671 43.7745C28.0248 42.5921 28.9279 41.5865 30.0451 41.1583C30.2407 41.0838 30.371 40.879 30.3431 40.6648L29.3282 32.8162C29.1513 31.2241 28.5741 29.6972 27.6617 28.4031C27.2427 27.8165 26.74 27.2393 26.0603 26.5783C25.93 26.4479 25.7251 26.4107 25.5576 26.4852C25.3807 26.5596 25.2689 26.7272 25.2689 26.9134L25.2317 43.6441C25.2317 43.7652 25.2782 43.8862 25.3713 43.97C25.4458 44.0631 25.5576 44.1096 25.6879 44.1096ZM26.1907 28.0679C26.4607 28.3752 26.6934 28.6638 26.8982 28.9524C27.7269 30.1162 28.2389 31.4848 28.3972 32.9372L29.3655 40.4414C28.2389 40.9814 27.3358 41.9776 26.8889 43.1786H26.1534L26.1907 28.0679Z" fill="#7FC394"/>
    </g>
</svg>
