<svg width="116" height="24" viewBox="0 0 116 24" fill="none" xmlns="http://www.w3.org/2000/svg">
<g clip-path="url(#clip0_1958_67509)">
<path fill-rule="evenodd" clip-rule="evenodd" d="M5.78906 0.009375L18.1172 0L18.7031 0.121875C19.0266 0.1875 19.4813 0.314063 19.7109 0.398438C19.9406 0.482812 20.2266 0.595312 20.3438 0.65625C20.4609 0.7125 20.6812 0.834375 20.8359 0.928125C20.9906 1.02187 21.2437 1.19062 21.3984 1.30781C21.5531 1.425 21.825 1.65937 22.0031 1.82812C22.1766 1.99688 22.4531 2.30156 22.6125 2.50781C22.7766 2.71406 22.9828 3.00938 23.0719 3.16406C23.1656 3.31875 23.2875 3.53906 23.3438 3.65625C23.4047 3.77344 23.5219 4.06406 23.6063 4.30313C23.6953 4.5375 23.8172 4.99687 24 5.90625V11.9672C24 17.8687 24 18.0375 23.9062 18.5625C23.85 18.8578 23.7328 19.3219 23.6391 19.5938C23.55 19.8656 23.4187 20.1891 23.3578 20.3203C23.2922 20.4469 23.1656 20.6812 23.0719 20.8359C22.9828 20.9906 22.7766 21.2859 22.6125 21.4922C22.4531 21.6984 22.1766 22.0031 22.0031 22.1719C21.825 22.3406 21.5531 22.575 21.3984 22.6922C21.2437 22.8094 20.9906 22.9781 20.8359 23.0719C20.6812 23.1656 20.4609 23.2875 20.3438 23.3438C20.2266 23.4047 19.9406 23.5172 19.7109 23.6016C19.4813 23.6859 19.0266 23.8125 18.1172 24H5.88281L5.29688 23.8781C4.97344 23.8125 4.52344 23.6859 4.28906 23.6016C4.05469 23.5172 3.77344 23.4047 3.65625 23.3438C3.53906 23.2875 3.31875 23.1656 3.16406 23.0719C3.00938 22.9828 2.71406 22.7766 2.50781 22.6125C2.30156 22.4531 1.99688 22.1766 1.82812 22.0031C1.65937 21.825 1.425 21.5531 1.30781 21.3984C1.19062 21.2437 1.02187 20.9906 0.928125 20.8359C0.834375 20.6812 0.7125 20.4609 0.65625 20.3438C0.595312 20.2266 0.478125 19.9359 0.39375 19.6969C0.304687 19.4625 0.182813 19.0031 0 18.0938V12.0328C0 6.13125 0 5.9625 0.09375 5.4375C0.15 5.14219 0.267187 4.67812 0.360937 4.40625C0.45 4.13438 0.58125 3.81094 0.642187 3.67969C0.707812 3.55312 0.834375 3.31875 0.928125 3.16406C1.02187 3.00938 1.19062 2.75625 1.30781 2.60156C1.425 2.44688 1.65937 2.175 1.82812 1.99687C1.99688 1.82344 2.30156 1.54688 2.50781 1.3875C2.71406 1.22344 3.00938 1.01719 3.16406 0.928125C3.31875 0.834375 3.55312 0.707812 3.67969 0.646875C3.81094 0.58125 4.10156 0.464063 4.33594 0.379688C4.57031 0.3 4.99219 0.182812 5.27344 0.121875L5.78906 0.009375ZM5.09531 1.6125C4.87031 1.67813 4.54688 1.79531 4.37344 1.875C4.19531 1.95469 3.87656 2.1375 3.65625 2.2875C3.44062 2.43281 3.09375 2.71875 2.8875 2.925C2.68594 3.13125 2.39531 3.49219 2.24062 3.72188C2.09063 3.95625 1.89844 4.30312 1.81875 4.49531C1.73906 4.69219 1.62187 5.04844 1.55156 5.29219L1.42969 5.7375V18.2531C1.62188 18.9469 1.73906 19.3031 1.81875 19.4953C1.89844 19.6922 2.09063 20.0391 2.24062 20.2687C2.39531 20.5031 2.69531 20.8687 2.91094 21.0844C3.12656 21.3047 3.49219 21.6047 3.72656 21.7547C3.96094 21.9094 4.30781 22.0969 4.5 22.1766C4.69219 22.2563 5.05312 22.3781 5.29688 22.4437L5.74219 22.5656H18.2578C18.9469 22.3781 19.3078 22.2563 19.5 22.1766C19.6922 22.0969 20.0438 21.9094 20.2734 21.7547C20.5031 21.6047 20.8734 21.3047 21.0891 21.0844C21.3047 20.8687 21.6047 20.5031 21.7594 20.2687C21.9094 20.0391 22.1016 19.6922 22.1813 19.4953C22.2609 19.3031 22.3781 18.9469 22.4484 18.6984L22.5703 18.2531V5.7375C22.3781 5.04844 22.2609 4.69219 22.1813 4.49531C22.1016 4.30312 21.9094 3.95625 21.7594 3.72188C21.6047 3.49219 21.3047 3.12656 21.0891 2.90625C20.8734 2.69062 20.5031 2.39062 20.2734 2.24062C20.0438 2.08594 19.6922 1.89844 19.5 1.81875C19.3078 1.73906 18.9469 1.61719 18.7031 1.55156L18.2578 1.42969C8.8125 1.41562 5.94375 1.43438 5.78906 1.45312C5.63438 1.47656 5.325 1.55156 5.1 1.6125H5.09531ZM18.8625 3.12656C18.9937 3.13594 19.1719 3.16875 19.2609 3.19687C19.35 3.22031 19.5187 3.29063 19.6359 3.35156C19.7531 3.40781 19.95 3.55781 20.0766 3.68437C20.2031 3.81094 20.3672 4.03594 20.4375 4.19063C20.5125 4.34531 20.5922 4.59844 20.6203 4.75313C20.6437 4.90781 20.6531 5.11875 20.6391 5.22188C20.625 5.325 20.5828 5.50781 20.5547 5.62031C20.5219 5.7375 20.4141 5.95781 20.3109 6.1125C20.2125 6.2625 20.025 6.46875 19.8937 6.56719C19.7672 6.66563 19.5422 6.7875 19.4016 6.84375C19.2609 6.9 19.0172 6.95156 18.8625 6.96563C18.675 6.98438 18.4797 6.96719 18.2766 6.91406C18.1078 6.87187 17.8687 6.77813 17.7422 6.70781C17.6203 6.64219 17.4281 6.4875 17.3156 6.37031C17.2078 6.25781 17.0766 6.07031 17.0203 5.9625C16.9641 5.85469 16.8844 5.62969 16.8422 5.47031C16.7906 5.27812 16.7719 5.08125 16.7906 4.89375C16.8047 4.73906 16.8609 4.5 16.9172 4.35469C16.9688 4.21406 17.0953 3.99375 17.1984 3.85781C17.3016 3.72656 17.5078 3.53906 17.6531 3.44063C17.8031 3.34219 18.0234 3.23906 18.1453 3.20625C18.2672 3.17344 18.4266 3.14062 18.4969 3.12656C18.5672 3.11719 18.7359 3.1125 18.8625 3.12656ZM18.3563 4.67813C18.2859 4.74844 18.2156 4.86562 18.2016 4.94063C18.1828 5.025 18.2016 5.15156 18.2438 5.24531C18.2906 5.35313 18.3797 5.44219 18.4969 5.49844C18.6094 5.55469 18.7266 5.57812 18.8156 5.55937C18.8906 5.54531 19.0172 5.47031 19.0875 5.4C19.1859 5.30156 19.2234 5.22188 19.2234 5.08125C19.2281 4.97813 19.2047 4.84687 19.1766 4.79062C19.1438 4.73438 19.0734 4.65469 19.0172 4.62187C18.9563 4.58437 18.8578 4.54688 18.7922 4.53281C18.7266 4.51875 18.6328 4.51875 18.5812 4.53281C18.5297 4.54219 18.4312 4.60781 18.3563 4.67813ZM11.9484 5.44219C12.1687 5.4375 12.5766 5.46562 12.8625 5.50781C13.1484 5.54531 13.5703 5.62969 13.8 5.69531C14.0297 5.76562 14.4328 5.91094 14.6906 6.02813C14.9484 6.14063 15.3703 6.375 15.6281 6.54375C15.9281 6.74531 16.2844 7.04531 16.6172 7.37812C16.9781 7.73906 17.2406 8.05312 17.475 8.40937C17.6578 8.69531 17.9062 9.15 18.0187 9.41719C18.1313 9.68906 18.2766 10.1109 18.3422 10.3547C18.4031 10.6031 18.4828 11.0672 18.5156 11.3859C18.5672 11.8641 18.5672 12.0891 18.5156 12.5812C18.4828 12.9187 18.4031 13.3922 18.3422 13.6359C18.2766 13.8844 18.1313 14.3062 18.0187 14.5734C17.9062 14.8453 17.6578 15.3 17.475 15.5812C17.2406 15.9422 16.9781 16.2563 16.6172 16.6172C16.2563 16.9828 15.9422 17.2406 15.5812 17.475C15.2953 17.6625 14.8453 17.9062 14.5734 18.0187C14.3016 18.1313 13.8797 18.2766 13.6359 18.3422C13.3922 18.4078 12.9281 18.4875 12.6047 18.5203C12.1312 18.5672 11.9062 18.5672 11.4094 18.5203C11.0719 18.4875 10.5984 18.4078 10.3547 18.3422C10.1109 18.2766 9.68906 18.1313 9.41719 18.0187C9.14531 17.9062 8.69531 17.6625 8.40937 17.475C8.04844 17.2406 7.73438 16.9828 7.37344 16.6172C7.0125 16.2563 6.75 15.9422 6.51562 15.5812C6.33281 15.3 6.08437 14.8453 5.97188 14.5734C5.85938 14.3062 5.71406 13.8844 5.64844 13.6359C5.5875 13.3922 5.50781 12.9187 5.475 12.5812C5.42344 12.0891 5.42344 11.8641 5.475 11.3859C5.50781 11.0672 5.5875 10.6031 5.64844 10.3547C5.71406 10.1109 5.85938 9.68906 5.97188 9.41719C6.08437 9.15 6.33281 8.69531 6.51562 8.40937C6.75 8.05312 7.0125 7.73906 7.37344 7.37812C7.70625 7.04531 8.0625 6.74531 8.3625 6.54375C8.62031 6.375 9.04219 6.14063 9.3 6.02813C9.55781 5.91094 9.96094 5.76562 10.1906 5.69531C10.4203 5.62969 10.8234 5.54531 11.0812 5.50781C11.3391 5.475 11.7281 5.44219 11.9484 5.44219ZM10.5187 7.06406C10.3406 7.12031 10.0406 7.22813 9.8625 7.3125C9.68437 7.39219 9.35625 7.575 9.13594 7.725C8.91562 7.87031 8.56875 8.15625 8.3625 8.3625C8.15625 8.56875 7.86562 8.92031 7.72031 9.13594C7.575 9.35625 7.3875 9.68437 7.30781 9.8625C7.22812 10.0453 7.11094 10.3734 7.04531 10.5891C6.98438 10.8094 6.90469 11.2125 6.87656 11.4797C6.83437 11.8594 6.83437 12.0938 6.87656 12.4875C6.90469 12.7734 6.98438 13.1859 7.04531 13.4016C7.11094 13.6219 7.22812 13.95 7.30781 14.1281C7.3875 14.3109 7.575 14.6391 7.72031 14.8547C7.86562 15.075 8.15625 15.4266 8.3625 15.6328C8.56875 15.8391 8.91562 16.125 9.13594 16.2703C9.35625 16.4203 9.68437 16.6031 9.8625 16.6828C10.0406 16.7672 10.3687 16.8844 10.5891 16.9453C10.8094 17.0109 11.2078 17.0859 11.4797 17.1188C11.8594 17.1609 12.0938 17.1609 12.4875 17.1188C12.7734 17.0859 13.1812 17.0109 13.4016 16.9453C13.6219 16.8844 13.9453 16.7672 14.1281 16.6828C14.3109 16.6031 14.6344 16.4203 14.8547 16.2703C15.075 16.125 15.4219 15.8391 15.6281 15.6328C15.8344 15.4266 16.125 15.075 16.2703 14.8547C16.4156 14.6391 16.6031 14.3109 16.6828 14.1281C16.7625 13.95 16.8797 13.6219 16.9453 13.4016C17.0063 13.1859 17.0859 12.7734 17.1141 12.4875C17.1562 12.0938 17.1562 11.8594 17.1141 11.4797C17.0859 11.2125 17.0063 10.8094 16.9453 10.5891C16.8797 10.3734 16.7625 10.0453 16.6828 9.8625C16.6031 9.68437 16.4156 9.35625 16.2703 9.13594C16.125 8.92031 15.8344 8.56875 15.6281 8.3625C15.4219 8.15625 15.075 7.87031 14.8547 7.725C14.6344 7.575 14.3109 7.39219 14.1281 7.3125C13.9453 7.22813 13.6641 7.12031 13.4953 7.06875C13.3266 7.01719 12.9891 6.94687 12.7453 6.90937C12.5016 6.87187 12.1406 6.84375 11.9484 6.84844C11.7562 6.84844 11.4281 6.87656 11.2219 6.90937C11.0156 6.94219 10.6969 7.0125 10.5187 7.06406Z" fill="white"/>
</g>
<path d="M34.2693 6.8H35.4533V18H34.2693V6.8ZM43.1454 9.52C44.2014 9.52 45.0388 9.82933 45.6574 10.448C46.2868 11.056 46.6014 11.9467 46.6014 13.12V18H45.4654V13.232C45.4654 12.3573 45.2468 11.6907 44.8094 11.232C44.3721 10.7733 43.7481 10.544 42.9374 10.544C42.0308 10.544 41.3108 10.816 40.7774 11.36C40.2548 11.8933 39.9934 12.6347 39.9934 13.584V18H38.8574V9.584H39.9454V11.136C40.2548 10.624 40.6814 10.2293 41.2254 9.952C41.7801 9.664 42.4201 9.52 43.1454 9.52ZM51.9416 18.08C51.2589 18.08 50.6029 17.984 49.9736 17.792C49.3549 17.5893 48.8696 17.3387 48.5176 17.04L49.0296 16.144C49.3816 16.4213 49.8242 16.6507 50.3576 16.832C50.8909 17.0027 51.4456 17.088 52.0216 17.088C52.7896 17.088 53.3549 16.9707 53.7176 16.736C54.0909 16.4907 54.2776 16.1493 54.2776 15.712C54.2776 15.4027 54.1762 15.1627 53.9736 14.992C53.7709 14.8107 53.5149 14.6773 53.2056 14.592C52.8962 14.496 52.4856 14.4053 51.9736 14.32C51.2909 14.192 50.7416 14.064 50.3256 13.936C49.9096 13.7973 49.5522 13.568 49.2536 13.248C48.9656 12.928 48.8216 12.4853 48.8216 11.92C48.8216 11.216 49.1149 10.64 49.7016 10.192C50.2882 9.744 51.1042 9.52 52.1496 9.52C52.6936 9.52 53.2376 9.59467 53.7816 9.744C54.3256 9.88267 54.7736 10.0693 55.1256 10.304L54.6296 11.216C53.9362 10.736 53.1096 10.496 52.1496 10.496C51.4242 10.496 50.8749 10.624 50.5016 10.88C50.1389 11.136 49.9576 11.472 49.9576 11.888C49.9576 12.208 50.0589 12.464 50.2616 12.656C50.4749 12.848 50.7362 12.992 51.0456 13.088C51.3549 13.1733 51.7816 13.264 52.3256 13.36C52.9976 13.488 53.5362 13.616 53.9416 13.744C54.3469 13.872 54.6936 14.0907 54.9816 14.4C55.2696 14.7093 55.4136 15.136 55.4136 15.68C55.4136 16.416 55.1042 17.0027 54.4856 17.44C53.8776 17.8667 53.0296 18.08 51.9416 18.08ZM61.9457 17.488C61.7324 17.68 61.4657 17.8293 61.1457 17.936C60.8364 18.032 60.511 18.08 60.1697 18.08C59.3804 18.08 58.7724 17.8667 58.3457 17.44C57.919 17.0133 57.7057 16.4107 57.7057 15.632V10.544H56.2017V9.584H57.7057V7.744H58.8417V9.584H61.4017V10.544H58.8417V15.568C58.8417 16.0693 58.9644 16.4533 59.2097 16.72C59.4657 16.976 59.8284 17.104 60.2977 17.104C60.5324 17.104 60.7564 17.0667 60.9697 16.992C61.1937 16.9173 61.3857 16.8107 61.5457 16.672L61.9457 17.488ZM66.9577 9.52C68.0564 9.52 68.899 9.79733 69.4857 10.352C70.0724 10.896 70.3657 11.7067 70.3657 12.784V18H69.2777V16.688C69.0217 17.1253 68.643 17.4667 68.1417 17.712C67.651 17.9573 67.0644 18.08 66.3817 18.08C65.443 18.08 64.6964 17.856 64.1417 17.408C63.587 16.96 63.3097 16.368 63.3097 15.632C63.3097 14.9173 63.5657 14.3413 64.0777 13.904C64.6004 13.4667 65.427 13.248 66.5577 13.248H69.2297V12.736C69.2297 12.0107 69.027 11.4613 68.6217 11.088C68.2164 10.704 67.6244 10.512 66.8457 10.512C66.3124 10.512 65.8004 10.6027 65.3097 10.784C64.819 10.9547 64.3977 11.1947 64.0457 11.504L63.5337 10.656C63.9604 10.2933 64.4724 10.016 65.0697 9.824C65.667 9.62133 66.2964 9.52 66.9577 9.52ZM66.5577 17.184C67.1977 17.184 67.747 17.04 68.2057 16.752C68.6644 16.4533 69.0057 16.0267 69.2297 15.472V14.096H66.5897C65.1497 14.096 64.4297 14.5973 64.4297 15.6C64.4297 16.0907 64.6164 16.48 64.9897 16.768C65.363 17.0453 65.8857 17.184 66.5577 17.184ZM81.2744 9.584V16.976C81.2744 18.4053 80.9224 19.4613 80.2184 20.144C79.5251 20.8373 78.4744 21.184 77.0664 21.184C76.2878 21.184 75.5464 21.0667 74.8424 20.832C74.1491 20.608 73.5838 20.2933 73.1464 19.888L73.7224 19.024C74.1278 19.3867 74.6184 19.6693 75.1944 19.872C75.7811 20.0747 76.3944 20.176 77.0344 20.176C78.1011 20.176 78.8851 19.9253 79.3864 19.424C79.8878 18.9333 80.1384 18.1653 80.1384 17.12V16.048C79.7864 16.5813 79.3224 16.9867 78.7464 17.264C78.1811 17.5413 77.5518 17.68 76.8584 17.68C76.0691 17.68 75.3491 17.5093 74.6984 17.168C74.0584 16.816 73.5518 16.3307 73.1784 15.712C72.8158 15.0827 72.6344 14.3733 72.6344 13.584C72.6344 12.7947 72.8158 12.0907 73.1784 11.472C73.5518 10.8533 74.0584 10.3733 74.6984 10.032C75.3384 9.69067 76.0584 9.52 76.8584 9.52C77.5731 9.52 78.2184 9.664 78.7944 9.952C79.3704 10.24 79.8344 10.656 80.1864 11.2V9.584H81.2744ZM76.9704 16.672C77.5784 16.672 78.1278 16.544 78.6184 16.288C79.1091 16.0213 79.4878 15.6533 79.7544 15.184C80.0318 14.7147 80.1704 14.1813 80.1704 13.584C80.1704 12.9867 80.0318 12.4587 79.7544 12C79.4878 11.5307 79.1091 11.168 78.6184 10.912C78.1384 10.6453 77.5891 10.512 76.9704 10.512C76.3624 10.512 75.8131 10.64 75.3224 10.896C74.8424 11.152 74.4638 11.5147 74.1864 11.984C73.9198 12.4533 73.7864 12.9867 73.7864 13.584C73.7864 14.1813 73.9198 14.7147 74.1864 15.184C74.4638 15.6533 74.8424 16.0213 75.3224 16.288C75.8131 16.544 76.3624 16.672 76.9704 16.672ZM85.5392 11.232C85.8059 10.6667 86.2005 10.24 86.7232 9.952C87.2565 9.664 87.9125 9.52 88.6912 9.52V10.624L88.4192 10.608C87.5339 10.608 86.8405 10.88 86.3392 11.424C85.8379 11.968 85.5872 12.7307 85.5872 13.712V18H84.4512V9.584H85.5392V11.232ZM93.6764 9.52C94.7751 9.52 95.6178 9.79733 96.2044 10.352C96.7911 10.896 97.0844 11.7067 97.0844 12.784V18H95.9964V16.688C95.7404 17.1253 95.3618 17.4667 94.8604 17.712C94.3698 17.9573 93.7831 18.08 93.1004 18.08C92.1618 18.08 91.4151 17.856 90.8604 17.408C90.3058 16.96 90.0284 16.368 90.0284 15.632C90.0284 14.9173 90.2844 14.3413 90.7964 13.904C91.3191 13.4667 92.1458 13.248 93.2764 13.248H95.9484V12.736C95.9484 12.0107 95.7458 11.4613 95.3404 11.088C94.9351 10.704 94.3431 10.512 93.5644 10.512C93.0311 10.512 92.5191 10.6027 92.0284 10.784C91.5378 10.9547 91.1164 11.1947 90.7644 11.504L90.2524 10.656C90.6791 10.2933 91.1911 10.016 91.7884 9.824C92.3858 9.62133 93.0151 9.52 93.6764 9.52ZM93.2764 17.184C93.9164 17.184 94.4658 17.04 94.9244 16.752C95.3831 16.4533 95.7244 16.0267 95.9484 15.472V14.096H93.3084C91.8684 14.096 91.1484 14.5973 91.1484 15.6C91.1484 16.0907 91.3351 16.48 91.7084 16.768C92.0818 17.0453 92.6044 17.184 93.2764 17.184ZM110.666 9.52C111.722 9.52 112.549 9.824 113.146 10.432C113.754 11.04 114.058 11.936 114.058 13.12V18H112.922V13.232C112.922 12.3573 112.709 11.6907 112.282 11.232C111.866 10.7733 111.274 10.544 110.506 10.544C109.631 10.544 108.943 10.816 108.442 11.36C107.941 11.8933 107.69 12.6347 107.69 13.584V18H106.554V13.232C106.554 12.3573 106.341 11.6907 105.914 11.232C105.498 10.7733 104.901 10.544 104.122 10.544C103.258 10.544 102.57 10.816 102.058 11.36C101.557 11.8933 101.306 12.6347 101.306 13.584V18H100.17V9.584H101.258V11.12C101.557 10.608 101.973 10.2133 102.506 9.936C103.039 9.65867 103.653 9.52 104.346 9.52C105.05 9.52 105.658 9.66933 106.17 9.968C106.693 10.2667 107.082 10.7093 107.338 11.296C107.647 10.7413 108.09 10.3093 108.666 10C109.253 9.68 109.919 9.52 110.666 9.52Z" fill="white"/>
<defs>
<clipPath id="clip0_1958_67509">
<rect width="24" height="24" fill="white"/>
</clipPath>
</defs>
</svg>
