<svg width="465" height="72" viewBox="0 0 465 72" fill="none" xmlns="http://www.w3.org/2000/svg">
<path d="M80.3894 20.4736C75.9053 18.3888 70.8058 16.8778 65.8189 17.4834C62.8374 17.8203 60.0266 19.0452 57.7521 20.9984C55.4407 22.9737 53.6349 25.4882 51.806 27.8845C51.4709 28.3228 51.1473 28.7668 50.8208 29.208C51.6038 25.9698 52.2452 22.5758 52.3694 19.2539C52.5308 15.7051 51.7472 12.177 50.0985 9.02866C48.7975 6.62777 47.0536 4.49394 44.9585 2.73954C44.1218 2.0285 43.2417 1.36979 42.3235 0.767166C41.9103 0.493225 41.4163 0.0751057 40.8962 0.0751057C40.4253 0.0751057 39.9196 0.412483 39.5036 0.617218C39.0875 0.821953 38.7408 1.00362 38.3652 1.21124C35.9904 2.50771 33.8671 4.2177 32.0956 6.26041C28.8596 10.0696 27.4727 14.8852 27.6374 19.8537C27.7294 22.02 28.0196 24.1733 28.5042 26.287C27.6386 24.8799 26.673 23.5365 25.615 22.2672C23.5925 19.8565 21.0846 17.9159 18.074 16.9037C15.1472 15.9176 11.9892 15.8512 8.95262 16.2636C6.63173 16.5834 4.35543 17.1688 2.16865 18.0082C1.81616 18.1437 1.42611 18.4032 1.36255 18.8127C0.643123 23.4928 1.07362 28.3487 3.02965 32.6943C4.45469 35.7842 6.64166 38.463 9.38601 40.48C11.4836 42.0573 13.8412 43.1963 16.2682 44.1768C16.7854 44.3873 17.3055 44.5805 17.8284 44.7535L17.5077 44.8256C12.826 46.0459 8.70813 48.838 5.84667 52.7324C4.79196 54.1777 3.91868 55.7465 3.24634 57.4038C3.18929 57.5994 3.18601 57.8068 3.23684 58.0041C3.28767 58.2015 3.39075 58.3816 3.53527 58.5255C7.12661 62.649 12.5295 65.4202 18.0884 65.1059C20.6046 64.9998 23.0403 64.1905 25.118 62.7702C27.1837 61.2768 28.8028 59.2502 29.8015 56.9078C30.0714 56.2829 30.3067 55.6437 30.5065 54.9931C31.7997 56.8677 33.5417 58.3902 35.5742 59.4223C35.6811 62.8157 35.4732 66.2117 34.953 69.5668L30.8387 69.6187C29.3536 69.6389 29.3508 71.9429 30.8387 71.9256L35.9354 71.8621C36.1882 71.8617 36.4338 71.7785 36.6348 71.6254C36.8357 71.4723 36.9807 71.2576 37.0477 71.0143C37.6669 67.4846 37.957 63.9052 37.9145 60.322C38.5961 60.514 39.2916 60.6528 39.9948 60.7372C41.4179 60.8789 42.8549 60.7736 44.242 60.4258C43.794 63.9378 43.8407 67.4951 44.3807 70.9942C44.4818 71.6487 45.2474 71.8938 45.8022 71.7987L50.084 71.0432C50.6995 70.9365 51.0433 70.1781 50.8901 69.6273C50.8015 69.3389 50.605 69.0956 50.3414 68.9479C50.0778 68.8002 49.7673 68.7596 49.4744 68.8343L46.4725 69.362C46.0968 66.3114 46.1347 63.2241 46.5852 60.1836C46.6142 59.9916 46.6064 59.7959 46.562 59.6069C48.7115 58.5967 50.5737 57.0662 51.9794 55.1546C52.6555 58.1766 54.1752 60.9996 56.7987 62.7788C60.8003 65.4836 66.1656 65.0568 70.4215 63.2431C73.3549 61.9554 75.9586 60.0223 78.0376 57.5883C78.2125 57.4051 78.3242 57.1709 78.3564 56.9198C78.3887 56.6688 78.3397 56.414 78.2167 56.1927C76.4824 53.3155 74.1519 50.8416 71.3813 48.9368C68.6107 47.032 65.4641 45.7404 62.1525 45.1485C62.5801 44.9928 63.0192 44.8429 63.4353 44.6785C66.2841 43.5856 69.1965 42.4726 71.8806 41.0135C74.1304 39.8214 76.0765 38.1307 77.5695 36.071C79.0977 33.845 80.1239 31.3146 80.5772 28.6544C81.0029 26.2862 81.1339 23.8745 80.9673 21.4742C80.9676 21.2715 80.9143 21.0722 80.8129 20.8966C80.7114 20.7209 80.5654 20.575 80.3894 20.4736ZM76.1885 33.9746C73.4552 38.4759 68.3875 40.2407 63.7156 42.1006C60.7179 43.2963 57.6425 44.2876 54.5104 45.0678C54.2178 45.1526 53.9698 45.348 53.8193 45.6124C53.6688 45.8768 53.6275 46.1893 53.7043 46.4836C53.8863 47.144 54.5075 47.3804 55.1258 47.2881L55.3887 47.2535L55.7181 47.2132C56.0648 47.1766 56.4144 47.1478 56.7669 47.1267C57.6029 47.0748 58.4411 47.069 59.2777 47.1094C62.1708 47.2548 65.0015 48.0017 67.5887 49.3021C70.1759 50.6026 72.4624 52.4281 74.3018 54.6615C74.8306 55.2917 75.3208 55.9532 75.7695 56.6425C72.7127 59.8779 68.5753 62.2626 64.0449 62.4097C62.163 62.5084 60.2893 62.0979 58.6218 61.2217C56.793 60.1541 55.4105 58.4652 54.7271 56.4637C54.1457 54.9082 53.8454 53.2622 53.8401 51.602C53.8141 50.2265 52.0401 50.14 51.572 51.2963C49.6998 55.9101 44.973 58.9436 39.9774 58.4419C36.0452 57.9863 32.6445 55.1459 31.1594 51.5213C30.6625 50.3102 29.1167 50.5062 28.9058 51.7664C28.9058 51.6943 28.9231 51.6395 28.9058 51.7664C28.8885 51.8932 28.874 51.9769 28.8567 52.0836C28.8105 52.3719 28.7556 52.6372 28.6949 52.9112C28.5239 53.689 28.2989 54.454 28.0217 55.2007C27.3078 57.1626 26.1164 58.9165 24.5546 60.3047C21.1106 63.2748 16.1209 63.3671 12.0326 61.8215C9.61784 60.8738 7.45174 59.3885 5.69932 57.4788C5.83512 57.1904 5.98825 56.902 6.12693 56.6137C6.49147 55.9183 6.89567 55.2444 7.33753 54.5952C8.47115 52.914 9.87605 51.432 11.4952 50.2092C14.7145 47.8255 18.5967 46.4994 22.6043 46.4144C23.3376 46.3933 24.0715 46.4096 24.8031 46.4634H24.9389C25.3809 46.5211 25.8288 46.573 26.2766 46.6134C27.5594 46.7287 27.8744 44.5401 26.5829 44.3498L26.2766 44.3123L25.9877 44.2806C25.7392 44.2517 25.4907 44.2229 25.2422 44.1998C20.3802 43.5254 15.7182 41.8238 11.5674 39.2083C6.73078 35.9874 3.86753 30.7911 3.39369 25.0412C3.29595 23.847 3.2834 22.6472 3.35614 21.4512C3.38214 21.0042 3.4197 20.5573 3.4717 20.1132C3.4717 20.0815 3.47171 20.0151 3.49193 19.9459C7.55711 18.5041 12.1048 17.714 16.3318 18.7925C22.1652 20.2689 25.5485 25.5315 28.2586 30.4912C29.0792 31.9984 29.8728 33.52 30.6394 35.056C31.145 36.0767 31.5986 37.135 32.1273 38.1443C32.7254 39.2833 34.6872 38.499 34.2394 37.2561C33.7569 35.9268 33.205 34.6263 32.7687 33.2768C32.3325 31.9273 31.9626 30.5777 31.587 29.2196C30.8618 26.5984 30.2291 23.9397 30.0066 21.2262C29.7466 18.0341 30.0066 14.7411 31.2866 11.771C31.9211 10.3241 32.7673 8.97912 33.7973 7.78006C35.7553 5.57591 38.1421 3.79229 40.8124 2.53769C44.1669 4.68597 47.033 7.6503 48.6625 11.3528C49.8674 14.0922 50.2112 17.0652 50.0118 20.0296C49.7595 23.0874 49.2433 26.1177 48.469 29.0869C47.8125 31.7623 46.9152 34.3729 45.7877 36.887C45.6415 37.1523 45.6028 37.4636 45.6796 37.7565C45.7565 38.0494 45.9431 38.3018 46.2009 38.4615C46.4653 38.6158 46.7803 38.659 47.0766 38.5817C47.3729 38.5044 47.6264 38.3128 47.7813 38.0491C49.2185 35.5011 50.8096 33.0426 52.5457 30.6873C54.3717 28.2161 56.2266 25.6699 58.4195 23.5072C60.2051 21.6856 62.4948 20.4376 64.9955 19.9229C67.6103 19.4009 70.358 19.6662 72.9352 20.2718C74.9075 20.7437 76.8314 21.3983 78.6819 22.2269C78.8697 26.2696 78.3121 30.4826 76.1885 33.9746Z" fill="white"/>
<path d="M48.2436 48.2734C47.9942 48.1323 47.7012 48.0886 47.4214 48.151C47.1417 48.2133 46.8951 48.3772 46.7296 48.6108L46.6487 48.7031C46.5591 48.8098 46.4696 48.9165 46.3771 49.0203C46.0973 49.3264 45.7992 49.6153 45.4843 49.8854C44.6749 50.596 43.7177 51.1189 42.6817 51.4166C40.0814 52.123 37.1922 50.8629 35.7475 48.6483C34.9357 47.4141 32.9363 48.5647 33.7539 49.8017C35.7244 52.7978 39.4053 54.4818 42.9591 53.7119C45.2705 53.2159 47.2699 51.6934 48.6596 49.8277C49.0294 49.3519 48.7376 48.5647 48.2436 48.2734Z" fill="white"/>
<path d="M33.8549 46.1722C34.624 46.1722 35.2475 45.5499 35.2475 44.7823C35.2475 44.0147 34.624 43.3924 33.8549 43.3924C33.0858 43.3924 32.4623 44.0147 32.4623 44.7823C32.4623 45.5499 33.0858 46.1722 33.8549 46.1722Z" fill="white"/>
<path d="M48.4256 46.4055C49.1947 46.4055 49.8182 45.7832 49.8182 45.0156C49.8182 44.248 49.1947 43.6257 48.4256 43.6257C47.6565 43.6257 47.033 44.248 47.033 45.0156C47.033 45.7832 47.6565 46.4055 48.4256 46.4055Z" fill="white"/>
<path d="M155.729 41.2096L159.725 50.1228H163.452L148.168 16.7567H144.681L129.717 49.4278L114.846 31.8841L129.293 16.7567H125.248L105.612 36.9015V16.7567H102.079V50.1228H105.612V41.348L112.454 34.4274L126.103 50.1199H133.075L137.073 41.2067L155.729 41.2096ZM146.4 20.4045L154.447 38.3491H138.353L146.4 20.4045Z" fill="white"/>
<path d="M189.337 45.8084C190.217 44.4706 190.682 42.9041 190.675 41.3042C190.675 39.5567 190.301 38.1428 189.554 37.0624C188.791 35.9717 187.775 35.0813 186.593 34.4672C185.314 33.7964 183.969 33.261 182.579 32.8697C181.131 32.4583 179.675 32.0738 178.211 31.7163C176.841 31.3954 175.49 30.9968 174.166 30.5224C173.046 30.1455 172.031 29.5091 171.204 28.6654C170.455 27.8695 170.081 26.8209 170.081 25.5194C170.066 24.4223 170.392 23.3476 171.014 22.4426C171.634 21.5372 172.597 20.8144 173.903 20.2742C175.209 19.734 176.864 19.4639 178.87 19.4639C180.449 19.4766 182.019 19.7046 183.536 20.1415C185.158 20.5924 186.697 21.3002 188.095 22.2379L189.291 19.4264C187.83 18.4463 186.216 17.7137 184.515 17.2579C182.698 16.7375 180.818 16.4726 178.927 16.4707C176.094 16.4707 173.769 16.8917 171.953 17.7337C170.136 18.5757 168.788 19.6878 167.908 21.07C167.04 22.4298 166.584 24.011 166.596 25.6232C166.596 27.4014 166.97 28.8432 167.717 29.9486C168.477 31.0548 169.493 31.9619 170.679 32.5929C171.96 33.2811 173.317 33.8173 174.724 34.1904C176.189 34.5883 177.654 34.9613 179.118 35.3092C180.479 35.6292 181.819 36.0357 183.128 36.5261C184.238 36.9229 185.243 37.5668 186.067 38.4091C186.814 39.203 187.188 40.2517 187.188 41.5551C187.195 42.6132 186.87 43.647 186.257 44.5107C185.636 45.3989 184.665 46.1083 183.345 46.6302C182.025 47.1521 180.311 47.4174 178.211 47.4174C176.062 47.4267 173.931 47.0305 171.93 46.2496C169.94 45.4806 168.356 44.5194 167.177 43.366L165.793 46.0823C167.031 47.3549 168.79 48.3959 171.069 49.2052C173.361 50.019 175.778 50.4307 178.211 50.4221C181.073 50.4221 183.421 50.0001 185.255 49.1562C187.089 48.3123 188.449 47.1963 189.337 45.8084Z" fill="white"/>
<path d="M222.818 31.6274H201.897V16.7567H198.363V50.1228H201.897V34.7273H222.818V50.1228H226.305V16.7567H222.818V31.6274Z" fill="white"/>
<path d="M258.971 16.7567H231.939V19.8076H243.69V50.1228H247.223V19.8076H258.971V16.7567Z" fill="white"/>
<path d="M283.917 41.2096L287.916 50.1228H291.64L276.356 16.7567H272.871L257.587 50.1228H261.256L265.252 41.2096H283.917ZM274.59 20.4045L282.637 38.3491H266.544L274.59 20.4045Z" fill="white"/>
<path d="M300.715 23.066L322.205 50.1228H325.121V16.7567H321.633V43.8193L300.094 16.7567H297.182V50.1228H300.715V23.066Z" fill="white"/>
<path d="M362.802 45.5004L360.557 43.2599C359.285 44.5939 357.737 45.635 356.021 46.3107C354.313 46.9547 352.499 47.2773 350.673 47.2623C348.762 47.2806 346.865 46.9331 345.085 46.2387C343.407 45.5836 341.879 44.5947 340.595 43.332C339.323 42.078 338.308 40.5882 337.608 38.946C336.179 35.4138 336.179 31.4659 337.608 27.9336C338.309 26.2961 339.324 24.8111 340.595 23.5621C341.878 22.2977 343.406 21.3077 345.085 20.6525C348.603 19.3212 352.481 19.2874 356.021 20.5574C357.739 21.2186 359.289 22.2528 360.557 23.5851L362.802 21.3446C361.323 19.7132 359.472 18.4619 357.405 17.6969C355.223 16.8782 352.909 16.4667 350.578 16.4829C348.194 16.4585 345.827 16.8872 343.603 17.7459C341.531 18.549 339.639 19.7557 338.038 21.2956C336.46 22.8209 335.207 24.6492 334.355 26.6706C332.603 31.0191 332.603 35.875 334.355 40.2235C335.201 42.2575 336.452 44.0987 338.033 45.6353C339.614 47.172 341.491 48.372 343.551 49.1626C348.012 50.8416 352.932 50.8508 357.399 49.1886C359.468 48.4045 361.32 47.1403 362.802 45.5004Z" fill="white"/>
<path d="M394.804 31.6274H373.882V16.7567H370.349V50.1228H373.882V34.7273H394.804V50.1228H398.288V16.7567H394.804V31.6274Z" fill="white"/>
<path d="M412.711 16.7567H409.178V50.1228H412.711V16.7567Z" fill="white"/>
<path d="M450.824 16.7567H446.764L427.135 36.9015V16.7567H423.601V50.1228H427.135V41.348L433.979 34.4303L447.625 50.1228H451.829L436.372 31.8841L450.824 16.7567Z" fill="white"/>
<path d="M411.096 14.7172L413.697 5.65696H408.117L411.096 14.7172Z" fill="white"/>
<path d="M460.404 10.9711C460.665 10.7531 460.871 10.477 461.006 10.165C461.14 9.85291 461.199 9.51369 461.178 9.17465C461.193 8.84607 461.13 8.51868 460.996 8.21839C460.861 7.9181 460.659 7.65315 460.404 7.44449C459.89 7.01772 459.176 6.80433 458.263 6.80433H455.374V13.673H456.865V11.594H458.252C458.327 11.594 458.39 11.594 458.46 11.5796L459.832 13.6788H461.34L459.78 11.3172C460.004 11.2337 460.215 11.117 460.404 10.9711ZM456.859 10.3944V7.98949H458.176C458.579 7.96764 458.977 8.07916 459.309 8.30669C459.442 8.40745 459.549 8.53865 459.62 8.68922C459.691 8.83979 459.725 9.00529 459.719 9.17176C459.73 9.34541 459.698 9.51897 459.626 9.67764C459.555 9.83631 459.446 9.97537 459.309 10.083C458.977 10.3105 458.579 10.422 458.176 10.4002L456.859 10.3944Z" fill="white"/>
<path d="M463.712 7.78229C463.41 7.05394 462.97 6.39096 462.415 5.8301C461.855 5.26787 461.187 4.82453 460.45 4.52672C459.672 4.21202 458.84 4.05423 458 4.06246C457.161 4.05401 456.329 4.21487 455.553 4.53537C454.813 4.84063 454.141 5.28954 453.577 5.85606C453.016 6.42353 452.57 7.09309 452.262 7.82843C451.942 8.5935 451.78 9.41566 451.788 10.2449C451.78 11.0733 451.939 11.8949 452.254 12.6613C452.556 13.3974 453 14.0674 453.559 14.6337C454.121 15.1994 454.79 15.6483 455.527 15.9544C456.28 16.2792 457.091 16.4514 457.911 16.461C458.732 16.4706 459.546 16.3173 460.307 16.0101C461.068 15.7029 461.76 15.2479 462.343 14.6716C462.926 14.0952 463.389 13.4089 463.704 12.6527C464.33 11.0893 464.33 9.34566 463.704 7.78229H463.712ZM462.773 12.2576C462.526 12.887 462.153 13.4598 461.678 13.9416C461.191 14.4325 460.609 14.8202 459.969 15.0818C459.328 15.3434 458.641 15.4734 457.948 15.4642C457.247 15.4693 456.552 15.336 455.903 15.072C455.281 14.8191 454.72 14.44 454.253 13.9589C453.789 13.476 453.423 12.9081 453.175 12.2865C452.659 10.9712 452.659 9.50992 453.175 8.19465C453.426 7.58086 453.794 7.02163 454.259 6.54812C454.731 6.06994 455.295 5.69142 455.917 5.43505C457.247 4.90634 458.73 4.90634 460.06 5.43505C460.675 5.68601 461.233 6.05825 461.7 6.52946C462.167 7.00068 462.534 7.56116 462.779 8.17734C463.041 8.8291 463.172 9.52553 463.166 10.2276C463.166 10.9231 463.033 11.6121 462.773 12.2576Z" fill="white"/>
<path d="M181.008 63.2224C180.537 62.7682 179.979 62.414 179.367 62.1814C178.033 61.6855 176.565 61.6855 175.232 62.1814C174.621 62.42 174.063 62.7767 173.591 63.231C173.127 63.6792 172.758 64.2155 172.505 64.8084C171.984 66.0721 171.984 67.4894 172.505 68.7531C172.758 69.3451 173.127 69.8804 173.591 70.3276C174.066 70.7833 174.626 71.1401 175.241 71.3772C175.899 71.6319 176.6 71.7591 177.307 71.7521C178.01 71.7587 178.709 71.6335 179.367 71.383C179.979 71.1504 180.537 70.7962 181.008 70.342C181.471 69.8943 181.838 69.3578 182.088 68.7647C182.599 67.4913 182.6 66.071 182.091 64.7968C181.84 64.2044 181.472 63.6689 181.008 63.2224ZM180.794 68.2716C180.609 68.7155 180.339 69.1191 179.999 69.4596C179.658 69.7995 179.251 70.0664 178.803 70.2439C177.835 70.6131 176.764 70.6131 175.795 70.2439C175.347 70.0643 174.938 69.7977 174.594 69.4596C174.25 69.1209 173.978 68.7169 173.793 68.2716C173.598 67.8009 173.5 67.2959 173.504 66.7865C173.499 66.279 173.598 65.7757 173.793 65.3072C173.98 64.863 174.252 64.4594 174.594 64.1192C174.936 63.7765 175.345 63.5068 175.795 63.3262C176.764 62.9571 177.835 62.9571 178.803 63.3262C179.253 63.5047 179.66 63.7748 179.999 64.1192C180.349 64.4693 180.624 64.8857 180.809 65.3439C180.994 65.802 181.085 66.2926 181.077 66.7865C181.082 67.2953 180.986 67.8001 180.794 68.2716Z" fill="white"/>
<path d="M191.915 65.8812H188.881V63.1043H194.85V61.9134H187.508V71.6339H191.683C192.897 71.6339 193.831 71.3802 194.486 70.8727C194.813 70.6142 195.073 70.2809 195.244 69.901C195.415 69.521 195.492 69.1056 195.468 68.6898C195.493 68.2941 195.423 67.8982 195.266 67.5341C195.109 67.17 194.869 66.8478 194.564 66.5934C193.953 66.1205 193.07 65.8831 191.915 65.8812ZM193.452 70.0912C193.043 70.4065 192.435 70.5641 191.626 70.5641H188.887V66.9798H191.626C193.261 66.9798 194.078 67.5681 194.076 68.7446C194.092 69.0025 194.043 69.2603 193.936 69.4952C193.828 69.73 193.664 69.9348 193.457 70.0912H193.452Z" fill="white"/>
<path d="M201.842 69.4248V61.9245H200.464V71.6451H201.744L207.519 64.1593V71.6451H208.883V61.9245H207.603L201.842 69.4248Z" fill="white"/>
<path d="M220.683 62.3285C219.992 62.0367 219.246 61.8951 218.496 61.9133H214.699V71.6339H216.092V68.7013H218.496C219.245 68.7224 219.99 68.5827 220.68 68.2918C221.248 68.0526 221.732 67.6514 222.073 67.1384C222.408 66.5938 222.578 65.9637 222.561 65.3246C222.577 64.6838 222.407 64.052 222.073 63.505C221.739 62.9817 221.255 62.5715 220.683 62.3285ZM220.484 66.925C220.023 67.3095 219.349 67.5017 218.461 67.5017H216.095V63.1331H218.461C219.351 63.1331 220.025 63.3253 220.484 63.7098C220.701 63.9183 220.874 64.1686 220.993 64.4456C221.111 64.7226 221.172 65.0206 221.172 65.3217C221.172 65.6228 221.111 65.9208 220.993 66.1978C220.874 66.4748 220.701 66.7251 220.484 66.9336V66.925Z" fill="white"/>
<path d="M229.856 61.9134L225.444 71.6339H226.889L227.958 69.2031H233.138L234.207 71.6339H235.669L231.231 61.9134H229.856ZM228.438 68.0929L230.538 63.3234L232.653 68.1044L228.438 68.0929Z" fill="white"/>
<path d="M244.314 61.2437C244.932 61.2791 245.544 61.102 246.048 60.742C246.253 60.572 246.417 60.3573 246.527 60.1144C246.636 59.8715 246.689 59.6068 246.68 59.3406H245.707C245.71 59.5016 245.675 59.6612 245.606 59.8068C245.537 59.9524 245.435 60.08 245.308 60.1797C245.007 60.3747 244.656 60.4784 244.297 60.4784C243.938 60.4784 243.587 60.3747 243.286 60.1797C243.161 60.0785 243.062 59.9504 242.994 59.8049C242.927 59.6595 242.895 59.5006 242.898 59.3406H241.91C241.9 59.607 241.952 59.8722 242.062 60.1153C242.172 60.3584 242.336 60.5728 242.543 60.742C243.057 61.1091 243.683 61.2864 244.314 61.2437Z" fill="white"/>
<path d="M241.503 69.4248V61.9245H240.125V71.6451H241.404L247.18 64.1593V71.6451H248.544V61.9245H247.264L241.503 69.4248Z" fill="white"/>
<path d="M264.244 68.0929L261.083 61.9134H259.595L263.51 69.2809L263.296 69.6212C262.973 70.1499 262.606 70.4574 262.195 70.5439C261.747 70.6297 261.284 70.5847 260.861 70.4142L260.499 71.5244C260.972 71.7404 261.489 71.8393 262.008 71.8127C262.512 71.7767 262.995 71.5976 263.4 71.2966C263.88 70.929 264.268 70.4565 264.536 69.9153L268.87 61.9162H267.491L264.244 68.0929Z" fill="white"/>
<path d="M281.054 61.9245H279.566L276.503 66.1461H274.443V61.9245H273.08V71.6451H274.443V67.3688H276.48L279.635 71.6451H281.221L277.575 66.6363L281.054 61.9245Z" fill="white"/>
<path d="M291.42 62.3288C290.729 62.0413 289.985 61.9037 289.236 61.9251H285.437V71.6457H286.829V68.7015H289.236C289.985 68.7227 290.73 68.583 291.42 68.2921C291.988 68.0529 292.473 67.6516 292.813 67.1386C293.149 66.5941 293.318 65.9639 293.301 65.3249C293.317 64.6841 293.148 64.0523 292.813 63.5053C292.479 62.9815 291.993 62.5713 291.42 62.3288ZM291.221 66.9253C290.761 67.3097 290.086 67.502 289.199 67.502H286.832V63.1333H289.199C290.088 63.1333 290.763 63.3256 291.221 63.7101C291.439 63.9186 291.612 64.1689 291.73 64.4459C291.848 64.7229 291.909 65.0209 291.909 65.322C291.909 65.6231 291.848 65.9211 291.73 66.1981C291.612 66.4751 291.439 66.7254 291.221 66.9339V66.9253Z" fill="white"/>
<path d="M300.591 61.9134L296.182 71.6339H297.626L298.695 69.2031H303.876L304.945 71.6339H306.407L301.969 61.9134H300.591ZM299.172 68.0929L301.276 63.3234L303.376 68.0929H299.172Z" fill="white"/>
<path d="M312.2 61.9245H310.807V71.648H312.2V61.9245Z" fill="white"/>
<path d="M310.709 59.6666C310.608 59.5704 310.481 59.5059 310.344 59.4812C310.207 59.4565 310.065 59.4727 309.937 59.5278C309.809 59.5828 309.7 59.6742 309.623 59.7907C309.547 59.9072 309.506 60.0436 309.507 60.1828C309.505 60.2768 309.522 60.3702 309.557 60.4571C309.593 60.5441 309.647 60.6225 309.715 60.6874C309.85 60.8169 310.029 60.8893 310.216 60.8893C310.403 60.8893 310.583 60.8169 310.718 60.6874C310.786 60.6227 310.84 60.5443 310.877 60.4574C310.913 60.3705 310.931 60.2769 310.929 60.1828C310.93 60.0863 310.911 59.9907 310.873 59.9018C310.835 59.813 310.779 59.7329 310.709 59.6666Z" fill="white"/>
<path d="M312.798 59.4652C312.609 59.4636 312.426 59.5361 312.29 59.6671C312.218 59.7336 312.162 59.8146 312.125 59.9046C312.087 59.9947 312.07 60.0916 312.073 60.189C312.07 60.2837 312.089 60.3779 312.126 60.465C312.163 60.5521 312.219 60.6301 312.29 60.6936C312.357 60.759 312.436 60.8105 312.524 60.8451C312.611 60.8798 312.704 60.8969 312.798 60.8955C312.891 60.897 312.983 60.8799 313.069 60.8453C313.154 60.8106 313.232 60.759 313.298 60.6936C313.366 60.6287 313.42 60.5503 313.456 60.4633C313.491 60.3764 313.509 60.283 313.506 60.189C313.509 60.0946 313.493 60.0005 313.459 59.9124C313.425 59.8243 313.373 59.7441 313.307 59.6765C313.241 59.6088 313.161 59.5553 313.074 59.519C312.987 59.4827 312.893 59.4644 312.798 59.4652Z" fill="white"/>
<path d="M324.947 66.1057H319.351V61.9245H317.961V71.6451H319.351V67.314H324.947V71.6451H326.337V61.9245H324.947V66.1057Z" fill="white"/>
<path d="M333.838 64.1055C334.188 63.7672 334.602 63.5024 335.057 63.3269C335.541 63.1353 336.058 63.0375 336.579 63.0386C337.091 63.036 337.597 63.134 338.07 63.3269C338.544 63.5234 338.971 63.8183 339.321 64.192L340.226 63.3269C339.782 62.8283 339.227 62.4411 338.605 62.1966C337.943 61.9353 337.236 61.8051 336.525 61.813C335.824 61.8059 335.128 61.9311 334.473 62.1821C333.868 62.4143 333.315 62.7654 332.848 63.2146C332.381 63.6639 332.009 64.2022 331.754 64.7975C331.234 66.0702 331.234 67.4956 331.754 68.7683C332.007 69.3594 332.373 69.8954 332.832 70.3456C333.299 70.7996 333.853 71.1538 334.462 71.3866C335.116 71.6376 335.812 71.7628 336.513 71.7557C337.23 71.7637 337.942 71.6314 338.608 71.3664C339.23 71.1126 339.785 70.7177 340.229 70.2129L339.324 69.3479C338.977 69.7295 338.55 70.0306 338.073 70.2302C337.6 70.4218 337.093 70.5198 336.582 70.5186C336.061 70.5197 335.544 70.4218 335.06 70.2302C334.605 70.0547 334.191 69.79 333.84 69.4517C333.495 69.1143 333.223 68.71 333.04 68.2636C332.662 67.3045 332.662 66.2383 333.04 65.2791C333.224 64.8382 333.495 64.4389 333.838 64.1055Z" fill="white"/>
<path d="M351.861 66.083C351.24 65.5697 350.354 65.3131 349.203 65.3131H346.313V61.9134H344.935V71.6339H348.957C350.174 71.6339 351.118 71.359 351.788 70.8092C352.459 70.2594 352.796 69.4472 352.8 68.3726C352.794 67.3633 352.482 66.5992 351.861 66.083ZM350.754 70.0076C350.218 70.4014 349.56 70.5934 348.896 70.5497H346.296V66.4118H348.896C349.711 66.4118 350.341 66.5732 350.76 66.8962C350.981 67.0785 351.155 67.3112 351.266 67.5748C351.378 67.8383 351.424 68.1249 351.401 68.4101C351.422 68.7079 351.374 69.0065 351.262 69.2832C351.15 69.56 350.976 69.8077 350.754 70.0076Z" fill="white"/>
<path d="M365.611 61.9245H364.12L361.06 66.1461H359V61.9245H357.636V71.6451H359V67.3688H361.034L364.189 71.6451H365.778L362.129 66.6363L365.611 61.9245Z" fill="white"/>
<path d="M371.386 67.2996H376.269V66.1173H371.386V63.1328H376.867V61.9245H369.994V71.6451H377.064V70.4369H371.386V67.2996Z" fill="white"/>
</svg>
