<svg width="34" height="34" viewBox="0 0 34 34" fill="none" xmlns="http://www.w3.org/2000/svg">
<g clip-path="url(#clip0_517_12364)">
<path d="M6.57676 11.1283C6.76868 11.3254 7.08391 11.3296 7.281 11.1378L8.11334 10.3277C8.31395 10.1324 8.31435 9.8095 8.11334 9.61393L7.281 8.80377C7.08391 8.61179 6.76861 8.61624 6.5767 8.81327C6.38485 9.01043 6.3891 9.32573 6.58619 9.51751L7.0519 9.9708L6.58626 10.424C6.38917 10.6159 6.38485 10.9312 6.57676 11.1283Z" fill="black"/>
<path d="M3.96953 10.8115C4.24459 10.8115 4.46758 10.5886 4.46758 10.3135C4.46758 10.0384 4.24459 9.81543 3.96953 9.81543H2.13672C1.86166 9.81543 1.63867 10.0384 1.63867 10.3135C1.63867 10.5886 1.86166 10.8115 2.13672 10.8115H3.96953Z" fill="black"/>
<path d="M25.3594 12.6999C25.3594 14.1303 26.5231 15.2941 27.9535 15.2941C29.384 15.2941 30.5478 14.1303 30.5478 12.6999C30.5478 11.2694 29.384 10.1057 27.9535 10.1057C26.5231 10.1057 25.3594 11.2693 25.3594 12.6999ZM29.5517 12.6999C29.5517 13.5812 28.8348 14.298 27.9536 14.298C27.0724 14.298 26.3555 13.5811 26.3555 12.6999C26.3555 11.8187 27.0725 11.1018 27.9536 11.1018C28.8348 11.1017 29.5517 11.8187 29.5517 12.6999Z" fill="black"/>
<path d="M7.24921 15.0856C6.99985 14.6208 6.86936 14.3009 6.8681 14.2977C6.76504 14.0429 6.47504 13.9199 6.21998 14.0226C5.96491 14.1255 5.84159 14.4157 5.94452 14.6708C5.9505 14.6857 6.09427 15.04 6.37145 15.5566C6.50107 15.7982 6.80256 15.8904 7.04574 15.76C7.28819 15.63 7.37923 15.3281 7.24921 15.0856Z" fill="black"/>
<path d="M15.1078 18.0426C14.632 18.1894 14.128 18.3693 13.6088 18.5773C13.5616 18.5964 13.5145 18.6144 13.4677 18.6315C13.2094 18.726 13.0765 19.012 13.1711 19.2703C13.245 19.4722 13.4357 19.5974 13.6389 19.5974C13.6957 19.5974 13.7536 19.5876 13.81 19.5669C14.0454 19.481 14.5913 19.2446 15.4017 18.9943C15.6645 18.9132 15.8118 18.6343 15.7307 18.3716C15.6495 18.1086 15.3706 17.9614 15.1078 18.0426Z" fill="black"/>
<path d="M8.54372 18.4164C8.74878 18.6005 9.06368 18.5827 9.24703 18.3785C9.43078 18.1738 9.41384 17.859 9.20911 17.6752C8.83551 17.3397 8.47174 16.9356 8.12802 16.4739C7.96373 16.2534 7.65169 16.2076 7.43109 16.3719C7.21048 16.5362 7.1648 16.8483 7.32908 17.0689C7.71232 17.5835 8.12098 18.0369 8.54372 18.4164Z" fill="black"/>
<path d="M23.4571 19.9236C23.269 19.723 22.9538 19.7128 22.753 19.901C22.5524 20.0892 22.5423 20.4044 22.7304 20.6051C23.0862 20.9844 23.4263 21.3896 23.8276 21.8814C24.0017 22.0948 24.3157 22.1261 24.5283 21.9524C24.7415 21.7785 24.7732 21.4648 24.5993 21.2517C24.1851 20.7439 23.8323 20.3238 23.4571 19.9236Z" fill="black"/>
<path d="M18.6105 18.4958C18.8823 18.5062 19.1177 18.2946 19.1296 18.0197C19.1415 17.7449 18.9284 17.5125 18.6536 17.5006C18.0924 17.4764 17.4789 17.5177 16.8401 17.624C16.5687 17.6693 16.3855 17.9259 16.4307 18.1972C16.4713 18.4408 16.6823 18.6135 16.9214 18.6135C17.072 18.6134 17.7119 18.4567 18.6105 18.4958Z" fill="black"/>
<path d="M25.6913 22.5761C25.5128 22.3669 25.1983 22.342 24.9891 22.5206C24.78 22.6992 24.7551 23.0136 24.9337 23.2227C25.1571 23.4845 25.3637 23.7169 25.5653 23.9336C25.7529 24.1352 26.0682 24.1459 26.2693 23.9587C26.4705 23.7714 26.4818 23.4562 26.2944 23.2548C26.1026 23.0488 25.9053 22.8268 25.6913 22.5761Z" fill="black"/>
<path d="M33.3989 10.2954C33.2791 10.0478 32.9813 9.94423 32.7336 10.0641C32.4859 10.184 32.3824 10.4818 32.5023 10.7294C32.8352 11.4171 33.0039 12.1562 33.0039 12.9261C33.0039 14.4004 32.3766 16.5051 31.443 18.1633C30.3946 20.0252 29.1229 21.0931 27.9538 21.0931C26.7847 21.0931 25.5129 20.0252 24.4646 18.1633C23.5309 16.505 22.9036 14.4004 22.9036 12.9261C22.9036 10.1414 25.1691 7.87594 27.9538 7.87594C29.2513 7.87594 30.485 8.36848 31.4277 9.26277C31.6272 9.45203 31.9425 9.44373 32.1319 9.24424C32.3212 9.04463 32.3129 8.72939 32.1133 8.54007C30.9847 7.46947 29.5075 6.87985 27.9538 6.87985C27.5835 6.87985 27.2209 6.91352 26.8688 6.97753C22.4439 2.61198 15.478 1.57312 9.87939 4.87278V4.85997C9.87939 4.31119 9.43294 3.86474 8.88416 3.86474H0.99523C0.446449 3.86474 0 4.31119 0 4.85997V7.3012C0 7.57632 0.222992 7.79924 0.498047 7.79924C0.773102 7.79924 0.996094 7.57632 0.996094 7.3012L0.99523 4.86083L3.51043 4.86057V6.67718C3.51043 7.06572 3.82653 7.38175 4.21507 7.38175H5.66439C6.05293 7.38175 6.36896 7.06565 6.36896 6.67718V4.86023L8.8833 4.85997C8.88343 5.7103 8.88403 10.7019 8.88416 11.7328C7.2428 11.733 2.50378 11.7335 0.996094 11.7337V9.29245C0.996094 9.01733 0.773102 8.79441 0.498047 8.79441C0.222992 8.79441 0 9.01733 0 9.29245V11.7337C0 12.2825 0.446449 12.7289 0.99523 12.7289H3.59909C3.45246 13.1907 3.32841 13.6615 3.22967 14.1358C2.46434 17.814 3.17714 21.57 5.23686 24.7122C9.42829 31.1062 17.8748 32.9318 24.3062 29.0196C27.3027 27.1969 29.4904 24.3559 30.4816 21.008C31.1342 20.4352 31.7526 19.6436 32.3109 18.652C33.3369 16.8295 34 14.5819 34 12.926C34 12.0046 33.7977 11.1196 33.3989 10.2954ZM5.37286 6.38572H4.50653V4.86083H5.37286V6.38572ZM4.20491 14.3387C4.31833 13.7938 4.46741 13.254 4.64817 12.7289H8.88423C9.43301 12.7289 9.87946 12.2824 9.87946 11.7337V7.42484C10.8085 7.9379 11.5157 8.53277 11.9868 9.19875C12.7422 10.2666 12.8687 11.4746 12.3739 12.8914C11.9377 14.1407 11.4714 15.2884 11.0206 16.3983C10.7331 17.1059 10.4492 17.805 10.1784 18.5163C10.036 18.5513 9.9102 18.6483 9.84433 18.7919C9.7671 18.9601 9.7918 19.1489 9.89221 19.2894C9.12548 21.4209 8.50452 23.7245 8.27946 26.7308C4.93086 23.7195 3.22323 19.0564 4.20491 14.3387ZM23.7886 28.1686C22.5097 28.9466 21.1256 29.4905 19.6932 29.7924C19.5216 29.2049 19.3922 28.5879 19.3089 27.9513C19.2734 27.6786 19.0232 27.4868 18.7505 27.522C18.4779 27.5577 18.2856 27.8077 18.3213 28.0804C18.4059 28.7279 18.5346 29.358 18.7047 29.9613C15.4216 30.392 11.9978 29.5618 9.22868 27.5069C9.3937 24.3169 10.0136 21.9191 10.7988 19.7146C11.1751 19.8216 11.5581 19.8808 11.9439 19.8902C11.948 19.8903 11.9522 19.8904 11.9562 19.8904C12.2257 19.8904 12.4473 19.6753 12.4539 19.4045C12.4606 19.1295 12.2431 18.9011 11.9681 18.8944C11.6923 18.8877 11.4175 18.8473 11.1459 18.7762C11.4028 18.1043 11.6714 17.4426 11.9433 16.7732C12.3988 15.652 12.8697 14.4927 13.3143 13.2199C14.323 10.3312 13.1029 7.88371 9.87932 6.30337V6.04393C12.5845 4.28396 15.7667 3.59612 18.9385 4.07671C18.7147 4.46405 18.4428 5.00527 18.22 5.6605C17.6095 7.45639 17.661 9.26211 18.3692 10.8826C18.6432 11.5094 18.9205 12.0698 19.1652 12.5642C20.0449 14.3418 20.6401 15.5449 20.2051 17.8256C20.0426 17.8618 19.9018 17.9783 19.8429 18.147C19.7713 18.3516 19.8417 18.571 20.0016 18.6994C19.8146 19.3902 19.5467 20.1732 19.1825 21.0817C18.5603 22.6337 18.2311 24.2941 18.2039 26.0167C18.1996 26.2918 18.419 26.5182 18.6941 26.5226C18.6967 26.5226 18.6994 26.5226 18.7021 26.5226C18.9735 26.5226 19.1957 26.3048 19.1999 26.0324C19.2251 24.4319 19.5304 22.8909 20.1071 21.4523C20.4552 20.5842 20.7197 19.8152 20.913 19.124C21.1206 19.2383 21.3251 19.3681 21.5287 19.5168C21.7509 19.6791 22.0623 19.6305 22.2246 19.4083C22.3868 19.1862 22.3383 18.8746 22.1161 18.7124C21.8006 18.4821 21.482 18.2882 21.1542 18.1261C21.6949 15.4313 20.9947 14.0153 20.0579 12.1223C19.8065 11.6141 19.5464 11.0887 19.2819 10.4834C18.0589 7.68529 19.4685 5.08263 19.984 4.27759C22.1444 4.78334 24.1189 5.81702 25.7532 7.29422C23.5042 8.17603 21.9074 10.368 21.9074 12.9259C21.9074 14.5818 22.5704 16.8294 23.5965 18.6519C24.8445 20.8684 26.3919 22.0891 27.9536 22.0891C28.3497 22.0891 28.7448 22.0102 29.1344 21.8568C28.0912 24.4739 26.2285 26.6845 23.7886 28.1686Z" fill="black"/>
</g>
<defs>
<clipPath id="clip0_517_12364">
<rect width="34" height="34" fill="white"/>
</clipPath>
</defs>
</svg>
