<svg width="108" height="24" viewBox="0 0 108 24" fill="none" xmlns="http://www.w3.org/2000/svg">
<path fill-rule="evenodd" clip-rule="evenodd" d="M22.3593 1.83281C22.7156 1.82812 22.7906 1.84687 23.0859 1.9875C23.2968 2.09062 23.475 2.21719 23.5921 2.34844C23.6906 2.46094 23.8125 2.67187 23.8687 2.8125C23.9484 3.00937 23.9718 3.17344 23.9718 3.51562C23.9718 3.91875 23.8171 4.72031 22.2796 12.3047C21.3468 16.8937 20.55 20.7422 20.5078 20.8594C20.4656 20.9766 20.3859 21.1547 20.325 21.2578C20.264 21.3609 20.1046 21.5437 19.9734 21.6656C19.8421 21.7922 19.6453 21.9328 19.5328 21.9797C19.425 22.0266 19.2187 22.0922 19.0781 22.125C18.8484 22.1766 18.7781 22.1719 18.4453 22.0828C18.239 22.0266 17.9718 21.9234 17.85 21.8531C17.7281 21.7828 16.7484 21.0187 15.675 20.1562C14.6062 19.2937 13.7109 18.5859 13.6921 18.5859C13.6687 18.5859 13.0593 19.1344 12.3281 19.8047C11.6015 20.475 10.9171 21.0891 10.8093 21.1641C10.7015 21.2391 10.5 21.3562 10.3593 21.4219C10.139 21.5203 10.0312 21.5391 9.63277 21.5391C9.22496 21.5391 9.13121 21.525 8.90621 21.4172C8.76558 21.3516 8.54527 21.2016 8.41871 21.0891C8.29683 20.9766 8.1234 20.7656 8.03902 20.625C7.94058 20.4656 7.42965 19.0734 5.52652 13.6172L3.33746 12.9891C2.13277 12.6469 1.03121 12.3094 0.890583 12.2437C0.749958 12.1781 0.520271 12.0141 0.384333 11.8875C0.206208 11.7141 0.117146 11.5828 0.060896 11.4141C0.014021 11.2687 -0.004729 11.1 0.014021 10.9687C0.023396 10.8516 0.0749585 10.6828 0.121833 10.5937C0.168708 10.5047 0.290583 10.3453 0.398396 10.2422C0.506208 10.1391 0.726521 9.98906 0.895271 9.90937C1.05933 9.825 5.28746 8.19844 10.289 6.29062C15.2906 4.38281 19.9218 2.61562 20.5781 2.36719C21.2343 2.11875 21.8156 1.89844 21.8671 1.875C21.9187 1.85156 22.139 1.83281 22.3593 1.83281ZM18.3515 4.72031C16.289 5.50781 14.114 6.3375 13.5234 6.5625C12.9328 6.7875 11.5593 7.3125 10.4765 7.725C9.39371 8.14219 7.01246 9.05156 5.17965 9.75C3.34683 10.4484 1.84215 11.0297 1.82808 11.0391C1.81402 11.0531 1.81402 11.0719 1.82808 11.0812C1.84215 11.0953 2.78433 11.3672 3.9234 11.6906L5.99996 12.2812C13.064 8.67187 15.8156 7.27031 16.664 6.83906C17.5125 6.40312 18.2625 6.04687 18.3281 6.04687C18.3937 6.04687 18.539 6.09375 18.6562 6.15C18.7687 6.21094 18.9046 6.31875 18.9515 6.39844C18.9984 6.48281 19.0312 6.63281 19.0312 6.77344C19.0312 6.91875 19.0031 7.05469 18.9515 7.12969C18.9046 7.19531 17.2312 8.98594 15.2343 11.1047C13.2375 13.2281 11.6015 14.9859 11.6015 15.0141C11.6015 15.0422 12.539 15.825 13.6875 16.7484C14.8359 17.6719 16.4015 18.9328 17.1656 19.5516C18.2671 20.4328 18.6 20.6766 18.7359 20.7C18.8343 20.7187 18.9468 20.7094 18.9843 20.6859C19.0218 20.6625 19.0921 20.5687 19.1343 20.4797C19.1765 20.3906 19.9734 16.5656 20.9062 11.9766C21.8343 7.3875 22.5937 3.57187 22.5937 3.49219C22.5937 3.4125 22.5703 3.32344 22.5375 3.29062C22.5046 3.25781 22.425 3.23437 22.3593 3.23906C22.2937 3.23906 22.2093 3.25312 22.1718 3.26719C22.1343 3.28125 20.414 3.9375 18.3515 4.72031ZM9.44527 12.1031C8.07652 12.8016 6.95621 13.3734 6.94683 13.3781C6.94215 13.3828 7.35933 14.5969 7.87496 16.0781C8.39527 17.5594 8.82652 18.7828 8.8359 18.7969C8.84996 18.8109 8.86871 18.7875 8.88277 18.75C8.89683 18.7125 9.11715 17.8172 9.37965 16.7578C9.63746 15.6984 9.87652 14.7937 9.90933 14.7422C9.94215 14.6906 11.0203 13.5281 12.3046 12.1641C13.589 10.7953 14.7046 9.60937 14.7843 9.52969C14.864 9.44531 14.9156 9.36562 14.9015 9.35625C14.8875 9.34219 14.2125 9.67031 13.4015 10.0828C12.5906 10.4953 10.8093 11.4047 9.44527 12.1031ZM10.4625 18.2437C10.2375 19.1672 10.0687 19.9219 10.0875 19.9219C10.1109 19.9219 10.6734 19.4203 11.339 18.8109C12.0093 18.1969 12.5578 17.6859 12.5578 17.6719C12.5625 17.6578 12.2109 17.3625 11.7796 17.0156C11.3484 16.6687 10.9781 16.3781 10.964 16.3687C10.9453 16.3594 10.9171 16.4016 10.9031 16.4625C10.8843 16.5234 10.6875 17.325 10.4625 18.2437Z" fill="white"/>
<path d="M36.2109 7.824H32.2749V6.8H41.3309V7.824H37.3949V18H36.2109V7.824ZM49.4354 14.144H42.3954C42.4594 15.0187 42.7954 15.728 43.4034 16.272C44.0114 16.8053 44.7794 17.072 45.7074 17.072C46.2301 17.072 46.7101 16.9813 47.1474 16.8C47.5848 16.608 47.9634 16.3307 48.2834 15.968L48.9234 16.704C48.5501 17.152 48.0808 17.4933 47.5154 17.728C46.9608 17.9627 46.3474 18.08 45.6754 18.08C44.8114 18.08 44.0434 17.8987 43.3714 17.536C42.7101 17.1627 42.1928 16.6507 41.8194 16C41.4461 15.3493 41.2594 14.6133 41.2594 13.792C41.2594 12.9707 41.4354 12.2347 41.7874 11.584C42.1501 10.9333 42.6408 10.4267 43.2594 10.064C43.8888 9.70133 44.5928 9.52 45.3714 9.52C46.1501 9.52 46.8488 9.70133 47.4674 10.064C48.0861 10.4267 48.5714 10.9333 48.9234 11.584C49.2754 12.224 49.4514 12.96 49.4514 13.792L49.4354 14.144ZM45.3714 10.496C44.5608 10.496 43.8781 10.7573 43.3234 11.28C42.7794 11.792 42.4701 12.464 42.3954 13.296H48.3634C48.2888 12.464 47.9741 11.792 47.4194 11.28C46.8754 10.7573 46.1928 10.496 45.3714 10.496ZM51.7637 6.128H52.8997V18H51.7637V6.128ZM63.3886 14.144H56.3486C56.4126 15.0187 56.7486 15.728 57.3566 16.272C57.9646 16.8053 58.7326 17.072 59.6606 17.072C60.1832 17.072 60.6632 16.9813 61.1006 16.8C61.5379 16.608 61.9166 16.3307 62.2366 15.968L62.8766 16.704C62.5032 17.152 62.0339 17.4933 61.4686 17.728C60.9139 17.9627 60.3006 18.08 59.6286 18.08C58.7646 18.08 57.9966 17.8987 57.3246 17.536C56.6632 17.1627 56.1459 16.6507 55.7726 16C55.3992 15.3493 55.2126 14.6133 55.2126 13.792C55.2126 12.9707 55.3886 12.2347 55.7406 11.584C56.1032 10.9333 56.5939 10.4267 57.2126 10.064C57.8419 9.70133 58.5459 9.52 59.3246 9.52C60.1032 9.52 60.8019 9.70133 61.4206 10.064C62.0392 10.4267 62.5246 10.9333 62.8766 11.584C63.2286 12.224 63.4046 12.96 63.4046 13.792L63.3886 14.144ZM59.3246 10.496C58.5139 10.496 57.8312 10.7573 57.2766 11.28C56.7326 11.792 56.4232 12.464 56.3486 13.296H62.3166C62.2419 12.464 61.9272 11.792 61.3726 11.28C60.8286 10.7573 60.1459 10.496 59.3246 10.496ZM73.5088 9.584V16.976C73.5088 18.4053 73.1568 19.4613 72.4528 20.144C71.7595 20.8373 70.7088 21.184 69.3008 21.184C68.5221 21.184 67.7808 21.0667 67.0768 20.832C66.3835 20.608 65.8181 20.2933 65.3808 19.888L65.9568 19.024C66.3621 19.3867 66.8528 19.6693 67.4288 19.872C68.0155 20.0747 68.6288 20.176 69.2688 20.176C70.3355 20.176 71.1195 19.9253 71.6208 19.424C72.1221 18.9333 72.3728 18.1653 72.3728 17.12V16.048C72.0208 16.5813 71.5568 16.9867 70.9808 17.264C70.4155 17.5413 69.7861 17.68 69.0928 17.68C68.3035 17.68 67.5835 17.5093 66.9328 17.168C66.2928 16.816 65.7861 16.3307 65.4128 15.712C65.0501 15.0827 64.8688 14.3733 64.8688 13.584C64.8688 12.7947 65.0501 12.0907 65.4128 11.472C65.7861 10.8533 66.2928 10.3733 66.9328 10.032C67.5728 9.69067 68.2928 9.52 69.0928 9.52C69.8075 9.52 70.4528 9.664 71.0288 9.952C71.6048 10.24 72.0688 10.656 72.4208 11.2V9.584H73.5088ZM69.2048 16.672C69.8128 16.672 70.3621 16.544 70.8528 16.288C71.3435 16.0213 71.7221 15.6533 71.9888 15.184C72.2661 14.7147 72.4048 14.1813 72.4048 13.584C72.4048 12.9867 72.2661 12.4587 71.9888 12C71.7221 11.5307 71.3435 11.168 70.8528 10.912C70.3728 10.6453 69.8235 10.512 69.2048 10.512C68.5968 10.512 68.0475 10.64 67.5568 10.896C67.0768 11.152 66.6981 11.5147 66.4208 11.984C66.1541 12.4533 66.0208 12.9867 66.0208 13.584C66.0208 14.1813 66.1541 14.7147 66.4208 15.184C66.6981 15.6533 67.0768 16.0213 67.5568 16.288C68.0475 16.544 68.5968 16.672 69.2048 16.672ZM77.7736 11.232C78.0402 10.6667 78.4349 10.24 78.9576 9.952C79.4909 9.664 80.1469 9.52 80.9256 9.52V10.624L80.6536 10.608C79.7682 10.608 79.0749 10.88 78.5736 11.424C78.0722 11.968 77.8216 12.7307 77.8216 13.712V18H76.6856V9.584H77.7736V11.232ZM85.9108 9.52C87.0095 9.52 87.8521 9.79733 88.4388 10.352C89.0255 10.896 89.3188 11.7067 89.3188 12.784V18H88.2308V16.688C87.9748 17.1253 87.5961 17.4667 87.0948 17.712C86.6041 17.9573 86.0175 18.08 85.3348 18.08C84.3961 18.08 83.6495 17.856 83.0948 17.408C82.5401 16.96 82.2628 16.368 82.2628 15.632C82.2628 14.9173 82.5188 14.3413 83.0308 13.904C83.5535 13.4667 84.3801 13.248 85.5108 13.248H88.1828V12.736C88.1828 12.0107 87.9801 11.4613 87.5748 11.088C87.1695 10.704 86.5775 10.512 85.7988 10.512C85.2655 10.512 84.7535 10.6027 84.2628 10.784C83.7721 10.9547 83.3508 11.1947 82.9988 11.504L82.4868 10.656C82.9135 10.2933 83.4255 10.016 84.0228 9.824C84.6201 9.62133 85.2495 9.52 85.9108 9.52ZM85.5108 17.184C86.1508 17.184 86.7001 17.04 87.1588 16.752C87.6175 16.4533 87.9588 16.0267 88.1828 15.472V14.096H85.5428C84.1028 14.096 83.3828 14.5973 83.3828 15.6C83.3828 16.0907 83.5695 16.48 83.9428 16.768C84.3161 17.0453 84.8388 17.184 85.5108 17.184ZM102.9 9.52C103.956 9.52 104.783 9.824 105.38 10.432C105.988 11.04 106.292 11.936 106.292 13.12V18H105.156V13.232C105.156 12.3573 104.943 11.6907 104.516 11.232C104.1 10.7733 103.508 10.544 102.74 10.544C101.866 10.544 101.178 10.816 100.676 11.36C100.175 11.8933 99.9243 12.6347 99.9243 13.584V18H98.7883V13.232C98.7883 12.3573 98.575 11.6907 98.1483 11.232C97.7323 10.7733 97.135 10.544 96.3563 10.544C95.4923 10.544 94.8043 10.816 94.2923 11.36C93.791 11.8933 93.5403 12.6347 93.5403 13.584V18H92.4043V9.584H93.4923V11.12C93.791 10.608 94.207 10.2133 94.7403 9.936C95.2736 9.65867 95.887 9.52 96.5803 9.52C97.2843 9.52 97.8923 9.66933 98.4043 9.968C98.927 10.2667 99.3163 10.7093 99.5723 11.296C99.8816 10.7413 100.324 10.3093 100.9 10C101.487 9.68 102.154 9.52 102.9 9.52Z" fill="white"/>
</svg>
