<svg width="34" height="34" viewBox="0 0 34 34" fill="none" xmlns="http://www.w3.org/2000/svg">
<path d="M12.5412 28.4463L10.7237 27.7371L12.481 24.3176C12.0642 24.6909 10.375 26.1161 7.88962 26.0723C4.32157 26.0096 2.36692 22.9769 2.22154 22.7432C2.44519 22.4272 3.71488 20.6713 5.51918 19.9405C6.92062 19.3738 8.21421 19.5983 8.25724 19.61C8.25724 19.61 8.25193 19.6086 8.25884 19.61C8.27779 19.6153 8.44566 19.6632 8.44637 19.66C8.44708 19.6568 8.44637 19.66 8.44478 19.66C7.27544 19.1515 6.18597 18.4762 5.21035 17.6552C4.26968 16.8628 2.62493 15.4771 1.85338 13.2483C0.723942 9.98749 2.16788 6.96327 2.56419 6.19331C3.67362 6.14549 7.52979 6.11008 9.64983 8.66043C11.0606 10.3576 11.4915 12.9467 11.8046 14.8229C12.0233 16.1358 12.1724 17.5107 12.1681 17.4491C12.1037 16.5443 12.0954 15.6364 12.1435 14.7307C12.246 12.7978 12.2822 8.99441 14.6972 6.52799C15.248 5.9654 16.8488 4.52341 19.9727 4.19598C20.7769 5.14338 22.1039 7.03109 22.1895 9.55771C22.2677 11.8736 21.2667 13.6483 20.1849 15.5651C19.445 16.8753 18.5554 18.0951 17.5339 19.1999C18.5428 18.2852 19.6138 17.4414 20.7391 16.6745C22.6222 15.391 23.8546 14.5509 25.2383 14.2727C28.5168 13.6135 31.6044 16.3172 32.5695 17.2329C32.1991 18.6474 31.2041 21.5163 28.6548 22.8083C27.3541 23.4674 25.9684 23.554 23.6325 23.7001C22.2675 23.7857 20.8981 23.775 19.5346 23.6681C19.5325 23.6681 19.5314 23.6681 19.5313 23.6681C19.5286 23.6752 19.7204 23.7488 19.7811 23.772L19.7988 23.7789C19.8803 23.8097 20.8248 24.3065 21.4151 24.936C21.9463 25.5027 22.7324 26.7553 23.2934 28.5414C20.9017 30.166 17.9055 30.2163 15.8371 28.724C13.8656 27.302 13.5035 25.0302 13.436 24.5337C13.1378 25.8378 12.8396 27.142 12.5412 28.4463Z" fill="#7FC394"/>
</svg>
