<svg width="36" height="45" viewBox="0 0 36 45" fill="none" xmlns="http://www.w3.org/2000/svg">
<g clip-path="url(#clip0_417_7252)">
<path d="M30.73 5.46056C27.3491 1.99273 22.7796 0.0523439 18.0208 0.0637709C13.262 0.0751979 8.70117 2.03751 5.33585 5.52154C1.97052 9.00557 0.0745424 13.7278 0.0625572 18.6554C0.050572 23.5831 1.92356 28.3151 5.27189 31.8167L17.973 45L30.73 31.8167C34.1035 28.3207 35.9985 23.5807 35.9985 18.6386C35.9985 13.6965 34.1035 8.95655 30.73 5.46056ZM17.9984 28.4077C16.0469 28.4077 14.1392 27.8088 12.5163 26.6865C10.8934 25.5643 9.6282 23.9692 8.88047 22.1026C8.13274 20.2361 7.93607 18.182 8.31531 16.1998C8.69456 14.2176 9.63269 12.3962 11.0112 10.9659C12.3897 9.53557 14.1467 8.5604 16.0602 8.16363C17.9737 7.76686 19.9578 7.96628 21.7619 8.7367C23.566 9.50711 25.1091 10.814 26.1962 12.4921C27.2833 14.1703 27.8657 16.1444 27.8697 18.1651C27.8724 19.5092 27.619 20.8407 27.1241 22.0832C26.6292 23.3258 25.9026 24.4551 24.9857 25.4065C24.0688 26.3579 22.9796 27.1127 21.7807 27.6276C20.5817 28.1426 19.2964 28.4077 17.9984 28.4077Z" fill="#A7D8B6"/>
</g>
<defs>
<clipPath id="clip0_417_7252">
<rect width="36" height="45" fill="white"/>
</clipPath>
</defs>
</svg>
