<svg width="51" height="50" viewBox="0 0 51 50" fill="none" xmlns="http://www.w3.org/2000/svg">
<g clip-path="url(#clip0_417_7364)">
<path d="M25.5179 0C20.5698 0 15.7329 1.46727 11.6187 4.21627C7.50453 6.96527 4.29793 10.8725 2.40438 15.4439C0.51084 20.0154 0.0154026 25.0456 0.980723 29.8986C1.94604 34.7516 4.32876 39.2094 7.82758 42.7082C11.3264 46.207 15.7841 48.5897 20.6371 49.555C25.4901 50.5204 30.5204 50.0249 35.0918 48.1314C39.6632 46.2378 43.5705 43.0312 46.3195 38.9171C49.0685 34.8029 50.5358 29.9659 50.5358 25.0179C50.5358 18.3827 47.8999 12.0193 43.2082 7.32756C38.5164 2.6358 32.153 0 25.5179 0ZM25.5179 43.8885C21.7816 43.8913 18.1284 42.7858 15.0206 40.7118C11.9128 38.6378 9.49006 35.6885 8.05894 32.2371C6.62781 28.7858 6.25262 24.9875 6.98084 21.3228C7.70907 17.6582 9.50797 14.2919 12.1499 11.6499C14.7919 9.00796 18.1582 7.20906 21.8228 6.48083C25.4875 5.75261 29.2858 6.1278 32.7371 7.55893C36.1885 8.99005 39.1378 11.4128 41.2118 14.5206C43.2858 17.6284 44.3913 21.2816 44.3885 25.0179C44.3791 30.0198 42.3879 34.8141 38.851 38.351C35.3141 41.8879 30.5198 43.879 25.5179 43.8885Z" fill="#A7D8B6"/>
<path d="M27.2971 15.2896H21.543V23.7456V27.8771V29.8571H36.6538V23.7456H27.2971V15.2896Z" fill="#A7D8B6"/>
</g>
<defs>
<clipPath id="clip0_417_7364">
<rect width="50" height="50" fill="white" transform="translate(0.5)"/>
</clipPath>
</defs>
</svg>
