<svg width="60" height="60" viewBox="0 0 60 60" fill="none" xmlns="http://www.w3.org/2000/svg">
<path d="M27.0271 31.229L17.274 40.9821L1.5387 41.7893L13.2324 31.229H27.0271Z" fill="#E6A08C"/>
<path d="M19.0178 42.7258L28.7709 32.9727V46.7673L18.2106 58.4611L19.0178 42.7258Z" fill="#E6A08C"/>
<path d="M31.2354 46.7673V32.9785L40.9885 42.7316L41.7894 58.461L31.2354 46.7673Z" fill="#E6A08C"/>
<path d="M17.2681 19.0114L27.0212 28.7645H13.2324L1.5387 18.2104L17.2681 19.0114Z" fill="#E6A08C"/>
<path d="M18.2106 1.53857L28.7709 13.2323V27.027L19.0178 17.2739L18.2106 1.53857Z" fill="#E6A08C"/>
<path d="M29.9968 29.9971H30.0041V30.0044L29.9968 29.9971Z" fill="#E6A08C"/>
<path d="M46.7675 31.229L58.4612 41.7893L42.7318 40.9821L32.9728 31.229H46.7675Z" fill="#E6A08C"/>
<path d="M40.9885 17.2676L31.2354 27.0208V13.2261L41.7894 1.53857L40.9885 17.2676Z" fill="#E6A08C"/>
<path d="M58.4612 18.2104L46.7737 28.7645H32.979L42.7318 19.0114L58.4612 18.2104Z" fill="#E6A08C"/>
<path d="M30.0041 29.9971V30.0044L29.9968 29.9971H30.0041Z" fill="#E6A08C"/>
<path d="M29.9968 29.9971H30.0041V30.0044L29.9968 29.9971Z" fill="#E6A08C"/>
<path d="M30.0041 29.9971V30.0044L29.9968 29.9971H30.0041Z" fill="#E6A08C"/>
<path d="M30.0041 29.9971V30.0044L29.9968 29.9971H30.0041Z" fill="#E6A08C"/>
</svg>
