<svg width="25" height="24" viewBox="0 0 25 24" fill="none" xmlns="http://www.w3.org/2000/svg">
    <style>
        .hidden {display: none; fill: none}
        .black-fill {fill: #000000}
        .black-stroke {stroke: #000000}
        :target {display: block;}
    </style>

    <g id="icon-1" class="black-fill hidden">
        <path d="M12.1962 18.8683C11.0165 18.7277 9.99595 17.8598 9.5517 16.7535C9.39862 16.3777 8.92135 16.4449 8.87032 16.8483C8.86132 16.9186 8.88533 16.7474 8.87332 16.8299C8.86732 16.8636 8.86432 16.8941 8.85831 16.9277C8.84331 17.0133 8.8283 17.0958 8.81029 17.1814C8.75926 17.4198 8.69022 17.6551 8.60918 17.8812C8.39906 18.4588 8.04486 19.0241 7.57059 19.4428C6.53801 20.3504 5.04017 20.381 3.81248 19.9073C3.01103 19.5987 2.31163 19.0547 1.75332 18.4007C1.78334 18.5138 1.81335 18.6299 1.84337 18.743C1.86738 18.6819 1.84637 18.7399 1.84037 18.7491C1.84937 18.7338 1.85538 18.7124 1.86438 18.6941C1.88239 18.6544 1.8974 18.6146 1.91541 18.5749C1.95743 18.4863 1.99946 18.3977 2.04448 18.309C2.15254 18.0951 2.27561 17.8873 2.40769 17.6887C2.74688 17.1783 3.17012 16.7169 3.65639 16.3471C4.61693 15.6137 5.79059 15.2225 6.98827 15.1889C7.20739 15.1828 7.42951 15.1889 7.64864 15.2042C7.72968 15.2103 7.81073 15.2164 7.89177 15.2286C7.92479 15.2317 7.95781 15.2378 7.98783 15.2408C7.90978 15.2317 7.9488 15.2347 7.99683 15.2439C8.02685 15.0116 8.05686 14.7824 8.08988 14.5502C7.19838 14.4677 6.32489 14.2476 5.49342 13.9145C4.87207 13.667 4.25072 13.3767 3.6804 12.9886C2.23059 12.0015 1.37211 10.4124 1.22802 8.65522C1.19801 8.2885 1.19501 7.92178 1.21602 7.55812C1.22502 7.4206 1.23403 7.28308 1.25204 7.14862C1.25504 7.11806 1.27605 6.95609 1.26104 7.06916C1.26705 7.02333 1.27305 6.97748 1.27905 6.9347C1.19801 7.01721 1.11696 7.09973 1.03592 7.18224C2.30863 6.68717 3.76145 6.39685 5.1062 6.74523C6.85619 7.19752 7.87076 8.80801 8.68422 10.3268C8.93036 10.7883 9.17049 11.2528 9.39862 11.7234C9.5517 12.0351 9.68678 12.3591 9.84587 12.6677C10.026 13.0161 10.6143 12.7747 10.4792 12.3957C10.3351 11.9893 10.1701 11.592 10.038 11.1795C9.90891 10.7699 9.79484 10.3513 9.68378 9.93873C9.46766 9.13806 9.27555 8.32212 9.20951 7.49395C9.13147 6.51603 9.20951 5.51062 9.59373 4.60299C9.78584 4.15071 10.059 3.72287 10.3472 3.3806C10.9745 2.638 11.776 2.08793 12.6494 1.67842C12.5324 1.67842 12.4153 1.67842 12.3013 1.67842C13.3729 2.34157 14.2944 3.28281 14.8077 4.47159C15.1679 5.30892 15.2729 6.2196 15.2129 7.12723C15.1529 8.05625 14.9698 8.99748 14.7506 9.899C14.5525 10.7149 14.2854 11.5187 13.9462 12.2857C13.8681 12.4599 13.8981 12.6647 14.0692 12.7686C14.2283 12.8633 14.4505 12.8083 14.5435 12.6433C14.9758 11.864 15.453 11.1122 15.9723 10.391C16.5186 9.63618 17.0769 8.85691 17.7343 8.19376C18.2866 7.63758 18.938 7.25252 19.7064 7.09667C20.4899 6.93776 21.3153 7.01721 22.0868 7.20363C22.7531 7.36254 23.4015 7.60396 23.9718 7.87289C23.9148 7.77204 23.8578 7.67119 23.8007 7.56729C23.8848 8.87219 23.7377 10.2565 23.0593 11.3934C22.2398 12.7716 20.715 13.3095 19.3192 13.8809C18.4217 14.2477 17.4972 14.5502 16.5576 14.7886C16.3775 14.8344 16.2665 15.0422 16.3145 15.2225C16.3685 15.4242 16.5546 15.4975 16.7407 15.47C16.7558 15.467 16.8728 15.4517 16.7978 15.4609C16.8368 15.4548 16.8788 15.4517 16.9178 15.4456C17.0229 15.4334 17.128 15.4242 17.233 15.4181C17.4852 15.4028 17.7343 15.3998 17.9864 15.412C18.6378 15.4456 19.2772 15.5831 19.8865 15.8154C20.9041 16.2035 21.7986 16.8788 22.495 17.7223C22.6991 17.9698 22.8852 18.2357 23.0683 18.5443C23.0863 18.4007 23.1043 18.2601 23.1223 18.1165C22.1918 19.2106 20.8711 20.0448 19.4183 20.0876C18.8479 20.106 18.2776 20.002 17.7913 19.724C17.233 19.4061 16.8398 18.8744 16.6237 18.2693C16.4376 17.7467 16.3685 17.3097 16.3565 16.7811C16.3475 16.3593 15.8162 16.3349 15.6751 16.6863C15.1108 18.0951 13.694 19.0211 12.1962 18.8683C12.0101 18.8499 11.851 19.0425 11.851 19.2197C11.851 19.4275 12.0101 19.5528 12.1962 19.5712C14.0212 19.7576 15.6721 18.5535 16.3415 16.8666C16.1134 16.8361 15.8883 16.8055 15.6601 16.7719C15.6842 18.0707 16.1404 19.4398 17.233 20.1946C18.4337 21.0227 20.0426 20.8913 21.3183 20.3382C22.2008 19.9532 22.9783 19.342 23.6056 18.6055C23.7077 18.4863 23.7437 18.3182 23.6596 18.1776C22.498 16.2065 20.4538 14.8986 18.1996 14.7091C17.6473 14.6633 17.0949 14.6908 16.5486 14.7733C16.6087 14.9994 16.6717 15.2256 16.7317 15.4517C17.5782 15.2378 18.4097 14.9689 19.2231 14.651C20.0786 14.3149 20.9521 13.9757 21.7566 13.5295C22.432 13.1536 23.0143 12.6585 23.4615 12.0168C23.9298 11.3475 24.218 10.5499 24.362 9.7462C24.4941 9.02193 24.5271 8.28239 24.4791 7.54895C24.4731 7.43283 24.4191 7.29836 24.308 7.24336C22.9632 6.60466 21.4324 6.1432 19.9375 6.32962C19.031 6.44269 18.2116 6.80024 17.5182 7.40532C16.8278 8.01041 16.2845 8.78051 15.7352 9.51089C15.0748 10.391 14.4655 11.3017 13.9312 12.2674C14.1293 12.3866 14.3304 12.5057 14.5285 12.6219C14.8917 11.7968 15.1889 10.9441 15.402 10.0671C15.6541 9.0311 15.8613 7.94012 15.9033 6.87053C15.9423 5.7826 15.7232 4.70384 15.2219 3.74121C14.8407 3.00777 14.3034 2.3538 13.682 1.81594C13.4299 1.59897 13.1657 1.39728 12.8926 1.21086C12.7695 1.12835 12.6194 1 12.4633 1C12.3223 1 12.1692 1.1039 12.0461 1.16502C11.932 1.22309 11.818 1.2842 11.7039 1.34838C10.9985 1.74871 10.3441 2.26212 9.82186 2.89165C8.85231 4.05597 8.43808 5.52895 8.4831 7.05083C8.51312 8.02569 8.70823 8.98832 8.95737 9.9265C9.06843 10.3482 9.1825 10.7669 9.30857 11.1825C9.45265 11.6531 9.63575 12.1024 9.80085 12.5638C10.011 12.4721 10.2241 12.3835 10.4342 12.2918C10.068 11.5798 9.74681 10.8433 9.3716 10.1343C8.93636 9.31225 8.4681 8.50242 7.87676 7.78426C7.26742 7.04777 6.517 6.45186 5.61349 6.14321C4.737 5.84066 3.78846 5.82233 2.87595 5.94762C2.17956 6.04541 1.49818 6.22572 0.840806 6.48242C0.735747 6.52215 0.618682 6.6016 0.59767 6.72995C0.381549 8.16015 0.513621 9.64841 1.09895 10.9778C1.51919 11.9282 2.18556 12.7319 3.00202 13.3553C3.63238 13.8381 4.33777 14.1865 5.06718 14.486C6.03673 14.8863 7.03629 15.1431 8.07788 15.2408C8.46209 15.2775 8.55815 14.6052 8.17093 14.5471C7.26142 14.4096 6.33089 14.4524 5.43939 14.6877C4.0316 15.0575 2.80691 15.9223 1.94543 17.108C1.62425 17.5512 1.3721 18.0309 1.16499 18.5382C1.11696 18.6574 1.18 18.7949 1.25504 18.8805C2.33264 20.1426 3.95356 20.9891 5.6225 20.8944C6.36992 20.8516 7.11734 20.6255 7.72968 20.1793C8.35403 19.727 8.8283 19.1005 9.13447 18.3854C9.34759 17.8873 9.48867 17.3709 9.55471 16.8299C9.32658 16.8605 9.10145 16.8911 8.87332 16.9247C9.44965 18.3518 10.6683 19.3756 12.1872 19.5559C12.3733 19.5773 12.5324 19.3786 12.5324 19.2044C12.5414 19.0119 12.3823 18.8897 12.1962 18.8683Z"/>
        <path d="M13.5018 19.2172C13.3307 20.3816 13.3337 21.5459 13.5108 22.7102C13.5409 22.9119 13.772 22.9853 13.9371 22.9578C14.3663 22.8814 14.7926 22.805 15.2218 22.7286C15.4049 22.6949 15.51 22.4657 15.4649 22.2946C15.4109 22.096 15.2248 22.0165 15.0387 22.0471C14.6095 22.1235 14.1832 22.1999 13.754 22.2763C13.8951 22.3588 14.0391 22.4413 14.1802 22.5238C14.0241 21.497 14.0211 20.4335 14.1712 19.4037C14.1982 19.2142 14.1262 19.0247 13.9281 18.9697C13.766 18.9269 13.5289 19.0278 13.5018 19.2172Z"/>
        <path d="M10.8692 19.0181C10.9142 20.1946 10.8451 21.3712 10.647 22.5325C10.7581 22.4469 10.8692 22.3613 10.9802 22.2727C10.4699 22.2788 9.95964 22.2849 9.45236 22.2941C9.00811 22.3002 9.0051 23.0061 9.45236 23C9.96264 22.9939 10.4729 22.9878 10.9802 22.9786C11.1213 22.9756 11.2894 22.8717 11.3134 22.7189C11.5205 21.4965 11.6076 20.2588 11.5595 19.0181C11.5415 18.5658 10.8511 18.5628 10.8692 19.0181Z"/>
        <path d="M10.3232 16.2341C10.9146 17.1506 12.0192 17.6669 13.0848 17.4317C13.7752 17.2789 14.3785 16.8115 14.7927 16.2433C14.9038 16.0906 14.8168 15.8492 14.6697 15.7606C14.4926 15.6568 14.3095 15.7331 14.1954 15.8859C14.1624 15.9287 14.2584 15.8126 14.1924 15.8889C14.1654 15.9225 14.1384 15.9531 14.1114 15.9867C14.0273 16.0814 13.9373 16.173 13.8442 16.2555C13.6161 16.4602 13.3159 16.6374 13.0037 16.7229C12.2233 16.9368 11.3588 16.5549 10.9236 15.8767C10.6774 15.501 10.0771 15.8553 10.3232 16.2341Z"/>
        <path d="M10.3562 15.1149C10.5866 15.1149 10.7734 14.9248 10.7734 14.6903C10.7734 14.4557 10.5866 14.2656 10.3562 14.2656C10.1258 14.2656 9.93896 14.4557 9.93896 14.6903C9.93896 14.9248 10.1258 15.1149 10.3562 15.1149Z"/>
        <path d="M14.7266 15.1881C14.957 15.1881 15.1438 14.998 15.1438 14.7635C15.1438 14.529 14.957 14.3389 14.7266 14.3389C14.4961 14.3389 14.3093 14.529 14.3093 14.7635C14.3093 14.998 14.4961 15.1881 14.7266 15.1881Z"/>
    </g>

    <g id="icon-2" class="black-stroke hidden">
        <path d="M12 16L16 20M8.66667 17.3333C6.08934 17.3333 4 15.244 4 12.6667C4 10.0893 6.08934 8 8.66667 8C11.244 8 13.3333 10.0893 13.3333 12.6667C13.3333 15.244 11.244 17.3333 8.66667 17.3333Z" stroke-linecap="round" stroke-linejoin="round"/>
        <path d="M17 10L23 10" stroke-linecap="round"/>
        <path d="M15 7L23 7" stroke-linecap="round"/>
        <path d="M11 4L23 4" stroke-linecap="round"/>
    </g>

    <g id="icon-3" class="black-stroke hidden">
        <path d="M19 21C19 17.134 15.866 14 12 14C8.13401 14 5 17.134 5 21M12 11C9.79086 11 8 9.20914 8 7C8 4.79086 9.79086 3 12 3C14.2091 3 16 4.79086 16 7C16 9.20914 14.2091 11 12 11Z" stroke-linecap="round" stroke-linejoin="round"/>
    </g>

    <g id="icon-4" class="black-stroke hidden">
        <path d="M12.5 7.69431C10.5 2.99988 3.5 3.49988 3.5 9.49991C3.5 15.4999 12.5 20.5001 12.5 20.5001C12.5 20.5001 21.5 15.4999 21.5 9.49991C21.5 3.49988 14.5 2.99988 12.5 7.69431Z" stroke-linecap="round" stroke-linejoin="round"/>
    </g>

    <g id="icon-5" class="black-stroke hidden">
        <path d="M3.5 3H3.76835C4.24213 3 4.47943 3 4.67267 3.08548C4.84304 3.16084 4.98871 3.28218 5.09375 3.43604C5.21269 3.61026 5.25564 3.8429 5.34137 4.30727L7.50004 16L17.9218 16C18.375 16 18.6023 16 18.79 15.9199C18.9559 15.8492 19.0989 15.7346 19.2051 15.5889C19.3252 15.4242 19.3761 15.2037 19.4777 14.7631L19.4785 14.76L21.0477 7.95996L21.0481 7.95854C21.2023 7.29016 21.2796 6.95515 21.1947 6.69238C21.1202 6.46182 20.9635 6.26634 20.7556 6.14192C20.5184 6 20.1758 6 19.4887 6H6M18.5 21C17.9477 21 17.5 20.5523 17.5 20C17.5 19.4477 17.9477 19 18.5 19C19.0523 19 19.5 19.4477 19.5 20C19.5 20.5523 19.0523 21 18.5 21ZM8.5 21C7.94772 21 7.5 20.5523 7.5 20C7.5 19.4477 7.94772 19 8.5 19C9.05228 19 9.5 19.4477 9.5 20C9.5 20.5523 9.05228 21 8.5 21Z" stroke-linecap="round" stroke-linejoin="round"/>        
    </g>
</svg>
