<svg width="34" height="34" viewBox="0 0 34 34" fill="none" xmlns="http://www.w3.org/2000/svg">
<path d="M31.7892 14.586H28.3892C28.2192 14.45 28.0492 14.314 27.8792 14.144C27.3012 13.668 26.7232 13.158 26.0772 12.784V7.51401C26.0772 6.01801 24.8532 4.79401 23.3572 4.79401H4.41922C2.92322 4.79401 1.69922 6.01801 1.69922 7.51401V26.486C1.69922 27.982 2.92322 29.206 4.41922 29.206H23.3912C24.8872 29.206 26.1112 27.982 26.1112 26.486V25.228C26.7572 24.956 27.5052 24.616 28.3892 24.174H31.8572C32.1292 24.174 32.3672 23.936 32.3672 23.664V15.096C32.2992 14.824 32.0612 14.586 31.7892 14.586ZM27.7092 15.334V23.358C26.7912 23.834 26.0432 24.174 25.3632 24.412C23.8672 24.956 22.8472 25.024 21.6912 25.024H16.5912C16.1492 25.024 15.8092 24.684 15.8092 24.242C15.8092 23.8 16.1492 23.46 16.5912 23.46H18.7672C19.0392 23.46 19.2772 23.222 19.2772 22.95C19.2772 22.678 19.0392 22.44 18.7672 22.44H14.8572C14.4152 22.44 14.0752 22.1 14.0752 21.658C14.0752 21.216 14.4152 20.876 14.8572 20.876H18.7672C19.0392 20.876 19.2772 20.638 19.2772 20.366C19.2772 20.094 19.0392 19.856 18.7672 19.856H12.8512C12.4092 19.856 12.0692 19.516 12.0692 19.074C12.0692 18.632 12.4092 18.292 12.8512 18.292H18.8012C19.0732 18.292 19.3112 18.054 19.3112 17.782C19.3112 17.51 19.0732 17.272 18.8012 17.272H14.8572C14.4152 17.272 14.0752 16.932 14.0752 16.49C14.0752 16.048 14.4152 15.708 14.8572 15.708H23.3572C23.6292 15.708 23.8672 15.47 23.8672 15.198C23.8672 14.926 23.6292 14.688 23.3572 14.688H20.2632C19.7532 14.688 19.3112 14.28 19.3112 13.736C19.3112 13.226 19.7192 12.784 20.2632 12.784H22.7452C24.8192 12.818 26.0092 13.804 27.2332 14.858C27.3692 15.062 27.5392 15.198 27.7092 15.334ZM11.5592 5.84801H16.2172V11.39L14.1092 10.302C13.9732 10.234 13.7692 10.234 13.6332 10.302L11.5592 11.39V5.84801ZM25.0572 26.486C25.0572 27.404 24.3092 28.186 23.3572 28.186H4.41922C3.50122 28.186 2.71922 27.438 2.71922 26.486V7.51401C2.71922 6.59601 3.46722 5.81401 4.41922 5.81401H10.5392V12.206C10.5392 12.376 10.6412 12.546 10.7772 12.648C10.9132 12.75 11.1172 12.75 11.2872 12.648L13.9052 11.288L16.5232 12.648C16.5912 12.682 16.6932 12.716 16.7612 12.716C16.8632 12.716 16.9312 12.682 17.0332 12.648C17.1692 12.546 17.2712 12.376 17.2712 12.206V5.84801H23.3912C24.3092 5.84801 25.0912 6.59601 25.0912 7.54801V12.308C24.4452 12.036 23.6972 11.9 22.7792 11.866H20.2972C19.2092 11.866 18.3252 12.75 18.3252 13.838C18.3252 14.178 18.4272 14.484 18.5632 14.79H14.8572C13.8712 14.79 13.0552 15.606 13.0552 16.592C13.0552 16.864 13.1232 17.136 13.2252 17.374H12.8172C11.8312 17.374 11.0152 18.19 11.0152 19.176C11.0152 20.162 11.8312 20.978 12.8172 20.978H13.2592C13.1572 21.216 13.0892 21.488 13.0892 21.76C13.0892 22.746 13.9052 23.562 14.8912 23.562H15.0272C14.9252 23.8 14.8572 24.072 14.8572 24.344C14.8572 25.33 15.6732 26.146 16.6592 26.146H21.7592C22.8132 26.146 23.7992 26.078 25.1252 25.67V26.486H25.0572ZM31.2792 23.154H28.7292V15.606H31.2792V23.154Z" fill="black"/>
<path d="M9.24756 25.534H4.86156C4.58956 25.534 4.35156 25.772 4.35156 26.044C4.35156 26.316 4.58956 26.554 4.86156 26.554H9.24756C9.51956 26.554 9.75756 26.316 9.75756 26.044C9.75756 25.772 9.51956 25.534 9.24756 25.534Z" fill="black"/>
<path d="M10.9816 22.882H4.86156C4.58956 22.882 4.35156 23.12 4.35156 23.392C4.35156 23.664 4.58956 23.902 4.86156 23.902H11.0156C11.2876 23.902 11.5256 23.664 11.5256 23.392C11.5256 23.12 11.2876 22.882 10.9816 22.882Z" fill="black"/>
</svg>
