<svg width="34" height="34" viewBox="0 0 34 34" fill="none" xmlns="http://www.w3.org/2000/svg">
<path d="M16.4688 25.5V30.8125C16.4688 30.9534 16.5247 31.0885 16.6243 31.1882C16.724 31.2878 16.8591 31.3438 17 31.3438H25.5C25.6409 31.3438 25.776 31.2878 25.8757 31.1882C25.9753 31.0885 26.0312 30.9534 26.0312 30.8125V25.5C26.0312 25.3591 25.9753 25.224 25.8757 25.1243C25.776 25.0247 25.6409 24.9688 25.5 24.9688H17C16.8591 24.9688 16.724 25.0247 16.6243 25.1243C16.5247 25.224 16.4688 25.3591 16.4688 25.5ZM17.5312 26.0312H24.9688V30.2812H17.5312V26.0312Z" fill="black"/>
<path d="M18.5938 27.0938H19.6562V29.2188H18.5938V27.0938Z" fill="black"/>
<path d="M20.7188 27.0938H21.7812V29.2188H20.7188V27.0938Z" fill="black"/>
<path d="M22.8438 27.0938H23.9062V29.2188H22.8438V27.0938Z" fill="black"/>
<path d="M32.4062 8.49999C32.4051 7.38665 32.1707 6.2859 31.7182 5.2687C31.2656 4.2515 30.6049 3.34042 29.7787 2.59419C28.9524 1.84796 27.979 1.28315 26.9211 0.936157C25.8632 0.589167 24.7444 0.467702 23.6367 0.579591C22.529 0.69148 21.457 1.03424 20.4899 1.58578C19.5227 2.13731 18.6819 2.88539 18.0216 3.78177C17.3613 4.67815 16.8961 5.70296 16.6561 6.79012C16.4161 7.87728 16.4066 9.00267 16.6281 10.0937H2.125C1.9841 10.0937 1.84898 10.1497 1.74935 10.2493C1.64972 10.349 1.59375 10.4841 1.59375 10.625V32.9375C1.59375 33.0784 1.64972 33.2135 1.74935 33.3131C1.84898 33.4128 1.9841 33.4687 2.125 33.4687H27.625C27.7659 33.4687 27.901 33.4128 28.0007 33.3131C28.1003 33.2135 28.1562 33.0784 28.1562 32.9375V15.5422C29.4378 14.8656 30.5107 13.8523 31.2596 12.6115C32.0084 11.3707 32.4048 9.94925 32.4062 8.49999ZM17 11.3374V19.9676L14.7193 17.6869C14.6197 17.5873 14.4846 17.5314 14.3438 17.5314C14.2029 17.5314 14.0678 17.5873 13.9682 17.6869L11.6875 19.9676V11.1562H16.9336C16.9554 11.2168 16.9772 11.2774 17 11.3374ZM27.0938 32.4062H2.65625V11.1562H10.625V21.25C10.625 21.355 10.6562 21.4577 10.7146 21.5451C10.7729 21.6324 10.8559 21.7005 10.953 21.7407C11.05 21.7809 11.1568 21.7914 11.2599 21.7709C11.3629 21.7504 11.4575 21.6999 11.5318 21.6256L14.3438 18.8137L17.1557 21.6256C17.2553 21.7252 17.3904 21.7812 17.5312 21.7812C17.6011 21.7815 17.6703 21.7677 17.7347 21.7409C17.8318 21.7006 17.9147 21.6325 17.9731 21.5451C18.0314 21.4578 18.0625 21.3551 18.0625 21.25V13.2611C19.0731 14.6282 20.4973 15.6334 22.1241 16.1274C23.7509 16.6215 25.4935 16.5782 27.0938 16.0039V32.4062ZM24.4375 15.4062C23.0716 15.4062 21.7363 15.0012 20.6006 14.2423C19.4649 13.4835 18.5797 12.4048 18.057 11.1429C17.5342 9.88094 17.3975 8.49233 17.664 7.15265C17.9304 5.81296 18.5882 4.58239 19.554 3.61653C20.5199 2.65068 21.7505 1.99292 23.0902 1.72644C24.4298 1.45996 25.8185 1.59673 27.0804 2.11944C28.3424 2.64216 29.421 3.52735 30.1798 4.66308C30.9387 5.79881 31.3438 7.13406 31.3438 8.49999C31.3416 10.331 30.6133 12.0864 29.3186 13.3811C28.0239 14.6758 26.2685 15.4041 24.4375 15.4062Z" fill="black"/>
<path d="M30.175 7.65L28.5812 5.525C28.5318 5.45902 28.4676 5.40547 28.3938 5.36859C28.3201 5.3317 28.2387 5.3125 28.1562 5.3125H26.0312V4.78125C26.0312 4.64035 25.9753 4.50523 25.8757 4.4056C25.776 4.30597 25.6409 4.25 25.5 4.25H20.1875C20.0466 4.25 19.9115 4.30597 19.8118 4.4056C19.7122 4.50523 19.6562 4.64035 19.6562 4.78125V10.0938C19.6562 10.2346 19.7122 10.3698 19.8118 10.4694C19.9115 10.569 20.0466 10.625 20.1875 10.625H20.8165C20.7536 10.7951 20.7205 10.9749 20.7188 11.1562C20.7188 11.5789 20.8867 11.9843 21.1855 12.2832C21.4844 12.5821 21.8898 12.75 22.3125 12.75C22.7352 12.75 23.1406 12.5821 23.4395 12.2832C23.7383 11.9843 23.9062 11.5789 23.9062 11.1562C23.9045 10.9749 23.8714 10.7951 23.8085 10.625H26.129C26.0661 10.7951 26.033 10.9749 26.0312 11.1562C26.0312 11.5789 26.1992 11.9843 26.498 12.2832C26.7969 12.5821 27.2023 12.75 27.625 12.75C28.0477 12.75 28.4531 12.5821 28.752 12.2832C29.0508 11.9843 29.2188 11.5789 29.2188 11.1562C29.217 10.9749 29.1839 10.7951 29.121 10.625H29.75C29.8909 10.625 30.026 10.569 30.1257 10.4694C30.2253 10.3698 30.2812 10.2346 30.2812 10.0938V7.96875C30.2812 7.8538 30.244 7.74196 30.175 7.65ZM22.8438 11.1562C22.8438 11.2613 22.8126 11.364 22.7542 11.4514C22.6958 11.5388 22.6129 11.6069 22.5158 11.6471C22.4187 11.6873 22.3119 11.6978 22.2089 11.6773C22.1058 11.6568 22.0111 11.6062 21.9368 11.5319C21.8626 11.4576 21.812 11.3629 21.7915 11.2599C21.771 11.1568 21.7815 11.05 21.8217 10.9529C21.8619 10.8559 21.93 10.7729 22.0174 10.7145C22.1047 10.6562 22.2074 10.625 22.3125 10.625C22.4534 10.625 22.5885 10.681 22.6882 10.7806C22.7878 10.8802 22.8438 11.0154 22.8438 11.1562ZM24.9688 9.5625H20.7188V5.3125H24.9688V9.5625ZM28.6875 7.4375H27.625V6.375H27.8906L28.6875 7.4375ZM28.1562 11.1562C28.1562 11.2613 28.1251 11.364 28.0667 11.4514C28.0083 11.5388 27.9254 11.6069 27.8283 11.6471C27.7312 11.6873 27.6244 11.6978 27.5214 11.6773C27.4183 11.6568 27.3236 11.6062 27.2493 11.5319C27.1751 11.4576 27.1245 11.3629 27.104 11.2599C27.0835 11.1568 27.094 11.05 27.1342 10.9529C27.1744 10.8559 27.2425 10.7729 27.3299 10.7145C27.4172 10.6562 27.5199 10.625 27.625 10.625C27.7659 10.625 27.901 10.681 28.0007 10.7806C28.1003 10.8802 28.1562 11.0154 28.1562 11.1562ZM26.0312 9.5625V6.375H26.5625V7.96875C26.5625 8.10965 26.6185 8.24477 26.7181 8.3444C26.8177 8.44403 26.9529 8.5 27.0938 8.5H29.2188V9.5625H26.0312Z" fill="black"/>
</svg>
