<svg width="34" height="34" viewBox="0 0 34 34" fill="none" xmlns="http://www.w3.org/2000/svg">
<g clip-path="url(#clip0_517_12342)">
<path d="M17.5312 9.03128C18.1352 9.03509 18.733 8.90931 19.2842 8.66242C19.8355 8.41554 20.3273 8.05329 20.7267 7.60013C21.126 7.14696 21.4234 6.61342 21.599 6.0355C21.7746 5.45758 21.8241 4.84873 21.7443 4.25003H24.4375C24.5784 4.25003 24.7135 4.19406 24.8132 4.09443C24.9128 3.9948 24.9688 3.85967 24.9688 3.71878C24.9688 3.57788 24.9128 3.44276 24.8132 3.34313C24.7135 3.2435 24.5784 3.18753 24.4375 3.18753H21.4683C21.179 2.473 20.7007 1.85066 20.0847 1.38718C19.4686 0.923702 18.7381 0.63655 17.9714 0.556487C17.2047 0.476424 16.4306 0.606468 15.7322 0.932687C15.0337 1.25891 14.4371 1.76901 14.0064 2.40834C13.5756 3.04768 13.327 3.79215 13.287 4.56201C13.247 5.33187 13.4172 6.0981 13.7794 6.77862C14.1416 7.45914 14.6821 8.0283 15.343 8.42512C16.0039 8.82194 16.7604 9.03148 17.5312 9.03128ZM17.5312 1.59378C18.0901 1.59443 18.6389 1.74203 19.1227 2.02176C19.6064 2.3015 20.0081 2.70353 20.2875 3.18753H14.775C15.0544 2.70353 15.4561 2.3015 15.9398 2.02176C16.4236 1.74203 16.9724 1.59443 17.5312 1.59378ZM14.3916 4.25003H20.6709C20.7512 4.7082 20.7302 5.17839 20.6094 5.62759C20.4887 6.0768 20.2711 6.49412 19.9719 6.85029C19.6727 7.20645 19.2992 7.49281 18.8775 7.68927C18.4559 7.88574 17.9964 7.98754 17.5312 7.98754C17.0661 7.98754 16.6066 7.88574 16.185 7.68927C15.7633 7.49281 15.3898 7.20645 15.0906 6.85029C14.7914 6.49412 14.5738 6.0768 14.453 5.62759C14.3323 5.17839 14.3113 4.7082 14.3916 4.25003ZM9.03125 18.0625H12.2188C12.3596 18.0625 12.4948 18.1185 12.5944 18.2181C12.694 18.3178 12.75 18.4529 12.75 18.5938C12.75 18.7347 12.694 18.8698 12.5944 18.9694C12.4948 19.0691 12.3596 19.125 12.2188 19.125H9.03125C8.89035 19.125 8.75523 19.0691 8.6556 18.9694C8.55597 18.8698 8.5 18.7347 8.5 18.5938C8.5 18.4529 8.55597 18.3178 8.6556 18.2181C8.75523 18.1185 8.89035 18.0625 9.03125 18.0625ZM1.0625 19.125C0.921604 19.125 0.786478 19.0691 0.68685 18.9694C0.587221 18.8698 0.53125 18.7347 0.53125 18.5938C0.53125 18.4529 0.587221 18.3178 0.68685 18.2181C0.786478 18.1185 0.921604 18.0625 1.0625 18.0625H6.90625C7.04715 18.0625 7.18227 18.1185 7.2819 18.2181C7.38153 18.3178 7.4375 18.4529 7.4375 18.5938C7.4375 18.7347 7.38153 18.8698 7.2819 18.9694C7.18227 19.0691 7.04715 19.125 6.90625 19.125H1.0625ZM10.625 15.9375C10.4841 15.9375 10.349 15.8816 10.2493 15.7819C10.1497 15.6823 10.0938 15.5472 10.0938 15.4063C10.0938 15.2654 10.1497 15.1303 10.2493 15.0306C10.349 14.931 10.4841 14.875 10.625 14.875H12.2188C12.3596 14.875 12.4948 14.931 12.5944 15.0306C12.694 15.1303 12.75 15.2654 12.75 15.4063C12.75 15.5472 12.694 15.6823 12.5944 15.7819C12.4948 15.8816 12.3596 15.9375 12.2188 15.9375H10.625ZM1.0625 15.4063C1.0625 15.2654 1.11847 15.1303 1.2181 15.0306C1.31773 14.931 1.45285 14.875 1.59375 14.875H8.5C8.6409 14.875 8.77602 14.931 8.87565 15.0306C8.97528 15.1303 9.03125 15.2654 9.03125 15.4063C9.03125 15.5472 8.97528 15.6823 8.87565 15.7819C8.77602 15.8816 8.6409 15.9375 8.5 15.9375H1.59375C1.45285 15.9375 1.31773 15.8816 1.2181 15.7819C1.11847 15.6823 1.0625 15.5472 1.0625 15.4063ZM1.59375 12.2188C1.59375 12.0779 1.64972 11.9428 1.74935 11.8431C1.84898 11.7435 1.9841 11.6875 2.125 11.6875H5.84375C5.98465 11.6875 6.11977 11.7435 6.2194 11.8431C6.31903 11.9428 6.375 12.0779 6.375 12.2188C6.375 12.3597 6.31903 12.4948 6.2194 12.5944C6.11977 12.6941 5.98465 12.75 5.84375 12.75H2.125C1.9841 12.75 1.84898 12.6941 1.74935 12.5944C1.64972 12.4948 1.59375 12.3597 1.59375 12.2188ZM7.4375 20.7188C7.5784 20.7188 7.71352 20.7747 7.81315 20.8744C7.91278 20.974 7.96875 21.1091 7.96875 21.25C7.96875 21.3909 7.91278 21.526 7.81315 21.6257C7.71352 21.7253 7.5784 21.7813 7.4375 21.7813H2.65625C2.51535 21.7813 2.38023 21.7253 2.2806 21.6257C2.18097 21.526 2.125 21.3909 2.125 21.25C2.125 21.1091 2.18097 20.974 2.2806 20.8744C2.38023 20.7747 2.51535 20.7188 2.65625 20.7188H7.4375ZM31.875 5.31253H24.4375C24.015 5.31299 23.6098 5.48105 23.3111 5.77984C23.0123 6.07862 22.8442 6.48373 22.8438 6.90628V14.3438C22.8456 14.5252 22.8787 14.7049 22.9417 14.875H22.4759L18.9558 11.0437C18.5382 10.59 17.976 10.2954 17.3652 10.21L14.6467 9.8323C14.0219 9.74321 13.3859 9.88152 12.8545 10.222C12.323 10.5626 11.9316 11.0826 11.7515 11.6875H7.96875C7.82785 11.6875 7.69273 11.7435 7.5931 11.8431C7.49347 11.9428 7.4375 12.0779 7.4375 12.2188C7.4375 12.3597 7.49347 12.4948 7.5931 12.5944C7.69273 12.6941 7.82785 12.75 7.96875 12.75H12.75C12.8909 12.75 13.026 12.6941 13.1257 12.5944C13.2253 12.4948 13.2812 12.3597 13.2812 12.2188C13.2803 12.1019 13.2403 11.9887 13.1676 11.8972C13.0949 11.8057 12.9937 11.7411 12.8801 11.7138C13.0319 11.4254 13.269 11.191 13.5591 11.0426C13.8492 10.8942 14.178 10.8389 14.5007 10.8844L17.2189 11.2621C17.5855 11.3134 17.9229 11.4904 18.1735 11.7628L21.8513 15.7658C21.9011 15.82 21.9615 15.8632 22.0289 15.8927C22.0962 15.9223 22.1689 15.9375 22.2425 15.9375H26.7806C26.9994 15.9374 27.2097 16.0223 27.3672 16.1742C27.5246 16.3261 27.617 16.5331 27.6248 16.7518C27.6326 16.9704 27.5552 17.1836 27.409 17.3463C27.2627 17.509 27.0591 17.6086 26.8408 17.6241L21.3408 18.0169C21.2144 18.0264 21.0875 18.0071 20.9696 17.9604C20.8518 17.9138 20.746 17.841 20.6604 17.7476L20.0399 17.0753L20.0397 17.0747L16.3336 12.9275C16.2877 12.8736 16.2314 12.8295 16.1682 12.7976C16.105 12.7658 16.036 12.747 15.9654 12.7422C15.8947 12.7374 15.8239 12.7467 15.7569 12.7697C15.69 12.7927 15.6283 12.8288 15.5755 12.876C15.5227 12.9232 15.4799 12.9804 15.4495 13.0443C15.4191 13.1083 15.4019 13.1777 15.3987 13.2484C15.3955 13.3191 15.4065 13.3897 15.431 13.4561C15.4555 13.5225 15.493 13.5834 15.5414 13.6351L16.3226 14.5093C15.9065 16.3011 15.594 18.1154 15.3868 19.9432C15.3743 20.0452 15.3916 20.1486 15.4366 20.241C15.4816 20.3334 15.5524 20.4108 15.6405 20.4638L20.96 23.6624C21.0541 23.719 21.1358 23.7941 21.2 23.8831C21.2643 23.9721 21.3098 24.0733 21.3338 24.1804C21.3579 24.2876 21.3599 24.3985 21.3398 24.5064C21.3198 24.6144 21.278 24.7171 21.2171 24.8084L16.6825 31.6105C16.5662 31.7853 16.3868 31.9083 16.1819 31.9536C15.9769 31.999 15.7624 31.9632 15.5832 31.8538C15.4041 31.7444 15.2743 31.5698 15.2211 31.3668C15.1679 31.1637 15.1954 30.9479 15.2978 30.7647L18.3992 25.2016C18.4669 25.08 18.4843 24.9367 18.4475 24.8025C18.4108 24.6682 18.3229 24.5537 18.2026 24.4836L13.7667 21.9C13.7034 21.8631 13.6332 21.8398 13.5604 21.8314C13.4876 21.823 13.4139 21.8297 13.3439 21.8512C13.2739 21.8726 13.209 21.9083 13.1534 21.956C13.0979 22.0037 13.0527 22.0624 13.0209 22.1284L10.5376 27.2712L2.76287 28.4453C2.55592 28.4762 2.34502 28.4261 2.174 28.3056C2.00299 28.185 1.88502 28.0031 1.84461 27.7978L1.83398 27.7434C1.7924 27.5357 1.83405 27.32 1.94997 27.1427C2.06589 26.9654 2.2468 26.8407 2.45374 26.7955L8.87825 25.3574C8.95645 25.34 9.02968 25.3051 9.09244 25.2553C9.15521 25.2055 9.20587 25.1422 9.24062 25.07C9.24062 25.07 10.6183 22.2172 10.8291 21.7815H11.1562C11.2971 21.7815 11.4323 21.7256 11.5319 21.6259C11.6315 21.5263 11.6875 21.3912 11.6875 21.2503C11.6875 21.1094 11.6315 20.9743 11.5319 20.8746C11.4323 20.775 11.2971 20.719 11.1562 20.719H9.5625C9.4216 20.719 9.28648 20.775 9.18685 20.8746C9.08722 20.9743 9.03125 21.1094 9.03125 21.2503C9.03125 21.3912 9.08722 21.5263 9.18685 21.6259C9.28648 21.7256 9.4216 21.7815 9.5625 21.7815H9.66875C9.40844 22.2812 9.01983 23.0837 8.39524 24.3771L2.22174 25.7589C1.74398 25.863 1.32628 26.1508 1.05868 26.56C0.791082 26.9693 0.695015 27.4673 0.791191 27.9467L0.801816 28.0012C0.894246 28.4756 1.1664 28.8961 1.56144 29.1747C1.95649 29.4533 2.44389 29.5685 2.92188 29.4964L10.9737 28.2803C11.0591 28.2673 11.1401 28.2336 11.2096 28.1823C11.2791 28.1309 11.335 28.0634 11.3726 27.9856L13.7285 23.1073L17.2177 25.1395L14.3702 30.247C14.1829 30.5883 14.1061 30.9792 14.1504 31.366C14.1946 31.7527 14.3578 32.1162 14.6173 32.4063H11.6875C11.5466 32.4063 11.4115 32.4622 11.3118 32.5619C11.2122 32.6615 11.1562 32.7966 11.1562 32.9375C11.1562 33.0784 11.2122 33.2135 11.3118 33.3132C11.4115 33.4128 11.5466 33.4688 11.6875 33.4688H20.7188C20.8596 33.4688 20.9948 33.4128 21.0944 33.3132C21.194 33.2135 21.25 33.0784 21.25 32.9375C21.25 32.7966 21.194 32.6615 21.0944 32.5619C20.9948 32.4622 20.8596 32.4063 20.7188 32.4063H17.3874C17.4522 32.342 17.5121 32.273 17.5665 32.1998L22.1011 25.3978C22.2417 25.1868 22.338 24.9496 22.3843 24.7003C22.4306 24.451 22.4258 24.195 22.3703 23.9476C22.3148 23.7002 22.2097 23.4667 22.0614 23.2611C21.9131 23.0555 21.7246 22.8821 21.5073 22.7514L16.484 19.731C16.689 18.118 16.9134 16.7557 17.1761 15.538L19.8794 18.4682C20.0723 18.68 20.3111 18.8449 20.5776 18.9503C20.844 19.0557 21.131 19.0988 21.4166 19.0763L26.9164 18.6835C27.3968 18.6477 27.8461 18.432 28.1744 18.0794C28.5027 17.7269 28.686 17.2634 28.6875 16.7816C28.6856 16.488 28.6151 16.199 28.4815 15.9375H31.875C32.2975 15.9371 32.7027 15.769 33.0014 15.4702C33.3002 15.1714 33.4683 14.7663 33.4688 14.3438V6.90628C33.4683 6.48373 33.3002 6.07862 33.0014 5.77984C32.7027 5.48105 32.2975 5.31299 31.875 5.31253ZM27.0938 6.37503H29.2188V8.81129L28.5318 8.12443C28.4825 8.07508 28.424 8.03593 28.3595 8.00922C28.2951 7.98251 28.226 7.96876 28.1562 7.96876C28.0865 7.96876 28.0174 7.98251 27.953 8.00922C27.8885 8.03593 27.83 8.07508 27.7807 8.12443L27.0938 8.81129V6.37503ZM32.4062 14.3438C32.4061 14.4846 32.3501 14.6197 32.2505 14.7193C32.1509 14.8189 32.0159 14.8749 31.875 14.875H24.4375C24.2966 14.8749 24.1616 14.8189 24.062 14.7193C23.9624 14.6197 23.9064 14.4846 23.9062 14.3438V6.90628C23.9064 6.76542 23.9624 6.63037 24.062 6.53077C24.1616 6.43117 24.2966 6.37515 24.4375 6.37503H26.0312V10.0938C26.0313 10.1988 26.0624 10.3015 26.1208 10.3889C26.1792 10.4762 26.2622 10.5443 26.3592 10.5845C26.4563 10.6247 26.5631 10.6352 26.6661 10.6147C26.7691 10.5942 26.8638 10.5436 26.9381 10.4694L28.1562 9.25127L29.3744 10.4694C29.4487 10.5436 29.5434 10.5942 29.6464 10.6147C29.7494 10.6352 29.8562 10.6247 29.9533 10.5845C30.0503 10.5443 30.1333 10.4762 30.1917 10.3889C30.2501 10.3015 30.2812 10.1988 30.2812 10.0938V6.37503H31.875C32.0159 6.37515 32.1509 6.43117 32.2505 6.53077C32.3501 6.63037 32.4061 6.76542 32.4062 6.90628V14.3438ZM27.625 12.2188C27.625 12.3597 27.569 12.4948 27.4694 12.5944C27.3698 12.6941 27.2346 12.75 27.0938 12.75H24.9688C24.8279 12.75 24.6927 12.6941 24.5931 12.5944C24.4935 12.4948 24.4375 12.3597 24.4375 12.2188C24.4375 12.0779 24.4935 11.9428 24.5931 11.8431C24.6927 11.7435 24.8279 11.6875 24.9688 11.6875H27.0938C27.2346 11.6875 27.3698 11.7435 27.4694 11.8431C27.569 11.9428 27.625 12.0779 27.625 12.2188ZM27.625 13.8125C27.625 13.9534 27.569 14.0885 27.4694 14.1882C27.3698 14.2878 27.2346 14.3438 27.0938 14.3438H24.9688C24.8279 14.3438 24.6927 14.2878 24.5931 14.1882C24.4935 14.0885 24.4375 13.9534 24.4375 13.8125C24.4375 13.6716 24.4935 13.5365 24.5931 13.4369C24.6927 13.3372 24.8279 13.2813 24.9688 13.2813H27.0938C27.2346 13.2813 27.3698 13.3372 27.4694 13.4369C27.569 13.5365 27.625 13.6716 27.625 13.8125Z" fill="black"/>
</g>
<defs>
<clipPath id="clip0_517_12342">
<rect width="34" height="34" fill="white"/>
</clipPath>
</defs>
</svg>
