<svg width="285" height="44" viewBox="0 0 285 44" fill="none" xmlns="http://www.w3.org/2000/svg">
<g clip-path="url(#clip0_2858_4288)">
<path d="M49.2709 12.5117C46.5226 11.2376 43.3971 10.3142 40.3406 10.6843C38.5133 10.8902 36.7905 11.6387 35.3965 12.8324C33.9798 14.0395 32.873 15.5761 31.7521 17.0405C31.5467 17.3084 31.3483 17.5797 31.1482 17.8493C31.6281 15.8704 32.0212 13.7963 32.0974 11.7663C32.1963 9.59756 31.716 7.4415 30.7055 5.51751C29.9082 4.05031 28.8393 2.7463 27.5552 1.67416C27.0424 1.23964 26.503 0.837092 25.9402 0.468824C25.687 0.301416 25.3842 0.0458984 25.0654 0.0458984C24.7768 0.0458984 24.4669 0.252073 24.2119 0.377189C23.9569 0.502305 23.7444 0.613326 23.5142 0.740204C22.0586 1.53249 20.7572 2.57748 19.6715 3.82581C17.6881 6.15367 16.8381 9.09653 16.9391 12.1328C16.9955 13.4566 17.1733 14.7726 17.4703 16.0643C16.9398 15.2044 16.348 14.3834 15.6995 13.6078C14.4599 12.1346 12.9228 10.9486 11.0776 10.3301C9.28375 9.7274 7.34823 9.68687 5.48709 9.93886C4.0646 10.1343 2.66945 10.4921 1.32917 11.005C1.11313 11.0878 0.874065 11.2464 0.835107 11.4966C0.394169 14.3567 0.658024 17.3242 1.85688 19.9798C2.73029 21.8681 4.07069 23.5051 5.75271 24.7378C7.03834 25.7017 8.48334 26.3978 9.97084 26.9969C10.2878 27.1255 10.6066 27.2436 10.9271 27.3493L10.7305 27.3934C7.86109 28.1392 5.33724 29.8455 3.58344 32.2253C2.93701 33.1086 2.40177 34.0673 1.98969 35.0801C1.95472 35.1997 1.95271 35.3264 1.98387 35.447C2.01502 35.5676 2.0782 35.6776 2.16677 35.7656C4.36792 38.2855 7.67938 39.979 11.0865 39.7869C12.6286 39.7221 14.1215 39.2275 15.3949 38.3595C16.661 37.447 17.6533 36.2085 18.2654 34.777C18.4308 34.3951 18.5751 34.0045 18.6975 33.6069C19.4901 34.7525 20.5578 35.6829 21.8035 36.3136C21.8691 38.3874 21.7416 40.4627 21.4228 42.513L18.9011 42.5448C17.9909 42.5571 17.9892 43.9651 18.9011 43.9545L22.0249 43.9157C22.1798 43.9155 22.3304 43.8647 22.4536 43.7711C22.5767 43.6775 22.6656 43.5463 22.7067 43.3977C23.0861 41.2406 23.264 39.0532 23.2379 36.8634C23.6557 36.9808 24.082 37.0656 24.5129 37.1172C25.3852 37.2038 26.2659 37.1394 27.116 36.9269C26.8415 39.0731 26.8701 41.247 27.201 43.3853C27.263 43.7853 27.7323 43.9351 28.0723 43.877L30.6967 43.4153C31.0739 43.3501 31.2846 42.8866 31.1907 42.55C31.1364 42.3738 31.016 42.2251 30.8544 42.1348C30.6928 42.0446 30.5025 42.0197 30.323 42.0654L28.4831 42.3879C28.2529 40.5236 28.2761 38.637 28.5522 36.7788C28.57 36.6615 28.5652 36.5419 28.538 36.4264C29.8554 35.8091 30.9968 34.8738 31.8583 33.7056C32.2727 35.5524 33.2042 37.2775 34.8121 38.3648C37.2647 40.0178 40.5531 39.757 43.1616 38.6485C44.9595 37.8616 46.5552 36.6803 47.8295 35.1929C47.9367 35.0809 48.0052 34.9378 48.0249 34.7843C48.0447 34.6309 48.0147 34.4752 47.9393 34.34C46.8763 32.5817 45.4479 31.0698 43.7498 29.9058C42.0517 28.7418 40.1231 27.9525 38.0934 27.5908C38.3555 27.4956 38.6247 27.404 38.8797 27.3035C40.6257 26.6357 42.4107 25.9554 44.0558 25.0638C45.4347 24.3353 46.6275 23.3021 47.5426 22.0434C48.4792 20.683 49.1082 19.1367 49.386 17.511C49.6469 16.0638 49.7272 14.59 49.6251 13.1231C49.6253 12.9992 49.5926 12.8775 49.5305 12.7701C49.4683 12.6628 49.3788 12.5736 49.2709 12.5117ZM46.6961 20.7623C45.0209 23.513 41.9149 24.5915 39.0515 25.7281C37.2142 26.4588 35.3293 27.0647 33.4096 27.5414C33.2302 27.5932 33.0783 27.7126 32.986 27.8742C32.8937 28.0358 32.8685 28.2268 32.9155 28.4067C33.0271 28.8102 33.4078 28.9547 33.7868 28.8983L33.9479 28.8772L34.1498 28.8525C34.3623 28.8302 34.5766 28.8126 34.7926 28.7996C35.305 28.7679 35.8187 28.7644 36.3315 28.7891C38.1047 28.8779 39.8396 29.3344 41.4253 30.1291C43.011 30.9238 44.4124 32.0394 45.5398 33.4042C45.8639 33.7894 46.1643 34.1936 46.4394 34.6149C44.5658 36.5921 42.03 38.0494 39.2533 38.1393C38.0999 38.1996 36.9515 37.9487 35.9295 37.4132C34.8086 36.7609 33.9613 35.7287 33.5424 34.5056C33.1861 33.555 33.002 32.5491 32.9987 31.5346C32.9828 30.694 31.8955 30.6411 31.6086 31.3478C30.4611 34.1673 27.5641 36.0211 24.5023 35.7145C22.0922 35.4361 20.0079 33.7003 19.0977 31.4852C18.7931 30.7451 17.8457 30.8649 17.7165 31.635C17.7165 31.5909 17.7271 31.5575 17.7165 31.635C17.7058 31.7125 17.697 31.7636 17.6864 31.8288C17.658 32.0051 17.6244 32.1672 17.5872 32.3346C17.4824 32.8099 17.3445 33.2775 17.1746 33.7338C16.737 34.9327 16.0068 36.0045 15.0496 36.8529C12.9388 38.6679 9.88052 38.7243 7.37479 37.7798C5.8948 37.2007 4.56719 36.293 3.49313 35.1259C3.57636 34.9497 3.67021 34.7735 3.75521 34.5973C3.97864 34.1723 4.22637 33.7604 4.49719 33.3637C5.19199 32.3363 6.05306 31.4306 7.04542 30.6834C9.01859 29.2267 11.398 28.4163 13.8543 28.3644C14.3037 28.3514 14.7535 28.3614 15.2019 28.3943H15.2851C15.556 28.4296 15.8305 28.4613 16.105 28.486C16.8913 28.5564 17.0843 27.2189 16.2927 27.1026L16.105 27.0797L15.9279 27.0603C15.7756 27.0427 15.6233 27.0251 15.471 27.011C12.4911 26.5989 9.63371 25.559 7.08969 23.9606C4.12532 21.9923 2.37042 18.8168 2.08 15.303C2.02009 14.5731 2.0124 13.84 2.05698 13.109C2.07292 12.8359 2.09594 12.5628 2.12782 12.2914C2.12782 12.272 2.12782 12.2315 2.14021 12.1892C4.63178 11.3081 7.41906 10.8252 10.0098 11.4843C13.5851 12.3865 15.6588 15.6026 17.3198 18.6335C17.8227 19.5546 18.3091 20.4844 18.779 21.4231C19.0889 22.0469 19.3669 22.6936 19.6909 23.3104C20.0575 24.0065 21.2599 23.5271 20.9854 22.7676C20.6897 21.9553 20.3515 21.1605 20.0841 20.3358C19.8167 19.5111 19.59 18.6864 19.3598 17.8564C18.9153 16.2546 18.5275 14.6298 18.3911 12.9716C18.2318 11.0208 18.3911 9.00842 19.1756 7.19336C19.5646 6.30915 20.0832 5.48724 20.7145 4.75448C21.9145 3.4075 23.3774 2.31751 25.0141 1.55081C27.07 2.86365 28.8267 4.67518 29.8254 6.93784C30.5639 8.61193 30.7746 10.4288 30.6524 12.2403C30.4978 14.1089 30.1814 15.9608 29.7068 17.7753C29.3045 19.4103 28.7544 21.0057 28.0634 22.5421C27.9738 22.7042 27.9501 22.8944 27.9972 23.0734C28.0443 23.2524 28.1587 23.4066 28.3167 23.5042C28.4787 23.5985 28.6718 23.625 28.8534 23.5777C29.035 23.5305 29.1904 23.4134 29.2853 23.2522C30.1662 21.6951 31.1413 20.1927 32.2054 18.7534C33.3246 17.2432 34.4615 15.6871 35.8055 14.3655C36.8999 13.2523 38.3033 12.4896 39.8359 12.1751C41.4385 11.8561 43.1226 12.0182 44.7022 12.3883C45.911 12.6767 47.0902 13.0767 48.2244 13.5831C48.3395 16.0537 47.9977 18.6282 46.6961 20.7623Z" fill="#383838"/>
<path d="M29.5686 29.5004C29.4158 29.4142 29.2362 29.3875 29.0647 29.4256C28.8933 29.4637 28.7421 29.5638 28.6407 29.7066L28.5911 29.763C28.5362 29.8282 28.4813 29.8934 28.4247 29.9568C28.2532 30.1439 28.0704 30.3204 27.8775 30.4855C27.3814 30.9198 26.7947 31.2393 26.1598 31.4212C24.566 31.853 22.7952 31.0829 21.9098 29.7295C21.4122 28.9753 20.1868 29.6784 20.6879 30.4344C21.8956 32.2653 24.1517 33.2944 26.3298 32.8239C27.7464 32.5208 28.9719 31.5904 29.8236 30.4503C30.0503 30.1595 29.8714 29.6784 29.5686 29.5004Z" fill="#383838"/>
<path d="M20.75 28.2163C21.2214 28.2163 21.6036 27.8361 21.6036 27.367C21.6036 26.8979 21.2214 26.5176 20.75 26.5176C20.2786 26.5176 19.8965 26.8979 19.8965 27.367C19.8965 27.8361 20.2786 28.2163 20.75 28.2163Z" fill="#383838"/>
<path d="M29.6802 28.3589C30.1516 28.3589 30.5337 27.9786 30.5337 27.5095C30.5337 27.0404 30.1516 26.6602 29.6802 26.6602C29.2088 26.6602 28.8267 27.0404 28.8267 27.5095C28.8267 27.9786 29.2088 28.3589 29.6802 28.3589Z" fill="#383838"/>
<path d="M95.4471 25.1836L97.8961 30.6306H100.18L90.8128 10.2402H88.6754L79.5042 30.2059L70.3898 19.4847L79.2439 10.2402H76.7648L64.7302 22.5509V10.2402H62.5645V30.6306H64.7302V25.2682L68.9235 21.039L77.2889 30.6288H81.5619L84.0128 25.1819L95.4471 25.1836ZM89.729 12.4694L94.6608 23.4355H84.7973L89.729 12.4694Z" fill="#383838"/>
<path d="M116.046 27.994C116.585 27.1765 116.87 26.2192 116.866 25.2415C116.866 24.1736 116.637 23.3095 116.179 22.6493C115.711 21.9827 115.088 21.4386 114.363 21.0633C113.58 20.6533 112.756 20.3261 111.904 20.087C111.016 19.8356 110.123 19.6007 109.226 19.3822C108.387 19.1861 107.559 18.9425 106.747 18.6526C106.061 18.4222 105.439 18.0334 104.932 17.5178C104.473 17.0314 104.243 16.3905 104.243 15.5952C104.234 14.9247 104.434 14.268 104.815 13.7149C105.195 13.1616 105.786 12.7199 106.586 12.3898C107.386 12.0596 108.401 11.8946 109.63 11.8946C110.598 11.9024 111.56 12.0417 112.49 12.3087C113.484 12.5842 114.428 13.0168 115.284 13.5898L116.017 11.8717C115.122 11.2728 114.133 10.825 113.09 10.5465C111.977 10.2285 110.824 10.0666 109.665 10.0654C107.929 10.0654 106.504 10.3227 105.391 10.8373C104.277 11.3518 103.451 12.0314 102.911 12.8761C102.38 13.7071 102.1 14.6734 102.108 15.6586C102.108 16.7453 102.337 17.6264 102.795 18.3019C103.26 18.9779 103.883 19.5322 104.61 19.9179C105.395 20.3385 106.227 20.6661 107.089 20.8941C107.987 21.1373 108.885 21.3652 109.782 21.5778C110.617 21.7734 111.438 22.0218 112.24 22.3215C112.921 22.564 113.536 22.9575 114.041 23.4722C114.499 23.9574 114.728 24.5982 114.728 25.3948C114.733 26.0414 114.533 26.6732 114.158 27.201C113.777 27.7438 113.182 28.1773 112.373 28.4962C111.564 28.8152 110.514 28.9773 109.226 28.9773C107.909 28.983 106.603 28.7408 105.376 28.2636C104.157 27.7937 103.186 27.2063 102.463 26.5014L101.615 28.1614C102.374 28.9391 103.452 29.5753 104.849 30.0699C106.254 30.5672 107.735 30.8188 109.226 30.8135C110.981 30.8135 112.42 30.5556 113.544 30.0399C114.667 29.5242 115.502 28.8422 116.046 27.994Z" fill="#383838"/>
<path d="M136.565 19.3279H123.743V10.2402H121.577V30.6306H123.743V21.2222H136.565V30.6306H138.703V10.2402H136.565V19.3279Z" fill="#383838"/>
<path d="M158.724 10.2402H142.156V12.1046H149.358V30.6306H151.524V12.1046H158.724V10.2402Z" fill="#383838"/>
<path d="M174.014 25.1836L176.464 30.6306H178.747L169.379 10.2402H167.244L157.876 30.6306H160.125L162.574 25.1836H174.014ZM168.297 12.4694L173.229 23.4355H163.366L168.297 12.4694Z" fill="#383838"/>
<path d="M184.309 14.0959L197.481 30.6306H199.268V10.2402H197.13V26.7784L183.929 10.2402H182.144V30.6306H184.309V14.0959Z" fill="#383838"/>
<path d="M222.363 27.8058L220.987 26.4366C220.207 27.2518 219.259 27.8881 218.207 28.301C217.16 28.6945 216.048 28.8917 214.929 28.8825C213.758 28.8937 212.595 28.6813 211.504 28.257C210.475 27.8567 209.539 27.2523 208.752 26.4807C207.972 25.7143 207.35 24.8039 206.921 23.8004C206.045 21.6418 206.045 19.2291 206.921 17.0705C207.351 16.0698 207.973 15.1623 208.752 14.3991C209.539 13.6264 210.475 13.0214 211.504 12.621C213.66 11.8074 216.037 11.7868 218.207 12.5628C219.26 12.9669 220.209 13.599 220.987 14.4131L222.363 13.0439C221.456 12.047 220.322 11.2823 219.055 10.8147C217.718 10.3144 216.299 10.063 214.871 10.0729C213.409 10.058 211.959 10.3199 210.596 10.8447C209.325 11.3355 208.166 12.0729 207.185 13.014C206.217 13.9461 205.449 15.0634 204.927 16.2987C203.854 18.9561 203.854 21.9236 204.927 24.581C205.446 25.824 206.213 26.9492 207.182 27.8883C208.151 28.8273 209.301 29.5607 210.564 30.0438C213.298 31.0699 216.313 31.0755 219.051 30.0597C220.319 29.5805 221.454 28.8079 222.363 27.8058Z" fill="#383838"/>
<path d="M241.977 19.3279H229.154V10.2402H226.988V30.6306H229.154V21.2222H241.977V30.6306H244.112V10.2402H241.977V19.3279Z" fill="#383838"/>
<path d="M252.952 10.2402H250.786V30.6306H252.952V10.2402Z" fill="#383838"/>
<path d="M276.311 10.2402H273.823L261.792 22.5509V10.2402H259.626V30.6306H261.792V25.2682L265.987 21.0407L274.351 30.6306H276.927L267.454 19.4847L276.311 10.2402Z" fill="#383838"/>
<path d="M251.962 8.99385L253.556 3.45703H250.137L251.962 8.99385Z" fill="#383838"/>
<path d="M282.183 6.70457C282.343 6.57136 282.469 6.40261 282.552 6.21191C282.634 6.02122 282.671 5.81392 282.658 5.60673C282.666 5.40593 282.628 5.20586 282.546 5.02235C282.463 4.83884 282.339 4.67692 282.183 4.54941C281.868 4.28861 281.431 4.1582 280.871 4.1582H279.1V8.35575H280.014V7.08521H280.864C280.91 7.08521 280.949 7.08521 280.991 7.0764L281.833 8.35927H282.757L281.801 6.91604C281.938 6.86501 282.067 6.79373 282.183 6.70457ZM280.01 6.35214V4.88247H280.818C281.064 4.86911 281.308 4.93726 281.512 5.07631C281.593 5.13788 281.659 5.21806 281.703 5.31008C281.746 5.40209 281.767 5.50324 281.763 5.60497C281.77 5.71108 281.75 5.81715 281.706 5.91411C281.663 6.01108 281.596 6.09606 281.512 6.16182C281.308 6.30086 281.064 6.36901 280.818 6.35566L280.01 6.35214Z" fill="#383838"/>
<path d="M284.211 4.75585C284.026 4.31074 283.756 3.90559 283.416 3.56284C283.072 3.21926 282.663 2.94832 282.211 2.76633C281.735 2.57401 281.224 2.47758 280.71 2.48262C280.195 2.47745 279.685 2.57575 279.21 2.77161C278.756 2.95816 278.345 3.2325 277.999 3.5787C277.655 3.92549 277.382 4.33467 277.193 4.78404C276.996 5.25158 276.898 5.75401 276.903 6.26076C276.898 6.767 276.995 7.26908 277.188 7.73748C277.373 8.18728 277.645 8.59672 277.988 8.94282C278.332 9.28851 278.742 9.56283 279.194 9.74991C279.656 9.94842 280.152 10.0536 280.655 10.0595C281.158 10.0653 281.657 9.97168 282.124 9.78395C282.59 9.59623 283.014 9.31818 283.371 8.96595C283.729 8.61373 284.012 8.19436 284.205 7.73219C284.589 6.7768 284.589 5.71124 284.205 4.75585H284.211ZM283.635 7.49077C283.484 7.87537 283.255 8.22544 282.964 8.51989C282.665 8.81983 282.309 9.0568 281.916 9.21666C281.523 9.37652 281.102 9.45599 280.678 9.45034C280.248 9.45346 279.822 9.372 279.424 9.21067C279.043 9.0561 278.699 8.82446 278.413 8.53047C278.129 8.23532 277.904 7.88826 277.753 7.50839C277.436 6.70462 277.436 5.81162 277.753 5.00784C277.906 4.63275 278.132 4.29099 278.417 4.00163C278.706 3.70941 279.052 3.47809 279.433 3.32142C280.248 2.99832 281.157 2.99832 281.972 3.32142C282.349 3.47478 282.691 3.70226 282.977 3.99023C283.264 4.27819 283.489 4.62071 283.639 4.99727C283.799 5.39556 283.88 5.82116 283.876 6.25019C283.876 6.67521 283.794 7.0963 283.635 7.49077Z" fill="#383838"/>
<path d="M110.94 38.6359C110.651 38.3583 110.309 38.1419 109.934 37.9998C109.117 37.6967 108.217 37.6967 107.4 37.9998C107.026 38.1456 106.684 38.3636 106.394 38.6412C106.11 38.9151 105.883 39.2428 105.728 39.6051C105.41 40.3774 105.41 41.2436 105.728 42.0158C105.884 42.3776 106.11 42.7047 106.394 42.978C106.685 43.2564 107.029 43.4745 107.405 43.6194C107.809 43.7751 108.239 43.8528 108.671 43.8485C109.103 43.8525 109.531 43.776 109.934 43.6229C110.309 43.4808 110.651 43.2644 110.94 42.9868C111.224 42.7132 111.449 42.3853 111.602 42.0229C111.915 41.2447 111.916 40.3767 111.604 39.5981C111.45 39.236 111.224 38.9088 110.94 38.6359ZM110.809 41.7215C110.696 41.9928 110.53 42.2395 110.322 42.4475C110.113 42.6552 109.863 42.8183 109.589 42.9269C108.995 43.1524 108.339 43.1524 107.745 42.9269C107.47 42.8171 107.22 42.6542 107.009 42.4475C106.798 42.2405 106.631 41.9937 106.518 41.7215C106.399 41.4339 106.338 41.1252 106.341 40.814C106.338 40.5038 106.398 40.1963 106.518 39.91C106.633 39.6385 106.799 39.3919 107.009 39.184C107.219 38.9746 107.469 38.8097 107.745 38.6993C108.339 38.4738 108.995 38.4738 109.589 38.6993C109.864 38.8084 110.114 38.9735 110.322 39.184C110.536 39.3979 110.705 39.6524 110.818 39.9324C110.932 40.2123 110.987 40.5121 110.982 40.814C110.985 41.1249 110.926 41.4334 110.809 41.7215Z" fill="#383838"/>
<path d="M117.625 40.2607H115.766V38.5637H119.424V37.8359H114.925V43.7763H117.484C118.227 43.7763 118.8 43.6212 119.201 43.3111C119.402 43.1531 119.561 42.9494 119.666 42.7173C119.771 42.4851 119.818 42.2312 119.803 41.9771C119.818 41.7353 119.776 41.4934 119.68 41.2709C119.583 41.0483 119.436 40.8514 119.249 40.696C118.875 40.407 118.334 40.2619 117.625 40.2607ZM118.567 42.8335C118.317 43.0262 117.944 43.1225 117.448 43.1225H115.769V40.9321H117.448C118.451 40.9321 118.951 41.2916 118.95 42.0106C118.96 42.1682 118.93 42.3257 118.864 42.4693C118.798 42.6128 118.697 42.7379 118.571 42.8335H118.567Z" fill="#383838"/>
<path d="M123.71 42.4262V37.8428H122.865V43.7831H123.65L127.19 39.2085V43.7831H128.025V37.8428H127.241L123.71 42.4262Z" fill="#383838"/>
<path d="M135.257 38.0897C134.834 37.9113 134.377 37.8248 133.917 37.8359H131.59V43.7763H132.443V41.9841H133.917C134.376 41.997 134.832 41.9117 135.255 41.7339C135.604 41.5877 135.9 41.3425 136.109 41.029C136.315 40.6962 136.419 40.3111 136.408 39.9206C136.418 39.529 136.314 39.1429 136.109 38.8086C135.905 38.4888 135.608 38.2381 135.257 38.0897ZM135.135 40.8986C134.853 41.1336 134.44 41.251 133.895 41.251H132.445V38.5813H133.895C134.441 38.5813 134.854 38.6988 135.135 38.9338C135.268 39.0612 135.375 39.2142 135.447 39.3834C135.52 39.5527 135.557 39.7348 135.557 39.9188C135.557 40.1028 135.52 40.2849 135.447 40.4542C135.375 40.6235 135.268 40.7764 135.135 40.9039V40.8986Z" fill="#383838"/>
<path d="M140.88 37.8359L138.176 43.7763H139.061L139.716 42.2908H142.892L143.547 43.7763H144.443L141.723 37.8359H140.88ZM140.01 41.6123L141.298 38.6977L142.594 41.6194L140.01 41.6123Z" fill="#383838"/>
<path d="M149.741 37.4267C150.12 37.4483 150.495 37.3401 150.803 37.1201C150.929 37.0162 151.03 36.885 151.097 36.7366C151.164 36.5882 151.196 36.4264 151.191 36.2637H150.594C150.596 36.3621 150.575 36.4596 150.532 36.5486C150.49 36.6376 150.428 36.7156 150.35 36.7765C150.165 36.8956 149.95 36.959 149.73 36.959C149.51 36.959 149.295 36.8956 149.11 36.7765C149.034 36.7147 148.973 36.6363 148.932 36.5474C148.891 36.4586 148.871 36.3615 148.873 36.2637H148.267C148.261 36.4265 148.293 36.5885 148.36 36.7371C148.428 36.8857 148.529 37.0167 148.655 37.1201C148.97 37.3444 149.354 37.4528 149.741 37.4267Z" fill="#383838"/>
<path d="M148.018 42.4262V37.8428H147.173V43.7831H147.957L151.497 39.2085V43.7831H152.333V37.8428H151.549L148.018 42.4262Z" fill="#383838"/>
<path d="M161.956 41.6123L160.018 37.8359H159.106L161.506 42.3383L161.375 42.5463C161.177 42.8694 160.952 43.0573 160.7 43.1102C160.425 43.1626 160.141 43.1351 159.882 43.0309L159.661 43.7093C159.95 43.8414 160.267 43.9018 160.585 43.8856C160.894 43.8636 161.19 43.7541 161.439 43.5701C161.733 43.3455 161.971 43.0567 162.135 42.726L164.791 37.8377H163.946L161.956 41.6123Z" fill="#383838"/>
<path d="M172.259 37.8428H171.347L169.47 40.4226H168.207V37.8428H167.371V43.7831H168.207V41.1698H169.455L171.389 43.7831H172.361L170.126 40.7222L172.259 37.8428Z" fill="#383838"/>
<path d="M178.613 38.0898C178.189 37.9141 177.733 37.83 177.274 37.8431H174.945V43.7835H175.799V41.9843H177.274C177.733 41.9972 178.19 41.9118 178.613 41.734C178.961 41.5879 179.258 41.3427 179.466 41.0292C179.672 40.6964 179.776 40.3113 179.766 39.9207C179.775 39.5292 179.671 39.1431 179.466 38.8088C179.261 38.4887 178.964 38.238 178.613 38.0898ZM178.491 40.8988C178.208 41.1337 177.795 41.2512 177.251 41.2512H175.801V38.5815H177.251C177.796 38.5815 178.21 38.699 178.491 38.9339C178.624 39.0614 178.73 39.2143 178.803 39.3836C178.875 39.5529 178.912 39.735 178.912 39.919C178.912 40.103 178.875 40.2851 178.803 40.4544C178.73 40.6236 178.624 40.7766 178.491 40.9041V40.8988Z" fill="#383838"/>
<path d="M184.233 37.8359L181.531 43.7763H182.416L183.071 42.2908H186.246L186.902 43.7763H187.798L185.078 37.8359H184.233ZM183.364 41.6123L184.653 38.6977L185.94 41.6123H183.364Z" fill="#383838"/>
<path d="M191.349 37.8428H190.495V43.7849H191.349V37.8428Z" fill="#383838"/>
<path d="M190.435 36.4629C190.373 36.4041 190.295 36.3647 190.211 36.3496C190.127 36.3346 190.04 36.3444 189.961 36.3781C189.883 36.4117 189.816 36.4676 189.769 36.5388C189.722 36.61 189.697 36.6933 189.698 36.7784C189.696 36.8358 189.707 36.8929 189.729 36.946C189.751 36.9991 189.784 37.0471 189.825 37.0868C189.908 37.1659 190.018 37.2101 190.133 37.2101C190.247 37.2101 190.357 37.1659 190.44 37.0868C190.482 37.0472 190.515 36.9993 190.537 36.9462C190.56 36.8931 190.57 36.8359 190.569 36.7784C190.57 36.7194 190.558 36.661 190.535 36.6067C190.512 36.5524 190.478 36.5035 190.435 36.4629Z" fill="#383838"/>
<path d="M191.715 36.3399C191.599 36.3389 191.487 36.3832 191.404 36.4632C191.36 36.5039 191.325 36.5534 191.302 36.6084C191.28 36.6634 191.269 36.7227 191.271 36.7822C191.269 36.8401 191.28 36.8976 191.303 36.9508C191.326 37.004 191.36 37.0517 191.404 37.0906C191.445 37.1305 191.494 37.162 191.547 37.1831C191.601 37.2043 191.658 37.2148 191.715 37.2139C191.772 37.2148 191.828 37.2044 191.881 37.1832C191.934 37.162 191.981 37.1305 192.022 37.0906C192.063 37.0509 192.096 37.0029 192.118 36.9498C192.14 36.8967 192.151 36.8396 192.149 36.7822C192.151 36.7245 192.141 36.667 192.12 36.6131C192.099 36.5593 192.067 36.5103 192.027 36.4689C191.986 36.4276 191.938 36.3949 191.884 36.3727C191.831 36.3505 191.773 36.3394 191.715 36.3399Z" fill="#383838"/>
<path d="M199.161 40.398H195.731V37.8428H194.879V43.7831H195.731V41.1363H199.161V43.7831H200.013V37.8428H199.161V40.398Z" fill="#383838"/>
<path d="M204.61 39.1756C204.825 38.9688 205.079 38.807 205.357 38.6998C205.654 38.5827 205.971 38.5229 206.291 38.5236C206.604 38.522 206.914 38.5819 207.204 38.6998C207.495 38.8198 207.756 39.0001 207.971 39.2284L208.525 38.6998C208.253 38.3951 207.913 38.1585 207.532 38.009C207.126 37.8494 206.693 37.7698 206.257 37.7746C205.827 37.7702 205.401 37.8468 205 38.0002C204.629 38.142 204.29 38.3566 204.004 38.6312C203.717 38.9057 203.489 39.2347 203.333 39.5985C203.015 40.3762 203.015 41.2473 203.333 42.025C203.488 42.3863 203.712 42.7138 203.994 42.989C204.28 43.2664 204.62 43.4829 204.993 43.6251C205.394 43.7785 205.82 43.8551 206.25 43.8507C206.689 43.8556 207.126 43.7748 207.534 43.6128C207.915 43.4577 208.255 43.2164 208.527 42.9079L207.973 42.3792C207.76 42.6124 207.498 42.7965 207.206 42.9185C206.916 43.0356 206.606 43.0954 206.292 43.0947C205.973 43.0954 205.656 43.0356 205.359 42.9185C205.081 42.8112 204.826 42.6494 204.612 42.4427C204.4 42.2365 204.233 41.9894 204.121 41.7167C203.89 41.1305 203.89 40.4789 204.121 39.8928C204.234 39.6233 204.4 39.3793 204.61 39.1756Z" fill="#383838"/>
<path d="M215.657 40.3841C215.277 40.0704 214.734 39.9136 214.028 39.9136H212.257V37.8359H211.412V43.7763H213.877C214.623 43.7763 215.202 43.6083 215.613 43.2723C216.023 42.9363 216.23 42.44 216.232 41.7833C216.229 41.1665 216.038 40.6995 215.657 40.3841ZM214.979 42.7824C214.65 43.0231 214.247 43.1404 213.84 43.1137H212.246V40.585H213.84C214.339 40.585 214.725 40.6836 214.982 40.881C215.118 40.9924 215.224 41.1346 215.292 41.2957C215.361 41.4568 215.389 41.6319 215.375 41.8062C215.388 41.9882 215.359 42.1706 215.29 42.3398C215.221 42.5089 215.115 42.6602 214.979 42.7824Z" fill="#383838"/>
<path d="M224.084 37.8428H223.17L221.295 40.4226H220.032V37.8428H219.196V43.7831H220.032V41.1698H221.279L223.213 43.7831H224.187L221.95 40.7222L224.084 37.8428Z" fill="#383838"/>
<path d="M227.624 41.1275H230.617V40.405H227.624V38.5811H230.983V37.8428H226.771V43.7831H231.104V43.0448H227.624V41.1275Z" fill="#383838"/>
</g>
<defs>
<clipPath id="clip0_2858_4288">
<rect width="285" height="44" fill="white"/>
</clipPath>
</defs>
</svg>
