<svg width="74" height="79" fill="none" version="1.1" viewBox="0 0 74 79" xmlns="http://www.w3.org/2000/svg">
    <style>
        .hidden {display: none; fill: none}
        :target {display: block;}
    </style>
    <g id="icon-1" class="hidden">
        <path d="m73 41.361c0 7.9248-2.6149 15.628-7.4393 21.915-4.8243 6.2872-11.588 10.807-19.243 12.858s-15.772 1.5191-23.094-1.5136-13.438-8.3966-17.4-15.26c-3.9624-6.8631-5.5495-14.842-4.5151-22.699 1.0344-7.857 4.6325-15.153 10.236-20.757 5.6037-5.6037 12.9-9.2017 20.757-10.236 7.857-1.0344 15.836 0.55269 22.699 4.5151" stroke="#7FC394" stroke-linecap="round" stroke-linejoin="round" stroke-width="2"/>
        <g fill="#7FC394">
            <path d="m52.757 9.4828 0.6468-1.1609 2.1406 1.5047c-0.2128-0.31614-1.0161-1.5891-0.7556-3.2627 0.3738-2.4027 2.5989-3.4398 2.7699-3.5161 0.192 0.18039 1.2571 1.201 1.5819 2.487 0.2515 0.99877-0.02 1.8511-0.0319 1.879 0 0 0.0015-0.00346-1e-4 0.00107-0.0054 0.0123-0.0532 0.12117-0.0511 0.12194 0.0021 7.8e-4 0 0 2e-4 -0.00107 0.4512-0.74199 1.0075-1.4145 1.6513-1.9967 0.6213-0.56119 1.7078-1.5424 3.2812-1.8557 2.302-0.45879 4.2054 0.7975 4.6874 1.1367-0.0709 0.75335-0.4054 3.3597-2.3208 4.5533-1.2746 0.79428-3.0591 0.84408-4.3524 0.88068-0.9049 0.0254-1.8451-0.0019-1.8032 9e-4 0.6156 0.0407 1.2281 0.1197 1.8339 0.2365 1.2928 0.2492 3.852 0.6277 5.2894 2.4876 0.3278 0.4242 1.1506 1.639 1.0809 3.7783-0.713 0.4546-2.1083 1.1746-3.8186 0.9971-1.5676-0.1628-2.6703-1.0038-3.8612-1.9125-0.8141-0.6214-1.5532-1.3355-2.2027-2.1279 0.5226 0.7662 0.9916 1.5677 1.4037 2.3987 0.6897 1.3907 1.1412 2.3008 1.2001 3.2607 0.1395 2.2745-1.9692 4.107-2.6758 4.6732-0.9187-0.3818-2.7592-1.3206-3.3928-3.1617-0.3232-0.9394-0.2527-1.8828-0.1341-3.4732 0.0692-0.9294 0.2037-1.8528 0.4025-2.7632 2e-4 -0.0015 3e-4 -0.0022 3e-4 -0.0023-0.0045-0.0025-0.072 0.1201-0.0933 0.159l-0.0063 0.0113c-0.0283 0.0521-0.4508 0.6435-0.9298 0.9833-0.4312 0.3058-1.3482 0.7198-2.6038 0.9322-0.8723-1.7657-0.6277-3.793 0.57-5.0502 1.1413-1.1984 2.7056-1.2313 3.0464-1.2306-0.8509-0.3228-1.702-0.64555-2.553-0.96837z"/>
            <path d="m56.362 54.449c-0.9151 7e-4 -1.8098-0.2701-2.571-0.778s-1.3546-1.2301-1.7053-2.0753c-0.3506-0.8453-0.4427-1.7755-0.2646-2.6731s0.6184-1.7222 1.2653-2.3695c0.6468-0.6473 1.471-1.0882 2.3685-1.2669 0.8974-0.1788 1.8277-0.0874 2.6732 0.2626 0.8455 0.3501 1.5682 0.943 2.0767 1.7038 0.5084 0.7608 0.7798 1.6553 0.7798 2.5704-6e-4 1.2261-0.4877 2.4019-1.3544 3.2692-0.8666 0.8674-2.0421 1.3553-3.2682 1.3568zm0-7.5645c-0.5813-6e-4 -1.1498 0.1711-1.6335 0.4936-0.4836 0.3225-0.8608 0.7812-1.0837 1.3181-0.223 0.5368-0.2816 1.1278-0.1686 1.698 0.113 0.5703 0.3926 1.0942 0.8034 1.5055s0.9344 0.6915 1.5045 0.8051c0.5701 0.1137 1.1611 0.0557 1.6983-0.1666 0.5371-0.2223 0.9962-0.599 1.3193-1.0823 0.323-0.4833 0.4954-1.0516 0.4954-1.6329-3e-4 -0.7786-0.3095-1.5254-0.8598-2.0763s-1.2966-0.861-2.0753-0.8622z"/>
            <path d="m31.984 54.449c-0.9151 9e-4 -1.8099-0.2696-2.5713-0.7774-0.7613-0.5078-1.3549-1.23-1.7058-2.0752-0.3508-0.8452-0.443-1.7755-0.265-2.6731 0.1779-0.8977 0.6182-1.7224 1.2649-2.3698 0.6468-0.6474 1.4711-1.0884 2.3686-1.2673 0.8975-0.1788 1.8278-0.0875 2.6734 0.2625 0.8455 0.35 1.5683 0.9429 2.0768 1.7038 0.5085 0.7608 0.7799 1.6554 0.7799 2.5705-9e-4 1.2259-0.4879 2.4013-1.3543 3.2685s-2.0413 1.3554-3.2672 1.3575zm0-7.5645c-0.5814-9e-4 -1.1499 0.1707-1.6338 0.4931-0.4838 0.3223-0.8611 0.7809-1.0842 1.3178-0.2231 0.5368-0.2819 1.1278-0.1691 1.6981 0.1129 0.5703 0.3924 1.0944 0.8032 1.5058s0.9344 0.6917 1.5045 0.8054c0.5701 0.1138 1.1612 0.0558 1.6984-0.1664 0.5372-0.2223 0.9964-0.5989 1.3195-1.0823 0.3231-0.4833 0.4955-1.0516 0.4955-1.633-6e-4 -0.7784-0.3097-1.5247-0.8597-2.0756-0.55-0.5508-1.2959-0.8611-2.0743-0.8629z"/>
            <path d="m62.449 50.667h-2.3074c-0.2237 0-0.4383-0.0889-0.5966-0.2471-0.1582-0.1582-0.2471-0.3728-0.2471-0.5966s0.0889-0.4384 0.2471-0.5966c0.1583-0.1583 0.3729-0.2472 0.5966-0.2472h2.0689v-4.4741c-5e-4 -0.6049-0.1554-1.1997-0.45-1.728l-4.5675-8.1889c-0.039-0.0699-0.096-0.1281-0.165-0.1686s-0.1476-0.0619-0.2276-0.062h-6.2246v14.625h2.0092c0.2238 0 0.4384 0.0889 0.5966 0.2471 0.1583 0.1583 0.2472 0.3729 0.2472 0.5967 0 0.2237-0.0889 0.4383-0.2472 0.5966-0.1582 0.1582-0.3728 0.2471-0.5966 0.2471h-2.853c-0.2238 0-0.4384-0.0889-0.5966-0.2471-0.1582-0.1583-0.2471-0.3729-0.2471-0.5966v-16.312c0-0.2238 0.0889-0.4384 0.2471-0.5967 0.1582-0.1582 0.3728-0.2471 0.5966-0.2471h7.0684c0.3806-2e-4 0.7544 0.1013 1.0828 0.2939 0.3283 0.1927 0.5992 0.4695 0.7847 0.8019l4.5664 8.19c0.4341 0.7795 0.6622 1.6569 0.6626 2.5492v4.7138c-6e-4 0.3838-0.1533 0.7517-0.4247 1.0231s-0.6394 0.4241-1.0232 0.4247z"/>
            <path d="m28.205 50.667h-8.0899c-0.2237 0-0.4384-0.0889-0.5966-0.2471s-0.2471-0.3728-0.2471-0.5966v-6.489c0-0.2238 0.0889-0.4384 0.2471-0.5966 0.1582-0.1583 0.3729-0.2472 0.5966-0.2472 0.2238 0 0.4384 0.0889 0.5967 0.2472 0.1582 0.1582 0.2471 0.3728 0.2471 0.5966v5.6452h7.2461c0.2238 0 0.4384 0.0889 0.5966 0.2472 0.1583 0.1582 0.2472 0.3728 0.2472 0.5966s-0.0889 0.4384-0.2472 0.5966c-0.1582 0.1582-0.3728 0.2471-0.5966 0.2471z"/>
            <path d="m20.115 40.34c-0.2237 0-0.4384-0.0889-0.5966-0.2472-0.1582-0.1582-0.2471-0.3728-0.2471-0.5966v-5.6655c0-0.2238 0.0889-0.4384 0.2471-0.5966s0.3729-0.2471 0.5966-0.2471c0.2238 0 0.4384 0.0889 0.5967 0.2471 0.1582 0.1582 0.2471 0.3728 0.2471 0.5966v5.6689c-9e-4 0.2232-0.0902 0.4369-0.2483 0.5944-0.1582 0.1575-0.3723 0.246-0.5955 0.246z"/>
            <path d="m49.731 50.667h-13.969c-0.2237 0-0.4384-0.0889-0.5966-0.2472-0.1582-0.1582-0.2471-0.3728-0.2471-0.5966s0.0889-0.4384 0.2471-0.5966 0.3729-0.2471 0.5966-0.2471h13.125v-22.074h-27.928v3.4752c0 0.2237-0.0889 0.4384-0.2471 0.5966-0.1583 0.1582-0.3729 0.2471-0.5967 0.2471-0.2237 0-0.4384-0.0889-0.5966-0.2471s-0.2471-0.3729-0.2471-0.5966v-3.6304c6e-4 -0.4064 0.1624-0.796 0.4498-1.0832 0.2875-0.2873 0.6772-0.4488 1.0836-0.4491h28.238c0.4062 6e-4 0.7955 0.1623 1.0828 0.4495 0.2872 0.2872 0.4488 0.6766 0.4494 1.0828v23.073c0 0.2238-0.0889 0.4384-0.2471 0.5966-0.1583 0.1583-0.3729 0.2472-0.5966 0.2472z"/>
            <path d="m23.451 44.178h-10.709c-0.2238 0-0.4384-0.0889-0.5966-0.2471-0.1583-0.1583-0.2472-0.3729-0.2472-0.5967 0-0.2237 0.0889-0.4383 0.2472-0.5966 0.1582-0.1582 0.3728-0.2471 0.5966-0.2471h10.709c0.2237 0 0.4384 0.0889 0.5966 0.2471 0.1582 0.1583 0.2471 0.3729 0.2471 0.5966 0 0.2238-0.0889 0.4384-0.2471 0.5967-0.1582 0.1582-0.3729 0.2471-0.5966 0.2471z"/>
            <path d="m31.984 40.34h-14.943c-0.2238 0-0.4384-0.0889-0.5966-0.2471-0.1582-0.1583-0.2471-0.3729-0.2471-0.5967 0-0.2237 0.0889-0.4383 0.2471-0.5966 0.1582-0.1582 0.3728-0.2471 0.5966-0.2471h14.943c0.2238 0 0.4384 0.0889 0.5966 0.2471 0.1582 0.1583 0.2471 0.3729 0.2471 0.5966 0 0.2238-0.0889 0.4384-0.2471 0.5967-0.1582 0.1582-0.3728 0.2471-0.5966 0.2471z"/>
            <path d="m16.578 35.885h-5.8354c-0.2238 0-0.4384-0.0889-0.5966-0.2472-0.15827-0.1582-0.24716-0.3728-0.24716-0.5966s0.08889-0.4384 0.24716-0.5966c0.1582-0.1582 0.3728-0.2471 0.5966-0.2471h5.8354c0.2237 0 0.4383 0.0889 0.5966 0.2471 0.1582 0.1582 0.2471 0.3728 0.2471 0.5966s-0.0889 0.4384-0.2471 0.5966c-0.1583 0.1583-0.3729 0.2472-0.5966 0.2472z"/>
            <path d="m25.933 31.224h-10.3c-0.2238 0-0.4384-0.0889-0.5966-0.2471-0.1582-0.1583-0.2471-0.3729-0.2471-0.5967 0-0.2237 0.0889-0.4383 0.2471-0.5966 0.1582-0.1582 0.3728-0.2471 0.5966-0.2471h10.3c0.2238 0 0.4384 0.0889 0.5966 0.2471 0.1583 0.1583 0.2472 0.3729 0.2472 0.5966 0 0.2238-0.0889 0.4384-0.2472 0.5967-0.1582 0.1582-0.3728 0.2471-0.5966 0.2471z"/>
        </g>
    </g>

    <g id="icon-2" class="hidden">
        <path d="M73 41.3614C73 49.2862 70.3851 56.9896 65.5607 63.2768C60.7364 69.564 53.9723 74.0836 46.3175 76.1347C38.6627 78.1858 30.545 77.6538 23.2234 74.6211C15.9018 71.5884 9.7855 66.2245 5.82309 59.3614C1.86067 52.4983 0.273587 44.5195 1.30798 36.6624C2.34238 28.8054 5.94045 21.5092 11.5442 15.9055C17.1479 10.3018 24.444 6.70377 32.3011 5.66937C40.1581 4.63498 48.1369 6.22206 55 10.1845" stroke="#7FC394" stroke-width="2" stroke-linecap="round" stroke-linejoin="round"/>
        <g fill="#7FC394">
            <path d="M52.7572 9.48283L53.404 8.32194L55.5446 9.82661C55.3318 9.51047 54.5285 8.23751 54.789 6.56389C55.1628 4.16119 57.3879 3.12412 57.5589 3.04775C57.7509 3.22814 58.816 4.24871 59.1408 5.53472C59.3923 6.53349 59.1208 7.3858 59.1089 7.41376C59.1089 7.41376 59.1104 7.4103 59.1088 7.41483C59.1034 7.42713 59.0556 7.536 59.0577 7.53677C59.0598 7.53755 59.0577 7.53677 59.0579 7.5357C59.5091 6.79371 60.0654 6.12116 60.7092 5.53903C61.3305 4.97784 62.417 3.9966 63.9904 3.68331C66.2924 3.22452 68.1958 4.48081 68.6778 4.82002C68.6069 5.57337 68.2724 8.17969 66.357 9.37332C65.0824 10.1676 63.2979 10.2174 62.0046 10.254C61.0997 10.2794 60.1595 10.2521 60.2014 10.2549C60.817 10.2956 61.4295 10.3746 62.0353 10.4914C63.3281 10.7406 65.8873 11.1191 67.3247 12.979C67.6525 13.4032 68.4753 14.618 68.4056 16.7573C67.6926 17.2119 66.2973 17.9319 64.587 17.7544C63.0194 17.5916 61.9167 16.7506 60.7258 15.8419C59.9117 15.2205 59.1726 14.5064 58.5231 13.714C59.0457 14.4802 59.5147 15.2817 59.9268 16.1127C60.6165 17.5034 61.068 18.4135 61.1269 19.3734C61.2664 21.6479 59.1577 23.4804 58.4511 24.0466C57.5324 23.6648 55.6919 22.726 55.0583 20.8849C54.7351 19.9455 54.8056 19.0021 54.9242 17.4117C54.9934 16.4823 55.1279 15.5589 55.3267 14.6485C55.3269 14.647 55.327 14.6463 55.327 14.6462C55.3225 14.6437 55.255 14.7663 55.2337 14.8052L55.2274 14.8165C55.1991 14.8686 54.7766 15.46 54.2976 15.7998C53.8664 16.1056 52.9494 16.5196 51.6938 16.732C50.8215 14.9663 51.0661 12.939 52.2638 11.6818C53.4051 10.4834 54.9694 10.4505 55.3102 10.4512C54.4593 10.1284 53.6082 9.80565 52.7572 9.48283Z"/>
            <path d="M36.9395 18.0086C37.5669 18 38.1598 18.0516 38.5208 18.1289C38.8473 18.2063 39.3544 18.3438 39.6637 18.4469C39.9731 18.5414 40.4544 18.7391 40.738 18.8852C41.0215 19.0227 41.4684 19.2805 41.7262 19.4524C41.984 19.6242 42.4653 20.011 42.7919 20.3203C43.1184 20.6297 43.5481 21.0938 43.7458 21.3516C43.952 21.6094 44.27 22.1164 44.4676 22.4688C44.6567 22.8211 44.9145 23.4055 45.0348 23.7578C45.1551 24.1102 45.3098 24.7461 45.3786 25.1758C45.4473 25.6055 45.5075 26.1125 45.5075 26.6797L47.802 26.7055C50.0708 26.7227 50.1137 26.7227 50.5778 26.9375C50.8356 27.0578 51.2223 27.3157 51.4372 27.5133C51.652 27.7024 51.927 28.0461 52.0559 28.2782C52.1848 28.5102 52.3309 28.8969 52.3739 29.1289C52.4255 29.3696 52.9153 35.2219 53.4653 42.1485C54.402 53.8617 54.4622 54.7985 54.3762 55.5977C54.3247 56.0703 54.1872 56.7235 54.0755 57.0586C53.9637 57.3938 53.7833 57.8321 53.6715 58.0469C53.5598 58.2617 53.3364 58.6485 53.1559 58.9063C52.984 59.1641 52.6145 59.6024 52.3309 59.886C52.0559 60.161 51.609 60.5305 51.3512 60.711C51.0934 60.8828 50.6723 61.1321 50.4231 61.261C50.1825 61.3813 49.5809 61.5961 48.2145 62H25.7848L24.8997 61.7422C24.4184 61.5961 23.8169 61.3813 23.5676 61.261C23.327 61.1321 22.9059 60.8828 22.6481 60.711C22.3903 60.5305 21.9434 60.161 21.6684 59.886C21.3848 59.6024 21.0153 59.1641 20.8434 58.9063C20.663 58.6485 20.4395 58.2617 20.3278 58.0469C20.2161 57.8321 20.0356 57.3938 19.9239 57.0586C19.8122 56.7235 19.6747 56.0703 19.6231 55.5977C19.5372 54.7985 19.6059 53.8446 20.534 42.1485C21.084 35.2219 21.5739 29.361 21.6255 29.1289C21.6684 28.8883 21.8145 28.5102 21.9434 28.2782C22.0723 28.0461 22.3473 27.7024 22.5622 27.5133C22.777 27.3157 23.1637 27.0578 23.4215 26.9375C23.8856 26.7227 23.9286 26.7227 28.4919 26.6797V26.3188C28.4919 26.1125 28.552 25.6055 28.6208 25.1758C28.6895 24.7461 28.8442 24.1102 28.9645 23.7578C29.0848 23.4055 29.3426 22.8211 29.5317 22.4688C29.7294 22.1164 30.0473 21.6094 30.2536 21.3516C30.4512 21.0938 30.8809 20.6297 31.2075 20.3203C31.534 20.011 32.0153 19.6242 32.2731 19.4524C32.5309 19.2805 32.9778 19.0227 33.2614 18.8852C33.545 18.7391 33.9919 18.5586 34.2497 18.4727C34.5075 18.3867 34.9973 18.2492 35.3239 18.1633C35.702 18.0688 36.3036 18.0172 36.9309 18.0086H36.9395ZM34.645 21.0852C34.3614 21.2141 33.8973 21.4719 33.6137 21.6696C33.3301 21.8586 32.9434 22.1852 32.7544 22.3914C32.5567 22.5977 32.2731 22.9672 32.1098 23.1992C31.9465 23.4399 31.7145 23.861 31.5856 24.1446C31.4567 24.4282 31.2934 24.961 31.2161 25.3305C31.1387 25.6914 31.0786 26.1469 31.0786 26.336V26.6797H42.938C42.938 26.1469 42.8778 25.6914 42.8005 25.3219C42.7231 24.961 42.5598 24.4282 42.4309 24.1446C42.302 23.861 42.07 23.4313 41.9067 23.1992C41.7434 22.9672 41.4598 22.5977 41.2622 22.3914C41.0731 22.1852 40.6864 21.8586 40.4028 21.6696C40.1192 21.4719 39.6551 21.2141 39.3715 21.0852C39.088 20.9563 38.5551 20.793 38.1856 20.7157C37.8247 20.6383 37.2661 20.5782 36.9395 20.5867C36.6215 20.5867 36.0887 20.6469 35.7622 20.7242C35.427 20.793 34.9286 20.9563 34.645 21.0852ZM24.0919 30.1172C24.0661 30.4266 23.602 36.15 23.0778 42.836C22.2098 53.7758 22.1239 55.0563 22.2098 55.5977C22.27 55.9414 22.4505 56.4742 22.6309 56.8438C22.8458 57.2907 23.1122 57.6602 23.5075 58.0469C23.8169 58.3563 24.3067 58.7344 24.5903 58.8805C24.8739 59.0352 25.3551 59.2157 25.6645 59.2844C26.1544 59.4047 27.5809 59.4219 37.0083 59.4219C46.4356 59.4219 47.8622 59.4047 48.352 59.2844C48.6614 59.2157 49.1426 59.0352 49.4262 58.8805C49.7098 58.7344 50.1997 58.3563 50.509 58.0469C50.9044 57.6602 51.1708 57.2907 51.3856 56.8438C51.5661 56.4742 51.7465 55.9414 51.8067 55.5977C51.8926 55.0563 51.8067 53.7844 50.9387 42.836C50.4145 36.15 49.9505 30.4266 49.9247 30.1172C49.8817 29.7477 49.813 29.5071 49.7098 29.4125C49.5723 29.275 49.3403 29.2578 47.5356 29.2578H45.5161C45.5161 32.4633 45.4989 32.6953 45.3442 33.0219C45.2153 33.2883 45.0778 33.4258 44.8028 33.5547C44.6051 33.6492 44.3473 33.7266 44.227 33.7266C44.1067 33.7266 43.8575 33.6492 43.6684 33.5547C43.4622 33.4602 43.2473 33.2625 43.1356 33.0649C42.9551 32.7555 42.9465 32.6352 42.938 31.0024V29.2578H31.0786C31.07 32.6352 31.0614 32.7555 30.8809 33.0649C30.7692 33.2625 30.5544 33.4602 30.3481 33.5547C30.159 33.6492 29.9098 33.7266 29.7895 33.7266C29.6692 33.7266 29.4114 33.6492 29.2051 33.5547C28.9387 33.4258 28.8012 33.2883 28.6723 33.0219C28.5176 32.6953 28.5005 32.4633 28.5005 30.9594V29.2578C24.6762 29.2578 24.4442 29.275 24.3067 29.4125C24.2036 29.5071 24.1348 29.7477 24.0919 30.1172ZM41.9067 39.4844C42.07 39.4844 42.345 39.5532 42.5083 39.6477C42.6715 39.7336 42.895 39.9571 42.9981 40.1375C43.1098 40.318 43.1958 40.593 43.1958 40.7305C43.1958 40.868 43.1184 41.143 43.0239 41.3321C42.9208 41.5469 41.6059 42.9219 39.4403 45.0875C37.5583 46.961 35.9169 48.5422 35.7794 48.5852C35.6505 48.6367 35.384 48.6797 35.1778 48.6797C34.9801 48.6797 34.7223 48.6196 34.602 48.5422C34.4817 48.4649 33.6567 47.6828 32.7715 46.7977C31.8778 45.9211 31.0786 45.0532 30.984 44.8813C30.8981 44.7008 30.8208 44.4516 30.8208 44.3227C30.8208 44.1852 30.8981 43.9188 30.9926 43.7211C31.1215 43.4461 31.259 43.3086 31.534 43.1797C31.7317 43.0852 31.9895 43.0078 32.1098 43.0078C32.2301 43.0078 32.4794 43.0852 32.6684 43.1797C32.8575 43.2742 33.5106 43.85 35.2465 45.586L38.1684 42.6641C39.7755 41.0657 41.2106 39.6907 41.3481 39.6219C41.4856 39.5446 41.7434 39.4844 41.9067 39.4844Z"/>
        </g>
    </g>

    <g id="icon-3" class="hidden">
        <path d="M73 41.3614C73 49.2862 70.3851 56.9896 65.5607 63.2768C60.7364 69.564 53.9723 74.0836 46.3175 76.1347C38.6627 78.1858 30.545 77.6538 23.2234 74.6211C15.9018 71.5884 9.7855 66.2245 5.82309 59.3614C1.86067 52.4983 0.273587 44.5195 1.30798 36.6624C2.34238 28.8054 5.94045 21.5092 11.5442 15.9055C17.1479 10.3018 24.444 6.70377 32.3011 5.66937C40.1581 4.63498 48.1369 6.22206 55 10.1845" stroke="#7FC394" stroke-width="2" stroke-linecap="round" stroke-linejoin="round"/>
        <g fill="#7FC394">
            <path d="M52.7572 9.48283L53.404 8.32194L55.5446 9.82661C55.3318 9.51047 54.5285 8.23751 54.789 6.56389C55.1628 4.16119 57.3879 3.12412 57.5589 3.04775C57.7509 3.22814 58.816 4.24871 59.1408 5.53472C59.3923 6.53349 59.1208 7.3858 59.1089 7.41376C59.1089 7.41376 59.1104 7.4103 59.1088 7.41483C59.1034 7.42713 59.0556 7.536 59.0577 7.53677C59.0598 7.53755 59.0577 7.53677 59.0579 7.5357C59.5091 6.79371 60.0654 6.12116 60.7092 5.53903C61.3305 4.97784 62.417 3.9966 63.9904 3.68331C66.2924 3.22452 68.1958 4.48081 68.6778 4.82002C68.6069 5.57337 68.2724 8.17969 66.357 9.37332C65.0824 10.1676 63.2979 10.2174 62.0046 10.254C61.0997 10.2794 60.1595 10.2521 60.2014 10.2549C60.817 10.2956 61.4295 10.3746 62.0353 10.4914C63.3281 10.7406 65.8873 11.1191 67.3247 12.979C67.6525 13.4032 68.4753 14.618 68.4056 16.7573C67.6926 17.2119 66.2973 17.9319 64.587 17.7544C63.0194 17.5916 61.9167 16.7506 60.7258 15.8419C59.9117 15.2205 59.1726 14.5064 58.5231 13.714C59.0457 14.4802 59.5147 15.2817 59.9268 16.1127C60.6165 17.5034 61.068 18.4135 61.1269 19.3734C61.2664 21.6479 59.1577 23.4804 58.4511 24.0466C57.5324 23.6648 55.6919 22.726 55.0583 20.8849C54.7351 19.9455 54.8056 19.0021 54.9242 17.4117C54.9934 16.4823 55.1279 15.5589 55.3267 14.6485C55.3269 14.647 55.327 14.6463 55.327 14.6462C55.3225 14.6437 55.255 14.7663 55.2337 14.8052L55.2274 14.8165C55.1991 14.8686 54.7766 15.46 54.2976 15.7998C53.8664 16.1056 52.9494 16.5196 51.6938 16.732C50.8215 14.9663 51.0661 12.939 52.2638 11.6818C53.4051 10.4834 54.9694 10.4505 55.3102 10.4512C54.4593 10.1284 53.6082 9.80565 52.7572 9.48283Z"/>
            <path d="M17.2773 19.5086L49.375 19.5L50.1197 19.7018C50.5233 19.9037 50.7207 20.0753 50.927 20.3073C51.1247 20.5222 51.5325 20.9128 51.6523 21.7773L51.6781 35.4242C51.6953 48.3492 51.7039 49.0625 51.85 49.0625C51.9273 49.0625 52.3055 48.9852 52.6836 48.8906C53.0617 48.7875 53.7406 48.5297 54.1875 48.3148C54.918 47.9539 55.107 47.8078 55.975 46.9398C56.6883 46.218 57.0062 45.9516 57.2211 45.9172C57.4016 45.8742 57.6078 45.9172 57.8398 46.0203C58.0289 46.1148 58.2609 46.3039 58.3555 46.4414C58.4586 46.5789 58.5617 46.8711 58.5961 47.0859C58.6391 47.3008 58.7422 47.9797 58.8367 48.5898C58.9484 49.3289 59 50.1539 59 51.0391C59 51.7695 58.9656 52.5859 58.9227 52.8438C58.8711 53.1016 58.7766 53.6859 58.6992 54.1328C58.6219 54.5797 58.4156 55.3961 58.2352 55.9375C58.0547 56.4789 57.7281 57.2781 57.5133 57.6992C57.2984 58.1203 56.8773 58.8164 56.5852 59.2375C56.2844 59.6586 55.6656 60.3547 55.2188 60.7844C54.7633 61.2141 54.093 61.7727 53.7148 62.0219C53.3367 62.2711 52.7609 62.6063 52.4258 62.7695C52.0906 62.9328 51.4547 63.1562 51.0078 63.2766C50.3633 63.457 49.9852 63.5 49.2289 63.5C48.4469 63.5 48.1031 63.457 47.4672 63.2766C47.0289 63.1562 46.4016 62.9156 46.0664 62.7523C45.7312 62.5891 45.3102 62.3398 45.1211 62.2109C44.932 62.082 44.5797 61.7898 44.3391 61.5578C44.107 61.3258 43.8062 60.9992 43.6773 60.8359C43.5398 60.6727 43.4281 60.5523 43.4109 60.5781C43.4023 60.6039 43.2562 60.8187 43.0844 61.0508C42.9211 61.2914 42.5687 61.6695 42.3195 61.9016C42.0617 62.125 41.6062 62.4688 41.2969 62.6492C40.9875 62.8297 40.3773 63.0961 39.9477 63.2422C39.243 63.4656 39.0281 63.5 38.1602 63.5C37.2664 63.5 37.0859 63.4742 36.2953 63.2078C35.8055 63.0531 35.1266 62.7523 34.7828 62.5461C34.4305 62.3398 33.8375 61.9188 33.4508 61.6094C33.0727 61.3 32.5398 60.7844 32.282 60.4664C32.0156 60.1484 31.6547 59.6586 31.4742 59.3922C31.2937 59.1258 31.0016 58.593 30.8125 58.2148C30.632 57.8367 30.3914 57.2266 30.082 56.1953L17.2773 56.1523L16.8047 55.9375C16.5469 55.8172 16.1602 55.5594 15.9453 55.3617C15.7305 55.1727 15.4469 54.7859 15.043 54.0039V21.6914L15.2406 21.2875C15.4041 20.9128 15.6102 20.6773 15.8422 20.4367C16.0742 20.1789 16.5161 19.8479 16.8169 19.7018L17.2773 19.5086ZM16.8305 21.4422C16.7273 21.5883 16.5984 21.8031 16.5555 21.932C16.4867 22.0953 16.4609 26.968 16.4609 37.8305C16.4609 52.8438 16.4695 53.5141 16.6242 53.8406C16.7102 54.0297 16.8563 54.2531 16.9422 54.3305C17.0281 54.4164 17.2602 54.5367 17.4492 54.6055C17.7414 54.7172 18.7469 54.7344 23.7656 54.7344L29.7383 54.743C29.7383 51.2625 29.7727 50.6352 29.9016 49.9305C29.9875 49.432 30.1164 48.925 30.1766 48.7875C30.2453 48.6586 30.4258 48.4781 30.5805 48.375C30.7867 48.2461 30.9414 48.2117 31.2422 48.2461C31.5945 48.2891 31.6891 48.3578 32.4023 49.0969C33.0555 49.7758 33.2875 49.9562 33.9062 50.257C34.3102 50.4547 34.9461 50.6953 35.3242 50.7898C35.7625 50.9016 36.5273 50.9961 37.4297 51.0477C38.2117 51.0906 39.0969 51.1852 39.4062 51.2711C39.7156 51.3484 40.2312 51.5375 40.5664 51.6836C40.9016 51.8383 41.3656 52.0875 41.5977 52.2508C41.8383 52.4141 42.2078 52.7234 42.4398 52.9297C42.6633 53.1445 42.8609 53.3078 42.8695 53.282C42.8867 53.2563 43.0414 53.007 43.2133 52.7234C43.3766 52.4398 43.7117 51.993 43.9437 51.7352C44.1758 51.4773 44.6055 51.0734 44.9148 50.8414C45.2156 50.6094 45.8172 50.257 46.2383 50.0508C46.6594 49.8445 47.3039 49.6039 47.6562 49.5008C48.0086 49.4063 48.7391 49.2773 49.2719 49.2172L50.2344 49.1141C50.2258 24.1578 50.2086 22.25 50.0969 21.9578C50.0281 21.7687 49.9078 21.5367 49.8219 21.4508C49.7445 21.3648 49.5211 21.2188 49.332 21.1328C49.0141 20.9867 48.6789 20.9695 44.8289 20.9695H40.6695C40.6523 32.382 40.6437 32.7172 40.4891 33.0008C40.4031 33.1641 40.2312 33.4133 40.1023 33.5422C39.982 33.6797 39.7758 33.843 39.6469 33.9117C39.5094 33.9805 39.243 34.0664 39.0453 34.118C38.7789 34.1781 38.5555 34.1695 38.2461 34.0922C37.9797 34.0234 36.9742 33.4734 35.625 32.6742C34.4219 31.9523 33.382 31.3594 33.3305 31.368C33.2703 31.368 32.2219 31.9609 31.0102 32.6914C29.575 33.5508 28.6469 34.0492 28.3891 34.1094C28.0969 34.1781 27.8562 34.1781 27.5727 34.1094C27.3406 34.0578 27.0227 33.9117 26.8422 33.7914C26.6703 33.6625 26.4555 33.4391 26.3523 33.3016C26.2578 33.1555 26.1375 32.9062 26.0859 32.743C26.0344 32.5539 26 30.3539 26 26.7016V20.9695C18.6867 20.9781 17.5438 21.0039 17.3203 21.0812C17.157 21.1414 16.9422 21.3047 16.8305 21.4422ZM27.4609 32.3992C27.8477 32.6828 27.9937 32.7258 28.1055 32.6914C28.2 32.657 29.2227 32.0555 30.3828 31.3594C31.543 30.6633 32.6602 30.0445 32.875 29.9844C33.1758 29.8984 33.3562 29.8984 33.7086 29.9758C34.0266 30.0445 34.8086 30.4656 36.3297 31.3766C37.5242 32.0898 38.5984 32.6742 38.7016 32.6742C38.8133 32.6742 38.968 32.6141 39.0453 32.5367C39.1742 32.4078 39.1914 31.875 39.2086 26.6844L39.2258 20.9695H27.4609V32.3992ZM55.8633 49.0281C55.5797 49.2258 55.107 49.518 54.8063 49.6641C54.5141 49.8102 53.9727 50.025 53.6031 50.1453C53.2422 50.2656 52.632 50.4203 52.2539 50.4891C51.8758 50.5578 50.982 50.6352 50.2773 50.6609C49.4352 50.6953 48.7391 50.7727 48.2578 50.8844C47.8539 50.9789 47.2609 51.1852 46.9258 51.3398C46.5906 51.4945 46.0836 51.8039 45.7828 52.0187C45.4906 52.2422 45.0781 52.6461 44.8633 52.9125C44.6484 53.1875 44.3391 53.6773 44.1758 54.0125C44.0125 54.3391 43.8148 54.9062 43.7375 55.2586C43.643 55.7141 43.6086 56.1523 43.643 56.7625C43.6687 57.3469 43.7547 57.8109 43.8922 58.2148C43.9953 58.5414 44.15 58.825 44.2188 58.8508C44.2875 58.868 44.6141 58.8164 44.9492 58.7391C45.2844 58.6531 45.9891 58.4383 46.5133 58.2492C47.0461 58.0687 47.8453 57.7508 48.275 57.5445C48.7133 57.3383 49.4437 56.9172 49.8906 56.6164C50.3375 56.3242 51.025 55.7656 51.4289 55.3875C51.8242 55.0094 52.4688 54.2703 52.8555 53.7547C53.2336 53.2305 53.6203 52.7836 53.6977 52.7406C53.775 52.7062 53.9383 52.6805 54.0586 52.6805C54.1789 52.6805 54.368 52.775 54.4883 52.8953C54.6258 53.0328 54.7031 53.2047 54.7031 53.3852C54.7117 53.5914 54.5656 53.875 54.1703 54.4422C53.8781 54.8633 53.182 55.6625 52.6406 56.2125C51.9531 56.9 51.3602 57.3984 50.707 57.8281C50.1828 58.1719 49.375 58.6445 48.9023 58.868C48.4297 59.1 47.5961 59.4352 47.0547 59.6242C46.5133 59.8133 45.843 60.0195 45.568 60.0797C45.3016 60.1484 45.0781 60.2258 45.0781 60.2602C45.0781 60.3031 45.3016 60.5008 45.568 60.7156C45.843 60.9305 46.3758 61.2656 46.7539 61.4461C47.132 61.6352 47.7336 61.85 48.0859 61.9273C48.5242 62.0219 48.9883 62.0477 49.5469 62.0219C50.1398 61.9961 50.5695 61.9102 51.0938 61.7297C51.4977 61.6008 52.168 61.2742 52.5891 61.0164C53.0961 60.707 53.6805 60.2344 54.282 59.6414C54.8836 59.0484 55.3734 58.4727 55.7 57.9656C55.975 57.5359 56.3445 56.8656 56.5164 56.4617C56.6883 56.0578 56.9117 55.4391 57.0148 55.0867C57.1094 54.7344 57.2555 54.1156 57.3242 53.7117C57.4016 53.3078 57.4875 52.3969 57.5133 51.6922C57.5391 50.9188 57.5219 50.025 57.4617 49.4578C57.4016 48.9336 57.3414 48.3664 57.3242 48.1859C57.2984 48.0141 57.2555 47.868 57.2211 47.868C57.1867 47.868 56.9805 48.0484 56.7656 48.2633C56.5508 48.4781 56.1469 48.8219 55.8633 49.0281ZM31.3023 50.4203C31.268 50.5578 31.2164 51.357 31.182 52.2078C31.1477 53.2391 31.1648 53.9953 31.2336 54.4852C31.2937 54.8891 31.4141 55.525 31.5172 55.9031C31.6117 56.2812 31.8266 56.9172 32.007 57.3211C32.1789 57.725 32.4969 58.318 32.7203 58.6531C32.9352 58.9797 33.3648 59.5125 33.6656 59.8219C33.9578 60.1312 34.4562 60.5695 34.7656 60.793C35.075 61.025 35.582 61.3344 35.9086 61.4977C36.2266 61.6609 36.725 61.85 37.0258 61.9188C37.318 61.9875 37.8078 62.0477 38.1172 62.0477C38.4266 62.0477 38.9164 61.9875 39.2172 61.9188C39.5094 61.85 39.9562 61.6867 40.2055 61.5664C40.4461 61.4375 40.8328 61.2055 41.0648 61.0508C41.2883 60.8875 41.4688 60.7156 41.4688 60.6727C41.4688 60.6211 41.2625 60.5438 41.0219 60.4922C40.7727 60.4406 40.1969 60.2602 39.75 60.0883C39.3031 59.925 38.5812 59.6156 38.1602 59.4008C37.7391 59.1859 37.1203 58.8336 36.7852 58.6102C36.4586 58.3867 35.9516 57.9914 35.668 57.7422C35.3844 57.4844 34.9547 57.0633 34.7227 56.8055C34.482 56.5477 34.0953 56.0578 33.8461 55.7313C33.4937 55.2586 33.3992 55.0609 33.3906 54.8031C33.3906 54.5797 33.4508 54.425 33.6055 54.2703C33.7172 54.15 33.9148 54.0555 34.0352 54.0555C34.1555 54.0555 34.3187 54.0812 34.3961 54.1156C34.4734 54.1586 34.7484 54.4766 35.0148 54.8289C35.2727 55.1813 35.7539 55.757 36.0891 56.1008C36.4242 56.4531 36.9484 56.9172 37.2578 57.1492C37.5672 57.3727 38.143 57.7336 38.5469 57.9484C38.9508 58.1633 39.5867 58.4641 39.9648 58.6102C40.343 58.7477 41.0047 58.9625 41.4258 59.0828C41.8469 59.2031 42.268 59.2977 42.3539 59.2977C42.4398 59.2977 42.5172 59.2117 42.543 59.1C42.5602 58.9969 42.5 58.6617 42.3969 58.3523C42.2336 57.8711 42.2078 57.5875 42.2078 56.3672L42.1992 54.9406C41.8039 54.3648 41.5117 54.0469 41.2969 53.8578C41.082 53.6773 40.7211 53.4109 40.4805 53.2734C40.2484 53.1359 39.7414 52.9211 39.3633 52.8008C38.8133 52.6203 38.4008 52.5602 37.3008 52.5086C36.5445 52.4656 35.6594 52.3711 35.3242 52.3023C34.9977 52.2336 34.3961 52.0531 33.9922 51.907C33.5883 51.7609 33.0297 51.4945 32.7461 51.3227C32.4625 51.1508 32.0414 50.8242 31.8008 50.5922L31.3625 50.1883L31.3023 50.4203ZM26.5586 46.6992L26.8594 46.9141C27.0227 47.0344 27.2203 47.2836 27.3062 47.4727C27.4352 47.7734 27.4609 48.0828 27.4609 49.5781C27.4695 51.2711 27.4609 51.357 27.2633 51.7266C27.1172 52.0016 26.9453 52.1734 26.6789 52.3109C26.3094 52.5086 26.2664 52.5086 23.0781 52.5C20.1734 52.5 19.8211 52.4828 19.5117 52.3453C19.3227 52.2594 19.0734 52.0617 18.9531 51.8984C18.7469 51.6063 18.7383 51.5633 18.7125 49.793C18.6953 48.8047 18.7125 47.868 18.7383 47.7133C18.7641 47.5586 18.8758 47.3094 18.9875 47.1633C19.0992 47.0172 19.3141 46.8453 19.4773 46.7766C19.7094 46.6906 20.4914 46.6648 26.5586 46.6992ZM20.1562 51.0391H26V48.1172H20.1562V51.0391Z"/>
        </g>
    </g>

    <g id="icon-4" class="hidden">
        <path d="M73 41.3614C73 49.2862 70.3851 56.9896 65.5607 63.2768C60.7364 69.564 53.9723 74.0836 46.3175 76.1347C38.6627 78.1858 30.545 77.6538 23.2234 74.6211C15.9018 71.5884 9.7855 66.2245 5.82309 59.3614C1.86067 52.4983 0.273587 44.5195 1.30798 36.6624C2.34238 28.8054 5.94045 21.5092 11.5442 15.9055C17.1479 10.3018 24.444 6.70377 32.3011 5.66937C40.1581 4.63498 48.1369 6.22206 55 10.1845" stroke="#7FC394" stroke-width="2" stroke-linecap="round" stroke-linejoin="round"/>
        <g fill="#7FC394">
            <path d="M52.7572 9.48283L53.404 8.32194L55.5446 9.82661C55.3318 9.51047 54.5285 8.23751 54.789 6.56389C55.1628 4.16119 57.3879 3.12412 57.5589 3.04775C57.7509 3.22814 58.816 4.24871 59.1408 5.53472C59.3923 6.53349 59.1208 7.3858 59.1089 7.41376C59.1089 7.41376 59.1104 7.4103 59.1088 7.41483C59.1034 7.42713 59.0556 7.536 59.0577 7.53677C59.0598 7.53755 59.0577 7.53677 59.0579 7.5357C59.5091 6.79371 60.0654 6.12116 60.7092 5.53903C61.3305 4.97784 62.417 3.9966 63.9904 3.68331C66.2924 3.22452 68.1958 4.48081 68.6778 4.82002C68.6069 5.57337 68.2724 8.17969 66.357 9.37332C65.0824 10.1676 63.2979 10.2174 62.0046 10.254C61.0997 10.2794 60.1595 10.2521 60.2014 10.2549C60.817 10.2956 61.4295 10.3746 62.0353 10.4914C63.3281 10.7406 65.8873 11.1191 67.3247 12.979C67.6525 13.4032 68.4753 14.618 68.4056 16.7573C67.6926 17.2119 66.2973 17.9319 64.587 17.7544C63.0194 17.5916 61.9167 16.7506 60.7258 15.8419C59.9117 15.2205 59.1726 14.5064 58.5231 13.714C59.0457 14.4802 59.5147 15.2817 59.9268 16.1127C60.6165 17.5034 61.068 18.4135 61.1269 19.3734C61.2664 21.6479 59.1577 23.4804 58.4511 24.0466C57.5324 23.6648 55.6919 22.726 55.0583 20.8849C54.7351 19.9455 54.8056 19.0021 54.9242 17.4117C54.9934 16.4823 55.1279 15.5589 55.3267 14.6485C55.3269 14.647 55.327 14.6463 55.327 14.6462C55.3225 14.6437 55.255 14.7663 55.2337 14.8052L55.2274 14.8165C55.1991 14.8686 54.7766 15.46 54.2976 15.7998C53.8664 16.1056 52.9494 16.5196 51.6938 16.732C50.8215 14.9663 51.0661 12.939 52.2638 11.6818C53.4051 10.4834 54.9694 10.4505 55.3102 10.4512C54.4593 10.1284 53.6082 9.80565 52.7572 9.48283Z"/>
            <path d="M20.445 32.1742C20.7498 32.4873 21.2505 32.494 21.5635 32.1894L22.8854 30.9028C23.2041 30.5926 23.2047 30.0797 22.8854 29.7691L21.5635 28.4824C21.2505 28.1775 20.7497 28.1846 20.4449 28.4975C20.1402 28.8106 20.1469 29.3114 20.46 29.616L21.1996 30.3359L20.4601 31.0556C20.147 31.3604 20.1402 31.8612 20.445 32.1742Z"/>
            <path d="M16.3035 31.6713C16.7404 31.6713 17.0945 31.3172 17.0945 30.8802C17.0945 30.4433 16.7404 30.0892 16.3035 30.0892H13.3926C12.9557 30.0892 12.6016 30.4433 12.6016 30.8802C12.6016 31.3172 12.9557 31.6713 13.3926 31.6713H16.3035Z"/>
            <path d="M50.2773 34.6704C50.2773 36.9423 52.1256 38.7906 54.3975 38.7906C56.6694 38.7906 58.5177 36.9423 58.5177 34.6704C58.5177 32.3985 56.6694 30.5502 54.3975 30.5502C52.1256 30.5502 50.2773 32.3984 50.2773 34.6704ZM56.9358 34.6704C56.9358 36.07 55.7972 37.2086 54.3976 37.2086C52.998 37.2086 51.8595 36.0699 51.8595 34.6704C51.8595 33.2708 52.9981 32.1323 54.3976 32.1323C55.7972 32.1322 56.9358 33.2708 56.9358 34.6704Z"/>
            <path d="M21.5146 38.4595C21.1186 37.7213 20.9113 37.2131 20.9093 37.2081C20.7456 36.8034 20.285 36.608 19.8799 36.7711C19.4748 36.9347 19.279 37.3956 19.4425 37.8007C19.4519 37.8243 19.6803 38.387 20.1205 39.2075C20.3264 39.5912 20.8052 39.7376 21.1914 39.5306C21.5765 39.3241 21.7211 38.8446 21.5146 38.4595Z"/>
            <path d="M33.9934 43.1558C33.2379 43.389 32.4374 43.6746 31.6127 44.0051C31.5377 44.0353 31.4629 44.0639 31.3886 44.0911C30.9783 44.2412 30.7674 44.6955 30.9176 45.1057C31.0348 45.4264 31.3378 45.6252 31.6605 45.6252C31.7508 45.6252 31.8426 45.6097 31.9323 45.5768C32.3062 45.4403 33.1732 45.0648 34.4603 44.6674C34.8777 44.5385 35.1116 44.0957 34.9827 43.6783C34.8538 43.2607 34.4109 43.0268 33.9934 43.1558Z"/>
            <path d="M23.5701 43.7495C23.8958 44.042 24.396 44.0137 24.6871 43.6894C24.979 43.3643 24.9521 42.8642 24.6269 42.5723C24.0336 42.0396 23.4558 41.3977 22.9099 40.6645C22.649 40.3142 22.1534 40.2414 21.803 40.5025C21.4526 40.7634 21.3801 41.259 21.641 41.6094C22.2497 42.4266 22.8987 43.1468 23.5701 43.7495Z"/>
            <path d="M47.2567 46.1433C46.958 45.8247 46.4575 45.8085 46.1385 46.1075C45.8199 46.4063 45.8039 46.9069 46.1027 47.2256C46.6677 47.8281 47.2079 48.4716 47.8452 49.2528C48.1218 49.5917 48.6204 49.6414 48.9581 49.3655C49.2967 49.0894 49.3471 48.591 49.0709 48.2526C48.4131 47.4461 47.8527 46.7789 47.2567 46.1433Z"/>
            <path d="M39.5589 43.8754C39.9905 43.8921 40.3645 43.556 40.3834 43.1193C40.4023 42.6829 40.0638 42.3138 39.6273 42.2949C38.7361 42.2565 37.7616 42.3221 36.747 42.4909C36.3161 42.5629 36.025 42.9704 36.0968 43.4012C36.1613 43.7882 36.4964 44.0624 36.8761 44.0624C37.1153 44.0623 38.1317 43.8134 39.5589 43.8754Z"/>
            <path d="M50.8027 50.356C50.5192 50.0237 50.0197 49.9842 49.6876 50.2679C49.3554 50.5515 49.3159 51.0509 49.5995 51.383C49.9543 51.7987 50.2825 52.1679 50.6028 52.512C50.9007 52.8322 51.4014 52.8493 51.7207 52.5519C52.0404 52.2544 52.0583 51.7539 51.7607 51.434C51.456 51.1068 51.1426 50.7542 50.8027 50.356Z"/>
            <path d="M63.0453 30.8514C62.855 30.4582 62.3821 30.2937 61.9886 30.4841C61.5953 30.6745 61.4309 31.1475 61.6213 31.5408C62.15 32.633 62.418 33.8069 62.418 35.0296C62.418 37.3711 61.4217 40.7139 59.9388 43.3476C58.2738 46.3047 56.254 48.0008 54.3972 48.0008C52.5404 48.0008 50.5206 46.3047 48.8555 43.3476C47.3726 40.7138 46.3764 37.3711 46.3764 35.0296C46.3764 30.6069 49.9744 27.0088 54.3972 27.0088C56.4579 27.0088 58.4173 27.791 59.9146 29.2114C60.2315 29.512 60.7322 29.4988 61.033 29.182C61.3336 28.8649 61.3205 28.3643 61.0035 28.0636C59.211 26.3632 56.8648 25.4268 54.3972 25.4268C53.8091 25.4268 53.2332 25.4802 52.674 25.5819C45.6461 18.6484 34.5827 16.9984 25.6908 22.2391V22.2187C25.6908 21.3471 24.9817 20.638 24.1101 20.638H11.5807C10.7091 20.638 10 21.3471 10 22.2187V26.096C10 26.5329 10.3542 26.887 10.791 26.887C11.2279 26.887 11.582 26.5329 11.582 26.096L11.5807 22.2201L15.5754 22.2197V25.1049C15.5754 25.722 16.0774 26.2239 16.6945 26.2239H18.9964C19.6135 26.2239 20.1154 25.7219 20.1154 25.1049V22.2191L24.1088 22.2187C24.109 23.5692 24.1099 31.4971 24.1101 33.1344C21.5033 33.1347 13.9766 33.1355 11.582 33.1358V29.2585C11.582 28.8216 11.2279 28.4675 10.791 28.4675C10.3542 28.4675 10 28.8216 10 29.2585V33.1358C10 34.0074 10.7091 34.7164 11.5807 34.7164H15.7162C15.4833 35.4499 15.2863 36.1976 15.1295 36.9509C13.9139 42.7928 15.046 48.7582 18.3174 53.7487C24.9743 63.904 38.3893 66.8034 48.604 60.5898C53.3632 57.695 56.8377 53.1829 58.4119 47.8657C59.4485 46.9559 60.4306 45.6986 61.3173 44.1236C62.9469 41.2291 64 37.6594 64 35.0295C64 33.5661 63.6787 32.1604 63.0453 30.8514ZM18.5334 24.642H17.1574V22.2201H18.5334V24.642ZM16.6784 37.2732C16.8585 36.4077 17.0953 35.5504 17.3824 34.7164H24.1102C24.9818 34.7164 25.6909 34.0073 25.6909 33.1358V26.2923C27.1664 27.1072 28.2897 28.052 29.0378 29.1097C30.2376 30.8058 30.4386 32.7242 29.6527 34.9745C28.9598 36.9587 28.2193 38.7815 27.5033 40.5442C27.0467 41.6681 26.5958 42.7785 26.1657 43.9083C25.9395 43.9638 25.7397 44.1178 25.6351 44.3459C25.5124 44.6131 25.5517 44.9128 25.7112 45.136C24.4934 48.5214 23.5072 52.18 23.1497 56.9547C17.8314 52.1722 15.1192 44.766 16.6784 37.2732ZM47.7819 59.2382C45.7506 60.4739 43.5524 61.3378 41.2774 61.8173C41.0049 60.8842 40.7993 59.9042 40.6671 58.8932C40.6106 58.46 40.2133 58.1554 39.7803 58.2114C39.3472 58.268 39.0419 58.6651 39.0985 59.0983C39.2329 60.1266 39.4374 61.1274 39.7075 62.0855C34.4931 62.7697 29.0554 61.451 24.6573 58.1874C24.9194 53.121 25.9039 49.3126 27.151 45.8113C27.7487 45.9812 28.3569 46.0753 28.9697 46.0903C28.9763 46.0904 28.9829 46.0905 28.9893 46.0905C29.4173 46.0905 29.7693 45.749 29.7797 45.3188C29.7904 44.882 29.445 44.5193 29.0082 44.5087C28.5701 44.498 28.1337 44.4339 27.7023 44.321C28.1102 43.2538 28.5369 42.2028 28.9688 41.1397C29.6922 39.359 30.4402 37.5177 31.1462 35.4962C32.7483 30.9084 30.8106 27.0211 25.6907 24.5112V24.0991C29.9872 21.3039 35.0412 20.2114 40.0787 20.9747C39.7234 21.5899 39.2915 22.4495 38.9377 23.4901C37.968 26.3424 38.0498 29.2103 39.1747 31.784C39.6097 32.7795 40.0503 33.6696 40.4388 34.4549C41.836 37.2781 42.7814 39.1889 42.0905 42.8112C41.8324 42.8688 41.6088 43.0536 41.5151 43.3216C41.4015 43.6466 41.5132 43.9951 41.7672 44.1989C41.4702 45.2961 41.0447 46.5397 40.4663 47.9826C39.4782 50.4475 38.9553 53.0847 38.9121 55.8206C38.9053 56.2575 39.2538 56.6171 39.6906 56.624C39.6948 56.6241 39.6991 56.6241 39.7033 56.6241C40.1343 56.6241 40.4872 56.2782 40.494 55.8455C40.534 53.3035 41.0189 50.8561 41.9349 48.5712C42.4876 47.1924 42.9077 45.9711 43.2147 44.8733C43.5444 45.0548 43.8693 45.2611 44.1926 45.4972C44.5456 45.755 45.0402 45.6778 45.2979 45.3249C45.5555 44.9721 45.4784 44.4773 45.1255 44.2197C44.6244 43.8538 44.1184 43.546 43.5978 43.2885C44.4565 39.0085 43.3445 36.7595 41.8566 33.753C41.4573 32.9459 41.0443 32.1114 40.6241 31.1501C38.6818 26.706 40.9205 22.5723 41.7392 21.2937C45.1706 22.097 48.3065 23.7387 50.9022 26.0849C47.3301 27.4854 44.7941 30.9667 44.7941 35.0293C44.7941 37.6593 45.8471 41.2289 47.4768 44.1235C49.4589 47.6439 51.9165 49.5826 54.397 49.5826C55.026 49.5826 55.6535 49.4573 56.2723 49.2138C54.6154 53.3702 51.6571 56.8811 47.7819 59.2382Z"/>
        </g>
    </g>

    <g id="icon-5" class="hidden">
        <path d="M73 41.3614C73 49.2862 70.3851 56.9896 65.5607 63.2768C60.7364 69.564 53.9723 74.0836 46.3175 76.1347C38.6627 78.1858 30.545 77.6538 23.2234 74.6211C15.9018 71.5884 9.7855 66.2245 5.82309 59.3614C1.86067 52.4983 0.273587 44.5195 1.30798 36.6624C2.34238 28.8054 5.94045 21.5092 11.5442 15.9055C17.1479 10.3018 24.444 6.70377 32.3011 5.66937C40.1581 4.63498 48.1369 6.22206 55 10.1845" stroke="#7FC394" stroke-width="2" stroke-linecap="round" stroke-linejoin="round"/>
        <g fill="#7FC394">
            <path d="M52.7572 9.48283L53.404 8.32194L55.5446 9.82661C55.3318 9.51047 54.5285 8.23751 54.789 6.56389C55.1628 4.16119 57.3879 3.12412 57.5589 3.04775C57.7509 3.22814 58.816 4.24871 59.1408 5.53472C59.3923 6.53349 59.1208 7.3858 59.1089 7.41376C59.1089 7.41376 59.1104 7.4103 59.1088 7.41483C59.1034 7.42713 59.0556 7.536 59.0577 7.53677C59.0598 7.53755 59.0577 7.53677 59.0579 7.5357C59.5091 6.79371 60.0654 6.12116 60.7092 5.53903C61.3305 4.97784 62.417 3.9966 63.9904 3.68331C66.2924 3.22452 68.1958 4.48081 68.6778 4.82002C68.6069 5.57337 68.2724 8.17969 66.357 9.37332C65.0824 10.1676 63.2979 10.2174 62.0046 10.254C61.0997 10.2794 60.1595 10.2521 60.2014 10.2549C60.817 10.2956 61.4295 10.3746 62.0353 10.4914C63.3281 10.7406 65.8873 11.1191 67.3247 12.979C67.6525 13.4032 68.4753 14.618 68.4056 16.7573C67.6926 17.2119 66.2973 17.9319 64.587 17.7544C63.0194 17.5916 61.9167 16.7506 60.7258 15.8419C59.9117 15.2205 59.1726 14.5064 58.5231 13.714C59.0457 14.4802 59.5147 15.2817 59.9268 16.1127C60.6165 17.5034 61.068 18.4135 61.1269 19.3734C61.2664 21.6479 59.1577 23.4804 58.4511 24.0466C57.5324 23.6648 55.6919 22.726 55.0583 20.8849C54.7351 19.9455 54.8056 19.0021 54.9242 17.4117C54.9934 16.4823 55.1279 15.5589 55.3267 14.6485C55.3269 14.647 55.327 14.6463 55.327 14.6462C55.3225 14.6437 55.255 14.7663 55.2337 14.8052L55.2274 14.8165C55.1991 14.8686 54.7766 15.46 54.2976 15.7998C53.8664 16.1056 52.9494 16.5196 51.6938 16.732C50.8215 14.9663 51.0661 12.939 52.2638 11.6818C53.4051 10.4834 54.9694 10.4505 55.3102 10.4512C54.4593 10.1284 53.6082 9.80565 52.7572 9.48283Z"/>
            <path d="M17.7073 24.407L45.2073 24.3984L45.7143 24.5961C45.9979 24.6992 46.3932 24.9398 46.6081 25.1289C46.8143 25.318 47.0893 25.6875 47.4417 26.418L47.4846 32.7344H51.0338C54.0503 32.7344 54.6432 32.7516 55.0471 32.8719C55.3049 32.9492 55.7518 33.1297 56.0354 33.2758C56.3362 33.4219 56.7745 33.757 57.0924 34.075C57.4534 34.4531 57.7198 34.8227 57.9174 35.2437C58.0807 35.5875 58.2526 36.0773 58.3042 36.318C58.3729 36.6273 58.3987 39.3 58.3987 44.7398C58.3987 52.1391 58.3901 52.7492 58.2526 53.1875C58.1495 53.4797 57.9518 53.8148 57.7026 54.0898C57.462 54.3477 57.1268 54.6055 56.8432 54.7344C56.4307 54.9148 56.2417 54.9406 53.7581 54.9922L53.6979 55.3617C53.6721 55.5594 53.5089 55.9891 53.337 56.3242C53.1565 56.6766 52.8385 57.1234 52.5549 57.3984C52.2971 57.6562 51.8503 57.9914 51.5667 58.1461C51.2831 58.2922 50.8018 58.4813 50.4924 58.5672C50.1831 58.6445 49.7362 58.7047 49.5042 58.7133C49.2635 58.7133 48.8081 58.6531 48.4729 58.5672C48.1378 58.4898 47.6393 58.2922 47.3557 58.1203C47.0721 57.957 46.6682 57.6562 46.462 57.4586C46.2557 57.2609 45.9464 56.8828 45.7745 56.625C45.6026 56.3672 45.3878 55.8945 45.1213 54.9922H28.9221L28.8276 55.4047C28.776 55.6281 28.6042 56.0578 28.4495 56.3672C28.2776 56.7023 27.9338 57.1406 27.6159 57.45C27.2721 57.7852 26.8682 58.0773 26.5159 58.2406C26.2065 58.3867 25.6479 58.5672 25.2698 58.6445C24.6424 58.7648 24.5221 58.7648 23.9378 58.6445C23.5854 58.5758 23.0096 58.3781 22.6659 58.2148C22.2792 58.0258 21.8753 57.7422 21.5745 57.4414C21.3167 57.1836 20.9987 56.7883 20.8612 56.5648C20.7323 56.3328 20.5432 55.9031 20.251 55.0352L18.9792 54.9836C17.9135 54.9492 17.6385 54.9062 17.2776 54.743C17.0456 54.6398 16.7018 54.4078 16.5213 54.2359C16.3409 54.0641 16.0831 53.7289 15.7307 53.0586L15.7049 39.7812C15.6878 28.3086 15.7049 26.4523 15.8167 26.1172C15.8854 25.9023 16.1088 25.5414 16.3065 25.3094C16.5471 25.0258 16.8565 24.8023 17.1917 24.6477L17.7073 24.407ZM17.312 26.1172C17.226 26.2375 17.1229 26.4352 17.0713 26.5641C17.0026 26.7273 16.9768 30.0273 16.9768 37.1602V47.5156H28.4924L28.5354 30.543C28.8276 29.9414 29.0768 29.5977 29.2831 29.4C29.4893 29.1937 29.8245 28.9445 30.0393 28.8414C30.4174 28.6523 30.4948 28.6523 35.1956 28.6266C39.2604 28.6094 40.0167 28.618 40.3088 28.7297C40.4979 28.7984 40.8159 28.9789 41.0135 29.1164C41.2198 29.2625 41.5034 29.5547 41.6409 29.7695C41.7784 29.9758 41.9588 30.3797 42.0276 30.6461C42.1393 31.0758 42.1565 32.3133 42.1565 39.2828V47.4297H46.0237C45.9807 26.7102 45.9807 26.5555 45.8088 26.3234C45.7143 26.1945 45.5253 26.0141 45.3964 25.9109L45.1557 25.7305C20.8526 25.6961 17.9909 25.7133 17.7503 25.7992C17.587 25.8594 17.3893 26.0055 17.312 26.1172ZM30.0737 30.3711C29.9706 30.5086 29.8417 30.7836 29.7901 30.9727C29.7299 31.2047 29.6956 33.8344 29.6956 39.3687V47.4297H40.6956L40.7042 30.8867C40.3948 30.4313 40.1971 30.2164 40.0682 30.1219C39.8276 29.9414 39.7417 29.9414 35.3417 29.9242C31.9042 29.907 30.787 29.9242 30.5549 30.0102C30.3917 30.0703 30.1768 30.2336 30.0737 30.3711ZM47.3987 47.4297H57.0237C56.9807 36.6875 56.9721 36.4555 56.8088 36.0688C56.7143 35.8453 56.5081 35.493 56.3534 35.2781C56.2073 35.0547 55.8979 34.7453 55.6659 34.582C55.4424 34.4187 55.0901 34.2211 54.8753 34.1352C54.5315 34.0063 54.0588 33.9805 50.9479 33.9547L47.4073 33.9289L47.3987 47.4297ZM16.9768 50.6266C16.9854 52.2594 17.0026 52.4914 17.1487 52.818C17.2432 53.0242 17.4495 53.2563 17.6042 53.3594C17.8534 53.5141 18.0081 53.5227 19.0823 53.5055L20.2768 53.4883C20.4315 52.8867 20.6034 52.457 20.7581 52.1562C20.9213 51.8469 21.2565 51.3828 21.5229 51.1164C21.8323 50.8156 22.2448 50.5148 22.6487 50.3172C23.001 50.1453 23.5081 49.9648 23.7659 49.9133C24.0237 49.8703 24.4362 49.8273 24.6682 49.8273C24.9088 49.8273 25.3299 49.8875 25.6135 49.9648C25.8971 50.0336 26.3268 50.1883 26.5588 50.3086C26.7995 50.4289 27.2034 50.7039 27.4612 50.9273C27.719 51.1508 28.0713 51.5719 28.2518 51.8555C28.4409 52.1391 28.6729 52.6289 28.776 52.9469L28.9651 53.5312H45.0784C45.2245 52.8953 45.4049 52.4398 45.5768 52.1133C45.7831 51.7437 46.0924 51.3398 46.4362 51.0219C46.737 50.7383 47.201 50.4117 47.5104 50.2742C47.8026 50.1367 48.2495 49.982 48.4987 49.9305C48.7479 49.8789 49.1518 49.8359 49.401 49.8359C49.6503 49.8359 50.0971 49.8961 50.4065 49.9648C50.7159 50.0422 51.1971 50.2227 51.4721 50.3773C51.7557 50.5234 52.194 50.85 52.4432 51.0992C52.6924 51.3484 53.0104 51.7352 53.1393 51.9586C53.2682 52.182 53.4573 52.6203 53.5604 52.9297L53.7495 53.4883C55.812 53.5227 56.1385 53.4969 56.3362 53.4023C56.4823 53.325 56.6799 53.1445 56.7917 52.9898C56.9721 52.7234 56.9807 52.6289 57.0065 50.7555L57.0237 48.8047H16.9768V50.6266ZM23.1299 51.5719C22.8463 51.7266 22.4854 52.0016 22.3221 52.1906C22.1588 52.3797 21.9268 52.7492 21.8065 53.007C21.6174 53.4023 21.5831 53.6086 21.5745 54.2102C21.5745 54.8633 21.6088 55.0094 21.8495 55.4992C22.0128 55.8344 22.2792 56.2125 22.537 56.4445C22.7604 56.6508 23.1385 56.9086 23.3792 57.0203C23.6112 57.1234 24.0237 57.2352 24.2815 57.2695C24.6081 57.3039 24.926 57.2781 25.3128 57.175C25.6221 57.0977 26.0604 56.9086 26.301 56.7453C26.5331 56.5906 26.8768 56.2555 27.0487 56.0062C27.2292 55.7484 27.4268 55.3703 27.5042 55.1555C27.5729 54.9406 27.6331 54.5109 27.6331 54.193C27.6331 53.832 27.5729 53.4367 27.4698 53.1617C27.3667 52.8867 27.1174 52.5086 26.8424 52.2078C26.5846 51.9156 26.1979 51.6148 25.9573 51.4945C25.7167 51.3742 25.3128 51.2539 25.0463 51.2195C24.7885 51.1852 24.3588 51.1852 24.101 51.2281C23.8518 51.2625 23.4049 51.4172 23.1299 51.5719ZM48.0432 51.4945C47.8026 51.6148 47.4159 51.9242 47.1581 52.2078C46.8831 52.5086 46.6338 52.8867 46.5307 53.1617C46.4276 53.4453 46.3674 53.832 46.3674 54.2102C46.3674 54.5969 46.4276 54.975 46.5307 55.2672C46.6253 55.5078 46.8229 55.8687 46.9776 56.0578C47.1237 56.2469 47.4073 56.5219 47.6049 56.668C47.794 56.8141 48.1464 57.0117 48.387 57.0977C48.6734 57.2065 49.0315 57.2609 49.4612 57.2609C49.9596 57.2523 50.2089 57.2094 50.5784 57.0375C50.8362 56.9172 51.2401 56.6508 51.4635 56.4445C51.7213 56.2125 51.9878 55.8344 52.151 55.4992C52.3917 55.0094 52.426 54.8633 52.426 54.2102C52.426 53.5914 52.3917 53.4109 52.194 53.007C52.0651 52.7492 51.8331 52.3797 51.6698 52.1906C51.5065 52.0016 51.1542 51.7266 50.8706 51.5719C50.5956 51.4258 50.1401 51.2711 49.8737 51.2281C49.6073 51.1852 49.1776 51.1852 48.9284 51.2195C48.6792 51.2539 48.2753 51.3742 48.0432 51.4945ZM38.3323 35.218C38.5643 35.218 38.676 35.2781 38.8049 35.4586C38.9081 35.5875 38.9854 35.7594 38.9768 35.8453C38.9768 35.9227 38.8823 36.1977 38.762 36.4469C38.6245 36.7391 38.5471 37.0398 38.5471 37.3234C38.5471 37.607 38.6245 37.9078 38.762 38.2086C38.8823 38.4492 38.9768 38.7414 38.9768 38.8531C38.9768 38.9563 38.8909 39.1281 38.7792 39.2398C38.676 39.343 38.4956 39.4375 38.3753 39.4375C38.2549 39.4375 38.0659 39.3602 37.9456 39.2742C37.8253 39.1883 37.6362 38.9047 37.5245 38.6469C37.3784 38.3289 37.301 37.968 37.2753 37.4953C37.2409 36.9367 37.2667 36.6961 37.4299 36.2062C37.5417 35.8797 37.7221 35.5188 37.8253 35.4156C37.9542 35.2867 38.126 35.218 38.3323 35.218ZM49.9338 35.9055C50.1229 35.9055 50.3034 35.9742 50.4065 36.0773C50.5698 36.2406 50.5784 36.3609 50.5784 40.8898H52.5721C54.4542 40.8813 54.5917 40.8984 54.8065 41.0617C54.9784 41.182 55.0471 41.3109 55.0471 41.5172C55.0557 41.6633 54.9784 41.8867 54.7206 42.2219H49.7362L49.2807 41.7922L49.2893 39.025C49.2893 36.3695 49.2979 36.2406 49.4612 36.0773C49.5643 35.9742 49.7448 35.9055 49.9338 35.9055Z"/>
        </g>
    </g>
</svg>
