<svg width="51" height="30" viewBox="0 0 51 30" fill="none" xmlns="http://www.w3.org/2000/svg">
<g clip-path="url(#clip0_849_17385)">
<path d="M48.2674 1.87306H11.8188V0H5.21443V1.87306H2.7378C2.1443 1.87306 1.5751 2.10737 1.15544 2.52444C0.735767 2.94151 0.5 3.50718 0.5 4.09701L0.5 27.7812C0.499999 28.073 0.557919 28.362 0.670442 28.6315C0.782966 28.901 0.947883 29.1459 1.15575 29.352C1.36362 29.5581 1.61035 29.7214 1.88182 29.8326C2.15329 29.9438 2.44417 30.0007 2.7378 30H48.2674C48.561 30.0007 48.8519 29.9438 49.1234 29.8326C49.3948 29.7214 49.6416 29.5581 49.8494 29.352C50.0573 29.1459 50.2222 28.901 50.3347 28.6315C50.4473 28.362 50.5052 28.073 50.5052 27.7812V4.09701C50.5052 3.50718 50.2694 2.94151 49.8498 2.52444C49.4301 2.10737 48.8609 1.87306 48.2674 1.87306ZM25.5 26.2487C23.4462 26.2487 21.4385 25.6435 19.7308 24.5095C18.0232 23.3755 16.6922 21.7638 15.9062 19.8781C15.1203 17.9923 14.9146 15.9173 15.3153 13.9155C15.716 11.9136 16.705 10.0748 18.1572 8.63151C19.6095 7.18824 21.4598 6.20537 23.4741 5.80717C25.4885 5.40897 27.5764 5.61334 29.4739 6.39443C31.3713 7.17552 32.9931 8.49825 34.1342 10.1954C35.2752 11.8925 35.8842 13.8877 35.8842 15.9288C35.8842 17.284 35.6156 18.626 35.0938 19.8781C34.5719 21.1301 33.807 22.2678 32.8427 23.2261C31.8785 24.1844 30.7337 24.9445 29.4739 25.4632C28.214 25.9818 26.8637 26.2487 25.5 26.2487ZM46.2684 7.03302H40.121V4.22085H46.2529L46.2684 7.03302Z" fill="#A7D8B6"/>
</g>
<defs>
<clipPath id="clip0_849_17385">
<rect width="50" height="30" fill="white" transform="translate(0.5)"/>
</clipPath>
</defs>
</svg>
