<svg width="50" height="40" viewBox="0 0 50 40" fill="none" xmlns="http://www.w3.org/2000/svg">
<path d="M40 40C45.5228 40 50 33.5647 50 25.6263C50 17.6878 45.5228 11.2525 40 11.2525C34.4772 11.2525 30 17.6878 30 25.6263C30 33.5647 34.4772 40 40 40Z" fill="#A7D8B6"/>
<path d="M39.9781 9.24394C40.9063 9.24394 41.8136 8.97287 42.5853 8.465C43.3571 7.95713 43.9586 7.23528 44.3138 6.39072C44.669 5.54617 44.7619 4.61684 44.5808 3.72027C44.3998 2.8237 43.9528 2.00014 43.2965 1.35375C42.6402 0.707351 41.804 0.267152 40.8936 0.0888119C39.9833 -0.0895278 39.0397 0.00200261 38.1822 0.351828C37.3247 0.701654 36.5917 1.29406 36.0761 2.05414C35.5604 2.81422 35.2852 3.70783 35.2852 4.62197C35.2852 5.84779 35.7796 7.02341 36.6597 7.8902C37.5398 8.75698 38.7334 9.24394 39.9781 9.24394Z" fill="#A7D8B6"/>
<path d="M13.2677 11.2582C5.93861 11.2582 2.77764e-05 19.4465 2.77764e-05 29.552C-0.00235806 31.1451 0.148959 32.7347 0.45194 34.2995H5.29551C7.12054 37.7632 10.0116 40.0057 13.2677 40.0057C16.5238 40.0057 19.4149 37.7689 21.2399 34.2995H26.0719C26.37 32.7341 26.5194 31.1448 26.518 29.552C26.5296 19.4465 20.591 11.2582 13.2677 11.2582Z" fill="#A7D8B6"/>
<path d="M13.2671 9.24394C14.1953 9.24394 15.1027 8.97287 15.8744 8.465C16.6462 7.95713 17.2477 7.23528 17.6029 6.39072C17.9581 5.54617 18.051 4.61684 17.8699 3.72027C17.6888 2.8237 17.2419 2.00014 16.5856 1.35375C15.9292 0.707351 15.093 0.267152 14.1827 0.0888119C13.2724 -0.0895278 12.3288 0.00200261 11.4712 0.351828C10.6137 0.701654 9.88079 1.29406 9.36512 2.05414C8.84945 2.81422 8.57422 3.70783 8.57422 4.62197C8.57422 5.84779 9.06865 7.02341 9.94875 7.8902C10.8288 8.75698 12.0225 9.24394 13.2671 9.24394Z" fill="#A7D8B6"/>
</svg>
