<svg width="31" height="48" viewBox="0 0 31 48" fill="none" xmlns="http://www.w3.org/2000/svg">
<g clip-path="url(#clip0_849_17407)">
<path d="M29.411 26.3723C28.705 25.152 27.7306 24.1202 26.5665 23.3601C25.3634 22.5808 24.0689 21.9629 22.7142 21.5215C21.468 21.1079 20.2165 20.767 18.954 20.4764V13.4852C19.6709 13.5979 20.3816 13.749 21.0833 13.9378C22.7959 14.4234 24.4431 15.1274 25.9867 16.0335L28.9558 8.57841C27.1546 7.47314 25.1938 6.67135 23.1476 6.20328C21.7708 5.87653 20.3729 5.65241 18.9649 5.53266V0H13.005V5.61649C11.2458 5.80782 9.52496 6.27324 7.90112 6.99686C5.85774 7.86367 4.09655 9.31384 2.82436 11.1771C1.71355 12.8809 1.12807 14.8913 1.14475 16.9445C1.0906 18.599 1.46462 20.2386 2.22837 21.6947C2.91326 22.9286 3.87122 23.9779 5.02411 24.7572C6.2237 25.5644 7.52303 26.2016 8.88721 26.6518C10.2535 27.102 11.6426 27.4751 13.0483 27.7695V34.5819C11.7113 34.4308 10.392 34.1444 9.10935 33.7269C7.22104 33.1283 5.41614 32.2792 3.74002 31.2008L0.5 38.7063C2.45954 39.9869 4.60781 40.9307 6.86084 41.5005C8.87727 42.0577 10.9429 42.4041 13.0266 42.5344V48.0112H18.9865V42.3276C20.6068 42.1168 22.1901 41.6709 23.6895 41.0031C25.7505 40.1278 27.528 38.6665 28.815 36.7894C29.9355 35.0972 30.5307 33.0936 30.5217 31.0444C30.5721 29.4116 30.188 27.7958 29.411 26.3723ZM13.0266 18.934C12.6324 18.7779 12.2502 18.591 11.8834 18.3751C11.551 18.1873 11.2745 17.9096 11.0836 17.5719C10.8926 17.2342 10.7945 16.8492 10.7998 16.4583C10.8046 15.8988 10.9959 15.3581 11.3416 14.927C11.796 14.4054 12.378 14.0193 13.0266 13.8093V18.934ZM20.2273 33.3468C19.8757 33.724 19.4433 34.0111 18.9649 34.1851V29.4963C19.2201 29.6145 19.468 29.7489 19.7072 29.8987C20.0353 30.0773 20.3098 30.3451 20.5008 30.6732C20.6918 31.0013 20.7921 31.377 20.7908 31.7597C20.8027 32.3429 20.6015 32.9094 20.2273 33.3468Z" fill="#A7D8B6"/>
</g>
<defs>
<clipPath id="clip0_849_17407">
<rect width="30" height="48" fill="white" transform="translate(0.5)"/>
</clipPath>
</defs>
</svg>
