<svg width="45" height="32" viewBox="0 0 45 32" fill="none" xmlns="http://www.w3.org/2000/svg">
<path d="M44.5407 13.2965C44.3328 12.959 44.0596 12.6653 43.7368 12.4321C43.4139 12.199 43.0477 12.0309 42.6591 11.9377C42.2705 11.8444 41.8671 11.8277 41.472 11.8885C41.0769 11.9493 40.6977 12.0865 40.3563 12.2922C39.729 12.7058 39.2558 13.3107 39.0088 14.0148L39.1506 13.6528C38.3817 15.5296 37.3897 17.3095 36.1955 18.9549C35.1523 20.2961 33.9631 21.52 32.6494 22.6046C31.56 23.4232 30.3875 24.1277 29.1506 24.7068C27.8687 25.2233 26.5327 25.5973 25.1672 25.8221C23.6485 26.0012 22.1147 26.0168 20.5927 25.8688C19.0417 25.6414 17.5199 25.2499 16.0537 24.7009C14.7519 24.1518 13.5102 23.4729 12.348 22.6747C11.9757 22.3944 11.6033 22.0907 11.2487 21.7987C10.0667 20.7593 8.05722 20.6309 6.9402 21.8863C5.82318 23.1418 5.75817 25.0279 7.03477 26.1433C9.85807 28.5832 13.2241 30.3308 16.8594 31.244C20.4947 32.1571 24.2968 32.2102 27.9567 31.3987C34.2274 30.0148 39.2511 25.6936 42.5549 20.3856C43.4958 18.8718 44.2875 17.2723 44.9189 15.609C45.0156 15.2181 45.032 14.8121 44.967 14.4149C44.9021 14.0177 44.7571 13.6374 44.5407 13.2965Z" fill="#A7D8B6"/>
<path d="M7.20444 12.4557C7.0059 11.7657 6.6047 11.1494 6.05158 10.6847C5.49846 10.22 4.81828 9.92788 4.09709 9.84521C3.37589 9.76254 2.64608 9.89307 1.99998 10.2203C1.35388 10.5475 0.820512 11.0567 0.467357 11.6834C0.114202 12.3102 -0.042876 13.0264 0.0159933 13.7414C0.0748627 14.4563 0.347034 15.138 0.798079 15.7001C1.24912 16.2622 1.85877 16.6796 2.54991 16.8993C3.24104 17.119 3.98261 17.1313 4.6808 16.9345C5.61634 16.6709 6.40767 16.051 6.88089 15.2112C7.3541 14.3714 7.47047 13.3803 7.20444 12.4557Z" fill="#A7D8B6"/>
<path d="M41.8082 7.11841C42.506 6.92127 43.1289 6.52417 43.5983 5.9773C44.0677 5.43044 44.3624 4.75836 44.4453 4.04601C44.5282 3.33367 44.3955 2.61304 44.0639 1.9752C43.7324 1.33737 43.2169 0.810973 42.5826 0.462542C41.9483 0.114111 41.2237 -0.0407101 40.5004 0.0176474C39.7771 0.0760049 39.0875 0.344922 38.5189 0.790407C37.9502 1.23589 37.528 1.83795 37.3055 2.52047C37.0831 3.203 37.0705 3.93536 37.2692 4.62498C37.4013 5.08332 37.6235 5.51144 37.9232 5.88486C38.2229 6.25828 38.5941 6.56967 39.0156 6.80125C39.4372 7.03282 39.9008 7.18003 40.38 7.23445C40.8592 7.28887 41.3445 7.24944 41.8082 7.11841Z" fill="#A7D8B6"/>
</svg>
