<svg width="34" height="34" viewBox="0 0 34 34" fill="none" xmlns="http://www.w3.org/2000/svg">
<g clip-path="url(#clip0_517_12387)">
<path d="M32.4541 17.1426V12.364C32.4541 10.7436 31.1972 9.4258 29.6092 9.29801L25.1714 1.54672C24.7602 0.829834 24.0961 0.317451 23.3015 0.104689C22.5106 -0.106624 21.6836 0.00435708 20.9758 0.416335L5.76276 9.27309H3.09088C1.38625 9.27309 0 10.6593 0 12.364V30.9091C0 32.6138 1.38618 34 3.09088 34H29.3632C31.0678 34 32.4541 32.6138 32.4541 30.9091V26.1305C33.3516 25.8104 33.9995 24.9608 33.9995 23.9547V19.3184C33.9995 18.3123 33.3516 17.4627 32.4541 17.1426ZM27.8135 9.27309H21.0784L26.1298 6.33224L27.8135 9.27309ZM25.3619 4.99112L18.007 9.27309H14.9562L24.5991 3.65884L25.3619 4.99112ZM21.7538 1.75195C22.1031 1.54744 22.5114 1.49311 22.9015 1.59728C23.2962 1.7029 23.6252 1.95797 23.8297 2.31489L23.8313 2.31772L11.8849 9.27309H8.8343L21.7538 1.75195ZM30.9086 30.9091C30.9086 31.761 30.2151 32.4545 29.3632 32.4545H3.09088C2.23896 32.4545 1.54548 31.761 1.54548 30.9091V12.364C1.54548 11.5121 2.23896 10.8186 3.09088 10.8186H29.3632C30.2151 10.8186 30.9086 11.5121 30.9086 12.364V17.0003H26.2723C23.7157 17.0003 21.636 19.0799 21.636 21.6366C21.636 24.1932 23.7157 26.2728 26.2723 26.2728H30.9086V30.9091ZM32.4541 23.9547C32.4541 24.381 32.1077 24.7274 31.6813 24.7274H26.2723C24.5677 24.7274 23.1814 23.3413 23.1814 21.6366C23.1814 19.9319 24.5676 18.5457 26.2723 18.5457H31.6813C32.1077 18.5457 32.4541 18.892 32.4541 19.3184V23.9547Z" fill="black"/>
<path d="M26.272 20.0911C25.4201 20.0911 24.7266 20.7846 24.7266 21.6365C24.7266 22.4885 25.4201 23.1819 26.272 23.1819C27.1239 23.1819 27.8174 22.4885 27.8174 21.6365C27.8174 20.7846 27.124 20.0911 26.272 20.0911Z" fill="black"/>
</g>
<defs>
<clipPath id="clip0_517_12387">
<rect width="34" height="34" fill="white"/>
</clipPath>
</defs>
</svg>
